<?xml version="1.0" encoding="UTF-8"?>
<!DOCTYPE svg PUBLIC "-//W3C//DTD SVG 1.1//EN" "http://www.w3.org/Graphics/SVG/1.1/DTD/svg11.dtd">
<!-- Creator: CorelDRAW 2019 (64 Bit) -->
<svg xmlns="http://www.w3.org/2000/svg" xml:space="preserve" width="40.2566mm" height="30mm" version="1.1" style="shape-rendering:geometricPrecision; text-rendering:geometricPrecision; image-rendering:optimizeQuality; fill-rule:evenodd; clip-rule:evenodd"
viewBox="0 0 124.68 92.92"
 xmlns:xlink="http://www.w3.org/1999/xlink">
 <defs>
  <style type="text/css">
   <![CDATA[
    .fil4 {fill:#FEFEFE;fill-rule:nonzero}
    .fil27 {fill:#F48880;fill-rule:nonzero}
    .fil26 {fill:#F16667;fill-rule:nonzero}
    .fil6 {fill:#F7F7F6;fill-rule:nonzero}
    .fil10 {fill:#F3F4F4;fill-rule:nonzero}
    .fil30 {fill:#EA7A6D;fill-rule:nonzero}
    .fil2 {fill:#EFEFEF;fill-rule:nonzero}
    .fil9 {fill:#EAECEB;fill-rule:nonzero}
    .fil1 {fill:#EAEAE9;fill-rule:nonzero}
    .fil32 {fill:#E4ECF7;fill-rule:nonzero}
    .fil0 {fill:#E5E6E5;fill-rule:nonzero}
    .fil13 {fill:#E1EBF7;fill-rule:nonzero}
    .fil3 {fill:#E0E1E0;fill-rule:nonzero}
    .fil14 {fill:#D9E4F4;fill-rule:nonzero}
    .fil5 {fill:#D9DAD9;fill-rule:nonzero}
    .fil16 {fill:#D2DDEC;fill-rule:nonzero}
    .fil15 {fill:#C5D0DD;fill-rule:nonzero}
    .fil29 {fill:#C2C4C4;fill-rule:nonzero}
    .fil31 {fill:#B4D0EC;fill-rule:nonzero}
    .fil12 {fill:#A0C2E6;fill-rule:nonzero}
    .fil19 {fill:#9ABDE3;fill-rule:nonzero}
    .fil20 {fill:#98BAE2;fill-rule:nonzero}
    .fil18 {fill:#92BBE3;fill-rule:nonzero}
    .fil17 {fill:#8EB6E1;fill-rule:nonzero}
    .fil21 {fill:#8BB4DF;fill-rule:nonzero}
    .fil22 {fill:#8CB2DE;fill-rule:nonzero}
    .fil23 {fill:#83ADDB;fill-rule:nonzero}
    .fil24 {fill:#7AA8D9;fill-rule:nonzero}
    .fil8 {fill:#6C9CD2;fill-rule:nonzero}
    .fil7 {fill:#3F79BC;fill-rule:nonzero}
    .fil28 {fill:#346FB5;fill-rule:nonzero}
    .fil11 {fill:#2C3C43;fill-rule:nonzero}
    .fil25 {fill:#2867B0;fill-rule:nonzero}
   ]]>
  </style>
 </defs>
 <g id="Camada_x0020_1">
  <metadata id="CorelCorpID_0Corel-Layer"/>
  <g id="_1486708944064">
   <polygon class="fil0" points="-0,81.72 124.68,81.72 124.68,81.65 -0,81.65 "/>
   <path class="fil0" d="M10.95 0.06c-0.75,0 -1.36,0.61 -1.36,1.36l0 67.69c0,0.75 0.61,1.36 1.36,1.36l48.15 0c0.75,0 1.36,-0.61 1.36,-1.36l0 -67.69c0,-0.75 -0.61,-1.36 -1.36,-1.36l-48.15 0zm48.15 70.47l-48.15 0c-0.78,0 -1.42,-0.64 -1.42,-1.42l0 -67.69c0,-0.78 0.64,-1.42 1.42,-1.42l48.15 0c0.78,0 1.42,0.64 1.42,1.42l0 67.69c0,0.78 -0.64,1.42 -1.42,1.42z"/>
   <path class="fil0" d="M64.89 0.06c-0.75,0 -1.36,0.61 -1.36,1.36l0 67.69c0,0.75 0.61,1.36 1.36,1.36l48.15 0c0.75,0 1.36,-0.61 1.36,-1.36l0 -67.69c0,-0.75 -0.61,-1.36 -1.36,-1.36l-48.15 0zm48.15 70.47l-48.15 0c-0.78,0 -1.42,-0.64 -1.42,-1.42l0 -67.69c0,-0.78 0.64,-1.42 1.42,-1.42l48.15 0c0.78,0 1.42,0.64 1.42,1.42l0 67.69c0,0.78 -0.64,1.42 -1.42,1.42z"/>
   <polygon class="fil0" points="43.5,84.09 49.98,84.09 49.98,84.03 43.5,84.03 "/>
   <polygon class="fil0" points="13.08,83.41 26.57,83.41 26.57,83.35 13.08,83.35 "/>
   <polygon class="fil0" points="36.69,86.41 43.25,86.41 43.25,86.34 36.69,86.34 "/>
   <polygon class="fil0" points="64.39,85.99 74.08,85.99 74.08,85.93 64.39,85.93 "/>
   <polygon class="fil0" points="76.3,85.99 78.96,85.99 78.96,85.93 76.3,85.93 "/>
   <polygon class="fil0" points="98.59,84.93 112.19,84.93 112.19,84.87 98.59,84.87 "/>
   <polygon class="fil1" points="95.02,79.44 106.41,79.44 106.41,48.15 95.02,48.15 "/>
   <polygon class="fil1" points="45.32,81.65 104.22,81.65 104.22,79.44 45.32,79.44 "/>
   <polygon class="fil2" points="43.13,79.44 95.02,79.44 95.02,48.15 43.13,48.15 "/>
   <polygon class="fil1" points="43.13,61.72 95.22,61.72 95.22,50.27 43.13,50.27 "/>
   <polygon class="fil1" points="43.13,75.26 95.22,75.26 95.22,63.81 43.13,63.81 "/>
   <polygon class="fil3" points="95.02,61.72 96.99,61.72 96.99,50.27 95.02,50.27 "/>
   <polygon class="fil3" points="95.02,75.26 96.99,75.26 96.99,63.81 95.02,63.81 "/>
   <polygon class="fil1" points="41.62,48.15 95.02,48.15 95.02,46.23 41.62,46.23 "/>
   <polygon class="fil3" points="95.02,48.15 108,48.15 108,46.23 95.02,46.23 "/>
   <polygon class="fil1" points="81.83,40.34 108.62,40.34 108.62,6.67 81.83,6.67 "/>
   <polygon class="fil2" points="75.91,40.34 107.59,40.34 107.59,6.67 75.91,6.67 "/>
   <polygon class="fil4" points="78.57,37.69 104.94,37.69 104.94,9.32 78.57,9.32 "/>
   <polygon class="fil3" points="94.67,26.57 99.71,24.24 99.71,22.77 94.67,20.43 94.67,22.19 97.73,23.51 94.67,24.83 "/>
   <polygon class="fil3" points="91.39,19.75 90.46,19.75 92.1,27.26 93.01,27.26 "/>
   <polygon class="fil3" points="88.83,24.83 85.77,23.51 88.83,22.19 88.83,20.43 83.79,22.77 83.79,24.24 88.83,26.57 "/>
   <polygon class="fil1" points="29.23,81.65 30.98,81.65 30.98,24.5 29.23,24.5 "/>
   <path class="fil1" d="M28.86 81.26l-0.05 -0.24c0.02,-0 0.48,-0.11 0.83,-0.73 0.46,-0.81 0.73,-2.53 -0.54,-6.14 -1.96,-5.56 -0.79,-10.05 1.54,-19 0.41,-1.56 0.86,-3.32 1.34,-5.23 1.79,-7.15 0.13,-11.58 -1.19,-15.15 -1.03,-2.77 -1.85,-4.95 -0.8,-7.48l0.23 0.1c-1,2.44 -0.21,4.58 0.81,7.3 1.34,3.6 3.01,8.07 1.2,15.29 -0.48,1.91 -0.94,3.68 -1.34,5.23 -2.31,8.9 -3.47,13.36 -1.54,18.86 1.31,3.71 1,5.51 0.51,6.36 -0.41,0.71 -0.97,0.83 -0.99,0.84z"/>
   <polygon class="fil1" points="26.93,81.65 33.28,81.65 31.52,80.61 28.7,80.61 "/>
   <polygon class="fil2" points="17.53,31.78 42.68,31.78 39.91,10.65 20.3,10.65 "/>
   <polygon class="fil1" points="54.83,35.27 68.26,35.27 66.49,46.23 56.6,46.23 "/>
   <path class="fil5" d="M60.22 38.83c3.66,-1.32 6.47,-3.31 3.33,-7.34 -3.14,-4.03 -8,-4.01 -11.27,-2.23 -4.18,2.27 -3.34,8.84 -3.34,8.84 0,0 7.62,2.05 11.28,0.73z"/>
   <path class="fil3" d="M63.78 35.16c-2.8,-1.91 -4.79,-4.11 -1.54,-6.44 3.25,-2.33 7.26,-1.13 9.66,1.03 3.07,2.76 1.3,7.6 1.3,7.6 0,0 -6.63,-0.28 -9.43,-2.18z"/>
   <path class="fil1" d="M58.85 30.33c3.28,-0.2 6.02,-1.05 4.47,-4.6 -1.55,-3.55 -5.48,-4.54 -8.56,-3.93 -3.92,0.77 -4.85,5.68 -4.85,5.68 0,0 5.65,3.05 8.93,2.85z"/>
   <path class="fil0" d="M62.96 28.24c-2.73,-0.88 -4.86,-2.19 -2.78,-4.86 2.08,-2.66 5.61,-2.65 8.08,-1.47 3.15,1.5 2.87,5.85 2.87,5.85 0,0 -5.44,1.36 -8.16,0.48z"/>
   <path class="fil2" d="M57.86 23.69c2.72,0.9 5.22,1.09 5.11,-2.29 -0.11,-3.38 -2.97,-5.45 -5.66,-5.95 -3.43,-0.64 -5.76,3.04 -5.76,3.04 0,0 3.59,4.3 6.31,5.19z"/>
   <path class="fil6" d="M64.76 22.24c-1.95,0.13 -3.63,-0.16 -2.99,-2.37 0.64,-2.21 2.88,-3.09 4.74,-2.97 2.37,0.16 3.29,2.98 3.29,2.98 0,0 -3.1,2.23 -5.05,2.36z"/>
   <path class="fil2" d="M110.69 90.09c0,1.56 -21.65,2.82 -48.35,2.82 -26.7,0 -48.35,-1.26 -48.35,-2.82 0,-1.56 21.65,-2.82 48.35,-2.82 26.7,0 48.35,1.26 48.35,2.82z"/>
   <polygon class="fil7" points="19.83,51.95 104.55,51.95 104.55,48.91 19.83,48.91 "/>
   <polygon class="fil8" points="42.5,51.95 19.83,51.95 19.83,48.91 41.89,48.91 42.5,48.91 "/>
   <polygon class="fil7" points="42.86,51.95 40.89,51.95 41.92,90.05 43.8,90.05 44.84,51.95 "/>
   <polygon class="fil8" points="42.86,90.05 41.92,90.05 40.92,53.12 42.86,52.77 "/>
   <polygon class="fil7" points="24.17,51.95 22.19,51.95 23.23,90.05 25.11,90.05 26.14,51.95 "/>
   <polygon class="fil8" points="24.17,90.05 23.23,90.05 22.23,53.12 24.17,52.77 "/>
   <polygon class="fil7" points="100.21,51.95 98.24,51.95 99.27,90.05 101.15,90.05 102.18,51.95 "/>
   <path class="fil4" d="M99.22 88.27l0 0 -0.09 -3.33 0 0 0.09 3.33zm-0.09 -3.39l0 0 -0.09 -3.16 0 0 0.09 3.16z"/>
   <polygon class="fil9" points="99.04,81.72 99.04,81.72 99.04,81.65 99.04,81.65 "/>
   <polygon class="fil9" points="99.13,84.93 99.13,84.93 99.13,84.87 99.13,84.87 "/>
   <polygon class="fil2" points="98.98,79.44 98.98,79.44 98.27,53.12 "/>
   <polygon class="fil2" points="99.04,81.65 99.04,81.65 98.98,79.44 98.98,79.44 "/>
   <polygon class="fil10" points="100.21,90.05 99.27,90.05 99.22,88.27 99.22,88.27 99.27,90.05 "/>
   <polygon class="fil8" points="100.21,90.05 99.27,90.05 99.22,88.27 99.13,84.93 99.13,84.87 99.04,81.72 99.04,81.65 98.98,79.44 98.27,53.12 100.21,52.77 "/>
   <polygon class="fil7" points="81.51,51.95 79.54,51.95 80.57,90.05 82.45,90.05 83.49,51.95 "/>
   <polygon class="fil4" points="80.5,87.47 80.5,87.47 80.35,81.72 80.35,81.72 "/>
   <polygon class="fil9" points="80.35,81.72 80.35,81.72 80.35,81.65 80.35,81.65 "/>
   <polygon class="fil2" points="80.35,81.65 80.35,81.65 80.29,79.44 80.29,79.44 "/>
   <path class="fil10" d="M80.29 79.44l0 0 -0.11 -4.18 0 0 0.11 4.18zm-0.42 -15.63l0 0 -0.03 -0.95 0 0 0.03 0.95z"/>
   <polygon class="fil2" points="80.17,75.26 80.17,75.26 79.86,63.81 79.86,63.81 "/>
   <polygon class="fil10" points="81.51,90.05 80.57,90.05 80.5,87.47 80.5,87.47 80.57,90.05 "/>
   <path class="fil8" d="M81.51 90.05l-0.94 0 -0.07 -2.57 -0.16 -5.76 -0 -0.06 -0.06 -2.21 -0.11 -4.18 -0.31 -11.45 -0.03 -0.95c0.59,-0.12 1.16,-0.28 1.68,-0.48l0 27.67z"/>
   <path class="fil11" d="M60.04 32.64l-20.16 0c-0.72,0 -1.19,0.59 -1.04,1.32l2.68 12.8c0.15,0.72 0.87,1.32 1.59,1.32l20.16 0c0.72,0 1.19,-0.59 1.04,-1.32l-2.68 -12.8c-0.15,-0.72 -0.87,-1.32 -1.59,-1.32z"/>
   <path class="fil4" d="M43.31 47.34c-0.47,0 -0.98,-0.42 -1.08,-0.9l-2.68 -12.81c-0.04,-0.2 -0.01,-0.37 0.09,-0.5 0.1,-0.12 0.25,-0.18 0.43,-0.18l20.16 0c0.47,0 0.98,0.42 1.08,0.9l2.68 12.8c0.04,0.2 0.01,0.38 -0.09,0.5 -0.1,0.12 -0.25,0.18 -0.43,0.18l-20.16 0z"/>
   <path class="fil12" d="M62.27 46.71l-3.27 0c-0.23,0 -0.44,-0.16 -0.48,-0.39l-2.54 -12.13c-0.06,-0.31 0.17,-0.6 0.48,-0.6l3.27 0c0.23,0 0.44,0.16 0.48,0.39l2.54 12.13c0.06,0.31 -0.17,0.6 -0.48,0.6z"/>
   <polygon class="fil7" points="41.23,34.64 41.12,34.12 45.15,34.12 45.27,34.64 "/>
   <polygon class="fil0" points="43.09,35.95 42.98,35.42 50.06,35.42 50.17,35.95 "/>
   <polygon class="fil0" points="43.46,37.25 43.35,36.73 51.29,36.73 51.4,37.25 "/>
   <polygon class="fil0" points="43.84,38.56 43.73,38.03 50.12,38.03 50.23,38.56 "/>
   <polygon class="fil7" points="42.45,40.68 42.34,40.15 44.9,40.15 45.01,40.68 "/>
   <polygon class="fil0" points="44.32,41.98 44.21,41.45 47.32,41.45 47.43,41.98 "/>
   <polygon class="fil0" points="48.18,41.98 48.07,41.45 51.18,41.45 51.29,41.98 "/>
   <polygon class="fil0" points="44.69,43.29 44.58,42.76 55.1,42.76 55.21,43.29 "/>
   <polygon class="fil0" points="45.06,44.59 44.95,44.07 52.98,44.07 53.09,44.59 "/>
   <path class="fil11" d="M69.45 48l-26.52 0c-0.72,0 -1.19,0.41 -1.04,0.91l29.15 0c-0.15,-0.5 -0.87,-0.91 -1.59,-0.91z"/>
   <path class="fil13" d="M50.29 29.79l-7.87 0 -0.18 -1.4 3.2 0 -0.1 -0.46 -3.16 0 -0.04 -0.28 2.04 0 -0.1 -0.47 -2.01 0 -0.04 -0.28 5.02 0 -0.1 -0.47 -4.98 0 -0.19 -1.48 4.08 0 -0.1 -0.47 -4.04 0 -0.04 -0.28 0.28 0 -0.1 -0.46 -0.24 0 -0.04 -0.28 4.75 0 -0.1 -0.47 -4.71 0 -0.04 -0.28 5.27 0 -0.1 -0.46 -5.24 0 -0.04 -0.28 1.32 0 -0.1 -0.47 -1.29 0 -0.04 -0.28 4.58 0 -0.1 -0.47 -4.54 0 -0.19 -1.48 3.12 0 -0.1 -0.47 -3.09 0 -0.04 -0.28 3.94 0 -0.1 -0.47 -3.9 0 -0.19 -1.42 12.05 0c0.12,0 0.24,0.04 0.32,0.12 -0.97,0.83 -1.53,1.71 -1.53,1.71 0,0 0.23,0.27 0.61,0.69l-1.27 0 0.1 0.47 1.6 0c0.08,0.09 0.17,0.18 0.26,0.28l-1.81 0 0.1 0.47 2.17 0c0.25,0.24 0.51,0.5 0.79,0.75l0.16 0.78c-0.4,0.12 -0.76,0.29 -1.09,0.49l-1.97 0 0.1 0.47 1.22 0c-0.11,0.09 -0.21,0.18 -0.31,0.28l-3.29 0 0.1 0.47 2.76 0c-0.08,0.09 -0.15,0.18 -0.22,0.28l-2.48 0 0.1 0.46 2.05 0c-0.33,0.51 -0.58,1.02 -0.77,1.48l-0.97 0 0.1 0.47 0.7 0c-0.03,0.1 -0.07,0.19 -0.09,0.28l-0.54 0 0.1 0.47 0.31 0c-0.03,0.11 -0.05,0.21 -0.07,0.28l-0.18 0 0.1 0.47 0.67 0c0.16,0.08 0.35,0.17 0.57,0.28l-1.18 0 0.1 0.47 2.09 0c0.2,0.09 0.42,0.18 0.64,0.28l-0.49 0 0.08 0.41c-0.03,0.01 -0.05,0.03 -0.08,0.04 -0.17,0.09 -0.33,0.19 -0.48,0.29l-1.56 0 0.05 0.23zm-0.2 -0.98l0.1 0.47 1.92 0 -0.1 -0.47 -1.92 0zm-5.79 -1.64l0.1 0.47 3.03 0 -0.1 -0.47 -3.03 0zm-2.22 -3.43l0.1 0.46 2.19 0 -0.1 -0.46 -2.19 0zm8.94 -0.87l0 0 -0.1 -0.47 -2.17 0 0.1 0.47 2.17 0zm-8.16 -1.36l0.1 0.47 2.75 0 -0.1 -0.47 -2.75 0zm0.86 -3.71l0 0 -0.1 -0.46 -2.67 0 0.1 0.46 2.67 0z"/>
   <path class="fil14" d="M42.42 29.79l-2.5 0 -0.08 -0.4 -3.8 0 0.08 0.4 -0.27 0 -0.08 -0.4 -1.56 0 -0.06 -0.28 5.36 0 -0.1 -0.46 -5.36 0 -2.39 -11.38c-0.06,-0.31 0.17,-0.6 0.48,-0.6l8.55 0 0.19 1.42 -1.73 0 0.1 0.47 1.7 0 0.04 0.28 -1.67 0 0.1 0.47 1.64 0 0.19 1.48 -1.52 0 0.1 0.47 1.49 0 0.04 0.28 -1.46 0 0.1 0.47 1.43 0 0.04 0.28 -1.41 0 0.1 0.46 1.37 0 0.04 0.28 -1.35 0 0.1 0.47 1.31 0 0.04 0.28 -1.29 0 0.1 0.46 1.26 0 0.04 0.28 -1.24 0 0.1 0.47 1.2 0 0.19 1.48 -1.08 0 0.1 0.47 1.05 0 0.04 0.28 -1.03 0 0.1 0.47 0.99 0 0.04 0.28 -0.97 0 0.1 0.46 0.93 0 0.18 1.4zm-1.59 -11.98l0 0 -0.1 -0.46 -1.74 0 0.1 0.46 1.74 0z"/>
   <path class="fil15" d="M54.71 29.56l-2.91 0c0.15,-0.1 0.31,-0.2 0.48,-0.29 0.03,-0.01 0.05,-0.03 0.08,-0.04l0.01 0.06 1.56 0c0.25,0.1 0.51,0.19 0.78,0.28z"/>
   <path class="fil16" d="M55.72 29.56l-1.01 0c-0.26,-0.09 -0.52,-0.18 -0.78,-0.28l1.18 0 -0.1 -0.47 -2.25 0c-0.22,-0.09 -0.44,-0.19 -0.64,-0.28l3.52 0 0.14 0.66c0.03,0.13 0,0.26 -0.06,0.36zm-0.17 -1.48l-4.44 0c-0.21,-0.1 -0.4,-0.2 -0.57,-0.28l4.94 0 0.06 0.28zm-0.16 -0.74l-5.43 0c0.02,-0.07 0.04,-0.16 0.07,-0.28l3.14 0 -0.1 -0.47 -2.9 0c0.03,-0.09 0.06,-0.18 0.09,-0.28l4.92 0 0.06 0.28 -1.87 0 0.1 0.47 1.87 0 0.06 0.28zm-0.31 -1.48l-4.64 0c0.19,-0.46 0.44,-0.98 0.77,-1.48l3.56 0 0.31 1.48zm-0.41 -1.95l-3.13 0c0.07,-0.09 0.15,-0.19 0.22,-0.28l2.85 0 0.06 0.28zm-0.16 -0.74l-2.31 0c0.1,-0.1 0.2,-0.19 0.31,-0.28l1.95 0 0.06 0.28zm-0.16 -0.74l-1.2 0c0.33,-0.2 0.7,-0.37 1.09,-0.49l0.1 0.49z"/>
   <path class="fil14" d="M54.09 21.15c-0.28,-0.25 -0.54,-0.51 -0.79,-0.75l0.63 0 0.16 0.75zm-0.26 -1.22l-0.99 0c-0.09,-0.1 -0.18,-0.19 -0.26,-0.28l1.2 0 0.06 0.28zm-0.16 -0.74l-1.53 0c-0.38,-0.42 -0.61,-0.69 -0.61,-0.69 0,0 0.56,-0.88 1.53,-1.71 0.08,0.07 0.14,0.16 0.16,0.27l0.45 2.12z"/>
   <polygon class="fil7" points="41.54,17.07 37.21,17.07 37.12,16.61 41.44,16.61 "/>
   <polygon class="fil17" points="40.83,17.81 39.1,17.81 39,17.35 40.74,17.35 "/>
   <polygon class="fil18" points="43.72,17.81 41.05,17.81 40.95,17.35 43.62,17.35 "/>
   <polygon class="fil18" points="44.89,18.55 40.95,18.55 40.89,18.09 44.79,18.09 "/>
   <polygon class="fil17" points="40.95,18.55 39.25,18.55 39.16,18.09 40.89,18.09 "/>
   <polygon class="fil18" points="44.17,19.3 41.04,19.3 40.98,18.83 44.07,18.83 "/>
   <polygon class="fil17" points="41.04,19.3 39.41,19.3 39.31,18.83 40.98,18.83 "/>
   <polygon class="fil18" points="47.43,27.65 44.39,27.65 44.3,27.18 47.33,27.18 "/>
   <polygon class="fil7" points="43.55,26.16 39.11,26.16 39.01,25.7 43.45,25.7 "/>
   <polygon class="fil18" points="45.43,28.39 42.24,28.39 42.17,27.92 45.34,27.92 "/>
   <polygon class="fil17" points="42.24,28.39 41.3,28.39 41.21,27.92 42.17,27.92 "/>
   <polygon class="fil18" points="44.18,27.65 42.14,27.65 42.08,27.18 44.08,27.18 "/>
   <polygon class="fil17" points="42.14,27.65 41.15,27.65 41.05,27.18 42.08,27.18 "/>
   <polygon class="fil18" points="47.06,26.9 42.04,26.9 41.98,26.44 46.96,26.44 "/>
   <polygon class="fil17" points="42.04,26.9 40.99,26.9 40.9,26.44 41.98,26.44 "/>
   <polygon class="fil7" points="41.39,13.61 36.49,13.61 36.39,13.15 41.29,13.15 "/>
   <polygon class="fil12" points="43.9,15.84 40.59,15.84 40.53,15.37 43.8,15.37 "/>
   <polygon class="fil19" points="40.59,15.84 38.5,15.84 38.4,15.37 40.53,15.37 "/>
   <polygon class="fil12" points="42.82,15.09 40.49,15.09 40.43,14.63 42.72,14.63 "/>
   <polygon class="fil19" points="40.49,15.09 38.35,15.09 38.25,14.63 40.43,14.63 "/>
   <polygon class="fil12" points="43.12,14.35 40.4,14.35 40.34,13.89 43.02,13.89 "/>
   <polygon class="fil19" points="40.4,14.35 38.19,14.35 38.1,13.89 40.34,13.89 "/>
   <polygon class="fil7" points="41.33,20.5 37.93,20.5 37.83,20.04 41.23,20.04 "/>
   <polygon class="fil18" points="46.77,22.73 41.49,22.73 41.43,22.26 46.67,22.26 "/>
   <polygon class="fil17" points="41.49,22.73 40.12,22.73 40.03,22.26 41.43,22.26 "/>
   <polygon class="fil18" points="42.72,21.99 41.4,21.99 41.34,21.52 42.62,21.52 "/>
   <polygon class="fil17" points="41.4,21.99 39.97,21.99 39.87,21.52 41.34,21.52 "/>
   <polygon class="fil18" points="45.71,21.99 42.96,21.99 42.86,21.52 45.61,21.52 "/>
   <polygon class="fil18" points="45.88,21.25 41.3,21.25 41.24,20.78 45.78,20.78 "/>
   <polygon class="fil17" points="41.3,21.25 39.81,21.25 39.72,20.78 41.24,20.78 "/>
   <polygon class="fil18" points="45.87,24.95 41.79,24.95 41.73,24.49 45.77,24.49 "/>
   <polygon class="fil17" points="41.79,24.95 40.59,24.95 40.49,24.49 41.73,24.49 "/>
   <polygon class="fil18" points="41.97,24.21 41.69,24.21 41.63,23.75 41.87,23.75 "/>
   <polygon class="fil17" points="41.69,24.21 40.43,24.21 40.34,23.75 41.63,23.75 "/>
   <polygon class="fil18" points="44.37,24.21 42.18,24.21 42.08,23.75 44.27,23.75 "/>
   <polygon class="fil18" points="46.34,23.47 41.59,23.47 41.53,23.01 46.24,23.01 "/>
   <polygon class="fil17" points="41.59,23.47 40.28,23.47 40.18,23.01 41.53,23.01 "/>
   <polygon class="fil18" points="51.02,22.88 48.85,22.88 48.75,22.42 50.92,22.42 "/>
   <polygon class="fil20" points="54.64,22.88 54.46,22.88 54.36,22.42 54.54,22.42 "/>
   <path class="fil18" d="M52.51 22.88l-1.22 0 -0.1 -0.47 1.97 0c-0.23,0.14 -0.45,0.3 -0.65,0.47z"/>
   <path class="fil21" d="M54.46 22.88l-1.95 0c0.2,-0.17 0.42,-0.32 0.65,-0.47l1.2 0 0.1 0.47z"/>
   <polygon class="fil20" points="56.06,23.62 54.61,23.62 54.51,23.16 55.96,23.16 "/>
   <path class="fil18" d="M51.76 23.62l-2.76 0 -0.1 -0.47 3.29 0c-0.16,0.15 -0.3,0.31 -0.44,0.47z"/>
   <path class="fil21" d="M54.61 23.62l-2.85 0c0.14,-0.16 0.28,-0.32 0.44,-0.47l2.31 0 0.1 0.47z"/>
   <polygon class="fil20" points="55.12,24.36 54.77,24.36 54.67,23.9 55.02,23.9 "/>
   <path class="fil18" d="M51.21 24.36l-2.05 0 -0.1 -0.46 2.48 0c-0.12,0.15 -0.23,0.31 -0.33,0.46z"/>
   <path class="fil21" d="M54.77 24.36l-3.56 0c0.1,-0.16 0.21,-0.31 0.33,-0.46l3.13 0 0.1 0.46z"/>
   <polygon class="fil19" points="57.89,20.4 53.94,20.4 53.84,19.93 57.79,19.93 "/>
   <path class="fil18" d="M53.31 20.4l-2.17 0 -0.1 -0.47 1.81 0c0.14,0.15 0.3,0.31 0.46,0.47z"/>
   <path class="fil17" d="M53.94 20.4l-0.63 0c-0.16,-0.16 -0.31,-0.32 -0.46,-0.47l0.99 0 0.1 0.47z"/>
   <polygon class="fil19" points="56.57,19.65 53.78,19.65 53.68,19.19 56.48,19.19 "/>
   <path class="fil18" d="M52.58 19.65l-1.6 0 -0.1 -0.47 1.27 0c0.13,0.14 0.27,0.3 0.43,0.47z"/>
   <path class="fil17" d="M53.78 19.65l-1.2 0c-0.16,-0.17 -0.3,-0.33 -0.43,-0.47l1.53 0 0.1 0.47z"/>
   <polygon class="fil7" points="55.47,18.45 49.3,18.45 49.4,18.91 55.56,18.91 "/>
   <polygon class="fil20" points="58.19,27.8 55.49,27.8 55.39,27.33 58.09,27.33 "/>
   <path class="fil18" d="M50.54 27.8l-0.67 0 -0.1 -0.47 0.18 0c-0.02,0.09 -0.03,0.15 -0.03,0.15 0,0 0.23,0.12 0.62,0.32z"/>
   <path class="fil21" d="M55.49 27.8l-4.94 0c-0.39,-0.2 -0.62,-0.32 -0.62,-0.32 0,0 0.01,-0.05 0.03,-0.15l5.43 0 0.1 0.47z"/>
   <path class="fil18" d="M50.03 27.06l-0.31 0 -0.1 -0.47 0.54 0c-0.06,0.18 -0.1,0.33 -0.14,0.47z"/>
   <path class="fil21" d="M53.17 27.06l-3.14 0c0.04,-0.13 0.08,-0.29 0.14,-0.47l2.9 0 0.1 0.47z"/>
   <polygon class="fil20" points="56.91,27.06 55.33,27.06 55.23,26.59 56.81,26.59 "/>
   <polygon class="fil21" points="55.33,27.06 53.46,27.06 53.36,26.59 55.23,26.59 "/>
   <polygon class="fil20" points="57.16,26.31 55.18,26.31 55.08,25.85 57.06,25.85 "/>
   <path class="fil18" d="M50.26 26.31l-0.7 0 -0.1 -0.47 0.97 0c-0.07,0.16 -0.13,0.32 -0.18,0.47z"/>
   <path class="fil21" d="M55.18 26.31l-4.92 0c0.05,-0.15 0.11,-0.3 0.18,-0.47l4.64 0 0.1 0.47z"/>
   <path class="fil12" d="M51.22 30.02l-0.88 0 -0.05 -0.23 1.2 0c-0.09,0.07 -0.18,0.15 -0.27,0.23z"/>
   <path class="fil22" d="M56.28 30.02l-5.07 0c0.09,-0.08 0.18,-0.16 0.27,-0.23l3.81 0c0.04,0 0.07,-0 0.1,-0.01 0.29,0.09 0.59,0.17 0.88,0.24z"/>
   <path class="fil20" d="M56.95 30.02l-0.66 0c-0.29,-0.07 -0.59,-0.15 -0.88,-0.24 0.13,-0.03 0.25,-0.11 0.32,-0.22l1.13 0 0.1 0.47z"/>
   <path class="fil18" d="M51.49 29.79l-1.2 0 -0.05 -0.23 1.56 0c-0.11,0.07 -0.21,0.15 -0.31,0.23z"/>
   <path class="fil23" d="M55.3 29.79l-3.81 0c0.1,-0.08 0.21,-0.16 0.31,-0.23l2.91 0c0.23,0.08 0.46,0.15 0.69,0.22 -0.03,0.01 -0.07,0.01 -0.1,0.01z"/>
   <path class="fil21" d="M55.4 29.78c-0.23,-0.07 -0.46,-0.14 -0.69,-0.22l1.01 0c-0.07,0.11 -0.18,0.19 -0.32,0.22z"/>
   <polygon class="fil18" points="52.1,29.28 50.18,29.28 50.09,28.82 52.01,28.82 "/>
   <path class="fil18" d="M52.36 29.22l-0.08 -0.41 0.49 0c0.08,0.03 0.16,0.07 0.24,0.1 -0.22,0.1 -0.43,0.2 -0.64,0.31z"/>
   <path class="fil23" d="M53.93 29.28l-1.56 0 -0.01 -0.06c0.21,-0.11 0.42,-0.21 0.64,-0.31 0.3,0.12 0.61,0.25 0.93,0.37z"/>
   <path class="fil21" d="M55.11 29.28l-1.18 0c-0.32,-0.12 -0.63,-0.24 -0.93,-0.37 -0.08,-0.03 -0.16,-0.07 -0.24,-0.1l2.25 0 0.1 0.47z"/>
   <polygon class="fil20" points="57.62,28.54 55.64,28.54 55.55,28.07 57.52,28.07 "/>
   <path class="fil18" d="M52.12 28.54l-2.09 0 -0.1 -0.47 1.18 0c0.3,0.14 0.64,0.3 1.01,0.47z"/>
   <path class="fil21" d="M55.64 28.54l-3.52 0c-0.37,-0.17 -0.71,-0.32 -1.01,-0.47l4.44 0 0.1 0.47z"/>
   <polygon class="fil19" points="37.4,30.6 32.23,30.6 32.13,30.13 37.3,30.13 "/>
   <path class="fil19" d="M35.87 29.86l-3.8 0 -0.1 -0.47 2.23 0 0 0.01c0.05,0.23 0.25,0.39 0.48,0.39l1.16 0 0.01 0.07z"/>
   <path class="fil17" d="M35.86 29.79l-1.16 0c-0.23,0 -0.44,-0.16 -0.48,-0.39l-0 -0.01 1.56 0 0.08 0.4z"/>
   <polygon class="fil19" points="39.94,29.86 36.14,29.86 36.13,29.79 39.92,29.79 "/>
   <polygon class="fil17" points="39.92,29.79 36.13,29.79 36.04,29.39 39.84,29.39 "/>
   <polygon class="fil19" points="34.15,29.11 31.92,29.11 31.82,28.65 34.06,28.65 "/>
   <polygon class="fil17" points="39.51,29.11 34.15,29.11 34.06,28.65 39.42,28.65 "/>
   <polygon class="fil7" points="97.49,44.07 94.29,44.07 94.66,48.91 97.12,48.91 "/>
   <polygon class="fil24" points="97.12,48.91 94.66,48.91 94.29,44.07 97.49,44.07 97.32,46.23 97.17,48.15 "/>
   <polygon class="fil11" points="27.71,40.7 32.32,40.7 30.74,48.91 26.14,48.91 "/>
   <polygon class="fil7" points="33.58,38.5 27.07,38.5 28.89,48.91 35.39,48.91 "/>
   <polygon class="fil7" points="26.69,38.5 27.07,38.5 28.89,48.91 28.51,48.91 "/>
   <polygon class="fil25" points="28.89,48.91 28.51,48.91 26.69,38.5 27.07,38.5 "/>
   <polygon class="fil4" points="29.83,47.8 28.4,39.61 32.64,39.61 34.07,47.8 "/>
   <polygon class="fil24" points="34.07,47.8 33.87,47.8 32.44,39.61 32.64,39.61 "/>
   <path class="fil11" d="M65.77 25.19c0.09,0.2 0.06,0.41 -0.07,0.47 -0.13,0.06 -0.31,-0.05 -0.4,-0.25 -0.09,-0.2 -0.06,-0.41 0.07,-0.47 0.13,-0.06 0.31,0.05 0.4,0.25z"/>
   <path class="fil26" d="M65.85 25.59c0,0 0.08,1.36 -0.16,2.15 0.51,0.17 1.04,-0.26 1.04,-0.26l-0.87 -1.89z"/>
   <path class="fil11" d="M65.8 23.55c-0.02,0.02 -0.05,0.03 -0.07,0.03 -0.57,0.03 -0.81,0.43 -0.82,0.45 -0.04,0.06 -0.12,0.08 -0.18,0.05 -0.06,-0.04 -0.08,-0.11 -0.05,-0.18 0.01,-0.02 0.32,-0.54 1.03,-0.58 0.07,-0 0.13,0.05 0.14,0.12 0,0.04 -0.02,0.08 -0.05,0.11z"/>
   <path class="fil27" d="M73.12 24.89c0.77,2.67 1.63,4.74 2.68,5.92 0,0 0.02,2.1 -3.56,3.1 -3.93,1.1 -2.42,-1.43 -2.42,-1.43 2,-1.11 1.8,-2.79 0.3,-3.42l2.99 -4.16z"/>
   <path class="fil11" d="M76.63 30.3c-0.07,-0.98 -0.16,-2.09 -0.76,-2.12 -0.66,-0.03 -4.5,1.68 -5.32,2.89 -0.82,1.21 0.78,2.39 0.78,2.39l5.31 -3.17z"/>
   <path class="fil27" d="M68.77 45.4l-3.32 -0.11 0.06 2.78c0,0 2.89,-0.3 3.02,-1.06l0.24 -1.61z"/>
   <polygon class="fil27" points="63.7,46.65 63.35,48.07 65.51,48.07 65.46,45.29 "/>
   <path class="fil7" d="M82.08 33.85l-0.07 0.71c-0.02,0.23 -0.05,0.45 -0.08,0.68 -0.06,0.45 -0.13,0.9 -0.21,1.35 -0.15,0.9 -0.34,1.79 -0.57,2.7 -0.23,0.9 -0.49,1.8 -0.83,2.71 -0.17,0.46 -0.35,0.91 -0.57,1.38 -0.21,0.46 -0.45,0.93 -0.75,1.41 -0.07,0.12 -0.15,0.24 -0.23,0.36 -0.08,0.12 -0.16,0.24 -0.26,0.36 -0.1,0.12 -0.18,0.24 -0.29,0.37l-0.16 0.18c-0.05,0.06 -0.11,0.12 -0.18,0.19 -0.58,0.57 -1.17,0.91 -1.73,1.16 -1.11,0.49 -2.12,0.68 -3.1,0.78 -0.49,0.06 -0.97,0.08 -1.44,0.09 -0.47,0.01 -0.94,0 -1.4,-0.02 -0.46,-0.02 -0.92,-0.07 -1.38,-0.12 -0.46,-0.06 -0.9,-0.13 -1.39,-0.22l0.08 -2.61c1.6,-0.32 3.28,-0.64 4.71,-1.12 0.36,-0.12 0.7,-0.25 1.01,-0.39 0.31,-0.14 0.59,-0.28 0.8,-0.43 0.21,-0.15 0.35,-0.29 0.36,-0.35l0.07 -0.11c0.03,-0.04 0.06,-0.1 0.09,-0.15 0.03,-0.05 0.06,-0.11 0.1,-0.18 0.03,-0.06 0.07,-0.12 0.1,-0.2 0.26,-0.55 0.52,-1.25 0.72,-1.98 0.2,-0.73 0.4,-1.5 0.55,-2.29 0.17,-0.78 0.3,-1.59 0.44,-2.39l0.19 -1.21 0.17 -1.18 5.24 0.53z"/>
   <path class="fil28" d="M69.12 48.19c-0.1,-0.01 -0.2,-0.02 -0.29,-0.03 -0.46,-0.06 -0.9,-0.13 -1.39,-0.22l0.08 -2.61c0.42,-0.08 0.84,-0.17 1.26,-0.25 0.12,0.98 0.24,2.02 0.34,3.12z"/>
   <path class="fil7" d="M67.36 37.16c0.8,3.34 1.84,8.93 2.08,16.25l14.6 0c0.08,-1.81 -0.22,-11.96 -1.69,-19.32 -0.56,-2.8 -3.3,-4.61 -6.08,-3.98 -0.02,0 -0.05,0.01 -0.07,0.02 -1.82,0.42 -4.44,1.08 -5.98,1.67l-0.06 0.02c-2.14,0.82 -3.33,3.11 -2.79,5.34z"/>
   <path class="fil28" d="M68.65 44.05c-0.11,-0.78 -0.22,-1.52 -0.34,-2.22l1.91 -2.85c0,0 -0.38,3.82 -1.57,5.07z"/>
   <path class="fil27" d="M56.18 45.58l-3.3 -0.31 -0.11 2.78c0,0 1.7,0.56 3.08,-0.87l0.33 -1.59z"/>
   <polygon class="fil27" points="51.29,46.09 50.23,48 52.77,48.04 52.88,45.27 "/>
   <path class="fil7" d="M72.84 35.89c-0.23,0.44 -0.43,0.82 -0.66,1.22 -0.22,0.39 -0.45,0.79 -0.69,1.17 -0.47,0.78 -0.96,1.54 -1.47,2.3 -1.03,1.51 -2.13,2.98 -3.42,4.4 -0.64,0.71 -1.35,1.4 -2.17,2.06 -0.1,0.08 -0.21,0.16 -0.32,0.25 -0.11,0.08 -0.2,0.16 -0.36,0.26 -0.15,0.1 -0.29,0.18 -0.44,0.26 -0.15,0.08 -0.29,0.15 -0.44,0.22 -0.59,0.26 -1.16,0.42 -1.72,0.52 -1.11,0.2 -2.14,0.18 -3.12,0.07 -0.49,-0.07 -0.97,-0.14 -1.45,-0.26 -0.24,-0.05 -0.47,-0.12 -0.7,-0.19 -0.24,-0.07 -0.45,-0.15 -0.72,-0.24l0.41 -2.57c1.57,-0.21 3.26,-0.48 4.43,-1.01 0.29,-0.12 0.54,-0.27 0.73,-0.42 0.09,-0.07 0.18,-0.14 0.24,-0.21 0.02,-0.02 0.1,-0.09 0.15,-0.14 0.06,-0.06 0.12,-0.11 0.19,-0.17 0.5,-0.49 1,-1.07 1.5,-1.68 0.98,-1.24 1.91,-2.62 2.81,-4.03 0.45,-0.71 0.89,-1.42 1.32,-2.14l0.64 -1.08 0.62 -1.06 4.64 2.49z"/>
   <polygon class="fil27" points="68.83,87.94 66.1,87.94 64.73,81.62 67.46,81.62 "/>
   <path class="fil11" d="M65.95 87.35l3.07 0c0.11,0 0.21,0.08 0.23,0.19l0.54 2.43c0.06,0.25 -0.14,0.49 -0.4,0.49 -1.07,-0.02 -1.59,-0.08 -2.94,-0.08 -0.83,0 -1.89,0.09 -3.04,0.09 -1.12,0 -1.3,-1.13 -0.83,-1.24 2.1,-0.46 2.25,-1.09 2.92,-1.7 0.12,-0.11 0.28,-0.17 0.44,-0.17z"/>
   <polygon class="fil29" points="68.17,84.88 67.93,83.81 67.94,83.81 68.17,84.88 "/>
   <polygon class="fil30" points="65.49,85.12 65.27,84.09 67.93,83.81 68.17,84.88 "/>
   <path class="fil27" d="M72.24 21.68c0.98,2.52 1.69,3.95 1.03,5.78 -0.99,2.76 -4.54,3.04 -6.26,0.86 -1.55,-1.96 -2.9,-5.76 -0.95,-7.85 1.92,-2.06 5.19,-1.32 6.17,1.21z"/>
   <path class="fil11" d="M67.45 25.46c-0.41,0.55 -0.72,0.97 -0.72,0.97 0,0 -0.84,-2.09 -0.52,-3.04 -0.41,-0.81 -1.23,0.38 -1.55,-1.19 -0.31,-1.58 1.04,-3.27 1.55,-3.63 0.07,0.12 0.07,0.57 0.07,0.57 0,0 2.02,-1.8 4.89,-1.55 -0.2,0.2 -0.27,0.73 -0.27,0.73 0,0 2.96,0.51 3.63,2.17 -0.42,-0.2 -0.75,-0.26 -0.75,-0.26 0,0 0.85,1.05 0.6,2.67 -0.25,1.62 -0.37,3.41 -0.34,4.12 0.03,0.71 -1.91,2.06 -3.1,0.61 -1.18,-1.45 -3.49,-2.18 -3.49,-2.18z"/>
   <path class="fil27" d="M68.69 24.92c0.17,0.62 0.08,1.28 -0.13,1.77 -0.32,0.73 -0.97,0.57 -1.29,-0.08 -0.29,-0.59 -0.48,-1.67 0.04,-2.2 0.51,-0.51 1.18,-0.2 1.38,0.51z"/>
   <path class="fil7" d="M73.81 53.4c0,0 -12.68,4.6 -13.05,10.68 -0.69,11.2 3.89,20.07 3.89,20.07l4.2 -0.45c0,0 -0.75,-3.61 -1.3,-13.76 -0.7,-12.75 20.95,0.3 16.49,-16.55l-10.23 0z"/>
   <path class="fil17" d="M64.66 84.16c0,0 -3.97,-7.67 -3.97,-17.76 0,-0.74 0.02,-1.5 0.07,-2.26 2.4,-0.69 5.55,-1.04 8.66,-1.23 5.46,-0.32 10.56,-3.43 12.68,-8.47l0.43 -1.03 -8.73 0 10.23 0c0.42,1.58 0.61,2.89 0.61,3.99 0,2.86 -1.28,4.25 -3.13,4.99 -0.52,0.21 -1.08,0.36 -1.68,0.48l0 0c-5.06,1.03 -12.3,-0.42 -12.3,6.51 0,0.19 0.01,0.39 0.02,0.59 0.56,10.15 1.3,13.76 1.3,13.76l-0.92 0.1 -2.67 0.28 -0 0 -0.61 0.07z"/>
   <polygon class="fil7" points="63.49,82.61 64.16,84.47 69.4,83.96 69.14,82.26 "/>
   <polygon class="fil27" points="57.04,88.25 54.31,88.25 53.51,81.93 56.24,81.93 "/>
   <path class="fil11" d="M54.29 87.35l2.98 -0c0.11,0 0.21,0.08 0.23,0.19l0.54 2.43c0.06,0.25 -0.13,0.49 -0.39,0.49 -1.08,-0.02 -2.63,-0.08 -3.98,-0.08 -1.58,0 -1.88,0.09 -3.74,0.09 -1.12,0 -1.43,-1.13 -0.96,-1.23 2.13,-0.47 2.82,-0.52 4.66,-1.66 0.2,-0.12 0.42,-0.21 0.66,-0.21z"/>
   <polygon class="fil29" points="56.65,85.19 56.48,83.85 56.48,83.85 56.65,85.19 "/>
   <polygon class="fil30" points="53.94,85.37 53.75,83.85 56.48,83.85 56.65,85.19 "/>
   <path class="fil7" d="M69.44 53.4c0,0 -20.77,1.84 -20.55,12.27 0.23,10.85 4.29,18.17 4.29,18.17l4.06 0c0,0 -0.77,-5.63 -0.63,-16.31 0.04,-3.2 6.51,-4.26 12.82,-4.63 5.46,-0.32 10.56,-3.43 12.68,-8.47l0.43 -1.03 -13.1 0z"/>
   <path class="fil17" d="M57.23 83.85l-4.06 0c0,0 -4.05,-7.32 -4.29,-18.17 -0,-0.06 -0,-0.11 -0,-0.17 0,-10.28 20.55,-12.11 20.55,-12.11l13.1 0 -0.43 1.03c-2.12,5.04 -7.23,8.15 -12.68,8.47 -3.11,0.18 -6.26,0.53 -8.66,1.23 -2.47,0.71 -4.14,1.78 -4.16,3.41 -0.01,0.87 -0.02,1.71 -0.02,2.51 0,9.05 0.65,13.8 0.65,13.8z"/>
   <polygon class="fil7" points="52.23,82.76 52.92,84.63 57.82,84.28 57.53,82.59 "/>
   <path class="fil11" d="M74.89 41.68l-2.64 10.16c-0.67,2.59 -1.01,5.27 -1.01,7.97l0 4.72c0,1.19 0.88,2.16 1.96,2.16l13.51 0c1.08,0 1.96,-0.97 1.96,-2.16l0 -4.72c0,-2.69 0.34,-5.37 1.01,-7.97l2.33 -8.97c0.36,-1.38 -0.58,-2.75 -1.89,-2.75l-13.36 0c-0.88,0 -1.65,0.64 -1.89,1.57z"/>
   <path class="fil11" d="M58.08 61.76l0.44 2.52c0.23,1.32 1.4,2.4 2.6,2.4l15.02 0c1.2,0 1.99,-1.07 1.76,-2.4l-0.44 -2.52c-0.26,-1.51 -1.59,-2.73 -2.96,-2.73l-14.42 0c-1.37,0 -2.27,1.22 -2,2.73z"/>
   <polygon class="fil7" points="77.59,69.21 69.73,69.21 68.96,66.68 78.36,66.68 "/>
   <polygon class="fil7" points="72.26,88.01 75.07,88.01 75.07,69.21 72.26,69.21 "/>
   <path class="fil31" d="M75.07 88.01l-0.69 0 0 -18.14 -0.42 -0.04 1.1 0.11 0 18.07zm-1.36 0l-1.45 0 0 -18.35 1.45 0.15 0 18.21z"/>
   <polygon class="fil31" points="73.96,69.83 73.71,69.81 73.71,69.81 "/>
   <polygon class="fil32" points="74.38,88.01 73.71,88.01 73.71,69.81 73.96,69.83 74.38,69.88 "/>
   <path class="fil7" d="M80.12 90.92l-12.93 0c-0.35,0 -0.49,-0.44 -0.21,-0.65l2.05 -1.5c0.98,-0.72 2.17,-1.11 3.4,-1.11l2.46 0c1.22,0 2.41,0.39 3.4,1.11l2.05 1.5c0.28,0.2 0.13,0.65 -0.21,0.65z"/>
  </g>
 </g>
</svg>
