<svg xmlns="http://www.w3.org/2000/svg" xml:space="preserve" width="152.151" height="300" style="shape-rendering:geometricPrecision;text-rendering:geometricPrecision;image-rendering:optimizeQuality;fill-rule:evenodd;clip-rule:evenodd" viewBox="0 0 124.68 92.92">
    <g id="Camada_x0020_1">
        <g id="_1486708944064">
            <path style="fill:#eaeae9;fill-rule:nonzero" d="M0 81.72h124.68v-.07H0zM10.95.06c-.75 0-1.36.61-1.36 1.36v67.69c0 .75.61 1.36 1.36 1.36H59.1c.75 0 1.36-.61 1.36-1.36V1.42c0-.75-.61-1.36-1.36-1.36H10.95zM59.1 70.53H10.95c-.78 0-1.42-.64-1.42-1.42V1.42c0-.78.64-1.42 1.42-1.42H59.1c.78 0 1.42.64 1.42 1.42v67.69c0 .78-.64 1.42-1.42 1.42zM64.89.06c-.75 0-1.36.61-1.36 1.36v67.69c0 .75.61 1.36 1.36 1.36h48.15c.75 0 1.36-.61 1.36-1.36V1.42c0-.75-.61-1.36-1.36-1.36H64.89zm48.15 70.47H64.89c-.78 0-1.42-.64-1.42-1.42V1.42c0-.78.64-1.42 1.42-1.42h48.15c.78 0 1.42.64 1.42 1.42v67.69c0 .78-.64 1.42-1.42 1.42zM43.5 84.09h6.48v-.06H43.5zM13.08 83.41h13.49v-.06H13.08zM36.69 86.41h6.56v-.07h-6.56zM64.39 85.99h9.69v-.06h-9.69zM76.3 85.99h2.66v-.06H76.3zM98.59 84.93h13.6v-.06h-13.6z" />
            <path style="fill:#e5e6e5;" d="M95.02 79.44h11.39V48.15H95.02zM45.32 81.65h58.9v-2.21h-58.9z" />
            <path style="fill:#efefef;" d="M43.13 79.44h51.89V48.15H43.13z" />
            <path style="fill:#e5e6e5;" d="M43.13 61.72h52.09V50.27H43.13zM43.13 75.26h52.09V63.81H43.13z" />
            <path style="fill:#e0e1e0;" d="M95.02 61.72h1.97V50.27h-1.97zM95.02 75.26h1.97V63.81h-1.97z" />
            <path style="fill:#e5e6e5;" d="M41.62 48.15h53.4v-1.92h-53.4z" />
            <path style="fill:#e0e1e0;" d="M95.02 48.15H108v-1.92H95.02z" />
            <path style="fill:#e5e6e5;" d="M81.83 40.34h26.79V6.67H81.83z" />
            <path style="fill:#efefef;" d="M75.91 40.34h31.68V6.67H75.91z" />
            <path style="fill:#fefefe;fill-rule:nonzero" d="M78.57 37.69h26.37V9.32H78.57z" />
            <path style="fill:#e0e1e0;" d="m94.67 26.57 5.04-2.33v-1.47l-5.04-2.34v1.76l3.06 1.32-3.06 1.32zM91.39 19.75h-.93l1.64 7.51h.91zM88.83 24.83l-3.06-1.32 3.06-1.32v-1.76l-5.04 2.34v1.47l5.04 2.33z" />
            <path style="fill:#e5e6e5;" d="M29.23 81.65h1.75V24.5h-1.75z" />
            <path style="fill:#e5e6e5;" d="m28.86 81.26-.05-.24c.02 0 .48-.11.83-.73.46-.81.73-2.53-.54-6.14-1.96-5.56-.79-10.05 1.54-19 .41-1.56.86-3.32 1.34-5.23 1.79-7.15.13-11.58-1.19-15.15-1.03-2.77-1.85-4.95-.8-7.48l.23.1c-1 2.44-.21 4.58.81 7.3 1.34 3.6 3.01 8.07 1.2 15.29-.48 1.91-.94 3.68-1.34 5.23-2.31 8.9-3.47 13.36-1.54 18.86 1.31 3.71 1 5.51.51 6.36-.41.71-.97.83-.99.84z" />
            <path style="fill:#e5e6e5;" d="M26.93 81.65h6.35l-1.76-1.04H28.7z" />
            <path style="fill:#efefef;" d="M17.53 31.78h25.15l-2.77-21.13H20.3z" />
            <path style="fill:#e5e6e5;" d="M54.83 35.27h13.43l-1.77 10.96H56.6z" />
            <path d="M60.22 38.83c3.66-1.32 6.47-3.31 3.33-7.34-3.14-4.03-8-4.01-11.27-2.23-4.18 2.27-3.34 8.84-3.34 8.84s7.62 2.05 11.28.73z" style="fill:#d9dad9;fill-rule:nonzero" />
            <path style="fill:#e0e1e0;" d="M63.78 35.16c-2.8-1.91-4.79-4.11-1.54-6.44s7.26-1.13 9.66 1.03c3.07 2.76 1.3 7.6 1.3 7.6s-6.63-.28-9.43-2.18z" />
            <path style="fill:#e5e6e5;" d="M58.85 30.33c3.28-.2 6.02-1.05 4.47-4.6-1.55-3.55-5.48-4.54-8.56-3.93-3.92.77-4.85 5.68-4.85 5.68s5.65 3.05 8.93 2.85z" />
            <path style="fill:#eaeae9;fill-rule:nonzero" d="M62.96 28.24c-2.73-.88-4.86-2.19-2.78-4.86 2.08-2.66 5.61-2.65 8.08-1.47 3.15 1.5 2.87 5.85 2.87 5.85s-5.44 1.36-8.16.48z" />
            <path style="fill:#efefef;" d="M57.86 23.69c2.72.9 5.22 1.09 5.11-2.29-.11-3.38-2.97-5.45-5.66-5.95-3.43-.64-5.76 3.04-5.76 3.04s3.59 4.3 6.31 5.19z" />
            <path d="M64.76 22.24c-1.95.13-3.63-.16-2.99-2.37.64-2.21 2.88-3.09 4.74-2.97 2.37.16 3.29 2.98 3.29 2.98s-3.1 2.23-5.05 2.36z" style="fill:#f7f7f6;fill-rule:nonzero" />
            <path style="fill:#efefef;" d="M110.69 90.09c0 1.56-21.65 2.82-48.35 2.82-26.7 0-48.35-1.26-48.35-2.82 0-1.56 21.65-2.82 48.35-2.82 26.7 0 48.35 1.26 48.35 2.82z" />
            <path style="fill:#3f79bc;fill-rule:nonzero" d="M19.83 51.95h84.72v-3.04H19.83z" />
            <path style="fill:#6c9cd2;" d="M42.5 51.95H19.83v-3.04H42.5z" />
            <path style="fill:#3f79bc;fill-rule:nonzero" d="M42.86 51.95h-1.97l1.03 38.1h1.88l1.04-38.1z" />
            <path style="fill:#6c9cd2;" d="M42.86 90.05h-.94l-1-36.93 1.94-.35z" />
            <path style="fill:#3f79bc;fill-rule:nonzero" d="M24.17 51.95h-1.98l1.04 38.1h1.88l1.03-38.1z" />
            <path style="fill:#6c9cd2;" d="M24.17 90.05h-.94l-1-36.93 1.94-.35z" />
            <path style="fill:#3f79bc;fill-rule:nonzero" d="M100.21 51.95h-1.97l1.03 38.1h1.88l1.03-38.1z" />
            <path style="fill:#fefefe;fill-rule:nonzero" d="m99.22 88.27-.09-3.33.09 3.33zm-.09-3.39-.09-3.16.09 3.16z" />
            <path style="fill:#eaeceb;" d="M99.04 81.72v-.07zM99.13 84.93v-.06z" />
            <path style="fill:#efefef;" d="m98.98 79.44-.71-26.32zM99.04 81.65l-.06-2.21z" />
            <path style="fill:#fefefe;fill-rule:nonzero" d="M100.21 90.05h-.94l-.05-1.78.05 1.78z" />
            <path style="fill:#6c9cd2;" d="M100.21 90.05h-.94l-.05-1.78-.09-3.34v-.06l-.09-3.15v-.07l-.06-2.21-.71-26.32 1.94-.35z" />
            <path style="fill:#3f79bc;fill-rule:nonzero" d="M81.51 51.95h-1.97l1.03 38.1h1.88l1.04-38.1z" />
            <path style="fill:#fefefe;fill-rule:nonzero" d="m80.5 87.47-.15-5.75z" />
            <path style="fill:#eaeceb;" d="M80.35 81.72v-.07z" />
            <path style="fill:#efefef;" d="m80.35 81.65-.06-2.21z" />
            <path style="fill:#fefefe;fill-rule:nonzero" d="m80.29 79.44-.11-4.18.11 4.18zm-.42-15.63-.03-.95.03.95z" />
            <path style="fill:#efefef;" d="m80.17 75.26-.31-11.45z" />
            <path style="fill:#fefefe;fill-rule:nonzero" d="M81.51 90.05h-.94l-.07-2.58.07 2.58z" />
            <path style="fill:#6c9cd2;" d="M81.51 90.05h-.94l-.07-2.57-.16-5.76v-.06l-.06-2.21-.11-4.18-.31-11.45-.03-.95c.59-.12 1.16-.28 1.68-.48v27.67z" />
            <path style="fill:#2c3c43;" d="M60.04 32.64H39.88c-.72 0-1.19.59-1.04 1.32l2.68 12.8c.15.72.87 1.32 1.59 1.32h20.16c.72 0 1.19-.59 1.04-1.32l-2.68-12.8c-.15-.72-.87-1.32-1.59-1.32z" />
            <path style="fill:#fefefe;fill-rule:nonzero" d="M43.31 47.34c-.47 0-.98-.42-1.08-.9l-2.68-12.81c-.04-.2-.01-.37.09-.5.1-.12.25-.18.43-.18h20.16c.47 0 .98.42 1.08.9l2.68 12.8c.04.2.01.38-.09.5-.1.12-.25.18-.43.18H43.31z" />
            <path style="fill:#a0c2e6;fill-rule:nonzero;" d="M62.27 46.71H59c-.23 0-.44-.16-.48-.39l-2.54-12.13c-.06-.31.17-.6.48-.6h3.27c.23 0 .44.16.48.39l2.54 12.13c.06.31-.17.6-.48.6z" />
            <path style="fill:#3f79bc;fill-rule:nonzero" d="m41.23 34.64-.11-.52h4.03l.12.52z" />
            <path style="fill:#eaeae9;fill-rule:nonzero" d="m43.09 35.95-.11-.53h7.08l.11.53zM43.46 37.25l-.11-.52h7.94l.11.52zM43.84 38.56l-.11-.53h6.39l.11.53z" />
            <path style="fill:#3f79bc;fill-rule:nonzero" d="m42.45 40.68-.11-.53h2.56l.11.53z" />
            <path style="fill:#eaeae9;fill-rule:nonzero" d="m44.32 41.98-.11-.53h3.11l.11.53zM48.18 41.98l-.11-.53h3.11l.11.53zM44.69 43.29l-.11-.53H55.1l.11.53zM45.06 44.59l-.11-.52h8.03l.11.52z" />
            <path style="fill:#2c3c43;" d="M69.45 48H42.93c-.72 0-1.19.41-1.04.91h29.15c-.15-.5-.87-.91-1.59-.91z" />
            <path d="M50.29 29.79h-7.87l-.18-1.4h3.2l-.1-.46h-3.16l-.04-.28h2.04l-.1-.47h-2.01l-.04-.28h5.02l-.1-.47h-4.98l-.19-1.48h4.08l-.1-.47h-4.04l-.04-.28h.28l-.1-.46h-.24l-.04-.28h4.75l-.1-.47h-4.71l-.04-.28h5.27l-.1-.46h-5.24l-.04-.28h1.32l-.1-.47H41.3l-.04-.28h4.58l-.1-.47H41.2l-.19-1.48h3.12l-.1-.47h-3.09l-.04-.28h3.94l-.1-.47h-3.9l-.19-1.42H52.7c.12 0 .24.04.32.12a8.63 8.63 0 0 0-1.53 1.71s.23.27.61.69h-1.27l.1.47h1.6c.08.09.17.18.26.28h-1.81l.1.47h2.17c.25.24.51.5.79.75l.16.78c-.4.12-.76.29-1.09.49h-1.97l.1.47h1.22c-.11.09-.21.18-.31.28h-3.29l.1.47h2.76c-.08.09-.15.18-.22.28h-2.48l.1.46h2.05c-.33.51-.58 1.02-.77 1.48h-.97l.1.47h.7c-.03.1-.07.19-.09.28h-.54l.1.47h.31c-.03.11-.05.21-.07.28h-.18l.1.47h.67c.16.08.35.17.57.28h-1.18l.1.47h2.09c.2.09.42.18.64.28h-.49l.08.41c-.03.01-.05.03-.08.04-.17.09-.33.19-.48.29h-1.56l.05.23zm-.2-.98.1.47h1.92l-.1-.47h-1.92zm-5.79-1.64.1.47h3.03l-.1-.47H44.3zm-2.22-3.43.1.46h2.19l-.1-.46h-2.19zm8.94-.87-.1-.47h-2.17l.1.47h2.17zm-8.16-1.36.1.47h2.75l-.1-.47h-2.75zm.86-3.71-.1-.46h-2.67l.1.46h2.67z" style="fill:#e1ebf7;fill-rule:nonzero" />
            <path style="fill:#d9e4f4;fill-rule:nonzero" d="M42.42 29.79h-2.5l-.08-.4h-3.8l.08.4h-.27l-.08-.4h-1.56l-.06-.28h5.36l-.1-.46h-5.36l-2.39-11.38c-.06-.31.17-.6.48-.6h8.55l.19 1.42h-1.73l.1.47h1.7l.04.28h-1.67l.1.47h1.64l.19 1.48h-1.52l.1.47h1.49l.04.28H39.9l.1.47h1.43l.04.28h-1.41l.1.46h1.37l.04.28h-1.35l.1.47h1.31l.04.28h-1.29l.1.46h1.26l.04.28h-1.24l.1.47h1.2l.19 1.48h-1.08l.1.47h1.05l.04.28h-1.03l.1.47h.99l.04.28h-.97l.1.46h.93l.18 1.4zm-1.59-11.98-.1-.46h-1.74l.1.46h1.74z" />
            <path d="M54.71 29.56H51.8c.15-.1.31-.2.48-.29.03-.01.05-.03.08-.04l.01.06h1.56c.25.1.51.19.78.28z" style="fill:#c5d0dd;fill-rule:nonzero" />
            <path d="M55.72 29.56h-1.01c-.26-.09-.52-.18-.78-.28h1.18l-.1-.47h-2.25c-.22-.09-.44-.19-.64-.28h3.52l.14.66c.03.13 0 .26-.06.36zm-.17-1.48h-4.44c-.21-.1-.4-.2-.57-.28h4.94l.06.28zm-.16-.74h-5.43c.02-.07.04-.16.07-.28h3.14l-.1-.47h-2.9c.03-.09.06-.18.09-.28h4.92l.06.28h-1.87l.1.47h1.87l.06.28zm-.31-1.48h-4.64c.19-.46.44-.98.77-1.48h3.56l.31 1.48zm-.41-1.95h-3.13l.22-.28h2.85l.06.28zm-.16-.74H52.2c.1-.1.2-.19.31-.28h1.95l.06.28zm-.16-.74h-1.2c.33-.2.7-.37 1.09-.49l.1.49z" style="fill:#d2ddec;fill-rule:nonzero" />
            <path style="fill:#d9e4f4;fill-rule:nonzero" d="M54.09 21.15c-.28-.25-.54-.51-.79-.75h.63l.16.75zm-.26-1.22h-.99c-.09-.1-.18-.19-.26-.28h1.2l.06.28zm-.16-.74h-1.53c-.38-.42-.61-.69-.61-.69s.56-.88 1.53-1.71c.08.07.14.16.16.27l.45 2.12z" />
            <path style="fill:#3f79bc;fill-rule:nonzero" d="M41.54 17.07h-4.33l-.09-.46h4.32z" />
            <path style="fill:#8eb6e1;" d="M40.83 17.81H39.1l-.1-.46h1.74z" />
            <path style="fill:#92bbe3;fill-rule:nonzero" d="M43.72 17.81h-2.67l-.1-.46h2.67zM44.89 18.55h-3.94l-.06-.46h3.9z" />
            <path style="fill:#8eb6e1;" d="M40.95 18.55h-1.7l-.09-.46h1.73z" />
            <path style="fill:#92bbe3;fill-rule:nonzero" d="M44.17 19.3h-3.13l-.06-.47h3.09z" />
            <path style="fill:#8eb6e1;" d="M41.04 19.3h-1.63l-.1-.47h1.67z" />
            <path style="fill:#92bbe3;fill-rule:nonzero" d="M47.43 27.65h-3.04l-.09-.47h3.03z" />
            <path style="fill:#3f79bc;fill-rule:nonzero" d="M43.55 26.16h-4.44l-.1-.46h4.44z" />
            <path style="fill:#92bbe3;fill-rule:nonzero" d="M45.43 28.39h-3.19l-.07-.47h3.17z" />
            <path style="fill:#8eb6e1;" d="M42.24 28.39h-.94l-.09-.47h.96z" />
            <path style="fill:#92bbe3;fill-rule:nonzero" d="M44.18 27.65h-2.04l-.06-.47h2z" />
            <path style="fill:#8eb6e1;" d="M42.14 27.65h-.99l-.1-.47h1.03z" />
            <path style="fill:#92bbe3;fill-rule:nonzero" d="M47.06 26.9h-5.02l-.06-.46h4.98z" />
            <path style="fill:#8eb6e1;" d="M42.04 26.9h-1.05l-.09-.46h1.08z" />
            <path style="fill:#3f79bc;fill-rule:nonzero" d="M41.39 13.61h-4.9l-.1-.46h4.9z" />
            <path style="fill:#a0c2e6;fill-rule:nonzero;" d="M43.9 15.84h-3.31l-.06-.47h3.27z" />
            <path style="fill:#9abde3;" d="M40.59 15.84H38.5l-.1-.47h2.13z" />
            <path style="fill:#a0c2e6;fill-rule:nonzero;" d="M42.82 15.09h-2.33l-.06-.46h2.29z" />
            <path style="fill:#9abde3;" d="M40.49 15.09h-2.14l-.1-.46h2.18z" />
            <path style="fill:#a0c2e6;fill-rule:nonzero;" d="M43.12 14.35H40.4l-.06-.46h2.68z" />
            <path style="fill:#9abde3;" d="M40.4 14.35h-2.21l-.09-.46h2.24z" />
            <path style="fill:#3f79bc;fill-rule:nonzero" d="M41.33 20.5h-3.4l-.1-.46h3.4z" />
            <path style="fill:#92bbe3;fill-rule:nonzero" d="M46.77 22.73h-5.28l-.06-.47h5.24z" />
            <path style="fill:#8eb6e1;" d="M41.49 22.73h-1.37l-.09-.47h1.4z" />
            <path style="fill:#92bbe3;fill-rule:nonzero" d="M42.72 21.99H41.4l-.06-.47h1.28z" />
            <path style="fill:#8eb6e1;" d="M41.4 21.99h-1.43l-.1-.47h1.47z" />
            <path style="fill:#92bbe3;fill-rule:nonzero" d="M45.71 21.99h-2.75l-.1-.47h2.75zM45.88 21.25H41.3l-.06-.47h4.54z" />
            <path style="fill:#8eb6e1;" d="M41.3 21.25h-1.49l-.09-.47h1.52z" />
            <path style="fill:#92bbe3;fill-rule:nonzero" d="M45.87 24.95h-4.08l-.06-.46h4.04z" />
            <path style="fill:#8eb6e1;" d="M41.79 24.95h-1.2l-.1-.46h1.24z" />
            <path style="fill:#92bbe3;fill-rule:nonzero" d="M41.97 24.21h-.28l-.06-.46h.24z" />
            <path style="fill:#8eb6e1;" d="M41.69 24.21h-1.26l-.09-.46h1.29z" />
            <path style="fill:#92bbe3;fill-rule:nonzero" d="M44.37 24.21h-2.19l-.1-.46h2.19zM46.34 23.47h-4.75l-.06-.46h4.71z" />
            <path style="fill:#8eb6e1;" d="M41.59 23.47h-1.31l-.1-.46h1.35z" />
            <path style="fill:#92bbe3;fill-rule:nonzero" d="M51.02 22.88h-2.17l-.1-.46h2.17z" />
            <path style="fill:#98bae2;" d="M54.64 22.88h-.18l-.1-.46h.18z" />
            <path style="fill:#92bbe3;fill-rule:nonzero" d="M52.51 22.88h-1.22l-.1-.47h1.97c-.23.14-.45.3-.65.47z" />
            <path style="fill:#8bb4df;" d="M54.46 22.88h-1.95c.2-.17.42-.32.65-.47h1.2l.1.47z" />
            <path style="fill:#98bae2;" d="M56.06 23.62h-1.45l-.1-.46h1.45z" />
            <path style="fill:#92bbe3;fill-rule:nonzero" d="M51.76 23.62H49l-.1-.47h3.29c-.16.15-.3.31-.44.47z" />
            <path style="fill:#8bb4df;" d="M54.61 23.62h-2.85c.14-.16.28-.32.44-.47h2.31l.1.47z" />
            <path style="fill:#98bae2;" d="M55.12 24.36h-.35l-.1-.46h.35z" />
            <path style="fill:#92bbe3;fill-rule:nonzero" d="M51.21 24.36h-2.05l-.1-.46h2.48c-.12.15-.23.31-.33.46z" />
            <path style="fill:#8bb4df;" d="M54.77 24.36h-3.56c.1-.16.21-.31.33-.46h3.13l.1.46z" />
            <path style="fill:#9abde3;" d="M57.89 20.4h-3.95l-.1-.47h3.95z" />
            <path style="fill:#92bbe3;fill-rule:nonzero" d="M53.31 20.4h-2.17l-.1-.47h1.81c.14.15.3.31.46.47z" />
            <path style="fill:#8eb6e1;" d="M53.94 20.4h-.63c-.16-.16-.31-.32-.46-.47h.99l.1.47z" />
            <path style="fill:#9abde3;" d="M56.57 19.65h-2.79l-.1-.46h2.8z" />
            <path style="fill:#92bbe3;fill-rule:nonzero" d="M52.58 19.65h-1.6l-.1-.47h1.27c.13.14.27.3.43.47z" />
            <path style="fill:#8eb6e1;" d="M53.78 19.65h-1.2c-.16-.17-.3-.33-.43-.47h1.53l.1.47z" />
            <path style="fill:#3f79bc;fill-rule:nonzero" d="M55.47 18.45H49.3l.1.46h6.16z" />
            <path style="fill:#98bae2;" d="M58.19 27.8h-2.7l-.1-.47h2.7z" />
            <path style="fill:#92bbe3;fill-rule:nonzero" d="M50.54 27.8h-.67l-.1-.47h.18c-.02.09-.03.15-.03.15s.23.12.62.32z" />
            <path style="fill:#8bb4df;" d="M55.49 27.8h-4.94c-.39-.2-.62-.32-.62-.32l.03-.15h5.43l.1.47z" />
            <path style="fill:#92bbe3;fill-rule:nonzero" d="M50.03 27.06h-.31l-.1-.47h.54c-.06.18-.1.33-.14.47z" />
            <path style="fill:#8bb4df;" d="M53.17 27.06h-3.14c.04-.13.08-.29.14-.47h2.9l.1.47z" />
            <path style="fill:#98bae2;" d="M56.91 27.06h-1.58l-.1-.47h1.58z" />
            <path style="fill:#8bb4df;" d="M55.33 27.06h-1.87l-.1-.47h1.87z" />
            <path style="fill:#98bae2;" d="M57.16 26.31h-1.98l-.1-.46h1.98z" />
            <path style="fill:#92bbe3;fill-rule:nonzero" d="M50.26 26.31h-.7l-.1-.47h.97c-.07.16-.13.32-.18.47z" />
            <path style="fill:#8bb4df;" d="M55.18 26.31h-4.92c.05-.15.11-.3.18-.47h4.64l.1.47z" />
            <path style="fill:#a0c2e6;fill-rule:nonzero;" d="M51.22 30.02h-.88l-.05-.23h1.2c-.09.07-.18.15-.27.23z" />
            <path d="M56.28 30.02h-5.07c.09-.08.18-.16.27-.23h3.81c.04 0 .07 0 .1-.01.29.09.59.17.88.24z" style="fill:#8cb2de;fill-rule:nonzero" />
            <path style="fill:#98bae2;" d="M56.95 30.02h-.66c-.29-.07-.59-.15-.88-.24.13-.03.25-.11.32-.22h1.13l.1.47z" />
            <path style="fill:#92bbe3;fill-rule:nonzero" d="M51.49 29.79h-1.2l-.05-.23h1.56c-.11.07-.21.15-.31.23z" />
            <path style="fill:#83addb;fill-rule:nonzero" d="M55.3 29.79h-3.81c.1-.08.21-.16.31-.23h2.91c.23.08.46.15.69.22-.03.01-.07.01-.1.01z" />
            <path style="fill:#8bb4df;" d="M55.4 29.78c-.23-.07-.46-.14-.69-.22h1.01c-.07.11-.18.19-.32.22z" />
            <path style="fill:#92bbe3;fill-rule:nonzero" d="M52.1 29.28h-1.92l-.09-.46h1.92zM52.36 29.22l-.08-.41h.49c.08.03.16.07.24.1-.22.1-.43.2-.64.31z" />
            <path style="fill:#83addb;fill-rule:nonzero" d="M53.93 29.28h-1.56l-.01-.06c.21-.11.42-.21.64-.31.3.12.61.25.93.37z" />
            <path style="fill:#8bb4df;" d="M55.11 29.28h-1.18c-.32-.12-.63-.24-.93-.37-.08-.03-.16-.07-.24-.1h2.25l.1.47z" />
            <path style="fill:#98bae2;" d="M57.62 28.54h-1.98l-.09-.47h1.97z" />
            <path style="fill:#92bbe3;fill-rule:nonzero" d="M52.12 28.54h-2.09l-.1-.47h1.18c.3.14.64.3 1.01.47z" />
            <path style="fill:#8bb4df;" d="M55.64 28.54h-3.52c-.37-.17-.71-.32-1.01-.47h4.44l.1.47z" />
            <path style="fill:#9abde3;" d="M37.4 30.6h-5.17l-.1-.47h5.17zM35.87 29.86h-3.8l-.1-.47h2.23v.01c.05.23.25.39.48.39h1.16l.01.07z" />
            <path style="fill:#8eb6e1;" d="M35.86 29.79H34.7c-.23 0-.44-.16-.48-.39v-.01h1.56l.08.4z" />
            <path style="fill:#9abde3;" d="M39.94 29.86h-3.8l-.01-.07h3.79z" />
            <path style="fill:#8eb6e1;" d="M39.92 29.79h-3.79l-.09-.4h3.8z" />
            <path style="fill:#9abde3;" d="M34.15 29.11h-2.23l-.1-.46h2.24z" />
            <path style="fill:#8eb6e1;" d="M39.51 29.11h-5.36l-.09-.46h5.36z" />
            <path style="fill:#3f79bc;fill-rule:nonzero" d="M97.49 44.07h-3.2l.37 4.84h2.46z" />
            <path style="fill:#7aa8d9;" d="M97.12 48.91h-2.46l-.37-4.84h3.2l-.17 2.16-.15 1.92z" />
            <path style="fill:#2c3c43;" d="M27.71 40.7h4.61l-1.58 8.21h-4.6z" />
            <path style="fill:#3f79bc;fill-rule:nonzero" d="M33.58 38.5h-6.51l1.82 10.41h6.5z" />
            <path style="fill:#3f79bc;fill-rule:nonzero" d="M26.69 38.5h.38l1.82 10.41h-.38z" />
            <path style="fill:#2867b0;fill-rule:nonzero" d="M28.89 48.91h-.38L26.69 38.5h.38z" />
            <path style="fill:#fefefe;fill-rule:nonzero" d="m29.83 47.8-1.43-8.19h4.24l1.43 8.19z" />
            <path style="fill:#7aa8d9;" d="M34.07 47.8h-.2l-1.43-8.19h.2z" />
            <path style="fill:#2c3c43;" d="M65.77 25.19c.09.2.06.41-.07.47s-.31-.05-.4-.25c-.09-.2-.06-.41.07-.47s.31.05.4.25z" />
            <path d="M65.85 25.59s.08 1.36-.16 2.15c.51.17 1.04-.26 1.04-.26l-.87-1.89z" style="fill:#f16667;fill-rule:nonzero" />
            <path style="fill:#2c3c43;" d="M65.8 23.55c-.02.02-.05.03-.07.03-.57.03-.81.43-.82.45-.04.06-.12.08-.18.05-.06-.04-.08-.11-.05-.18.01-.02.32-.54 1.03-.58.07 0 .13.05.14.12 0 .04-.02.08-.05.11z" />
            <path style="fill:#f48880;" d="M73.12 24.89c.77 2.67 1.63 4.74 2.68 5.92 0 0 .02 2.1-3.56 3.1-3.93 1.1-2.42-1.43-2.42-1.43 2-1.11 1.8-2.79.3-3.42l2.99-4.16z" />
            <path style="fill:#2c3c43;" d="M76.63 30.3c-.07-.98-.16-2.09-.76-2.12-.66-.03-4.5 1.68-5.32 2.89-.82 1.21.78 2.39.78 2.39l5.31-3.17z" />
            <path style="fill:#f48880;" d="m68.77 45.4-3.32-.11.06 2.78s2.89-.3 3.02-1.06l.24-1.61z" />
            <path style="fill:#f48880;" d="m63.7 46.65-.35 1.42h2.16l-.05-2.78z" />
            <path style="fill:#3f79bc;fill-rule:nonzero" d="m82.08 33.85-.07.71c-.02.23-.05.45-.08.68-.06.45-.13.9-.21 1.35-.15.9-.34 1.79-.57 2.7-.23.9-.49 1.8-.83 2.71-.17.46-.35.91-.57 1.38-.21.46-.45.93-.75 1.41-.07.12-.15.24-.23.36-.08.12-.16.24-.26.36s-.18.24-.29.37l-.16.18c-.05.06-.11.12-.18.19a5.7 5.7 0 0 1-1.73 1.16c-1.11.49-2.12.68-3.1.78-.49.06-.97.08-1.44.09-.47.01-.94 0-1.4-.02-.46-.02-.92-.07-1.38-.12-.46-.06-.9-.13-1.39-.22l.08-2.61c1.6-.32 3.28-.64 4.71-1.12.36-.12.7-.25 1.01-.39.31-.14.59-.28.8-.43.21-.15.35-.29.36-.35l.07-.11c.03-.04.06-.1.09-.15.03-.05.06-.11.1-.18.03-.06.07-.12.1-.2.26-.55.52-1.25.72-1.98.2-.73.4-1.5.55-2.29.17-.78.3-1.59.44-2.39l.19-1.21.17-1.18 5.24.53z" />
            <path style="fill:#346fb5;" d="m69.12 48.19-.29-.03c-.46-.06-.9-.13-1.39-.22l.08-2.61c.42-.08.84-.17 1.26-.25.12.98.24 2.02.34 3.12z" />
            <path style="fill:#3f79bc;fill-rule:nonzero" d="M67.36 37.16c.8 3.34 1.84 8.93 2.08 16.25h14.6c.08-1.81-.22-11.96-1.69-19.32-.56-2.8-3.3-4.61-6.08-3.98-.02 0-.05.01-.07.02-1.82.42-4.44 1.08-5.98 1.67l-.06.02a4.563 4.563 0 0 0-2.79 5.34z" />
            <path style="fill:#346fb5;" d="M68.65 44.05c-.11-.78-.22-1.52-.34-2.22l1.91-2.85s-.38 3.82-1.57 5.07z" />
            <path style="fill:#f48880;" d="m56.18 45.58-3.3-.31-.11 2.78s1.7.56 3.08-.87l.33-1.59zM51.29 46.09 50.23 48l2.54.04.11-2.77z" />
            <path style="fill:#3f79bc;fill-rule:nonzero" d="M72.84 35.89c-.23.44-.43.82-.66 1.22-.22.39-.45.79-.69 1.17-.47.78-.96 1.54-1.47 2.3-1.03 1.51-2.13 2.98-3.42 4.4-.64.71-1.35 1.4-2.17 2.06-.1.08-.21.16-.32.25-.11.08-.2.16-.36.26-.15.1-.29.18-.44.26-.15.08-.29.15-.44.22-.59.26-1.16.42-1.72.52-1.11.2-2.14.18-3.12.07-.49-.07-.97-.14-1.45-.26-.24-.05-.47-.12-.7-.19-.24-.07-.45-.15-.72-.24l.41-2.57c1.57-.21 3.26-.48 4.43-1.01.29-.12.54-.27.73-.42.09-.07.18-.14.24-.21.02-.02.1-.09.15-.14.06-.06.12-.11.19-.17.5-.49 1-1.07 1.5-1.68.98-1.24 1.91-2.62 2.81-4.03.45-.71.89-1.42 1.32-2.14l.64-1.08.62-1.06 4.64 2.49z" />
            <path style="fill:#f48880;" d="M68.83 87.94H66.1l-1.37-6.32h2.73z" />
            <path style="fill:#2c3c43;" d="M65.95 87.35h3.07c.11 0 .21.08.23.19l.54 2.43c.06.25-.14.49-.4.49-1.07-.02-1.59-.08-2.94-.08-.83 0-1.89.09-3.04.09-1.12 0-1.3-1.13-.83-1.24 2.1-.46 2.25-1.09 2.92-1.7.12-.11.28-.17.44-.17z" />
            <path style="fill:#c2c4c4;" d="m68.17 84.88-.24-1.07h.01l.23 1.07z" />
            <path style="fill:#ea7a6d;fill-rule:nonzero" d="m65.49 85.12-.22-1.03 2.66-.28.24 1.07z" />
            <path style="fill:#f48880;" d="M72.24 21.68c.98 2.52 1.69 3.95 1.03 5.78-.99 2.76-4.54 3.04-6.26.86-1.55-1.96-2.9-5.76-.95-7.85 1.92-2.06 5.19-1.32 6.17 1.21z" />
            <path style="fill:#2c3c43;" d="M67.45 25.46c-.41.55-.72.97-.72.97s-.84-2.09-.52-3.04c-.41-.81-1.23.38-1.55-1.19-.31-1.58 1.04-3.27 1.55-3.63.07.12.07.57.07.57s2.02-1.8 4.89-1.55c-.2.2-.27.73-.27.73s2.96.51 3.63 2.17c-.42-.2-.75-.26-.75-.26s.85 1.05.6 2.67c-.25 1.62-.37 3.41-.34 4.12.03.71-1.91 2.06-3.1.61-1.18-1.45-3.49-2.18-3.49-2.18z" />
            <path style="fill:#f48880;" d="M68.69 24.92c.17.62.08 1.28-.13 1.77-.32.73-.97.57-1.29-.08-.29-.59-.48-1.67.04-2.2.51-.51 1.18-.2 1.38.51z" />
            <path style="fill:#3f79bc;fill-rule:nonzero" d="M73.81 53.4S61.13 58 60.76 64.08c-.69 11.2 3.89 20.07 3.89 20.07l4.2-.45s-.75-3.61-1.3-13.76c-.7-12.75 20.95.3 16.49-16.55H73.81z" />
            <path style="fill:#8eb6e1;" d="M64.66 84.16s-3.97-7.67-3.97-17.76c0-.74.02-1.5.07-2.26 2.4-.69 5.55-1.04 8.66-1.23 5.46-.32 10.56-3.43 12.68-8.47l.43-1.03H73.8h10.23c.42 1.58.61 2.89.61 3.99 0 2.86-1.28 4.25-3.13 4.99-.52.21-1.08.36-1.68.48-5.06 1.03-12.3-.42-12.3 6.51 0 .19.01.39.02.59.56 10.15 1.3 13.76 1.3 13.76l-.92.1-2.67.28-.61.07z" />
            <path style="fill:#3f79bc;fill-rule:nonzero" d="m63.49 82.61.67 1.86 5.24-.51-.26-1.7z" />
            <path style="fill:#f48880;" d="M57.04 88.25h-2.73l-.8-6.32h2.73z" />
            <path style="fill:#2c3c43;" d="M54.29 87.35h2.98c.11 0 .21.08.23.19l.54 2.43c.06.25-.13.49-.39.49-1.08-.02-2.63-.08-3.98-.08-1.58 0-1.88.09-3.74.09-1.12 0-1.43-1.13-.96-1.23 2.13-.47 2.82-.52 4.66-1.66.2-.12.42-.21.66-.21z" />
            <path style="fill:#c2c4c4;" d="m56.65 85.19-.17-1.34.17 1.34z" />
            <path style="fill:#ea7a6d;fill-rule:nonzero" d="m53.94 85.37-.19-1.52h2.73l.17 1.34z" />
            <path style="fill:#3f79bc;fill-rule:nonzero" d="M69.44 53.4s-20.77 1.84-20.55 12.27c.23 10.85 4.29 18.17 4.29 18.17h4.06s-.77-5.63-.63-16.31c.04-3.2 6.51-4.26 12.82-4.63 5.46-.32 10.56-3.43 12.68-8.47l.43-1.03h-13.1z" />
            <path style="fill:#8eb6e1;" d="M57.23 83.85h-4.06s-4.05-7.32-4.29-18.17v-.17c0-10.28 20.55-12.11 20.55-12.11h13.1l-.43 1.03c-2.12 5.04-7.23 8.15-12.68 8.47-3.11.18-6.26.53-8.66 1.23-2.47.71-4.14 1.78-4.16 3.41-.01.87-.02 1.71-.02 2.51 0 9.05.65 13.8.65 13.8z" />
            <path style="fill:#3f79bc;fill-rule:nonzero" d="m52.23 82.76.69 1.87 4.9-.35-.29-1.69z" />
            <path style="fill:#2c3c43;" d="m74.89 41.68-2.64 10.16c-.67 2.59-1.01 5.27-1.01 7.97v4.72c0 1.19.88 2.16 1.96 2.16h13.51c1.08 0 1.96-.97 1.96-2.16v-4.72c0-2.69.34-5.37 1.01-7.97l2.33-8.97c.36-1.38-.58-2.75-1.89-2.75H76.76c-.88 0-1.65.64-1.89 1.57z" />
            <path style="fill:#2c3c43;" d="m58.08 61.76.44 2.52c.23 1.32 1.4 2.4 2.6 2.4h15.02c1.2 0 1.99-1.07 1.76-2.4l-.44-2.52c-.26-1.51-1.59-2.73-2.96-2.73H60.08c-1.37 0-2.27 1.22-2 2.73z" />
            <path style="fill:#3f79bc;fill-rule:nonzero" d="M77.59 69.21h-7.86l-.77-2.53h9.4zM72.26 88.01h2.81v-18.8h-2.81z" />
            <path style="fill:#b4d0ec;" d="M75.07 88.01h-.69V69.87l-.42-.04 1.1.11v18.07zm-1.36 0h-1.45V69.66l1.45.15v18.21zM73.96 69.83l-.25-.02z" />
            <path style="fill:#e4ecf7;fill-rule:nonzero" d="M74.38 88.01h-.67v-18.2l.25.02.42.05z" />
            <path style="fill:#3f79bc;fill-rule:nonzero" d="M80.12 90.92H67.19c-.35 0-.49-.44-.21-.65l2.05-1.5c.98-.72 2.17-1.11 3.4-1.11h2.46c1.22 0 2.41.39 3.4 1.11l2.05 1.5c.28.2.13.65-.21.65z" />
        </g>
    </g>
</svg>