<?xml version="1.0" encoding="UTF-8"?>
<!DOCTYPE svg PUBLIC "-//W3C//DTD SVG 1.1//EN" "http://www.w3.org/Graphics/SVG/1.1/DTD/svg11.dtd">
<!-- Creator: CorelDRAW 2019 (64 Bit) -->
<svg xmlns="http://www.w3.org/2000/svg" xml:space="preserve" width="31.6302mm" height="24.7901mm" version="1.1" style="shape-rendering:geometricPrecision; text-rendering:geometricPrecision; image-rendering:optimizeQuality; fill-rule:evenodd; clip-rule:evenodd"
viewBox="0 0 76.67 60.09"
 xmlns:xlink="http://www.w3.org/1999/xlink">
 <defs>
  <style type="text/css">
   <![CDATA[
    .fil4 {fill:#2A2150;fill-rule:nonzero}
    .fil5 {fill:#2B2150;fill-rule:nonzero}
    .fil6 {fill:#2BB19E;fill-rule:nonzero}
    .fil14 {fill:#313C85;fill-rule:nonzero}
    .fil8 {fill:#4A5DA6;fill-rule:nonzero}
    .fil0 {fill:#4B3584;fill-rule:nonzero}
    .fil7 {fill:#5970B4;fill-rule:nonzero}
    .fil9 {fill:#8396CC;fill-rule:nonzero}
    .fil15 {fill:#8ECFD4;fill-rule:nonzero}
    .fil12 {fill:#A4C6E9;fill-rule:nonzero}
    .fil3 {fill:#C2DEF5;fill-rule:nonzero}
    .fil1 {fill:#E6325C;fill-rule:nonzero}
    .fil10 {fill:#EA5E83;fill-rule:nonzero}
    .fil13 {fill:#EE7E94;fill-rule:nonzero}
    .fil11 {fill:#F5AE9E;fill-rule:nonzero}
    .fil2 {fill:#F7AF4D;fill-rule:nonzero}
   ]]>
  </style>
 </defs>
 <g id="Camada_x0020_1">
  <metadata id="CorelCorpID_0Corel-Layer"/>
  <g id="_1486461592304">
   <path class="fil0" d="M64.79 42.86c0.04,0.19 0.05,0.39 0.07,0.59l-0.88 0c0,-0.01 0.01,-0.01 0.01,-0.02l0.1 -0.24 0.38 -0.95c0.15,0.18 0.26,0.39 0.32,0.63z"/>
   <path class="fil0" d="M65.14 38.59c-0.12,0.43 -0.22,0.85 -0.27,1.23 -0.09,0.06 -0.17,0.13 -0.24,0.21 -0.36,0.39 -0.52,0.94 -0.61,1.47 -0.01,0.06 -0.03,0.24 -0.03,0.24l-0.43 1.44 -0.02 0.08c-0.02,0.06 -0.01,0.13 0.02,0.18l-44.94 0c-0.14,0 -0.26,-0.12 -0.26,-0.26l0 -4.34c0,-0.14 0.12,-0.26 0.26,-0.26l46.54 0z"/>
   <path class="fil0" d="M68.59 39.5l0.02 3.58c0,0.04 -0.01,0.08 -0.04,0.12 -0.09,0.14 -0.33,0.25 -0.61,0.25l-0.47 0c-0.11,-0.09 -0.23,-0.17 -0.34,-0.27 -0.04,-0.03 -0.07,-0.07 -0.1,-0.1 -0.4,-0.49 -0.22,-1.27 -0.15,-1.96 0.02,0 0.04,0 0.06,-0.01 0.05,-0.02 0.11,-0.06 0.12,-0.12 0.12,-0.57 0.6,-1.48 1.02,-2.39 0.1,0.01 0.18,0.04 0.26,0.07 0,0 0.22,0.71 0.22,0.83z"/>
   <path class="fil1" d="M67.49 44.86c-0.05,0.07 -0.11,0.15 -0.19,0.19 -0.08,0.03 -0.16,0.02 -0.24,0 -0.56,-0.12 -1.1,-0.33 -1.6,-0.62 -0.16,-0.09 -0.32,-0.19 -0.42,-0.35 -0.22,-0.33 -0.15,-0.82 -0.25,-1.22 -0.06,-0.24 -0.18,-0.45 -0.32,-0.63l-0.38 0.95c-0.04,0.11 -0.07,0.23 -0.15,0.32 -0.06,0.07 -0.17,0.09 -0.25,0.06l-0.01 -0c-0.07,-0.02 -0.13,-0.08 -0.15,-0.15 -0.03,-0.07 0,-0.16 0.02,-0.23l0.43 -1.44c0,0 0.02,-0.17 0.03,-0.24 0.09,-0.53 0.26,-1.08 0.61,-1.47 0.07,-0.08 0.15,-0.15 0.24,-0.21 0.13,0.1 0.27,0.19 0.42,0.29 0.03,0.39 0.18,0.88 0.3,1.14 1.09,2.44 1.22,0.88 1.25,-0.02 0,0 -0.2,1.36 0.21,1.85 0.24,0.3 0.68,0.42 0.77,0.82 0.08,0.33 -0.14,0.68 -0.34,0.97z"/>
   <path class="fil2" d="M26.24 10.25c-0.49,0.54 -0.81,1.22 -0.91,1.94 -0.02,0.16 -0.16,0.29 -0.33,0.29l-2.98 0c-0.17,0 -0.31,-0.12 -0.33,-0.29 -0.1,-0.73 -0.41,-1.39 -0.92,-1.95 -0.6,-0.66 -0.96,-1.53 -0.96,-2.48 0,-2.13 1.8,-3.84 3.96,-3.69 1.82,0.13 3.29,1.6 3.42,3.41 0.08,1.06 -0.3,2.04 -0.95,2.76z"/>
   <path class="fil3" d="M23.53 15.46l-0.03 0c-0.87,0 -1.58,-0.61 -1.58,-1.36l0 -1.02c0,-0.05 0.04,-0.09 0.09,-0.09l3 0c0.05,0 0.09,0.04 0.09,0.09l0 1.02c0,0.75 -0.71,1.36 -1.58,1.36z"/>
   <path class="fil4" d="M22.05 13.12l0 0.98c0,0.68 0.65,1.23 1.45,1.23l0.03 0c0.8,0 1.45,-0.55 1.45,-1.23l0 -0.98 -2.93 0zm1.48 2.47l-0.03 0c-0.94,0 -1.71,-0.67 -1.71,-1.49l0 -1.02c0,-0.12 0.1,-0.22 0.22,-0.22l3 0c0.12,0 0.22,0.1 0.22,0.22l0 1.02c0,0.82 -0.77,1.49 -1.71,1.49z"/>
   <path class="fil5" d="M18.19 8.5l-3.01 0c-0.05,0 -0.09,-0.04 -0.09,-0.09 0,-0.05 0.04,-0.09 0.09,-0.09l3.01 0c0.05,0 0.09,0.04 0.09,0.09 0,0.05 -0.04,0.09 -0.09,0.09z"/>
   <path class="fil5" d="M31.84 8.5l-3.01 0c-0.05,0 -0.09,-0.04 -0.09,-0.09 0,-0.05 0.04,-0.09 0.09,-0.09l3.01 0c0.05,0 0.09,0.04 0.09,0.09 0,0.05 -0.04,0.09 -0.09,0.09z"/>
   <path class="fil5" d="M23.51 3.18c-0.05,0 -0.09,-0.04 -0.09,-0.09l0 -3c0,-0.05 0.04,-0.09 0.09,-0.09 0.05,0 0.09,0.04 0.09,0.09l0 3c0,0.05 -0.04,0.09 -0.09,0.09z"/>
   <path class="fil5" d="M19.75 4.74c-0.02,0 -0.04,-0.01 -0.06,-0.03l-2.13 -2.12c-0.03,-0.03 -0.03,-0.09 0,-0.12 0.03,-0.03 0.09,-0.03 0.12,0l2.12 2.12c0.03,0.03 0.03,0.09 0,0.12 -0.02,0.02 -0.04,0.03 -0.06,0.03z"/>
   <path class="fil5" d="M27.28 4.74c-0.02,0 -0.04,-0.01 -0.06,-0.03 -0.03,-0.03 -0.03,-0.09 0,-0.12l2.12 -2.12c0.03,-0.03 0.09,-0.03 0.12,0 0.03,0.03 0.03,0.09 0,0.12l-2.12 2.12c-0.02,0.02 -0.04,0.03 -0.06,0.03z"/>
   <path class="fil6" d="M70.59 54.73l0 2.04c0,1.72 -1.57,3.06 -3.51,3.06l-46.36 0c-0.22,0 -0.4,-0.16 -0.4,-0.38l0 -0.01c0,-0.22 0.18,-0.41 0.4,-0.41l0.23 0 -0.03 0.04 0 0.02 19.71 0c1.18,0 2.13,-0.93 2.13,-2.08l0 -2.49c0,-1.15 -0.95,-2.08 -2.13,-2.08l-12.62 0 0 -0.01 -7.29 0c-0.22,0 -0.4,-0.18 -0.4,-0.4l0 -0.01c0,-0.22 0.18,-0.41 0.4,-0.41l36.91 0 0 1.25c0,0.1 0.07,0.15 0.13,0.09l1.16 -1.34 0.28 0 1.16 1.34c0.05,0.06 0.13,0.01 0.13,-0.09l0 -1.25 6.6 0c1.94,0 3.51,1.39 3.51,3.11z"/>
   <path class="fil3" d="M20.93 59.07l0 0.02 19.71 0c1.18,0 2.13,-0.93 2.13,-2.08l0 -2.49c0,-1.15 -0.95,-2.08 -2.13,-2.08l-19.71 0 0 0.02c0.81,0.98 0.84,5.7 0,6.61z"/>
   <path class="fil2" d="M68.85 43.59c0,0.02 -0,0.05 -0.01,0.07 -0.03,0.23 -0.23,0.35 -0.45,0.35 0,-0 -0.56,-0.03 -0.56,-0.03 -0,-0.03 -0.01,-0.06 -0.01,-0.09 -0.05,-0.2 -0.18,-0.33 -0.33,-0.45l0.47 0c0.28,0 0.52,-0.1 0.61,-0.25 0.01,-0.01 0.11,0.06 0.12,0.06 0.1,0.08 0.16,0.2 0.16,0.33z"/>
   <path class="fil2" d="M68.85 51.18l0 0.01c0,0.23 -0.18,0.44 -0.4,0.44l-46.36 0c-1.93,0 -3.51,-1.42 -3.51,-3.18l0 -2.09c0,-1.3 0.87,-2.42 2.1,-2.92l44.17 0c0.02,0.16 0.03,0.31 0.08,0.45 0.01,0.03 0.02,0.06 0.04,0.09l-23 0c-1.2,0 -2.17,0.94 -2.17,2.11l0 2.52c0,0.54 0.21,1.04 0.56,1.41 0.4,0.42 0.97,0.69 1.61,0.69l26.47 0.05c0.22,0 0.4,0.19 0.4,0.41z"/>
   <path class="fil3" d="M68.25 43.98c-0.77,1.13 -0.78,5.72 0.05,6.61l0 0.02 -7.82 0 0 -3.72 -2.85 0 0 3.72 -15.75 0c-0.59,0 -1.12,-0.23 -1.51,-0.59 -0.41,-0.38 -0.66,-0.92 -0.66,-1.51l0 -2.52c0,-1.16 0.97,-2.1 2.17,-2.1l23.05 0c0.01,0.03 0.02,0.06 0.04,0.09 0.01,0.03 0.03,0.06 0.05,0.09 0.1,0.16 0.26,0.26 0.42,0.35 0.5,0.29 1.04,0.49 1.6,0.62 0.08,0.02 0.16,0.03 0.24,0 0.08,-0.03 0.13,-0.11 0.19,-0.19 0.18,-0.26 0.37,-0.57 0.35,-0.87 -0,-0.03 -0.01,-0.06 -0.01,-0.09l0.48 0c0,0 -0.04,0.07 -0.05,0.09z"/>
   <path class="fil7" d="M28.15 51.63l-3.3 0c-0.75,-0.92 -0.93,-1.75 -0.93,-2.76l0 -2.7c0,-1 0.55,-2.17 1.5,-2.73l2.63 0c-1.17,0.22 -2.06,1.36 -2.06,2.73l0 2.7c0,1.41 0.94,2.58 2.16,2.75z"/>
   <path class="fil7" d="M33.75 51.63l-3.3 0c-0.75,-0.92 -0.93,-1.76 -0.93,-2.77l0 -2.71c0,-0.99 0.52,-2.13 1.44,-2.71l2.53 0c-1.09,0.29 -1.9,1.39 -1.9,2.71l0 2.71c0,1.42 0.94,2.59 2.16,2.77z"/>
   <path class="fil8" d="M55.11 25.52l0 0.01c0,0.23 -0.19,0.42 -0.42,0.42l-0.06 0c0,-0 0,-0 0,-0.01l0 -0.02 -27.53 0c-1.25,0 -2.26,0.95 -2.26,2.13l0 2.56c0,1.18 1.01,2.13 2.26,2.13l1.34 0 0 0.9 -0.13 0 -0.74 0c-0.33,0 -0.65,-0.04 -0.95,-0.11 -1.56,-0.37 -2.71,-1.62 -2.71,-3.1l0 -2.11c0,-1.77 1.64,-3.21 3.65,-3.21l27.12 0c0.23,0 0.42,0.19 0.42,0.42z"/>
   <path class="fil8" d="M55.11 33.18l0 0.01c0,0.23 -0.19,0.42 -0.42,0.42l-22.57 0.02 0 -0.89 22.57 0.03c0.23,0 0.42,0.19 0.42,0.42z"/>
   <path class="fil3" d="M54.64 25.95c-0.85,1.01 -0.89,5.84 0,6.77l0 0.02 -22.52 0 0 -4.04 -3.68 0 0 4.04 -1.34 0c-1.25,0 -2.26,-0.95 -2.26,-2.13l0 -2.56c0,-1.18 1.01,-2.13 2.26,-2.13l27.53 0 0 0.02c-0,0 -0,0 -0,0.01z"/>
   <path class="fil1" d="M66.49 33.57c-0.09,0.67 -0.58,1.78 -0.89,3.26 -0.11,0.54 -0.3,1.15 -0.46,1.76l-0 0 -44.32 -0.02c-0.22,0 -0.4,-0.11 -0.4,-0.25l0 -0.01c0,-0.14 0.18,-0.25 0.4,-0.25l7.29 0 0 -0.03 19.18 0c1.2,0 2.17,-0.58 2.17,-1.3l0 -1.56c0,-0.72 -0.97,-1.3 -2.17,-1.3l-15.16 0 0 2.84c0,0.13 -0.1,0.2 -0.16,0.12l-1.68 -1.95 -1.68 1.95c-0.07,0.08 -0.16,0.01 -0.16,-0.12l0 -2.84 -7.58 0 0 0.01c0.01,0.01 0.02,0.02 0.03,0.02l-0.08 0c-0.22,0 -0.4,-0.11 -0.4,-0.25l0 -0.01c0,-0.14 0.18,-0.25 0.4,-0.25l37.88 0c0.07,0.03 0.15,0.06 0.22,0.09 0.89,0.32 4.83,0.27 6.04,0.22 0.38,-0.01 1.37,-0.07 1.52,-0.14z"/>
   <path class="fil3" d="M49.46 35.17l0 1.56c0,0.72 -0.97,1.3 -2.17,1.3l-26.42 0 0 -0.01c0.86,-0.56 0.82,-3.52 0,-4.13l0 -0.01 7.58 0 0 2.84c0,0.13 0.1,0.2 0.16,0.12l1.68 -1.95 1.68 1.95c0.07,0.08 0.16,0.01 0.16,-0.12l0 -2.84 15.16 0c1.2,0 2.17,0.58 2.17,1.3z"/>
   <path class="fil1" d="M42.79 18.31l0.03 -1.57 0.45 0.76 0.1 0.17 0.09 0.15 -0.68 0.49zm3.08 -0.07c-0.02,-0.06 -0.04,-0.11 -0.06,-0.17 0,0 -1.94,-5.51 -2.01,-5.7 -0.23,-0.59 -0.73,-1.07 -1.36,-1.22l-1.42 -0.32c-0.28,-0.06 -0.56,-0.12 -0.84,-0.19 0.12,0.03 -0.02,0.24 -0.02,0.28 0,0.31 -0.21,0.56 -0.44,0.75 -0.27,0.22 -0.55,0.41 -0.87,0.55 -0.02,0.01 -0.11,-0.05 -0.13,-0.06 -0.2,-0.1 -0.4,-0.22 -0.58,-0.36 -0.15,-0.12 -0.3,-0.25 -0.41,-0.4 -0.04,-0.06 -0.08,-0.11 -0.1,-0.17 -0.09,-0.21 -0.08,-0.42 -0.08,-0.64 -0.07,0.02 -0.14,0.05 -0.21,0.07 -0.15,0.05 -0.32,0.03 -0.48,0.09 -0.4,0.16 -0.83,0.23 -1.23,0.38 -0.36,0.13 -0.68,0.44 -1,0.67 -0.21,0.15 -0.36,0.35 -0.49,0.57 -0.26,0.46 -2.41,5 -2.46,5.13 -0.05,0.12 -0.12,0.26 -0.13,0.38 -0.01,0.25 -0.02,0.51 0.04,0.75 0.05,0.22 0.28,0.6 0.46,0.74 0.61,0.48 2.52,-0.37 2.52,-0.37 -0.02,0.08 -0.28,0.63 -0.33,0.77 -0.02,0.04 -0.03,0.09 -0.05,0.13 -0,0.01 -0.01,0.02 -0.01,0.03l4.68 1.72c0,0 3.82,-1.24 3.81,-1.27 1.36,-0.37 3.65,-1.16 3.18,-2.14z"/>
   <path class="fil2" d="M35.43 25.87c-0.61,0.05 -1.95,0.09 -2.56,0.13 -0.13,0.01 -0.27,0.02 -0.4,-0.02 -0.26,-0.09 -0.41,-0.34 -0.49,-0.56 -0.33,-0.89 -0.23,-2.04 0.32,-2.73l2.63 0.86 0.51 2.32z"/>
   <path class="fil5" d="M33.61 25.02c-0.01,0 -0.02,-0 -0.03,-0.01 -0.05,-0.02 -0.07,-0.07 -0.05,-0.11 0.14,-0.37 0.18,-0.77 0.13,-1.18 -0.01,-0.05 0.03,-0.09 0.08,-0.1 0.05,-0.01 0.09,0.03 0.1,0.08 0.05,0.44 0.01,0.87 -0.14,1.26 -0.01,0.04 -0.05,0.06 -0.08,0.06z"/>
   <path class="fil5" d="M34.22 25.09c-0.01,0 -0.02,-0 -0.03,-0.01 -0.05,-0.02 -0.07,-0.07 -0.05,-0.11 0.13,-0.36 0.18,-0.77 0.13,-1.18 -0.01,-0.05 0.03,-0.09 0.08,-0.1 0.05,-0.01 0.09,0.03 0.1,0.08 0.05,0.44 0,0.87 -0.14,1.26 -0.01,0.04 -0.05,0.06 -0.08,0.06z"/>
   <path class="fil2" d="M44.02 22.23c0.67,0.8 0.92,2.18 0.7,3.2 -0.05,0.24 -0.16,0.5 -0.4,0.57 -0.12,0.04 -0.24,0.01 -0.36,-0.01 -0.56,-0.11 -1.79,-0.29 -2.35,-0.4l0.02 -2.55c0.6,-0.23 2.31,-0.93 2.4,-0.81z"/>
   <path class="fil5" d="M43.17 24.82c-0.03,0 -0.07,-0.02 -0.08,-0.06 -0.17,-0.44 -0.26,-0.91 -0.25,-1.39 0,-0.05 0.04,-0.09 0.09,-0.09 0,0 0,0 0,0 0.05,0 0.09,0.04 0.09,0.09 -0,0.45 0.08,0.91 0.24,1.32 0.02,0.04 -0,0.1 -0.05,0.11 -0.01,0 -0.02,0.01 -0.03,0.01z"/>
   <path class="fil5" d="M42.61 24.85c-0.04,0 -0.07,-0.02 -0.08,-0.06 -0.17,-0.44 -0.26,-0.91 -0.25,-1.39 0,-0.05 0.04,-0.09 0.09,-0.09 0,0 0,0 0,0 0.05,0 0.09,0.04 0.09,0.09 -0,0.45 0.08,0.91 0.24,1.32 0.02,0.05 -0.01,0.1 -0.05,0.11 -0.01,0 -0.02,0.01 -0.03,0.01z"/>
   <path class="fil5" d="M42.12 24.98c-0.03,0 -0.07,-0.02 -0.08,-0.06 -0.17,-0.44 -0.26,-0.91 -0.25,-1.39 0,-0.05 0.03,-0.08 0.09,-0.09 0.05,0 0.09,0.04 0.09,0.09 -0,0.45 0.08,0.91 0.24,1.32 0.02,0.04 -0,0.1 -0.05,0.11 -0.01,0 -0.02,0.01 -0.03,0.01z"/>
   <path class="fil6" d="M45.69 22.95l-1.12 0.32c-0.13,-0.39 -0.32,-0.75 -0.56,-1.04 -0.1,-0.11 -1.8,0.59 -2.4,0.81 0.06,0.81 -0.06,1.77 -0.02,2.55 0,0 0.01,0.15 0.01,0.15l-2.66 -0.87 -3.52 1 -0.51 -2.32 -3.19 -1.05c-0.85,-0.28 -1.31,-1.19 -1.03,-2.04l0.01 -0.03c0.16,-0.48 0.52,-0.84 0.97,-1.01 0.02,-0.01 0.05,-0.02 0.08,-0.03 0.08,-0.03 0.16,-0.05 0.24,-0.06 0.11,0.03 0.21,0.12 0.31,0.17 0.21,0.1 0.45,0.05 0.67,-0.02l5.91 2.17c0,0 5.84,-1.82 5.84,-1.82 0.81,-0.25 1.71,0.18 2,0.98 0.29,0.79 -0.05,1.71 -0.83,2.06 -0.06,0.03 -0.13,0.05 -0.19,0.07z"/>
   <path class="fil9" d="M37.52 10.84l-1.03 0c0.27,-0.06 0.54,-0.11 0.8,-0.17l0.22 0c-0.01,0.06 -0,0.12 0,0.17z"/>
   <path class="fil9" d="M41.13 10.84l-0.91 0c-0,-0.06 -0.01,-0.12 -0.03,-0.17l0.01 0c0.31,0.06 0.62,0.12 0.93,0.17z"/>
   <path class="fil9" d="M37.66 11.23c0.03,0.06 0.08,0.12 0.12,0.17l-2.92 0c0.07,-0.05 0.14,-0.1 0.21,-0.14 0.02,-0.01 0.04,-0.02 0.06,-0.03l2.53 0z"/>
   <path class="fil9" d="M43.02 11.41l-3 0c0.04,-0.05 0.08,-0.11 0.11,-0.17l2.57 0c0.11,0.05 0.21,0.1 0.32,0.17z"/>
   <path class="fil9" d="M38.24 11.8c0.09,0.06 0.18,0.12 0.27,0.17l-4.18 0c0.04,-0.06 0.08,-0.12 0.13,-0.17l3.78 0z"/>
   <path class="fil9" d="M43.59 11.98l-4.3 0c0.01,-0.01 0.03,-0.02 0.04,-0.03 0.08,-0.05 0.16,-0.1 0.23,-0.15l3.89 0c0.05,0.06 0.09,0.11 0.13,0.17z"/>
   <path class="fil9" d="M43.9 12.55l-9.92 0c0.03,-0.06 0.06,-0.12 0.1,-0.17l9.74 0c0.03,0.06 0.05,0.11 0.08,0.17z"/>
   <path class="fil9" d="M44.1 13.12l-10.4 0c0.02,-0.04 0.04,-0.09 0.07,-0.13 0.01,-0.01 0.01,-0.03 0.02,-0.04l10.27 0c0.02,0.06 0.04,0.11 0.06,0.17z"/>
   <path class="fil9" d="M33.51 13.51l0.82 0 0 0.17 -0.9 0c0.03,-0.06 0.06,-0.12 0.08,-0.17z"/>
   <polygon class="fil9" points="42.47,13.51 41.8,13.69 35.32,13.69 34.65,13.51 "/>
   <path class="fil9" d="M44.26 13.69l-1.47 0 0 -0.17 1.43 0c0.02,0.06 0.03,0.11 0.05,0.17z"/>
   <path class="fil9" d="M33.23 14.08l1.1 0 0 0.17 -1.18 0c0.03,-0.06 0.06,-0.12 0.09,-0.17z"/>
   <polygon class="fil9" points="40.24,14.08 39.58,14.25 37.54,14.25 36.87,14.08 "/>
   <path class="fil9" d="M44.41 14.25l-1.62 0 0 -0.17 1.57 0c0.01,0.02 0.01,0.04 0.02,0.06 0.01,0.04 0.02,0.08 0.03,0.11z"/>
   <path class="fil9" d="M32.95 14.65l1.38 0 0 0.17 -1.46 0c0.03,-0.06 0.06,-0.12 0.08,-0.17z"/>
   <path class="fil9" d="M44.58 14.82l-1.79 0 0 -0.17 1.73 0c0.01,0.06 0.03,0.12 0.05,0.17z"/>
   <path class="fil9" d="M32.67 15.22l1.65 0 0 0.17 -1.74 0c0.03,-0.06 0.06,-0.12 0.09,-0.17z"/>
   <path class="fil9" d="M44.77 15.39l-1.98 0 0 -0.17 1.92 0c0.02,0.06 0.04,0.12 0.06,0.17z"/>
   <path class="fil9" d="M32.4 15.79l1.93 0 0 0.17 -2.02 0c0.03,-0.06 0.06,-0.12 0.09,-0.17z"/>
   <path class="fil9" d="M44.99 15.96l-2.2 0 0 -0.17 2.14 0c0.02,0.06 0.05,0.12 0.07,0.17z"/>
   <path class="fil9" d="M32.12 16.36l2.21 0 0 0.17 -2.3 0c0.03,-0.06 0.06,-0.12 0.09,-0.17z"/>
   <path class="fil9" d="M45.25 16.53l-2.46 0 0 -0.17 2.38 0c0.03,0.06 0.05,0.12 0.08,0.17z"/>
   <path class="fil9" d="M31.84 16.93l2.49 0 0 0.17 -2.57 0c0.03,-0.06 0.05,-0.12 0.08,-0.17z"/>
   <path class="fil9" d="M45.52 17.1l-2.33 0c-0.03,-0.06 -0.06,-0.11 -0.09,-0.17l2.34 0c0.03,0.06 0.05,0.11 0.08,0.17z"/>
   <path class="fil9" d="M35.27 17.67l-3.66 0c-0.02,0 -0.03,-0.01 -0.05,-0.02 -0.02,-0.01 -0.04,-0.04 -0.04,-0.07 0,-0.05 0.04,-0.08 0.08,-0.09l3.54 0 0.12 0.17z"/>
   <path class="fil9" d="M45.62 17.68l-2.24 -0.01 -0.1 -0.17 2.29 0.01c0.02,0.06 0.04,0.11 0.05,0.17z"/>
   <path class="fil9" d="M35.68 18.24l-4.08 0c-0.01,0 -0.03,-0 -0.04,-0.01 -0.03,-0.01 -0.05,-0.04 -0.05,-0.07 0,-0.03 0.02,-0.06 0.05,-0.08 0.01,-0.01 0.03,-0.01 0.04,-0.01l3.95 0 0.13 0.17z"/>
   <path class="fil9" d="M45.83 18.24l-2.97 0c0.07,-0.06 0.15,-0.12 0.22,-0.17l2.74 0c0,0.01 0,0.03 0,0.04 0,0.04 0,0.09 0,0.13z"/>
   <path class="fil9" d="M35.84 18.64c-0.01,0.02 -0.01,0.02 -0.02,0.02 -0.07,0.02 -0.24,0.09 -0.39,0.15l-3.82 0c-0.02,0 -0.03,-0.01 -0.04,-0.01 -0.03,-0.01 -0.04,-0.04 -0.04,-0.07 0,-0.02 0.01,-0.03 0.01,-0.05l0 -0c0.02,-0.02 0.04,-0.04 0.07,-0.04l4.23 0z"/>
   <path class="fil9" d="M45.76 18.64c-0.01,0.03 -0.02,0.06 -0.03,0.1 -0.01,0.02 -0.02,0.05 -0.03,0.07l-3.72 0c-0.04,-0.06 -0.09,-0.11 -0.15,-0.17 -0,-0 -0.01,-0.01 -0.01,-0.01l3.95 0z"/>
   <path class="fil9" d="M33.87 19.21c-0.09,0.04 -0.19,0.1 -0.28,0.15 0.02,0.01 0.03,0.02 0.05,0.02l-1.72 0c-0.03,-0.02 -0.06,-0.04 -0.09,-0.07 -0.03,-0.03 -0.06,-0.06 -0.09,-0.1l2.13 0z"/>
   <path class="fil9" d="M37.04 19.38l-2.66 0c0.01,-0.06 0.03,-0.11 0.03,-0.17l1.95 0 0.67 0.17z"/>
   <path class="fil9" d="M45.4 19.21c-0.06,0.06 -0.13,0.12 -0.21,0.17l-3.26 0 0.03 -0.17 3.43 0z"/>
   <path class="fil9" d="M38.84 19.95l-4.53 0c-0.03,-0.02 -0.07,-0.03 -0.1,-0.04 -0.02,-0.01 -0.04,-0.02 -0.06,-0.03 0.01,-0.03 0.03,-0.07 0.04,-0.1l4.45 0c0.07,0.06 0.14,0.12 0.22,0.17z"/>
   <path class="fil9" d="M44.41 19.78c-0.1,0.04 -0.2,0.07 -0.29,0.1 -0.06,0.02 -0.13,0.05 -0.2,0.07l-2.09 0 0.03 -0.17 2.54 0z"/>
   <path class="fil9" d="M42.78 20.35c-0.16,0.06 -0.33,0.11 -0.5,0.17l-6.61 0c-0.14,-0.06 -0.27,-0.11 -0.41,-0.17l7.52 0z"/>
   <path class="fil9" d="M40.8 20.92c0,0 -0.45,0.12 -0.59,0.17l-3.15 0c-0.14,-0.06 -0.27,-0.11 -0.41,-0.17l4.15 0z"/>
   <path class="fil10" d="M26.84 18.45l-2.49 5.76 -2.02 0.53c0.07,-0.19 0.16,-0.45 0.16,-0.56 0.03,-0.48 -0.02,-0.93 -0.18,-1.36 -0.08,-0.21 -0.27,-0.25 -0.49,-0.19 -0.03,0.01 -0.58,0.05 -0.64,0.39 -0.2,1.28 -0.72,1.4 -0.98,1.61 -0.05,0.04 -0.08,0.1 -0.11,0.17l-3.32 -0.38 1.86 -5.55 4.61 0.36 0 -0.01 3.59 -0.77z"/>
   <path class="fil2" d="M7.3 58.28c-0.01,0.4 -0.36,0.71 -0.69,0.96 -0.08,0.06 -0.17,0.13 -0.28,0.14 -0.1,0.01 -0.19,-0.03 -0.28,-0.08 -0.63,-0.33 -1.2,-0.75 -1.71,-1.25 -0.16,-0.16 -0.32,-0.32 -0.39,-0.53 -0.16,-0.45 0.07,-0.96 0.08,-1.45 0,-0.29 -0.07,-0.56 -0.19,-0.81l-0.93 1.16c-0.09,0.12 -0.27,0.14 -0.4,0.05l-0.01 -0c-0.13,-0.09 -0.17,-0.26 -0.09,-0.38l0.99 -1.54c0,0 0.08,-0.18 0.11,-0.25 0.27,-0.56 0.63,-1.11 1.17,-1.42 0.3,-0.17 0.66,-0.25 0.99,-0.21l-0.09 0.09c-0.25,0.39 -0.13,1.21 0.03,1.65 0.09,0.25 0.2,0.45 0.32,0.59 0.21,0.25 0.52,0.35 0.83,0.23 0.05,-0.02 0.11,-0.05 0.16,-0.08 -0.27,0.66 -0.59,1.36 -0.3,1.96 0.2,0.41 0.67,0.71 0.66,1.17z"/>
   <path class="fil11" d="M7.06 54.84c-0.26,0.6 -1.02,0.69 -1.43,-0.44 -0.16,-0.45 -0.28,-1.27 -0.03,-1.65l0.18 -0.19c-0.04,0.07 0.93,0.9 1,0.95 0.2,0.16 0.41,0.31 0.61,0.42 0.05,0.03 0.09,0.05 0.14,0.07 0,0 -0.14,0.26 -0.1,0.2 0.02,-0.03 -0.37,0.64 -0.37,0.64z"/>
   <path class="fil2" d="M16.69 59.51c-0.03,0.1 -0.06,0.21 -0.14,0.28 -0.08,0.07 -0.18,0.08 -0.28,0.1 -0.71,0.09 -1.43,0.08 -2.13,-0.03 -0.22,-0.03 -0.45,-0.08 -0.64,-0.21 -0.4,-0.27 -0.52,-0.82 -0.8,-1.21 -0.17,-0.23 -0.39,-0.41 -0.64,-0.55l-0.06 1.48c-0.01,0.15 -0.14,0.27 -0.3,0.27l-0.01 0c-0.16,0 -0.29,-0.11 -0.3,-0.26l-0.11 -1.82c0,0 -0.04,-0.19 -0.06,-0.27 -0.12,-0.61 -0.15,-1.26 0.1,-1.82 0.14,-0.33 0.37,-0.58 0.67,-0.73 -0.01,0.01 0.02,-0 0,0 0.12,0.51 0.26,1.06 0.66,1.41 0.39,0.35 0.96,0.43 1.49,0.38 0.13,-0.01 0.27,-0.04 0.35,-0.14 0.03,-0.03 0.05,-0.08 0.06,-0.12 0.24,0.7 0.32,1.28 0.87,1.52 0.43,0.18 0.97,0.19 1.24,0.57 0.23,0.33 0.13,0.78 0.02,1.17z"/>
   <path class="fil11" d="M14.45 56.34c-0.18,0.29 -0.86,0.29 -1.69,-0.15 -0.42,-0.22 -0.72,-0.86 -0.76,-1.32 0.05,-0.03 0.09,-0.05 0.14,-0.08l2.06 0.22c0.06,0.13 0.22,1.19 0.27,1.33z"/>
   <path class="fil0" d="M16.41 36.51c-0.04,2.18 -0.45,5.46 -0.71,7.3l0 0c-0.08,0.58 -0.14,1.02 -0.18,1.24 -0.01,0.03 -0.01,0.06 -0.01,0.08 -0.01,0.03 -0.01,0.05 -0.01,0.06 -0,0.01 -0,0.01 -0,0.01l-0 0.02 -0.61 4.87 -0.2 1.62 0 0.01 -0.41 3.29 -0.2 -0.02 -0.19 -0.02 -0.61 -0.06 -0.2 -0.02 -0.61 -0.06 -0.2 -0.02 -0.61 -0.06 -0.03 -0 0.34 -7.01c-0.02,0.02 -0.13,0.19 -0.32,0.45 -0.06,0.09 -0.13,0.19 -0.2,0.29 -0.17,0.25 -0.38,0.54 -0.61,0.87 -0.02,0.03 -0.04,0.06 -0.06,0.09 -1.19,1.7 -2.88,4.12 -3.21,4.52 -0.01,0.01 -0.02,0.02 -0.02,0.03 -0.01,0.01 -0.01,0.01 -0.02,0.02 -0,0 -0,0 -0.01,0 -0.07,0.03 -0.57,-0.35 -0.74,-0.49 -0.02,-0.02 -0.04,-0.03 -0.05,-0.04 -0.05,-0.04 -0.1,-0.09 -0.15,-0.13 -0.21,-0.19 -0.41,-0.39 -0.61,-0.59 -0.01,-0.01 -0.02,-0.02 -0.04,-0.04 -0,-0 -0,-0 -0,-0 -0.06,-0.05 -0.15,-0.13 -0.14,-0.15 0.21,-0.5 1.85,-3.65 2.42,-4.76 0.07,-0.13 0.63,-1.19 0.81,-1.5 0.21,-0.36 0.41,-0.74 0.66,-1.07 0.06,-0.08 0.24,-0.24 0.35,-0.34 0,0 0,-0 0,-0 0.04,-0.04 0.08,-0.07 0.09,-0.09 0.11,-0.13 0.07,-0.22 0.07,-0.22 -0.03,-1.3 -0.11,-2.61 -0.28,-3.9 0.1,0.03 0.2,0.04 0.23,0.02 0.2,-0.12 0.2,-0.2 0.07,-0.32 -0.24,-0.22 -0.39,-0.84 -0.41,-0.97 -0.02,-0.09 -0.08,-0.34 -0.17,-0.57 0,-0 0,-0 -0,-0 -0.05,-0.29 -0.08,-0.54 -0.11,-0.71 -0.06,-0.4 -0.08,-0.8 -0.08,-1.21l0 -0.07c0.03,0 0.06,0.01 0.1,0.01 0.69,0.07 2.59,0.24 3.79,0.11 0.3,-0.03 0.62,-1.56 0.62,-1.56 0.91,0 2,-0.16 2,-0.16 0,0 0.02,1.06 0,1.27 -0.01,0.1 0.24,0.05 0.45,-0.01z"/>
   <path class="fil11" d="M7.62 38.21c-0.38,0.28 -0.59,2.48 -0.59,2.48 -0.17,0.67 0.61,1.42 1.25,1.51 0.44,0.05 0.97,-1.65 1.02,-2.02 0,0 0.24,0.3 0.36,0.4 0.09,0.07 0.42,0.16 0.49,0.12 0.2,-0.12 0.2,-0.2 0.07,-0.32 -0.24,-0.22 -0.39,-0.84 -0.41,-0.97 -0.04,-0.19 -0.27,-0.97 -0.42,-1.11l-1.77 -0.09z"/>
   <path class="fil6" d="M9.57 35.72l0.07 -3.78 0.54 -2.25 0.35 2.15 -0.97 3.88zm4.33 -7.97c-0.19,-0.6 -0.62,-1.1 -1.05,-1.56 -0.68,-0.73 -1.4,-1.42 -2.15,-2.08l-1.29 0.31c-0.03,0.01 -0.05,0.01 -0.08,0.02 -0.45,0.13 -0.81,0.3 -0.88,0.66l-0.97 6.41c-0.18,0.72 -0.19,6.7 -0.19,6.7l2.24 0 0.02 -1.34c0.69,0.07 2.59,0.24 3.79,0.11 0.3,-0.03 0.62,-1.56 0.62,-1.56 0.09,-2 -0.03,-4.05 0.05,-6.06 0.02,-0.54 0.04,-1.09 -0.12,-1.6z"/>
   <path class="fil6" d="M21.57 26.01l-3.23 5.01c-0.14,0.45 -0.67,0.63 -1.06,0.37l-0.94 -0.64c0.14,2.03 0.34,5.13 0.35,5.68 -0.08,0.01 -0.73,0.26 -0.72,0.09 0.02,-0.22 0,-1.27 0,-1.27 0,0 -0.33,-2.57 -0.36,-2.92 -0.06,-0.64 0.07,-4.31 0.08,-4.57 0,-0.25 -0.09,-0.48 -0.19,-0.71 -0.42,-0.98 -0.86,-1.95 -1.33,-2.91 -0.06,-0.12 -0.12,-0.24 -0.22,-0.31 -0.06,-0.05 -0.14,-0.07 -0.21,-0.08 -0,-0.04 -0.01,-0.08 -0.01,-0.13l1.16 0.32c0.56,0.18 1.28,1.88 1.53,2.28 0.21,0.34 0.5,0.77 0.47,1.35l0.32 0.5 2.32 -2.98 2.06 0.92z"/>
   <path class="fil11" d="M15.18 20.29c-0.03,0.42 -0.12,0.85 -0.29,1.23 -0.19,0.47 -0.46,0.87 -0.8,1.17 -0.14,0.12 -0.28,0.23 -0.43,0.31 0.04,0.44 0.08,0.88 0.13,1.31 0.02,0.21 0.06,0.46 0,0.67 -0.17,0.58 -1.02,0.04 -1.31,-0.14 -0.71,-0.43 -1.2,-1.07 -1.2,-1.07 0,-0.25 0.1,-0.55 0.19,-0.98 -0.14,-0.11 -0.28,-0.23 -0.41,-0.37 -0.05,-0.06 0.03,-0.19 0.02,-0.26 -0.01,-0.11 -0.07,-0.21 -0.12,-0.31 -0.08,-0.16 -0,-0.35 0.09,-0.5 0.09,-0.15 0.21,-0.3 0.23,-0.48 0.03,-0.34 -0.32,-0.66 -0.22,-0.99 0.02,-0.08 0.07,-0.14 0.11,-0.22 0.2,-0.37 0.08,-0.9 -0.1,-1.14l3.82 0.11c0.22,0.5 0.33,1.07 0.29,1.64z"/>
   <path class="fil12" d="M13.96 35.41c0.09,-2 -0.03,-4.05 0.05,-6.06 0.02,-0.54 0.04,-1.09 -0.12,-1.6 -0.19,-0.6 -0.62,-1.1 -1.05,-1.56 -0.68,-0.73 -1.4,-1.42 -2.15,-2.08 0.2,-0.12 0.41,-0.21 0.63,-0.27 0.14,0.17 0.57,0.66 1.15,1.01 0.29,0.17 1.14,0.72 1.31,0.14 0.06,-0.21 0.02,-0.46 0,-0.67 -0.02,-0.19 -0.04,-0.38 -0.06,-0.57 0.08,0.01 0.15,0.04 0.21,0.08 0.11,0.07 0.17,0.19 0.22,0.31 0.46,0.96 0.91,1.93 1.33,2.91 0.1,0.23 0.2,0.46 0.19,0.71 -0,0.26 -0.14,3.93 -0.08,4.57 0.03,0.35 0.36,2.92 0.36,2.92 0,0 -1.09,0.16 -2,0.16z"/>
   <path class="fil2" d="M16.19 22.93l-0.5 -0.03 -0 -0.01c-0.2,-0.01 -0.41,-0.02 -0.61,-0.03 -0.32,-0.02 -0.69,-0.02 -0.98,-0.16 0.33,-0.3 0.61,-0.71 0.8,-1.18 0.24,-0.57 0.35,-1.3 0.27,-1.92 -0.04,-0.33 -0.13,-0.65 -0.27,-0.95l-0.08 -0c0,0 -3.74,-0.1 -3.74,-0.1 0.09,0 0.18,0.42 0.19,0.49 0.06,0.36 -0.1,0.55 -0.2,0.87 -0.11,0.33 0.25,0.65 0.22,0.99 -0.03,0.33 -0.49,0.63 -0.32,0.98 0.2,0.42 0.09,0.88 -0.25,1.2l-2.78 -0.14c-0.2,-0.4 0.12,-0.87 0.34,-1.26 0.08,-0.13 0.2,-0.24 0.25,-0.38 0.17,-0.49 -0.5,-1.1 0.25,-1.68 1.04,-0.81 -1.24,-1.58 1.58,-3.53 1.54,-1.06 3.64,-0.49 3.94,0.1 0,0 0.69,0.17 1.14,0.64 0.47,0.49 0.65,1.2 0.61,1.86l-0.19 -0.01c0.08,0.15 0.13,0.32 0.11,0.49 -0.04,0.36 -0.39,0.66 -0.35,1.02 0.03,0.32 0.36,0.55 0.37,0.87 0.01,0.24 -0.18,0.47 -0.11,0.71 0.03,0.11 0.12,0.19 0.18,0.28 0.18,0.25 0.24,0.59 0.16,0.89z"/>
   <path class="fil5" d="M12.17 20.18c-0,0 -0.01,-0 -0.01,-0 -0.07,-0 -0.13,-0.07 -0.12,-0.14l0.01 -0.21c0,-0.07 0.06,-0.13 0.14,-0.12 0.07,0 0.13,0.07 0.12,0.14l-0.01 0.21c-0,0.07 -0.06,0.12 -0.13,0.12z"/>
   <path class="fil5" d="M14.17 20.28c-0,0 -0.01,0 -0.01,-0 -0.07,-0 -0.13,-0.07 -0.12,-0.14l0.01 -0.18c0,-0.07 0.06,-0.13 0.14,-0.12 0.07,0 0.13,0.07 0.12,0.14l-0.01 0.18c-0,0.07 -0.06,0.12 -0.13,0.12z"/>
   <path class="fil5" d="M13.12 21.31c-0.14,0 -0.3,-0.03 -0.41,-0.14 -0.05,-0.05 -0.05,-0.14 0.01,-0.18 0.05,-0.05 0.14,-0.05 0.18,0.01 0.08,0.09 0.28,0.06 0.39,0.05 -0,-0.01 0.01,-0.03 0.01,-0.04l-0.15 -1.51c-0.01,-0.07 0.05,-0.14 0.12,-0.14 0.07,-0.01 0.14,0.05 0.14,0.12l0.15 1.5c0.02,0.07 0,0.15 -0.04,0.21 -0.04,0.07 -0.12,0.11 -0.2,0.12 -0.06,0.01 -0.13,0.02 -0.21,0.02z"/>
   <path class="fil5" d="M13.7 21.8c-0.1,0.06 -0.22,0.1 -0.35,0.13 -0.1,0.02 -0.2,0.03 -0.31,0.03 -0.21,0 -0.42,-0.03 -0.6,-0.09 0.13,0.21 0.35,0.27 0.67,0.21 0.07,-0.01 0.14,0.03 0.15,0.1 0.02,0.07 -0.03,0.14 -0.1,0.16 -0.1,0.02 -0.19,0.03 -0.28,0.03 -0.41,0 -0.68,-0.23 -0.8,-0.67 -0.01,-0.02 -0.02,-0.09 0.02,-0.16 0.03,-0.03 0.08,-0.06 0.12,-0.06 0.04,0 0.07,0.02 0.09,0.05l0.01 0.01c0.02,0.01 0.04,0.02 0.06,0.03 0.2,0.11 0.62,0.16 0.91,0.11 0.1,-0.02 0.2,-0.05 0.27,-0.09 0.06,-0.04 0.14,-0.02 0.18,0.05 0.04,0.06 0.02,0.14 -0.05,0.18z"/>
   <path class="fil13" d="M13.85 21.14c-0.02,0.32 0.23,0.59 0.54,0.61 0.2,0.01 0.38,-0.08 0.49,-0.23 0,0 0,0 0,-0 0.04,-0.1 0.08,-0.21 0.12,-0.32 0.01,-0.31 -0.23,-0.58 -0.54,-0.6 -0.32,-0.02 -0.59,0.23 -0.61,0.54z"/>
   <path class="fil13" d="M12.11 21.04c-0.02,0.32 -0.29,0.56 -0.61,0.54 -0.18,-0.01 -0.35,-0.11 -0.44,-0.25 0.09,-0.15 0.2,-0.29 0.21,-0.45 0.01,-0.12 -0.02,-0.23 -0.07,-0.35 0.1,-0.07 0.23,-0.12 0.37,-0.11 0.32,0.02 0.56,0.29 0.54,0.61z"/>
   <path class="fil5" d="M14.44 19.51c-0.02,0 -0.03,-0 -0.05,-0.01 -0.13,-0.05 -0.27,-0.08 -0.41,-0.08 -0.07,-0 -0.13,-0.06 -0.13,-0.13 0,-0.07 0.05,-0.13 0.13,-0.13 0.17,0 0.35,0.04 0.51,0.11 0.07,0.03 0.1,0.1 0.07,0.17 -0.02,0.05 -0.07,0.08 -0.12,0.08z"/>
   <path class="fil5" d="M11.86 19.33c-0.06,0 -0.11,-0.04 -0.13,-0.09 -0.02,-0.07 0.02,-0.14 0.09,-0.16 0.17,-0.05 0.34,-0.06 0.52,-0.05 0.07,0.01 0.12,0.07 0.12,0.14 -0.01,0.07 -0.07,0.12 -0.14,0.12 -0.14,-0.01 -0.28,-0 -0.42,0.04 -0.01,0 -0.02,0.01 -0.04,0.01z"/>
   <path class="fil5" d="M13.99 16.69c-0.01,0 -0.03,-0 -0.04,-0.01 -0.19,-0.11 -0.38,-0.18 -0.57,-0.2 -0.05,-0.01 -0.08,-0.05 -0.07,-0.1 0.01,-0.05 0.05,-0.08 0.1,-0.07 0.21,0.03 0.42,0.11 0.63,0.23 0.04,0.02 0.06,0.08 0.03,0.12 -0.02,0.03 -0.05,0.04 -0.08,0.04z"/>
   <path class="fil5" d="M10.06 18.05c-0.01,0 -0.02,-0 -0.03,-0.01 -0.05,-0.02 -0.07,-0.07 -0.05,-0.11 0.13,-0.36 0.31,-0.61 0.56,-0.77 0.04,-0.03 0.09,-0.01 0.12,0.03 0.03,0.04 0.01,0.09 -0.03,0.12 -0.22,0.13 -0.38,0.35 -0.49,0.68 -0.01,0.04 -0.05,0.06 -0.08,0.06z"/>
   <path class="fil5" d="M10.25 22.29c-0.05,0 -0.09,-0.04 -0.09,-0.09 -0,-0.08 -0.01,-0.17 -0.02,-0.25 -0.02,-0.14 -0.04,-0.29 -0.01,-0.43 0.03,-0.17 0.11,-0.31 0.19,-0.44 0.05,-0.08 0.1,-0.16 0.13,-0.25 0.12,-0.28 0.09,-0.61 -0.07,-0.87 -0.03,-0.04 -0.01,-0.09 0.03,-0.12 0.04,-0.03 0.09,-0.01 0.12,0.03 0.19,0.3 0.23,0.7 0.09,1.03 -0.04,0.09 -0.09,0.18 -0.14,0.27 -0.08,0.13 -0.15,0.25 -0.17,0.39 -0.02,0.12 -0,0.25 0.01,0.38 0.01,0.09 0.03,0.18 0.03,0.28 0,0.05 -0.04,0.09 -0.09,0.09 0,0 -0,0 -0,0z"/>
   <path class="fil10" d="M5.98 52.6l0 0.16c-0.03,-0.03 -0.05,-0.05 -0.05,-0.05 0.02,-0.04 0.03,-0.07 0.05,-0.11z"/>
   <path class="fil10" d="M6.79 50.78l0 2.74c-0.07,-0.06 -0.14,-0.11 -0.2,-0.17l0 -2.13c0.07,-0.15 0.14,-0.3 0.2,-0.45z"/>
   <path class="fil10" d="M7.6 49.05l0 4.87c-0.04,0.06 -0.06,0.09 -0.06,0.09 -0.05,-0.02 -0.09,-0.04 -0.14,-0.07l0 -4.47c0.07,-0.14 0.14,-0.29 0.2,-0.42z"/>
   <path class="fil10" d="M8.41 47.45l0 5.33c-0.07,0.1 -0.14,0.19 -0.2,0.29l0 -5.23c0.07,-0.13 0.14,-0.26 0.2,-0.39z"/>
   <path class="fil10" d="M9.22 46l0 5.63c-0.07,0.1 -0.14,0.19 -0.2,0.29l0 -5.58c0.07,-0.12 0.14,-0.24 0.2,-0.34z"/>
   <path class="fil10" d="M10.03 36.97l0 2.73c-0.04,-0.33 -0.2,-0.83 -0.2,-0.83l0 -1.92c0.07,0.01 0.14,0.02 0.2,0.02z"/>
   <path class="fil10" d="M9.83 45.25c0.08,-0.11 0.15,-0.3 0.2,-0.36l0 5.61c-0.07,0.09 -0.14,0.18 -0.2,0.28l0 -5.52z"/>
   <path class="fil10" d="M10.84 37.05l0 12.3c-0.07,0.1 -0.14,0.19 -0.2,0.29l0 -12.6c0.07,0.01 0.13,0.01 0.2,0.01z"/>
   <path class="fil10" d="M11.65 37.09l0 11.12c-0.07,0.09 -0.13,0.19 -0.2,0.29l0 -11.41c0.07,0.01 0.13,0.01 0.2,0.01z"/>
   <polygon class="fil10" points="11.63,54.74 11.65,54.21 11.65,54.75 "/>
   <path class="fil10" d="M12.46 37.12l0 17.71 -0.2 -0.02 0 -17.7c0.07,0 0.13,0 0.2,0.01z"/>
   <path class="fil10" d="M13.27 37.12l0 17.8 -0.2 -0.02 0 -17.76c0.07,0 0.14,-0 0.2,-0.01z"/>
   <path class="fil10" d="M14.08 35.62l0 19.34c0,0.01 -0,0.03 -0.01,0.04l-0.19 -0.02c-0,-0.01 -0,-0.01 -0,-0.02l0 -18.8c0.05,-0.18 0.09,-0.35 0.14,-0.53 0.02,-0 0.04,-0 0.06,-0.01z"/>
   <path class="fil10" d="M14.89 35.43l0 14.67 -0.2 1.62 0 -16.28c0.07,-0.01 0.14,-0.01 0.2,-0.02z"/>
   <path class="fil10" d="M15.7 35.35l0 8.47c-0.12,0.84 -0.2,1.39 -0.2,1.39l-0 0.03 0 -9.86c0.07,-0.01 0.14,-0.01 0.2,-0.02z"/>
   <path class="fil2" d="M31.96 36.82l-1.68 -1.95 -1.68 1.95c-0.07,0.08 -0.16,0.01 -0.16,-0.12l0 -8.01 3.68 0 0 8.01c0,0.12 -0.1,0.2 -0.16,0.12z"/>
   <path class="fil14" d="M60.45 53.06l-1.3 -1.51 -1.3 1.51c-0.05,0.06 -0.13,0.01 -0.13,-0.09l0.04 -6.04 2.8 0 0 6.04c0,0.1 -0.07,0.15 -0.13,0.09z"/>
   <path class="fil1" d="M26.65 58.45l-1.01 -1.17 -1.01 1.17c-0.04,0.05 -0.1,0 -0.1,-0.07l0 -4.83 2.22 0 0 4.83c0,0.08 -0.06,0.12 -0.1,0.07z"/>
   <path class="fil5" d="M26.61 58.15l-0.88 -1.02c-0.05,-0.06 -0.15,-0.06 -0.2,0l-0.88 1.02 0 -4.51 1.95 0 0 4.51zm8.32 -4.68l-11.15 0c-0.05,0 -0.09,0.04 -0.09,0.09 0,0.05 0.04,0.09 0.09,0.09l0.61 0 0 4.67c0,0.05 0.01,0.1 0.04,0.14 0.07,0.1 0.21,0.1 0.29,0.02l0.91 -1.06 0.91 1.06c0.04,0.04 0.08,0.07 0.14,0.07 0.11,0 0.19,-0.1 0.19,-0.22l0 -4.67 8.06 0c0.05,0 0.09,-0.04 0.09,-0.09 0,-0.05 -0.04,-0.09 -0.09,-0.09z"/>
   <polygon class="fil2" points="23.01,21.73 23.67,20.09 25.66,19.73 24.94,21.4 "/>
   <path class="fil5" d="M23.67 20.95c-0.04,0 -0.08,-0.03 -0.09,-0.07 -0.01,-0.05 0.02,-0.09 0.07,-0.1l1.24 -0.25c0.05,-0.01 0.09,0.02 0.1,0.07 0.01,0.05 -0.02,0.09 -0.07,0.1l-1.24 0.25c-0.01,0 -0.01,0 -0.02,0z"/>
   <path class="fil2" d="M42.79 13.43l0 4.88c-0.15,0.05 -0.64,0.53 -0.71,0.5 -0.09,-0.03 -0.42,-0.3 -0.52,-0.32 -0.17,-0.03 -0.35,-0.13 -0.51,-0.25 -0.08,-0.06 -0.16,-0.12 -0.23,-0.17 -0.2,-0.15 -0.36,-0.26 -0.46,-0.19 -0.09,0.06 -0.03,0.28 -0.01,0.36 0.04,0.14 0.19,0.42 0.24,0.56l-0.55 -0.16c-0.59,-0.2 -1.42,-0.47 -1.74,-0.23 -0.13,0.1 -0.27,0.23 -0.3,0.4 -0.02,0.12 0.03,0.25 0.12,0.4 0.14,0.21 0.32,0.4 0.51,0.57l-0.02 0.01 -0.01 0 -0.01 -0 -1.55 -0.4 -0.67 -0.17 -1.2 -0.31c0.05,-0.01 0.15,-0.05 0.25,-0.09 0.15,-0.06 0.32,-0.13 0.39,-0.15 0.01,-0 0.01,-0.01 0.02,-0.02 0.01,-0.02 0.03,-0.07 0.05,-0.13 0.67,-0.09 1.4,-0.16 2.02,-0.45 0.28,-0.13 0.51,-0.32 0.69,-0.57 0.13,-0.18 0.26,-0.37 0.35,-0.57 0.07,-0.14 0.1,-0.28 0.1,-0.4 0.01,-0.24 -0.13,-0.44 -0.33,-0.57 -0.05,-0.04 -0.12,-0.07 -0.18,-0.1 -0.18,-0.09 -0.47,-0.02 -0.78,0.1 -0.26,0.11 -0.54,0.26 -0.78,0.4 -0.11,0.06 -0.22,0.12 -0.31,0.17 -0.13,0.07 -0.24,0.13 -0.31,0.14 0.02,-0.01 0.05,-0.3 0.06,-0.32 0.03,-0.14 0.09,-0.25 0.08,-0.4 -0.01,-0.19 -0.11,-0.31 -0.28,-0.17 -0.05,0.04 -0.11,0.1 -0.17,0.17 -0.11,0.12 -0.24,0.27 -0.38,0.4 -0.09,0.08 -0.2,0.16 -0.31,0.2 -0.09,0.03 -0.21,0.2 -0.3,0.37 -0.04,0.08 -0.08,0.16 -0.1,0.25l-0.62 0.03 0 -3.78 0.32 0.08 0.67 0.17 1.55 0.4 0.67 0.17 1.02 0.26 1.02 -0.26 0.67 -0.17 1.55 -0.4 0.67 -0.17 0.32 -0.08z"/>
   <path class="fil11" d="M42.02 18.92c-0.04,-0.16 -0.31,-0.4 -0.47,-0.43 -0.5,-0.09 -0.98,-0.76 -1.2,-0.61 -0.07,0.05 -0.05,0.35 0.07,0.53 0.08,0.11 0.16,0.39 0.16,0.39 -0.36,-0.03 -1.84,-0.73 -2.29,-0.39 -0.52,0.39 -0.33,0.69 0.18,1.22 0.62,0.65 1.37,0.83 3.25,0.91l0.29 -1.62z"/>
   <path class="fil11" d="M35.89 18.52c2.22,-0.31 2.43,-0.57 2.91,-1.33 0.4,-0.62 0.32,-1.05 -0.26,-1.33 -0.51,-0.25 -1.83,0.72 -2.18,0.82 0,0 0.03,-0.3 0.09,-0.42 0.09,-0.2 0.05,-0.49 -0.03,-0.53 -0.25,-0.11 -0.59,0.65 -1.07,0.83 -0.15,0.06 -0.4,0.5 -0.4,0.67l0.94 1.29z"/>
   <path class="fil11" d="M36.16 6.96l0.22 1.52c-0.3,0.04 -0.49,-0.65 -0.49,-0.65 -0.25,-0.58 -0.01,-0.85 0.27,-0.87z"/>
   <path class="fil11" d="M42.1 7.7c-0,0.01 -0.13,0.76 -0.67,0.78 -0.22,0.73 -0.69,1.36 -1.28,1.74l0 0.71c0,0.72 -1.31,1.3 -1.31,1.3 0,0 -1.29,-0.58 -1.29,-1.3l0 -0.76c-0.64,-0.51 -1.03,-1.42 -1.15,-2.48 0,0 0,-0 0,-0 0.09,-0.82 0.33,-2.29 0.82,-2.79 0.14,-0.14 0.37,-0.12 0.48,0.05 0.09,0.14 0.21,0.26 0.26,0.31 0.3,0.21 0.76,0.27 1.35,-0.03 0.42,0.24 1.24,0.37 1.6,-0.2 0.57,0.4 0.51,2.34 0.58,3.11l0.27 -1.15 0.01 -0.08c0.05,-0.01 0.1,0 0.15,0.02 0.28,0.1 0.25,0.39 0.17,0.77z"/>
   <path class="fil5" d="M37.82 7.73c-0.07,0 -0.13,-0.06 -0.13,-0.13l0 -0.29c0,-0.07 0.06,-0.13 0.13,-0.13 0.07,0 0.13,0.06 0.13,0.13l0 0.29c0,0.07 -0.06,0.13 -0.13,0.13z"/>
   <path class="fil5" d="M40.26 7.73c-0.07,0 -0.13,-0.06 -0.13,-0.13l0 -0.29c0,-0.07 0.06,-0.13 0.13,-0.13 0.07,0 0.13,0.06 0.13,0.13l0 0.29c0,0.07 -0.06,0.13 -0.13,0.13z"/>
   <path class="fil13" d="M39.72 8.52c0,0.33 0.27,0.6 0.6,0.6 0.33,0 0.6,-0.27 0.6,-0.6 0,-0.33 -0.27,-0.6 -0.6,-0.6 -0.33,0 -0.6,0.27 -0.6,0.6z"/>
   <path class="fil13" d="M36.92 8.48c0,0.33 0.27,0.6 0.6,0.6 0.33,0 0.6,-0.27 0.6,-0.6 0,-0.33 -0.27,-0.6 -0.6,-0.6 -0.33,0 -0.6,0.27 -0.6,0.6z"/>
   <path class="fil0" d="M41.92 5.23l-0.14 1.76 -0.27 1.15c-0.07,-0.77 -0.01,-2.7 -0.58,-3.11 -0.36,0.57 -1.18,0.44 -1.6,0.2 -0.59,0.3 -1.05,0.24 -1.35,0.03 -0.06,-0.04 -0.18,-0.17 -0.26,-0.31 -0.11,-0.17 -0.34,-0.2 -0.48,-0.05 -0.56,0.57 -0.8,2.41 -0.85,3.09l-0.19 -1 -0.1 -1.81c0,-0.8 0.79,-1.96 1.63,-1.96l0.1 0c0.31,0 0.72,0.09 0.93,-0.13 0.13,-0.14 0.34,-0.23 0.56,-0.23 0.31,0 0.58,0.17 0.69,0.42 0.02,-0 0.04,0.01 0.05,-0 0.34,-0.42 0.94,0.12 0.86,0.31 0.38,-0.11 1.02,0.96 1.02,1.64z"/>
   <path class="fil5" d="M38.94 9.69c-0.23,0 -0.46,-0.09 -0.62,-0.24 -0.05,-0.05 -0.05,-0.13 -0,-0.19 0.05,-0.05 0.13,-0.05 0.19,-0 0.11,0.1 0.27,0.16 0.44,0.16 0.17,-0 0.32,-0.07 0.43,-0.18 0.05,-0.05 0.13,-0.05 0.18,-0 0.05,0.05 0.06,0.13 0,0.18 -0.16,0.17 -0.38,0.26 -0.62,0.26 -0.01,0 -0.01,0 -0.02,0z"/>
   <path class="fil5" d="M53.23 46.98l-3.28 0c-0.05,0 -0.09,-0.04 -0.09,-0.09 0,-0.05 0.04,-0.09 0.09,-0.09l3.28 0c0.05,0 0.09,0.04 0.09,0.09 0,0.05 -0.04,0.09 -0.09,0.09z"/>
   <path class="fil6" d="M55.11 38.59l-1.42 0 0.01 -0.03c0.55,-1.66 0.56,-3.45 0.01,-5.11l-0.02 -0.06 1.42 0 0.02 0.06c0.55,1.66 0.54,3.45 -0.01,5.11l-0.01 0.03z"/>
   <path class="fil6" d="M57.69 38.59l-1.42 0 0.01 -0.03c0.55,-1.66 0.56,-3.45 0.01,-5.11l-0.02 -0.06 1.42 0 0.02 0.06c0.55,1.66 0.54,3.45 -0.01,5.11l-0.01 0.03z"/>
   <path class="fil6" d="M60.29 38.59l-1.42 0 0.01 -0.03c0.55,-1.66 0.56,-3.45 0.01,-5.11l-0.02 -0.06 1.42 0 0.02 0.06c0.55,1.66 0.54,3.45 -0.01,5.11l-0.01 0.03z"/>
   <path class="fil1" d="M73.59 43.86c-0.01,0.08 -0.02,0.17 -0.07,0.23 -0.05,0.06 -0.12,0.08 -0.19,0.1 -0.51,0.14 -1.04,0.2 -1.57,0.18 -0.17,-0.01 -0.34,-0.02 -0.49,-0.1 -0.32,-0.17 -0.47,-0.6 -0.72,-0.88 -0.11,-0.12 -0.23,-0.22 -0.37,-0.29 0,0 0.1,1.02 0.1,1.02 0.03,0.27 -0.39,0.33 -0.44,0.06 0,0 -0.25,-1.3 -0.25,-1.31 -0.06,-0.02 -0.13,-0.04 -0.17,-0.09 -0.04,-0.04 -0.06,-0.1 -0.08,-0.16 -0.15,-0.45 -0.24,-0.95 -0.14,-1.4 0.22,-0.02 0.46,-0.05 0.69,-0.09 0.15,0.21 0.33,0.41 0.51,0.52 1.29,0.82 1.54,0.63 1.46,0.21 0.16,0.34 0.35,0.63 0.62,0.74 0.33,0.13 0.73,0.05 0.97,0.33 0.2,0.24 0.18,0.61 0.14,0.92z"/>
   <path class="fil11" d="M70.41 41.65c-0.18,-0.11 -0.36,-0.31 -0.51,-0.52 0.7,-0.12 1.39,-0.29 1.55,-0.32l0.01 0.1c0,0.02 0.01,0.04 0.02,0.06 0.04,0.07 0.08,0.14 0.12,0.22 0,0 0,0 0,0.01l0 0c0.11,0.21 0.22,0.46 0.26,0.66l0 0c0,0 0,0 0,0.01 0,0 0,0 0,0 0.08,0.42 -0.17,0.61 -1.46,-0.21z"/>
   <path class="fil11" d="M66.89 41.12l-0.04 0.11c-0.04,0.9 -0.17,2.46 -1.25,0.02 -0.12,-0.27 -0.27,-0.75 -0.3,-1.14 0.47,0.31 1.02,0.62 1.43,0.93 0.05,0.04 0.11,0.08 0.17,0.09z"/>
   <path class="fil2" d="M71.45 40.81c-0.23,0.04 -1.63,0.41 -2.53,0.42 0,0 -0.42,-2.22 -0.68,-2.93 -0.46,1.01 -1.03,2.06 -1.16,2.69 -0.01,0.06 -0.07,0.1 -0.12,0.12 -0.08,0.03 -0.17,-0.03 -0.24,-0.08 -0.54,-0.4 -1.32,-0.81 -1.85,-1.21 0.13,-0.92 0.55,-2.07 0.73,-2.98 0.31,-1.49 0.8,-2.59 0.89,-3.26 -0.15,0.07 -1.14,0.13 -1.52,0.14 -1.22,0.05 -5.15,0.1 -6.04,-0.22 -0.83,-0.3 -1.61,-0.9 -1.86,-1.75 -0.29,-0.97 0.16,-1.98 0.6,-2.9 0.18,-0.38 0.45,-1.36 0.62,-1.7 0.01,0 0.01,0 0.01,0 0.05,0.02 0.09,0.03 0.14,0.05 -0.14,0.34 -0.3,0.69 -0.48,1.05 0,0 0.01,0 0.02,0.01 0.19,0.1 2.11,1.13 4.2,1.31 1.46,0.12 1.86,-0.5 1.97,-0.94 0.01,-0.04 0.01,-0.08 0.02,-0.11l0 -0c0,-0.05 0,-0.12 0.01,-0.19 0,-0.01 0,-0.02 0,-0.03 0,-0 0,-0 0,-0 0.01,-0.05 0.01,-0.13 0.02,-0.21 1.05,0.21 3.87,1.11 5.39,1.62 0.29,0.1 0.87,0.45 1.03,0.71 0.39,0.59 0.41,6.31 0.48,7.24 0.08,1.08 0.22,1.6 0.37,3.18z"/>
   <path class="fil0" d="M66.32 26.22l-1.07 0.38c-0.29,0.1 -0.61,-0.05 -0.72,-0.34l-0.09 -0.26c-0.08,0.23 -0.21,1.25 -0.22,1.48 -0.03,0.55 0.06,1.22 -0.36,1.66 -0.42,0.44 -1.12,0.47 -1.69,0.42 -2.09,-0.17 -4.01,-1.2 -4.2,-1.31 -0.01,-0.01 -0.02,-0.01 -0.02,-0.01 0.18,-0.36 0.33,-0.72 0.48,-1.05 -0.08,-0.03 -0.17,-0.06 -0.26,-0.09 -0.3,-0.1 -0.58,-0.2 -0.61,-0.21 -0.41,-0.17 -0.61,-0.64 -0.54,-1.11l0.79 -4.66 0.16 -1.06c0.01,-0.15 0.05,-0.28 0.11,-0.39 0.13,-0.23 0.37,-0.39 0.6,-0.49 0.11,-0.05 1.44,-0.57 1.62,-0.64 0.05,-0.02 0.1,-0.04 0.16,-0.05 -0,0.01 -0.01,0.01 -0.01,0.01 -0.04,0.43 0.33,0.77 0.33,0.77 0.93,0.68 1.9,0.35 1.98,-0.42l0.01 -0.01 -0.02 -0.3c0.25,0.03 0.4,0.07 0.4,0.07 0.64,0.09 0.96,0.2 1.17,0.94 0.04,0.13 0.1,0.26 0.16,0.38 0,0 -0.36,2.35 -0.36,2.36l-0.67 0.27 0.51 1.13 0.02 0.24 -0.38 1.75 2.71 0.54z"/>
   <path class="fil10" d="M64.94 13.6c-0.11,0.17 -0.4,0.28 -0.59,0.36 -0.5,0.2 -1.18,-0.12 -1.71,-0.2 -1.22,-0.19 -1.92,0.9 -1.92,0.9 -0.13,-0.51 -0.63,-0.62 -0.89,-0.43 -0.14,0.1 -0.21,0.28 -0.14,0.52 0.03,0.11 0.06,0.2 0.09,0.28 0.16,0.41 0.31,0.45 0.43,1.26 -0.17,-0.14 -0.33,-0.29 -0.48,-0.46 -0.03,0.29 -0.09,0.58 -0.22,0.84 -0.28,0.56 -0.9,0.91 -1.53,1.01 -0.63,0.09 -1.28,-0.05 -1.88,-0.27 0.58,-0.25 1.16,-0.66 1.29,-1.26 0.12,-0.52 -0.08,-1.1 -0.15,-1.63 -0.06,-0.46 -0.1,-0.93 -0.07,-1.4 0.06,-0.9 0.42,-1.78 1.36,-2.09 0.54,-0.18 1.16,-0.1 1.64,0.2 0.01,0.01 0.02,0.01 0.03,0.02 0.01,0.01 0.02,0.01 0.02,0.02 0.01,-0.01 0.02,-0.01 0.02,-0.02 0.71,-0.45 1.53,-0.46 2.33,-0.24 1.13,0.31 1.49,0.99 1.59,1.03 0.52,0.24 1.16,0.99 0.79,1.56z"/>
   <path class="fil11" d="M64.89 15.07c-0.04,0.27 -0.09,0.53 -0.16,0.78 -0.07,0.27 -0.16,0.52 -0.27,0.75 -0.38,0.84 -0.96,1.44 -1.75,1.48l0.05 0.77c-0.08,0.78 -1.06,1.1 -1.98,0.42 0,0 -0.37,-0.35 -0.33,-0.77 0,0 0.29,-0.63 0.36,-1.34 -0.26,-0.27 -0.48,-0.58 -0.65,-0.9 0.01,0.01 0.02,0.02 0.03,0.03 -0.15,-0.96 -0.32,-0.83 -0.52,-1.53 -0.21,-0.73 0.83,-0.86 1.03,-0.1 0,0 0.71,-1.09 1.92,-0.9 0.53,0.09 1.21,0.4 1.71,0.2 0.19,-0.08 0.48,-0.18 0.59,-0.36 0.05,0.42 0.03,0.91 -0.05,1.47z"/>
   <path class="fil5" d="M63.13 17.17c-0.22,0 -0.44,-0.07 -0.58,-0.18 -0.01,-0.01 -0.03,-0.02 -0.04,-0.04 -0.05,-0.05 -0.06,-0.14 -0.02,-0.19 0.05,-0.05 0.12,-0.06 0.18,-0.01 0,0 0.01,0.01 0.01,0.01 0.02,0.02 0.03,0.03 0.04,0.04 0.13,0.1 0.39,0.15 0.57,0.1 0.07,-0.02 0.13,-0.05 0.18,-0.09 0.06,-0.05 0.14,-0.04 0.18,0.02 0.05,0.06 0.04,0.14 -0.02,0.18 -0.08,0.06 -0.17,0.11 -0.27,0.14 -0.07,0.02 -0.15,0.03 -0.23,0.03z"/>
   <path class="fil5" d="M61.25 12.95c-0.03,0 -0.05,-0.01 -0.07,-0.03 -0.03,-0.04 -0.02,-0.09 0.01,-0.12 0.22,-0.18 0.49,-0.26 0.83,-0.27 0.05,-0 0.09,0.04 0.09,0.09 0,0.05 -0.04,0.09 -0.09,0.09 -0.3,0 -0.53,0.08 -0.72,0.23 -0.02,0.01 -0.04,0.02 -0.05,0.02z"/>
   <path class="fil5" d="M57.73 17.2c-0.04,0 -0.07,-0 -0.11,-0 -0.05,-0 -0.08,-0.05 -0.08,-0.09 0,-0.05 0.05,-0.08 0.09,-0.08 0.6,0.05 1.01,-0.42 1.2,-0.71 0.03,-0.04 0.08,-0.05 0.12,-0.02 0.04,0.03 0.05,0.08 0.03,0.12 -0.2,0.3 -0.62,0.79 -1.25,0.79z"/>
   <path class="fil13" d="M62.57 16.13c-0.03,0.32 -0.31,0.56 -0.64,0.54 -0.32,-0.03 -0.56,-0.31 -0.54,-0.64 0.03,-0.32 0.31,-0.56 0.64,-0.54 0.32,0.03 0.56,0.31 0.54,0.64z"/>
   <path class="fil5" d="M60.33 15.21c-0.03,0 -0.05,-0.01 -0.07,-0.03 -0.12,-0.15 -0.23,-0.37 -0.21,-0.51 0,-0.05 0.05,-0.09 0.09,-0.08 0.05,0 0.08,0.05 0.08,0.09 -0.01,0.08 0.07,0.25 0.18,0.39 0.03,0.04 0.02,0.09 -0.02,0.12 -0.02,0.01 -0.03,0.02 -0.05,0.02z"/>
   <path class="fil5" d="M64.35 15.44c-0,0 -0.01,-0 -0.01,-0 -0.07,-0.01 -0.13,-0.07 -0.12,-0.14l0.01 -0.18c0.01,-0.07 0.07,-0.13 0.14,-0.12 0.07,0.01 0.13,0.07 0.12,0.14l-0.02 0.18c-0.01,0.07 -0.06,0.12 -0.13,0.12z"/>
   <path class="fil5" d="M62.32 15.37c-0,0 -0.01,0 -0.01,-0 -0.07,-0.01 -0.13,-0.07 -0.12,-0.14l0.01 -0.17c0.01,-0.07 0.07,-0.13 0.14,-0.12 0.07,0.01 0.13,0.07 0.12,0.14l-0.01 0.17c-0.01,0.07 -0.06,0.12 -0.13,0.12z"/>
   <path class="fil13" d="M64.62 15.77c-0.01,0.04 -0.02,0.09 -0.04,0.13 -0.08,0.26 -0.17,0.51 -0.28,0.74 -0.03,0.07 -0.07,0.15 -0.11,0.21 -0.24,-0.08 -0.4,-0.34 -0.37,-0.63 0.04,-0.32 0.32,-0.55 0.61,-0.52 0.06,0.01 0.13,0.03 0.18,0.06z"/>
   <path class="fil15" d="M71.84 18.59l-1.42 6.79 -2.48 1.14 -0.03 0.02 -0 0 -1.59 -0.32 -2.71 -0.54 0.27 -1.74 2.83 -0.56c0.26,-0.05 0.44,-0.34 0.39,-0.63l0 -0.01c-0.12,-0.69 -1.24,-0.99 -2,-0.83l-0.96 0.39 0.36 -2.35 0.14 -0.91 4.3 0.86 0 0 2.92 -1.29z"/>
   <path class="fil11" d="M66.7 23.38l-2.65 0.52 -0.6 -1.34 1.63 -0.66c0.77,-0.15 1.89,0.15 2,0.84l0 0.01c0.05,0.3 -0.13,0.58 -0.39,0.63z"/>
   <path class="fil11" d="M71.18 21.87c0.03,-0.35 -0.7,-0.25 -0.9,0.03 -0.12,0.17 -0.24,0.34 -0.29,0.54 -0.12,0.42 -0.12,1.7 0.17,1.72 0.21,0.02 0.43,0.02 0.64,-0.01 0.03,-0 0.11,-0.08 0.12,-0.11 0.1,-0.38 0.2,-1.5 0.26,-2.18z"/>
   <path class="fil5" d="M69.29 21.04c-0.03,0 -0.07,-0.02 -0.08,-0.05 -0.02,-0.04 0,-0.1 0.05,-0.11l1.66 -0.69c0.04,-0.02 0.1,0 0.11,0.05 0.02,0.04 -0,0.1 -0.05,0.11l-1.66 0.69c-0.01,0 -0.02,0.01 -0.03,0.01z"/>
   <path class="fil5" d="M69.17 21.45c-0.03,0 -0.07,-0.02 -0.08,-0.05 -0.02,-0.04 0,-0.1 0.05,-0.11l1.66 -0.69c0.04,-0.02 0.1,0 0.11,0.05 0.02,0.04 -0,0.1 -0.05,0.11l-1.66 0.69c-0.01,0 -0.02,0.01 -0.03,0.01z"/>
   <polygon class="fil3" points="39.46,17.24 39.46,15.64 42.12,14.92 42.12,16.53 "/>
   <path class="fil5" d="M40.84 15.88c-0.04,0 -0.07,-0.03 -0.08,-0.06 -0.01,-0.05 0.01,-0.09 0.06,-0.11l0.98 -0.27c0.05,-0.01 0.09,0.01 0.11,0.06 0.01,0.05 -0.01,0.09 -0.06,0.11l-0.98 0.27c-0.01,0 -0.02,0 -0.02,0z"/>
   <path class="fil5" d="M39.71 16.19c-0.04,0 -0.07,-0.03 -0.08,-0.06 -0.01,-0.05 0.01,-0.09 0.06,-0.11l0.76 -0.21c0.05,-0.01 0.09,0.01 0.11,0.06 0.01,0.05 -0.01,0.09 -0.06,0.11l-0.76 0.21c-0.01,0 -0.02,0 -0.02,0z"/>
   <path class="fil5" d="M39.73 16.74c-0.04,0 -0.07,-0.03 -0.08,-0.06 -0.01,-0.05 0.01,-0.09 0.06,-0.11l2.11 -0.58c0.05,-0.01 0.09,0.01 0.11,0.06 0.01,0.05 -0.01,0.09 -0.06,0.11l-2.11 0.58c-0.01,0 -0.02,0 -0.02,0z"/>
   <path class="fil11" d="M20.09 25.32l1.19 0.56c0.2,-0.32 0.86,-0.68 1.01,-1.04 0.07,-0.18 0.2,-0.53 0.2,-0.67 0.03,-0.48 -0.02,-0.93 -0.18,-1.37 -0.08,-0.21 -0.27,-0.25 -0.49,-0.19 -0.03,0.01 -0.59,0.05 -0.64,0.39 -0.2,1.28 -0.72,1.4 -0.97,1.61 -0.16,0.13 -0.2,0.45 -0.12,0.7z"/>
   <path class="fil5" d="M26.15 10.16c-0.51,0.56 -0.84,1.25 -0.95,2.01 -0.01,0.1 -0.1,0.17 -0.2,0.17l-1.4 0 0 -2.17 1.19 -1.42c0.03,-0.04 0.03,-0.09 -0.01,-0.12 -0.04,-0.03 -0.09,-0.03 -0.12,0.01l-1.15 1.36 -1.15 -1.36c-0.03,-0.04 -0.09,-0.04 -0.12,-0.01 -0.04,0.03 -0.04,0.09 -0.01,0.12l1.19 1.42 0 2.17 -1.4 0c-0.1,0 -0.18,-0.07 -0.2,-0.18 -0.11,-0.76 -0.43,-1.43 -0.96,-2.02 -0.6,-0.65 -0.92,-1.5 -0.92,-2.39 0,-1.97 1.6,-3.56 3.56,-3.56 0.09,0 0.17,0 0.26,0.01 1.75,0.12 3.17,1.54 3.3,3.29 0.07,0.99 -0.26,1.94 -0.92,2.66zm1.18 -2.68c-0.13,-1.88 -1.65,-3.4 -3.54,-3.53 -2.23,-0.16 -4.1,1.61 -4.1,3.82 0,0.95 0.35,1.87 0.99,2.57 0.49,0.54 0.79,1.17 0.89,1.88 0.03,0.23 0.23,0.4 0.46,0.4l2.97 0c0.23,0 0.43,-0.17 0.46,-0.4 0.1,-0.71 0.4,-1.35 0.88,-1.87 0.71,-0.78 1.06,-1.79 0.99,-2.86z"/>
   <path class="fil5" d="M20.73 59.83c-0.15,0 -0.27,-0.23 -0.27,-0.39 0,-0.15 0.12,-0.26 0.27,-0.26l19.91 0c1.25,0 2.26,-0.95 2.26,-2.17l0 -2.49c0,-1.22 -1.01,-2.22 -2.26,-2.22l-19.91 0c-0.15,0 -0.27,-0.13 -0.27,-0.29 0,-0.15 0.12,-0.27 0.27,-0.27l36.87 0 0 1.22c0,0.06 0.02,0.12 0.05,0.16 0.08,0.11 0.23,0.12 0.31,0.02l1.2 -1.39 1.2 1.39c0.04,0.05 0.09,0.07 0.15,0.07 0.12,0 0.21,-0.11 0.21,-0.25l0 -1.22 6.37 0c1.86,0 3.37,1.34 3.37,2.98l0 2.04c0,1.64 -1.51,3.06 -3.37,3.06l-46.36 0zm0.79 -2.06c0.09,-0.53 0.14,-1.16 0.14,-1.79 0.02,-1.35 -0.16,-2.74 -0.51,-3.4l19.48 0c1.1,0 2,0.87 2,1.95l0 2.49c0,1.07 -0.9,1.93 -2,1.93l-19.47 0c0.01,-0.02 0.28,-0.71 0.36,-1.18zm-2.92 -9.28l0 -2.09c0,-1.27 0.87,-2.37 2.1,-2.82l42.77 0c0.04,0.05 0.1,0.09 0.16,0.11 0.14,0.04 0.31,0.01 0.41,-0.11l0.7 0c0.01,0.09 0.03,0.19 0.05,0.28l-22.81 0c-1.27,0 -2.3,1 -2.3,2.24l0 2.52c0,1.23 1.03,2.23 2.3,2.23l15.62 0 0 0.66c-0.01,-0.01 -36.25,-0.02 -36.25,-0.02 -1.56,-0.26 -2.75,-1.51 -2.75,-3zm-0 -5.18c-0.07,0 -0.13,-0.06 -0.13,-0.13l0 -4.34c0,-0.07 0.06,-0.13 0.13,-0.13l46.36 0c-0.04,0.16 -0.08,0.31 -0.12,0.47 -0.04,0.18 -0.08,0.37 -0.1,0.56 -0.08,0.06 -0.15,0.12 -0.22,0.2 -0.32,0.35 -0.53,0.86 -0.65,1.54 -0.01,0.06 -0.02,0.12 -0.01,0.18 -0.02,0.06 -0.47,1.56 -0.47,1.56 -0.01,0.03 -0.01,0.06 -0.01,0.09l-44.78 0zm2.22 -5.13l26.47 -0.03c1.29,0 2.3,-0.63 2.3,-1.43l0 -1.56c0,-0.8 -1.01,-1.43 -2.3,-1.43l-15.03 0 0 -0.21 26.42 0c0.07,0.03 0.14,0.05 0.21,0.08 0.54,0.23 1.28,0.2 1.91,0.23 0.68,0.03 3.77,0.02 4.19,0 0.18,-0.01 0.95,-0.04 1.36,-0.1 -0.06,0.27 -0.16,0.6 -0.29,1 -0.34,1.09 -0.96,3.58 -1,3.72l-44.22 -0.02c-0.16,0 -0.27,-0.07 -0.27,-0.13 0,-0.04 0.1,-0.12 0.27,-0.12zm0.81 -2.03c0.02,-0.76 -0.11,-1.63 -0.44,-2.13 -0.01,-0.01 -0.02,-0.02 -0.02,-0.04l7.15 0 0 2.7c0,0.07 0.02,0.13 0.06,0.18 0.08,0.11 0.24,0.13 0.34,0.02l1.58 -1.83 1.58 1.83c0.04,0.05 0.1,0.08 0.16,0.08 0.13,0 0.23,-0.12 0.23,-0.28l0 -2.7 15.03 0c1.12,0 2.04,0.52 2.04,1.17l0 1.56c0,0.64 -0.91,1.17 -2.04,1.17l-26.11 0c0.27,-0.35 0.43,-0.97 0.45,-1.73zm-1.08 -2.51c0,-0.04 0.1,-0.12 0.27,-0.12l7.49 0 0 0.21 -7.45 0c-0.18,0.02 -0.32,-0.05 -0.32,-0.09zm3.5 -3.23l0 -2.11c0,-1.7 1.58,-3.08 3.52,-3.08l4.21 0c0.02,0.08 0.05,0.16 0.07,0.23 0.05,0.12 0.1,0.23 0.16,0.32l-4.91 0c-1.32,0 -2.39,1.02 -2.39,2.26l0 2.56c0,1.25 1.07,2.26 2.39,2.26l1.21 0 0 0.4 -2.11 0c-1.27,-0.47 -2.16,-1.56 -2.16,-2.84zm8.29 -7.58l0.36 0.12c-0.26,0.54 -0.49,1.23 -0.34,2.01 0.03,0.17 0.08,0.33 0.15,0.49 0.04,0.1 0.21,0.05 0.16,-0.07 -0.06,-0.14 -0.1,-0.28 -0.13,-0.43 -0.16,-0.74 0.06,-1.41 0.33,-1.95l1.94 0.63 0.12 0.55c0.01,0.33 -0.04,0.65 -0.15,0.95 -0.04,0.1 0.12,0.17 0.16,0.06 0.05,-0.13 0.09,-0.27 0.11,-0.41l0.21 0.96c-0.3,0.02 -0.72,0.04 -1.12,0.06 -0.48,0.02 -0.97,0.04 -1.28,0.07 -0.13,0.01 -0.26,0.01 -0.35,-0.02 -0.18,-0.06 -0.31,-0.22 -0.41,-0.48 -0.05,-0.13 -0.09,-0.27 -0.12,-0.41 -0.16,-0.76 -0.02,-1.59 0.36,-2.13zm-0.58 -0.46c-0.8,-0.26 -1.21,-1.17 -0.92,-1.95 0.18,-0.48 0.59,-0.84 1.09,-0.94 0.16,0.12 0.38,0.21 0.69,0.21 0.13,0 0.26,-0.02 0.38,-0.05l8.48 3.11 -0.01 2.81c0,0 -9.65,-3.16 -9.71,-3.18zm2.52 -3.12c-0.01,0.02 -0.02,0.05 -0.02,0.08 -0.05,0.14 -0.1,0.33 -0.14,0.43l-0.69 -0.26 0.86 -0.26zm-2.49 -1.81c0.31,-0.58 2.28,-4.7 2.55,-5.16 0,-0 0,-0.01 0.01,-0.01 0.05,-0.07 0.44,-0.61 0.81,-0.81 0.45,-0.25 1.13,-0.43 1.68,-0.57 0.23,-0.06 0.43,-0.11 0.59,-0.17l0 0.2c0,0.79 1.31,1.39 1.36,1.42 0.09,0.04 0.22,-0.05 0.3,-0.09 0.17,-0.09 0.33,-0.19 0.49,-0.3 0.33,-0.24 0.72,-0.58 0.72,-1.03l0 -0.12 0.18 0.04c-0.01,0.26 -0.07,0.52 -0.16,0.77 -0.05,0.13 -0.1,0.24 -0.16,0.32 -0.17,0.25 -0.43,0.43 -0.68,0.6l-0.62 0.42 -0.7 -0.38c-0.35,-0.19 -0.65,-0.37 -0.78,-0.67 -0.04,-0.1 -0.21,-0.04 -0.16,0.07 0.17,0.38 0.56,0.6 0.85,0.76l0.79 0.43 0.71 -0.47c0.26,-0.17 0.54,-0.36 0.73,-0.64 0.07,-0.1 0.12,-0.22 0.18,-0.36 0.09,-0.26 0.15,-0.52 0.17,-0.79l1.77 0.4c0.63,0.14 1.12,0.61 1.3,1.24l2.04 5.77c0.07,0.14 0.07,0.28 -0,0.43 -0.34,0.69 -2.15,1.29 -3.38,1.6 -0.2,0.05 -0.57,0.13 -0.58,0.14 0,0 0.36,-1.56 0.37,-1.56l0.68 -0.48c0.03,-0.01 0.72,-0.54 0.72,-0.54 0.06,-0.04 0.07,-0.12 0.03,-0.18 -0.04,-0.06 -0.12,-0.07 -0.18,-0.03l-0.48 0.36 -0.01 -0.92 0.1 0.15c0.04,0.06 0.12,0.08 0.18,0.04 0.06,-0.04 0.08,-0.12 0.04,-0.18l-0.29 -0.57 0 -3.13c0,-0.09 -0.08,-0.14 -0.16,-0.13l-0.73 0.19c-0.06,-0.21 -0.09,-0.43 -0.08,-0.64 0,-0.17 -0.26,-0.18 -0.26,-0.01 -0.01,0.24 0.02,0.49 0.09,0.72l-3.22 0.83 -2.95 -0.76c0,0 0.07,-0.77 0.07,-0.77 0.01,-0.17 -0.25,-0.19 -0.26,-0.02l-0.06 0.73c0,0 -0.99,-0.25 -1,-0.26 -0.08,-0.02 -0.16,0.04 -0.16,0.13l0 3.64c-0.65,0.02 -1.54,0.17 -2.01,0.73 -0.11,0.13 0.09,0.3 0.2,0.17 0.29,-0.34 0.72,-0.49 1.14,-0.56 0.43,-0.07 1.34,-0.06 1.34,-0.06 0.33,0.47 0.68,0.98 0.82,1.21l-2.85 0.85c-0.42,0.06 -0.73,-0.05 -0.92,-0.32 -0.36,-0.51 -0.22,-1.47 -0.12,-1.65zm8.23 -6.9l0 0.38c0,0.49 -0.81,0.98 -1.18,1.15 -0.37,-0.18 -1.16,-0.66 -1.16,-1.15l0 -0.44c0.25,0.25 1.03,0.32 1.15,0.32 0.41,0.01 0.82,-0.08 1.19,-0.26zm-3.51 -2.56c0.01,-0.2 0.04,-0.44 0.07,-0.69l0.12 0.06c-0,0.03 -0.01,0.06 -0.01,0.09 0,0.52 0.42,0.95 0.95,0.95 0.49,0 0.9,-0.38 0.94,-0.86l0.42 0c0.01,0.27 0.02,0.54 0.03,0.72 0,0.03 0,0.05 -0,0.06l-0.33 0.01c-0.07,0 -0.13,0.06 -0.13,0.14 0,0.07 0.06,0.13 0.13,0.13l0.01 0 0.39 -0.02c0.02,0 0.04,-0.01 0.06,-0.02 0.11,-0.06 0.14,-0.21 0.13,-0.33 -0.02,-0.18 -0.03,-0.44 -0.03,-0.7l0.1 0c0.04,0.48 0.45,0.86 0.94,0.86 0.52,0 0.95,-0.42 0.95,-0.95 0,-0.03 -0,-0.06 -0.01,-0.1l0.08 -0.04c0,0.07 0.01,0.13 0.01,0.2 0.01,0.24 0.02,0.45 0.03,0.61 -0.11,0.82 -0.52,1.52 -1.09,1.95 -0.08,0.06 -0.17,0.12 -0.26,0.17 -0.72,0.42 -1.64,0.39 -2.34,-0.07 -0.09,-0.06 -0.18,-0.13 -0.26,-0.21 -0.5,-0.45 -0.83,-1.14 -0.91,-1.98zm-0.17 -0.86l-0.03 -0.17 -0.1 -1.78c0,-0.77 0.75,-1.83 1.5,-1.83 0.1,0 0.2,0 0.31,0.01 0.29,0.02 0.61,0.03 0.82,-0.18 0.12,-0.12 0.28,-0.19 0.46,-0.19 0.25,0 0.48,0.14 0.57,0.34 0.05,0.12 0.23,0.1 0.29,0 0.04,-0.09 0.12,-0.11 0.18,-0.11 0.25,-0.01 0.48,0.2 0.34,0.45 -0.01,0.01 -0.01,0.02 -0.01,0.03 -0.06,-0.02 -0.12,-0.03 -0.18,-0.03 -0.16,0 -0.17,0.26 0,0.26 0.13,0 0.22,0.11 0.27,0.18 0.19,0.27 0.22,0.65 0.01,0.91 -0.26,0.34 -0.71,0.3 -0.92,0.27 -0.13,-0.02 -0.66,-0.15 -0.66,-0.35 0,-0.17 -0.26,-0.17 -0.26,0 0,0.09 0.05,0.18 0.13,0.26 -0.4,0.15 -0.76,0.14 -1.02,-0.04 -0.04,-0.03 -0.15,-0.14 -0.23,-0.27 -0.15,-0.24 -0.49,-0.28 -0.69,-0.08 -0.41,0.42 -0.65,1.42 -0.77,2.18 -0.01,0.05 -0.01,0.1 -0.02,0.14zm-0.32 0.66l-0.01 -0.02c-0.1,-0.25 -0.12,-0.45 -0.05,-0.57 0.03,-0.05 0.07,-0.08 0.11,-0.1l0.17 0.89 0 0.01c0.01,0.1 0.02,0.2 0.04,0.3 -0.1,-0.08 -0.21,-0.31 -0.27,-0.52zm2.4 -0.34c0,0.43 -0.35,0.77 -0.77,0.77 -0.43,0 -0.77,-0.35 -0.77,-0.77 0,-0.43 0.35,-0.77 0.77,-0.77 0.42,0 0.77,0.35 0.77,0.77zm2.66 0c0,0.43 -0.35,0.77 -0.77,0.77 -0.42,0 -0.77,-0.35 -0.77,-0.77 0,-0.43 0.35,-0.77 0.77,-0.77 0.43,0 0.77,0.35 0.77,0.77zm-0.77 -0.95c-0.49,0 -0.9,0.38 -0.94,0.86l-0.11 0c-0.01,-0.42 0,-0.79 0,-0.8 0,-0.07 -0.06,-0.13 -0.13,-0.13 -0,0 -0,0 -0,0 -0.07,0 -0.13,0.06 -0.13,0.13 -0,0.03 -0.01,0.39 -0,0.8l-0.41 0c-0.04,-0.48 -0.45,-0.86 -0.94,-0.86 -0.43,0 -0.79,0.28 -0.91,0.67l-0.13 -0.07c0.13,-0.84 0.37,-1.78 0.71,-2.12 0.04,-0.04 0.09,-0.06 0.14,-0.05 0.05,0.01 0.1,0.04 0.13,0.09 0.09,0.15 0.22,0.29 0.3,0.34 0.37,0.26 0.89,0.26 1.42,0.01 0.15,0.07 0.32,0.13 0.49,0.16 0.1,0.02 0.2,0.03 0.3,0.03 0.35,0 0.64,-0.12 0.83,-0.34 0.26,0.34 0.34,1.21 0.38,1.91l-0.1 0.05c-0.12,-0.39 -0.48,-0.68 -0.91,-0.68zm0.64 -2.78c0.39,0.09 0.84,0.87 0.84,1.49l-0.14 1.75 -0 0.01 -0.07 0.04c-0.06,-0.92 -0.16,-1.67 -0.48,-2.01 0.02,-0.03 0.03,-0.07 0.04,-0.1 0.1,-0.27 0.03,-0.66 -0.16,-0.94 -0.03,-0.05 -0.06,-0.09 -0.1,-0.12 0.01,-0.01 0.06,-0.08 0.07,-0.11zm1.02 3.95c-0.01,0.02 -0.09,0.46 -0.36,0.62 0.01,-0.04 0.02,-0.08 0.02,-0.12l0 -0 0.26 -1.11c0.15,0.06 0.17,0.2 0.07,0.62zm-3.4 12.23l0.01 0c0,0 0,0 0,0 0.57,0.49 1.31,0.67 2.91,0.75 0,0.01 0.01,0.02 0.01,0.04l-2.62 0.82 -4.5 -1.69c0.03,-0.1 0.08,-0.24 0.13,-0.41 0.03,-0.09 0.06,-0.18 0.08,-0.25l0.51 -0.15 0 0c0.01,0.01 3.46,0.9 3.46,0.9zm-2.59 -1.28c0.01,-0.02 2.23,-0.33 2.49,-0.79l0 0.35c-0.1,0.02 -0.19,0.05 -0.26,0.11 -0.23,0.17 -0.34,0.34 -0.35,0.52 -0.02,0.24 0.13,0.46 0.36,0.72l-2.61 -0.67c0.06,-0.02 0.26,-0.1 0.26,-0.1 0.04,-0.01 0.06,-0.04 0.1,-0.15zm5.6 -0.27c-0.21,-0.04 -0.44,-0.21 -0.63,-0.36 -0.26,-0.2 -0.47,-0.36 -0.67,-0.23 -0.05,0.03 -0.08,0.09 -0.09,0.16 -0.02,0.14 0.01,0.38 0.13,0.54 0.02,0.03 0.04,0.08 0.07,0.13 -0.09,-0.03 -0.2,-0.06 -0.32,-0.1 -0.43,-0.14 -0.93,-0.31 -1.33,-0.33l0 -0.65c0.06,-0.08 0.12,-0.17 0.18,-0.27 0.24,-0.37 0.32,-0.68 0.24,-0.94 -0.06,-0.2 -0.19,-0.36 -0.42,-0.5l0 -1.21 3.93 -1.01 0 4.62 -0.64 0.43c-0.12,-0.09 -0.36,-0.28 -0.44,-0.29zm-0.87 0.4c-0.01,-0.03 -0.1,-0.31 -0.18,-0.43 -0.08,-0.11 -0.1,-0.27 -0.09,-0.34 0.07,0.01 0.24,0.14 0.34,0.22 0.22,0.17 0.47,0.36 0.75,0.41 0.1,0.02 0.3,0.19 0.35,0.31l-0.35 1.48c-1.76,-0.08 -2.41,-0.28 -2.97,-0.86 -0.3,-0.31 -0.47,-0.53 -0.45,-0.69 0.01,-0.1 0.09,-0.21 0.25,-0.34 0.26,-0.2 1.11,0.08 1.61,0.25 0.26,0.09 0.47,0.16 0.59,0.17 0.09,0.01 0.16,-0.08 0.14,-0.17zm-5.31 -2.08c0.26,-0.1 0.47,-0.34 0.66,-0.54 0.09,-0.1 0.23,-0.26 0.3,-0.28 0.02,0.07 0.03,0.23 -0.02,0.35 -0.06,0.13 -0.09,0.42 -0.1,0.46 -0.01,0.04 0.01,0.09 0.05,0.11 0.03,0.03 0.08,0.04 0.12,0.03 0.12,-0.03 0.31,-0.14 0.55,-0.28 0.46,-0.26 1.24,-0.7 1.53,-0.55 0.24,0.12 0.38,0.25 0.42,0.41 0.05,0.19 -0.02,0.43 -0.21,0.73 -0.45,0.7 -0.61,0.96 -2.81,1.26 -0.21,-0.34 -0.62,-0.93 -0.8,-1.19 0.04,-0.16 0.24,-0.48 0.32,-0.51zm1.19 -0.93c-0.03,-0.07 -0.07,-0.12 -0.12,-0.14 -0.21,-0.09 -0.4,0.11 -0.61,0.35 -0.17,0.19 -0.35,0.4 -0.55,0.47 -0.17,0.06 -0.39,0.41 -0.46,0.65 -0.09,-0.01 -0.22,-0.01 -0.38,-0.02l0 -3.47 3.93 1.01 0.08 0.02 0 1.07c-0.43,-0.09 -1.1,0.29 -1.65,0.6 -0.1,0.06 -0.2,0.12 -0.29,0.16 0.01,-0.06 0.03,-0.11 0.04,-0.14 0.08,-0.19 0.07,-0.43 0.02,-0.56zm8.61 4.13c0.87,0 1.57,0.8 1.49,1.66 -0.06,0.59 -0.47,1.1 -1.04,1.28l-1 0.28c-0.13,-0.36 -0.32,-0.7 -0.54,-0.96 -0.03,-0.04 -0.08,-0.06 -0.14,-0.06 -0.24,0 -1.18,0.36 -2.23,0.76l0 -0.2c0,-0.06 -0.03,-0.1 -0.09,-0.12l-2.38 -0.87 5.47 -1.71c0.15,-0.05 0.29,-0.07 0.44,-0.07zm-0.36 5.57c0.02,-0.08 0.03,-0.15 0.04,-0.23l9.81 0c0.16,0 0.29,0.13 0.29,0.3 0,0.15 -0.12,0.26 -0.26,0.27 -0.02,-0.02 -9.99,0 -9.99,0 0.05,-0.09 0.08,-0.21 0.11,-0.34zm-0.71 0c0.04,0.01 0.09,-0 0.1,-0.06 0.17,-0.66 0.09,-1.3 -0.08,-1.88 -0.06,-0.19 -0.13,-0.38 -0.21,-0.57 -0.02,-0.05 -0.23,-0.54 -0.25,-0.54 0.11,-0.03 0.2,-0.06 0.25,-0.06 0.18,0.23 0.34,0.51 0.45,0.83 0.03,0.08 0.06,0.16 0.08,0.25 0.19,0.64 0.24,1.36 0.1,1.97 -0.03,0.13 -0.08,0.28 -0.17,0.38 -0.12,0.13 -0.28,0.11 -0.44,0.08 -0.12,-0.02 -1.96,-0.32 -2.24,-0.37l0.01 -2.35c0.46,-0.18 1.26,-0.49 1.78,-0.66 0.08,-0.02 0.43,0.98 0.47,1.1 0.17,0.55 0.24,1.16 0.08,1.79 -0.01,0.05 0.02,0.09 0.06,0.1zm-8.67 0.54c-0.01,0 -0.01,0 -0.02,0l-0.01 0c0.01,0 0.02,-0 0.03,-0zm4.17 -0.77l1.69 0.55 -5.11 0 1.94 -0.55 1.48 0zm-4.11 0.48l-0.43 -1.96 3.41 1.12 -2.98 0.85zm-3.53 3.12l0 7.83c0,0 -1.6,-1.86 -1.61,-1.87 -0.05,-0.06 -0.15,-0.06 -0.2,0l-1.61 1.87 0 -7.83 3.41 0zm22.4 -2.75c-0.72,1.32 -0.71,5.31 0.01,6.53l-22.14 0 0 -3.83 6.35 0c0.05,0 0.09,-0.04 0.09,-0.09 0,-0.05 -0.04,-0.09 -0.09,-0.09l-11.16 0c-0.05,0 -0.09,0.04 -0.09,0.09 0,0.05 0.04,0.09 0.09,0.09l0.87 0 0 3.83 -1.21 0c-1.17,0 -2.13,-0.9 -2.13,-2l0 -2.56c0,-1.1 0.95,-2 2.13,-2l5.19 0c0.12,0.08 0.26,0.1 0.4,0.1 0.06,0 0.12,-0 0.18,-0.01 0.3,-0.02 1.61,-0.08 1.78,-0.09l8.87 0c0.15,0.03 0.29,0.05 0.4,0.07 0.14,0.03 0.29,0.05 0.43,0.01 0.06,-0.02 0.12,-0.04 0.16,-0.08l9.89 0c-0.01,0.01 -0.01,0.02 -0.01,0.03zm0.59 7.11c0,0.03 -0,0.05 -0.01,0.07l-22.71 0 0 -0.4 22.44 0.03c0.16,0 0.29,0.13 0.29,0.3zm2.21 -1.49c-0.27,-0.9 0.13,-1.84 0.59,-2.8 0.03,-0.06 0.18,-0.47 0.19,-0.5 0.41,0.21 2.24,1.13 4.19,1.29 0.13,0.01 0.25,0.02 0.37,0.02 0.4,0 0.74,-0.06 1.01,-0.18l4.8 1.37c0.7,0.25 1.45,0.88 1.27,1.82 -0.01,0.03 -0.66,3.41 -1.47,5.53 -0.07,0.16 -0.34,0.73 -0.4,0.86 -0.35,0.72 -0.68,1.45 -0.78,1.91 -0.01,0 -0.76,-0.5 -1.08,-0.7 -0.3,-0.18 -0.6,-0.37 -0.85,-0.55 0,-0.01 0.1,-0.53 0.13,-0.64 0.21,0.14 1.63,0.85 1.68,0.88 0.09,0.07 0.2,-0.06 0.11,-0.13 -0.06,-0.05 -1.54,-0.78 -1.74,-0.93 0.02,-0.07 0.04,-0.14 0.06,-0.22 0.05,-0.2 0.87,-3.34 1.05,-3.9 0.13,-0.41 0.25,-0.82 0.39,-1.23 0.08,-0.24 0.23,-0.69 0.29,-0.76 0.11,-0.13 -0.09,-0.3 -0.2,-0.17 -0.09,0.1 -0.25,0.57 -0.34,0.8 0,0 -0.37,0.06 -0.53,0.07 -1.02,0.08 -2.05,0.09 -3.07,0.09 -2.05,0 -3.42,-0.09 -3.87,-0.25 -0.9,-0.33 -1.56,-0.95 -1.78,-1.66zm0.64 -3.47c-0,0 -0,0.01 -0,0.01l-0 0c0,-0 0,-0.01 0,-0.01zm0.55 -0.96c0.07,0 0.15,-0.01 0.23,-0.02 1.36,-0.21 3.99,-2.04 5.06,-2.82l-0.19 1.22c-0.01,0.07 0.03,0.13 0.1,0.15l0.73 0.15c-0.02,0 -0.27,2.04 -0.28,2.25 -0.03,0.44 -0.19,0.86 -0.56,1.05 -0.39,0.2 -0.86,0.2 -1.29,0.17 -1.96,-0.16 -3.8,-1.11 -4.11,-1.27 0,0 0.3,-0.88 0.3,-0.88zm-0.78 -0.51c-0.23,-0.16 -0.54,-0.41 -0.49,-0.73l1 -5.97c0.01,-0.32 0.21,-0.53 0.48,-0.69 0.34,-0.15 0.7,-0.3 1.03,-0.44 0.13,0.37 0.68,0.85 1.29,1.14 0.3,0.14 0.69,0.28 1.12,0.28 0.23,0 0.46,-0.04 0.69,-0.14 0.29,-0.12 0.47,-0.33 0.61,-0.7 0.04,-0.1 -0.12,-0.17 -0.16,-0.06 -0.12,0.32 -0.27,0.49 -0.51,0.6 -0.61,0.25 -1.24,0.06 -1.67,-0.14 -0.64,-0.31 -1.11,-0.77 -1.21,-1.05l0.56 -0.21c0.04,0.4 0.35,0.7 0.38,0.72 0.35,0.26 0.73,0.4 1.1,0.4 0.27,0 0.54,-0.08 0.75,-0.25 0.1,-0.08 0.18,-0.18 0.24,-0.3 0.07,-0.13 0.13,-0.51 0.13,-0.51 0.09,0 1.01,0.03 1.16,0.51 0.07,0.21 0.17,0.41 0.28,0.61l-0.36 2.37 -0.48 0.19 -4.11 1.93c0,0 0.58,-2.75 0.58,-2.76 0.03,-0.16 -0.22,-0.22 -0.26,-0.05l-0.62 2.95c-0.03,0.01 -0.21,0.06 -0.27,0.1 -0.33,0.18 -0.5,0.35 -0.65,0.55 -0.1,0.14 0.11,0.29 0.21,0.16 0.13,-0.18 0.27,-0.32 0.56,-0.48 0.1,-0.06 0.23,-0.07 0.33,-0.12 0.55,-0.26 2.79,-1.32 3.37,-1.59l0.01 -0c0.11,0.38 0.21,0.77 0.3,1.15 0.02,0.11 0.2,0.07 0.17,-0.04 -0.09,-0.4 -0.2,-0.8 -0.31,-1.19l0.54 -0.25 0.5 1.2c-0.05,0.03 -3.96,2.83 -5.33,3.04 -0.34,0.05 -0.69,-0.05 -0.97,-0.24zm3.32 -9.33c0.46,0.43 1.01,0.73 1.56,0.78 0.04,0 0.09,0.01 0.13,0.01l0.04 0.62c-0.04,0.4 -0.38,0.68 -0.83,0.68 -0.31,0 -0.64,-0.12 -0.93,-0.34 -0,-0 -0.31,-0.3 -0.29,-0.65 0.05,-0.1 0.23,-0.55 0.32,-1.1zm-0.58 -1.15c0,-0.02 -0.1,-0.67 -0.31,-1.03 -0.07,-0.13 -0.14,-0.27 -0.22,-0.54 -0.07,-0.23 0.04,-0.44 0.3,-0.44 0.17,0 0.4,0.11 0.48,0.42 0.02,0.08 0.11,0.12 0.19,0.08l0.72 0.27c-0.03,0.24 0.03,0.47 0.19,0.66 0.16,0.19 0.4,0.3 0.65,0.3 0.37,0 0.7,-0.25 0.81,-0.6l0.18 0 0.09 0.71 0 0.01c-0.13,0 -0.28,-0.02 -0.31,-0.05 -0.05,-0.05 -0.13,-0.05 -0.19,0 -0.05,0.05 -0.05,0.13 0,0.18 0.15,0.15 0.4,0.14 0.59,0.12 0.17,-0.01 0.18,-0.2 0.16,-0.32l-0.09 -0.66 0.09 0c0.09,0.33 0.38,0.59 0.74,0.62 0.04,0 0.08,0.01 0.12,0 -0.06,0.17 -0.12,0.34 -0.19,0.5 -0.3,0.67 -0.88,1.48 -1.85,1.4 -0.84,-0.07 -1.69,-0.83 -2.16,-1.66zm-1.33 -2.56c0.06,-1.02 0.53,-1.88 1.3,-2.36 0.38,-0.24 0.81,-0.36 1.29,-0.36 0.29,0 0.61,0.05 0.93,0.14 0.86,0.24 1.26,0.69 1.42,0.89 0,0.02 -0.2,0.42 -1.13,0.46 -0.07,0 -0.15,0.03 -0.13,0.12 0.02,0.07 0.09,0.06 0.14,0.06 0.42,-0.04 0.98,-0.1 1.26,-0.49 0.3,0.14 0.67,0.49 0.78,0.87 0.05,0.16 0.04,0.33 -0.04,0.47 -0.08,0.14 -0.23,0.21 -0.37,0.27 -0.16,0.06 -0.32,0.12 -0.49,0.12 -0.25,0 -0.54,-0.07 -0.81,-0.15 -0.27,-0.07 -0.54,-0.14 -0.81,-0.14 -0.81,0 -1.35,0.51 -1.6,0.79 -0.15,-0.27 -0.42,-0.39 -0.64,-0.39 -0.2,0 -0.37,0.08 -0.48,0.22 -0.11,0.15 -0.14,0.34 -0.07,0.56 0.09,0.3 0.17,0.45 0.24,0.59 0.08,0.14 0.15,0.28 0.21,0.56 -0.68,-0.66 -1.04,-1.45 -0.99,-2.21zm0.37 2.89c-0.25,0.49 -0.8,0.85 -1.43,0.94 -0.13,0.02 -0.26,0.03 -0.39,0.03 -0.35,0 -0.73,-0.06 -1.13,-0.19 0.47,-0.25 0.95,-0.64 1.08,-1.22 0.13,-0.56 -0.07,-1.12 -0.15,-1.67 -0.07,-0.56 -0.1,-0.98 -0.07,-1.37 0.05,-0.73 0.3,-1.66 1.27,-1.97 0.45,-0.15 0.98,-0.1 1.41,0.12 -0.1,0.07 -0.19,0.16 -0.28,0.24 -0.01,-0 -0.25,-0.1 -0.36,-0.12 -0.47,-0.07 -0.94,0.16 -1.28,0.64 -0.07,0.09 0.07,0.19 0.14,0.1 0.36,-0.52 0.89,-0.7 1.38,-0.49 -0.48,0.53 -0.77,1.25 -0.82,2.06 -0.04,0.75 0.26,1.51 0.83,2.16 -0.03,0.26 -0.08,0.52 -0.2,0.74zm5.67 -1.77c0.08,0.12 0.11,0.27 0.1,0.42 -0.02,0.19 -0.12,0.36 -0.26,0.47 0.05,-0.21 0.09,-0.42 0.12,-0.64 0.01,-0.09 0.02,-0.17 0.03,-0.25zm-2.05 0.38c-0.03,0.36 -0.35,0.64 -0.72,0.61 -0.36,-0.03 -0.64,-0.36 -0.61,-0.72 0.03,-0.36 0.36,-0.64 0.72,-0.61 0.36,0.03 0.64,0.36 0.61,0.72zm1.83 -0.79c-0.08,-0.04 -0.17,-0.06 -0.27,-0.07 -0.47,-0.04 -0.87,0.31 -0.91,0.77 -0,0.04 -0,0.08 -0,0.11l-0.09 0 -0.04 -0.3c-0.01,-0.07 -0.07,-0.12 -0.15,-0.11 -0.07,0.01 -0.12,0.08 -0.11,0.15l0.03 0.26c0,0 -0.12,-0 -0.12,-0.01 0.02,-0.23 -0.05,-0.44 -0.2,-0.62 -0.15,-0.17 -0.35,-0.28 -0.57,-0.3 -0.39,-0.03 -0.74,0.21 -0.86,0.55l-0.65 -0.24c0.18,-0.23 0.69,-0.76 1.45,-0.76 0.25,0 0.5,0.07 0.75,0.13 0.29,0.08 0.59,0.16 0.88,0.16 0.16,0 0.3,-0.02 0.42,-0.08 0.04,-0.02 0.44,-0.14 0.44,-0.21 0.01,0.17 0.01,0.36 -0.01,0.56zm-0.07 0.62c-0.04,0.26 -0.16,0.79 -0.17,0.81 -0.05,0.01 -0.1,0.01 -0.16,0.01 -0.37,-0.03 -0.64,-0.36 -0.61,-0.72 0.03,-0.34 0.32,-0.61 0.67,-0.61 0.04,0 0.33,0.03 0.32,0.09 -0.01,0.14 -0.03,0.28 -0.05,0.44zm-1.13 7.59l1.49 -0.6c0.69,-0.13 1.74,0.13 1.84,0.74 0.04,0.23 -0.09,0.44 -0.29,0.48l-2.58 0.51 -0.47 -1.13zm1.1 -3.46l4.08 0.81c0,0 -0.29,1.96 -0.29,1.97 -0.02,0.11 0.16,0.14 0.17,0.03l0.29 -2 2.67 -1.18 -0.57 2.73c-0.06,-0.02 -0.13,-0.03 -0.21,-0.03 -0.24,0 -0.56,0.11 -0.7,0.31 -0.13,0.19 -0.25,0.37 -0.31,0.58 -0.11,0.38 -0.13,1.44 0.09,1.76 0.06,0.09 0.14,0.12 0.2,0.12 0.1,0.01 0.34,0.01 0.36,0.01l-0.21 0.98 -2.25 1.04 0.55 -3.75c0.01,-0.05 -0.03,-0.09 -0.07,-0.1 -0.05,-0.01 -0.09,0.02 -0.1,0.07l-0.57 3.84 -4.11 -0.82 0.21 -1.36c0.09,-0.07 0.25,-0.18 0.25,-0.18l2.52 -0.52c0.33,-0.07 0.55,-0.42 0.49,-0.79 -0.11,-0.65 -0.94,-0.98 -1.72,-0.98 -0.15,0 -0.3,0.01 -0.44,0.04l-0.77 0.31 0.44 -2.91zm6.07 4.81c-0.01,0.01 -0.02,0.02 -0.04,0.03 -0.1,0.01 -0.21,0.02 -0.32,0.02 -0.09,0 -0.18,-0.01 -0.26,-0.01 -0.14,-0.1 -0.19,-1.13 -0.07,-1.56 0.05,-0.17 0.15,-0.33 0.27,-0.5 0.08,-0.11 0.3,-0.2 0.49,-0.2 0.09,0 0.15,0.02 0.16,0.04 0,0 0.01,0.01 0.01,0.04 -0.05,0.63 -0.15,1.74 -0.25,2.14zm-5.6 2.48c-0.05,0.02 -0.1,0.02 -0.14,0.02 -0.18,0 -0.35,-0.12 -0.41,-0.29l-0.07 -0.2 1.24 0.25 -0.62 0.22zm-0.16 1.94c0.97,0.24 1.93,0.58 2.88,0.87 0.23,0.07 0.45,0.14 0.66,0.21 0.41,0.13 0.82,0.24 1.21,0.44 0.26,0.13 0.54,0.3 0.71,0.54 0.3,0.42 0.38,4.35 0.42,6.03 0.01,0.53 0.02,0.94 0.03,1.14l0 0.01c0.04,0.54 0.1,0.93 0.16,1.39 0.06,0.44 0.13,0.94 0.2,1.67 0,0 -2.14,0.39 -2.2,0.39 0,-0 0,-0 -0,-0.01 -0.06,-0.25 -0.13,-0.52 -0.2,-0.78 0.13,0.03 0.3,0.04 0.47,0.04 0.65,0 1.45,-0.17 1.49,-0.18 0.05,-0.01 0.08,-0.06 0.07,-0.1 -0.01,-0.05 -0.06,-0.08 -0.1,-0.07 -0.02,0 -1.45,0.31 -1.98,0.11 -0.03,-0.11 -0.36,-1.28 -0.42,-1.55 -0.02,-0.1 -0.04,-0.18 -0.05,-0.25 0,-0 0,-0.01 0,-0.01 0.81,-2.14 1.47,-5.5 1.47,-5.53 0.22,-1.1 -0.64,-1.83 -1.45,-2.12l-4.58 -1.31c0.05,-0.04 0.09,-0.08 0.14,-0.13 0.34,-0.37 0.34,-0.82 0.32,-0.98 0,0.01 0.64,0.16 0.75,0.19zm6.7 13.49c0,0 0,0 0,0 0.02,0.13 -0.01,0.16 -0.01,0.17 -0.01,0.01 -0.18,0.15 -1.25,-0.53 -0.12,-0.07 -0.24,-0.19 -0.34,-0.32l-0 -0c0.05,-0.01 1.23,-0.25 1.24,-0.25 0.04,0.11 0.35,0.82 0.37,0.94zm0.69 0.82c0.14,0.02 0.28,0.08 0.41,0.1 0.21,0.03 0.39,0.06 0.51,0.2 0.11,0.12 0.14,0.3 0.13,0.5 -0.17,0.22 -0.5,0.25 -0.75,0.29 -0.44,0.08 -0.9,0.09 -1.35,0.01 -0.11,-0.02 -0.14,0.15 -0.03,0.17 0.22,0.04 0.43,0.06 0.65,0.06 0.47,0 1.03,-0.05 1.46,-0.28 -0.02,0.08 0,0.19 -0.07,0.26 -0.02,0.02 -0.05,0.03 -0.08,0.03 -0.5,0.14 -1.03,0.2 -1.55,0.18 -0.14,-0.01 -0.3,-0.02 -0.43,-0.09 -0.17,-0.1 -0.3,-0.29 -0.42,-0.49 -0.08,-0.13 -0.16,-0.26 -0.26,-0.37 -0.17,-0.2 -0.39,-0.33 -0.59,-0.42 -0.05,-0.26 -0.06,-0.53 -0.02,-0.79 0.01,-0.05 0.01,-0.09 0.03,-0.14 0.02,-0.08 0.09,-0.23 0.13,-0.29 0.05,0.04 0.1,0.08 0.15,0.11 0.62,0.4 1.05,0.59 1.32,0.59 0.1,0 0.19,-0.03 0.26,-0.1 0.03,0.15 0.46,0.46 0.51,0.47zm-2.36 1.49c-0.04,0.01 -0.09,-0.02 -0.1,-0.07l-0.21 -1.1c0.11,0.04 0.21,0.08 0.3,0.13 0,0 0.1,0.94 0.1,0.95 0.01,0.06 -0.04,0.09 -0.08,0.1zm-0.42 -1.48c-0.06,-0.01 -0.11,-0.03 -0.14,-0.06 -0.02,-0.02 -0.04,-0.07 -0.05,-0.11 -0.16,-0.49 -0.21,-0.89 -0.15,-1.24 0.15,-0.02 0.33,-0.04 0.53,-0.07 0.07,0.09 0.15,0.18 0.22,0.26 -0.05,0.1 -0.15,0.29 -0.17,0.37 -0.01,0.05 -0.02,0.11 -0.03,0.16 -0.04,0.25 -0.04,0.5 -0,0.75 -0.07,-0.02 -0.15,-0.05 -0.21,-0.06zm-1.18 1.13c-0.01,0 -0.53,-0.02 -0.53,-0.02 -0.03,-0.11 -0.08,-0.2 -0.14,-0.28l0.15 0c0.27,0 0.5,-0.08 0.64,-0.21 0.07,0.05 0.12,0.14 0.12,0.24 0,0.14 -0.11,0.27 -0.24,0.28zm-1.49 -2.41c0.01,-0.08 0.04,-0.25 0.06,-0.26 0.08,-0.05 0.14,-0.1 0.16,-0.19 0.09,-0.44 0.41,-1.1 0.75,-1.81 0.05,-0.1 0.2,-0.47 0.26,-0.55 0.09,0.31 0.25,1.03 0.26,1.08 0,0 0,0 0,0l0 3.34c0,0.1 -0.2,0.24 -0.52,0.24l-0.43 0c-0.03,-0.02 -0.05,-0.04 -0.08,-0.06 -0.11,-0.08 -0.22,-0.16 -0.3,-0.26 -0.3,-0.36 -0.23,-0.95 -0.16,-1.52zm-1.53 -1.1l0 -0c0.01,0.01 0.18,0.11 0.27,0.17 0.32,0.2 0.99,0.65 1,0.65l0 -0c0,0 -0.09,0.93 -0.13,1.08 -0.05,0.15 -0.09,0.16 -0.1,0.16 -0.02,0 -0.24,-0.03 -0.77,-1.23 -0.09,-0.21 -0.2,-0.53 -0.25,-0.83zm-1.22 1.42c-0.05,-0.05 -0.09,-0.09 -0.11,-0.13 -0.01,-0.03 0.04,-0.25 0.03,-0.25 0.34,0.23 0.57,0.53 0.72,0.92 0.04,0.1 0.2,0.05 0.16,-0.06 -0.17,-0.45 -0.44,-0.78 -0.84,-1.04 0.11,-0.48 0.29,-0.85 0.52,-1.11 0.04,-0.05 0.09,-0.1 0.14,-0.14 0.09,0.07 0.19,0.14 0.3,0.2 0.04,0.42 0.2,0.89 0.31,1.12 0.54,1.22 0.82,1.38 1.01,1.38 0.09,0 0.16,-0.03 0.21,-0.1 0.04,0.21 0.12,0.4 0.25,0.57 0.1,0.12 0.22,0.21 0.35,0.3 0.19,0.14 0.35,0.26 0.4,0.46 0.06,0.23 -0.07,0.49 -0.23,0.75 -0.33,-0.06 -1.11,-0.35 -1.33,-0.47 -0.1,-0.06 -0.18,0.09 -0.09,0.15 0.2,0.11 0.91,0.39 1.3,0.48 -0.07,0.1 -0.14,0.13 -0.26,0.1 -0.55,-0.12 -1.08,-0.32 -1.57,-0.6 -0.13,-0.08 -0.28,-0.17 -0.38,-0.31 -0.22,-0.34 -0.14,-0.8 -0.23,-1.18 -0.12,-0.47 -0.44,-0.81 -0.68,-1.03zm-0.37 1.58c-0.05,0.13 -0.25,0.06 -0.21,-0.08l0.39 -1.33c0.01,0.01 0.2,0.19 0.27,0.28 0,0 -0.44,1.1 -0.45,1.13zm0.63 -0.87c0.08,0.13 0.13,0.26 0.16,0.39 0.03,0.13 0.04,0.28 0.06,0.43l-0.55 0 0.33 -0.81zm-4.05 4.48l0 5.87 -1.19 -1.38c-0.02,-0.03 -0.06,-0.05 -0.1,-0.05 -0.04,0 -0.07,0.02 -0.1,0.05l-1.19 1.39 0 -5.87 2.59 0zm7.71 3.6l-7.45 0 0 -3.6 4.45 0c0.05,0 0.09,-0.04 0.09,-0.09 0,-0.05 -0.04,-0.09 -0.09,-0.09l-11.05 0c-0.05,0 -0.09,0.04 -0.09,0.09 0,0.05 0.04,0.09 0.09,0.09l3.49 0 0 3.6 -15.62 0c-1.12,0 -2.04,-0.89 -2.04,-1.97l0 -2.52c0,-1.09 0.91,-1.97 2.04,-1.97l22.92 0c0.01,0.01 0.02,0.02 0.02,0.04 0.12,0.18 0.31,0.3 0.47,0.39 0.51,0.29 1.07,0.51 1.64,0.63 0.11,0.02 0.22,0.04 0.32,-0.01 0.12,-0.05 0.19,-0.16 0.24,-0.23 0.18,-0.25 0.33,-0.52 0.37,-0.79l0.2 0c-0.69,1.3 -0.68,5.24 0.01,6.44zm0.36 0.9l-7.81 0 0 -0.64c0,0 7.7,0 7.72,0 0.39,-0.03 0.51,0.64 0.09,0.64zm-51.96 7.99c-0.02,0.08 -0.05,0.17 -0.1,0.22 -0.05,0.04 -0.12,0.05 -0.21,0.06 -0.31,0.04 -0.63,0.06 -0.95,0.06 -0.38,0 -0.76,-0.03 -1.14,-0.09 -0.19,-0.03 -0.41,-0.07 -0.58,-0.19 -0.22,-0.15 -0.35,-0.41 -0.49,-0.69 -0.08,-0.17 -0.17,-0.34 -0.28,-0.5 -0.17,-0.23 -0.39,-0.41 -0.61,-0.54 -0.19,-0.12 -0.39,-0.21 -0.6,-0.29 -0.08,-0.03 -0.15,-0.06 -0.19,-0.11 -0.03,-0.04 -0.04,-0.09 -0.05,-0.16 -0.14,-0.73 -0.11,-1.3 0.09,-1.75 0.1,-0.22 0.25,-0.41 0.42,-0.55 0.05,0.33 0.2,0.72 0.43,1 -0.05,0.07 -0.09,0.15 -0.13,0.23 -0.03,0.06 -0.05,0.12 -0.07,0.19 -0.1,0.33 -0.15,0.68 -0.13,1.02 0,0.06 0,0.12 0.07,0.13 0.16,0.03 0.1,-0.36 0.11,-0.44 0.02,-0.23 0.06,-0.45 0.12,-0.66 0.04,-0.12 0.09,-0.23 0.16,-0.34 0.08,0.08 0.17,0.15 0.27,0.21 0.46,0.24 0.9,0.37 1.25,0.37 0.24,0 0.43,-0.06 0.56,-0.18 0.01,0.02 0.1,0.29 0.09,0.29 -0.02,0.01 -0.03,0.02 -0.05,0.03 -0.19,0.1 -0.47,0.26 -0.65,0.4 -0.09,0.07 -0.12,0.2 -0.05,0.3 0.11,0.17 0.38,0.5 0.47,0.61 0.07,0.09 0.21,0.1 0.3,0.02 0.09,-0.08 0.3,-0.27 0.52,-0.39 0.07,0.06 0.16,0.11 0.25,0.15 0.14,0.06 0.29,0.1 0.44,0.14 0.3,0.08 0.58,0.16 0.74,0.38 0.19,0.27 0.11,0.67 -0,1.06zm-4.69 -0.12c-0.01,0.18 -0.33,0.19 -0.34,0.01l-0.1 -1.62c0.06,0.03 0.5,0.17 0.5,0.22 0,0 -0.05,1.39 -0.05,1.39zm2.23 -4.22c0.04,0.22 0.35,1.03 0.21,1.17 -0.18,0.18 -0.76,0.16 -1.5,-0.23 -0.35,-0.18 -0.62,-0.72 -0.69,-1.15l1.98 0.21zm0.57 1.9c0.07,0.19 0.15,0.37 0.26,0.51 -0.19,0.11 -0.36,0.25 -0.47,0.35 -0.12,-0.14 -0.3,-0.37 -0.39,-0.5 0.16,-0.12 0.42,-0.26 0.59,-0.35 0,-0 0.01,-0 0.01,-0.01zm-7.74 -2.24c-0.1,0.23 -0.28,0.36 -0.47,0.36 -0.27,-0.01 -0.54,-0.3 -0.72,-0.79 -0.15,-0.43 -0.26,-1.19 -0.05,-1.53l0.06 -0.06c0.06,0.03 0.46,0.43 0.73,0.67 0.17,0.15 0.34,0.28 0.52,0.41 0.11,0.07 0.23,0.17 0.35,0.22l-0.43 0.72zm-0.55 1.9c-0.24,-0.03 -0.5,-0.01 -0.65,0.01 -0.01,-0.15 -0.03,-0.54 -0.01,-0.72 0.21,-0.01 0.74,0.05 0.74,0.05 -0.06,0.22 -0.09,0.44 -0.08,0.66zm0.13 -0.83c-0.26,-0.03 -0.53,-0.07 -0.8,-0.06 -0.1,0.01 -0.17,0.08 -0.18,0.17 -0.01,0.2 0.01,0.61 0.02,0.76 0.01,0.09 0.09,0.16 0.18,0.15 0.12,-0.02 0.42,-0.05 0.67,-0.01 0.02,0.1 0.05,0.2 0.1,0.3 0.08,0.17 0.2,0.31 0.31,0.45 0.17,0.21 0.34,0.42 0.34,0.66 -0.01,0.32 -0.31,0.6 -0.64,0.86 -0.15,0.12 -0.24,0.14 -0.42,0.05 -0.62,-0.33 -1.18,-0.74 -1.68,-1.23 -0.14,-0.13 -0.29,-0.3 -0.36,-0.49 -0.05,-0.14 -0.06,-0.29 -0.04,-0.45 0.08,0.11 0.17,0.22 0.27,0.31 0.31,0.31 0.64,0.62 0.96,0.92 0.12,0.11 0.22,0.2 0.34,0.29 0.15,0.11 0.31,0.2 0.49,0.27 0.1,0.03 0.17,-0.13 0.06,-0.16 -0.16,-0.06 -0.31,-0.14 -0.45,-0.24 -0.11,-0.08 -0.21,-0.17 -0.32,-0.28 -0.32,-0.3 -0.65,-0.61 -0.96,-0.91 -0.16,-0.16 -0.31,-0.32 -0.34,-0.51 0,-0.02 0.01,-0.04 0.01,-0.06 0.03,-0.18 0.07,-0.37 0.07,-0.56 0.01,-0.56 -0.27,-1.05 -0.48,-1.37 -0.05,-0.07 -0.09,-0.14 -0.09,-0.2 0,-0.04 0.02,-0.1 0.05,-0.16 0.32,-0.67 0.69,-1.11 1.12,-1.37 0.2,-0.12 0.44,-0.19 0.68,-0.2 -0.12,0.26 -0.13,0.62 -0.09,0.96 -0.05,0.03 -0.14,0.06 -0.17,0.08 -0.09,0.04 -0.17,0.09 -0.24,0.15 -0.3,0.22 -0.55,0.49 -0.75,0.8 -0.06,0.09 0.09,0.19 0.14,0.1 0.19,-0.29 0.43,-0.54 0.71,-0.75 0.1,-0.08 0.21,-0.14 0.34,-0.19 0.03,0.2 0.08,0.39 0.14,0.53 0.18,0.48 0.59,1.14 1.2,0.93 -0.07,0.16 -0.13,0.32 -0.18,0.49zm-3.71 0.47c-0.11,0.14 -0.39,-0.03 -0.28,-0.19l0.89 -1.37c0.11,0.1 0.27,0.46 0.27,0.46 0,0 -0.87,1.1 -0.88,1.1zm13.29 -19.89c0.01,-0.24 0,-0.47 0,-0.71 -0,-0.24 -0,-0.46 -0.03,-0.7 -0.02,-0.18 -0.05,-0.37 -0.07,-0.55 -0.06,-0.49 -0.24,-1.94 -0.27,-2.17 -0.02,-0.24 0.08,-4.51 0.08,-4.56 0.01,-0.28 -0.11,-0.55 -0.2,-0.76 -0.42,-0.98 -1.39,-3.05 -1.44,-3.11l0.66 0.18c0.33,0.11 0.44,0.33 0.58,0.62 0.07,0.14 0.91,1.66 0.91,1.66 0.12,0.19 0.25,0.4 0.33,0.64 0.06,0.18 0.1,0.39 0.08,0.62 -0.03,0.37 -0.2,0.8 -0.62,1.3 -0.03,0.04 -0.03,0.04 -0.02,0.18 0.02,0.33 0.44,6.52 0.46,7.25 -0.01,0 -0.02,0.01 -0.03,0.01 -0.11,0.03 -0.31,0.09 -0.42,0.11zm-2 -1.17c0,-0.01 0,-0.02 0,-0.03 0.03,-0.95 0.03,-1.92 0.02,-2.86 -0.01,-1 -0.02,-2.03 0.03,-3.04 0.02,-0.52 0.05,-1.1 -0.13,-1.64 -0.2,-0.63 -0.64,-1.14 -1.08,-1.61 -0.64,-0.68 -1.32,-1.34 -2.02,-1.96 0.02,-0.01 0.27,-0.08 0.37,-0.11 0.09,0.09 0.16,0.15 0.25,0.25 0.26,0.26 0.55,0.5 0.86,0.69 0.37,0.22 1.16,0.76 1.46,0.17 0.1,-0.2 0.08,-0.43 0.06,-0.64 -0.01,-0.11 -0.02,-0.42 -0.05,-0.55 0.07,0.08 0.45,0.85 0.45,0.85 0.06,0.14 -0.06,0.38 -0.13,0.5 -0.19,0.28 -0.48,0.35 -0.8,0.35 -0.11,0 -0.24,0.01 -0.34,-0.06 -0.1,-0.06 -0.19,0.09 -0.09,0.15 0.13,0.08 0.28,0.08 0.42,0.08 0.25,0 0.5,-0.02 0.72,-0.17 0.18,-0.13 0.32,-0.33 0.38,-0.54 0.31,0.66 0.61,1.33 0.89,1.99 0.09,0.2 0.19,0.43 0.18,0.66 0,0.05 -0.1,4.33 -0.08,4.59 0.03,0.3 0.35,2.79 0.35,2.8 -0.29,0.04 -1.04,0.13 -1.72,0.14zm-4.38 -0.71l0.05 -2.62 0.39 -1.61 0.25 1.49 -0.68 2.73zm4.17 -5.55c-0.01,0 -0.03,0 -0.04,0.01 -0.73,0.32 -1.22,0.25 -1.78,0.16 -0.06,-0.01 -0.16,-0.04 -0.18,0.05 -0.03,0.1 0.09,0.12 0.16,0.13 0.26,0.04 0.51,0.08 0.77,0.08 0.32,0 0.66,-0.06 1.07,-0.23 -0,0.05 -0,0.1 -0.01,0.14 -0.04,1.01 -0.03,2.05 -0.03,3.05 0.01,0.99 0.02,2.01 -0.03,3.01 -0.15,0.72 -0.39,1.39 -0.5,1.44 -0.3,0.03 -0.66,0.05 -1.07,0.05 -0.97,0 -2.03,-0.09 -2.57,-0.14l0.02 -1.01 0.96 -3.86c0,-0.02 0.01,-0.03 0,-0.05l-0.35 -2.13c0,0 0.81,-3.36 0.82,-3.37 0.04,-0.16 -0.21,-0.23 -0.26,-0.06l-0.83 3.42 -0.54 2.22c-0,0.01 -0,0.02 -0.01,0.03l-0.07 3.77 -0.03 1.75c-0.01,-0.01 -1.99,-0.01 -1.99,-0.01 0.01,-2.16 0.06,-5.41 0.18,-5.91l0.97 -6.4c0.05,-0.25 0.31,-0.4 0.65,-0.51 0.08,-0.03 0.25,-0.08 0.25,-0.08l1.14 -0.32c0,0 0.26,0.23 0.38,0.34 0.61,0.55 1.2,1.13 1.76,1.72 0.42,0.45 0.84,0.93 1.02,1.51 0.12,0.39 0.14,0.81 0.12,1.23zm-4.22 10.43c0,0.01 0.15,0.76 0.45,1.04 0.02,0.02 0.03,0.03 0.04,0.04 0.01,0.01 -0.09,0.06 -0.1,0.07 -0.13,0.01 -0.28,-0.06 -0.33,-0.11 -0.09,-0.08 -0.28,-0.3 -0.34,-0.38 -0.07,-0.09 -0.22,-0.05 -0.23,0.07 -0.06,0.52 -0.6,1.93 -0.87,1.91 -0.35,-0.05 -0.76,-0.33 -0.99,-0.67 -0.1,-0.16 -0.17,-0.34 -0.17,-0.53 0,-0.16 0.03,-0.33 0.05,-0.5 0.04,-0.34 0.09,-0.68 0.16,-1.02 0.04,-0.22 0.09,-0.43 0.15,-0.65 0.04,-0.13 0.08,-0.28 0.17,-0.38 0,0 1.59,0 1.59,0 0.06,-0.01 0.2,0.39 0.22,0.43 0.08,0.22 0.14,0.45 0.2,0.68zm-2.26 -1.82c0,0 1.98,0.01 1.99,0l-0.01 0.46 -1.98 0c0,-0.14 0,-0.3 0,-0.46zm6.19 -12.56c-0.22,0.24 -0.88,-0.21 -1.06,-0.32 -0.41,-0.25 -0.75,-0.57 -0.96,-0.79 -0.01,-0.01 -0.15,-0.17 -0.18,-0.2 0,-0.01 0.12,-0.63 0.13,-0.69 0.17,0.1 0.47,0.2 0.53,0.22 0.21,0.07 0.43,0.11 0.65,0.11 0.28,0 0.56,-0.06 0.82,-0.18 0.04,0.35 0.23,1.68 0.06,1.85zm-2.41 -2.68c0.01,-0.05 0.01,-0.11 0.01,-0.16 0,-0.07 -0.01,-0.17 -0.05,-0.27 -0.09,-0.2 -0.14,-0.31 -0,-0.52 0.11,-0.16 0.23,-0.33 0.25,-0.53 0.02,-0.19 -0.06,-0.37 -0.13,-0.53 -0.07,-0.16 -0.13,-0.3 -0.09,-0.43 0.08,-0.22 0.2,-0.37 0.22,-0.62 0.01,-0.07 -0.02,-0.64 -0.11,-0.64l3.51 0.1c0.2,0.48 0.28,1 0.24,1.5 -0.02,0.3 -0.08,0.6 -0.17,0.88 -0.32,1 -1.12,2.05 -2.28,1.96 -0.51,-0.04 -1.01,-0.33 -1.4,-0.73zm-0.54 0.55l-1.77 -0.09c-0.01,-0.25 0.13,-0.48 0.28,-0.73 0.12,-0.2 0.25,-0.41 0.3,-0.65 0.04,-0.2 0.02,-0.41 0,-0.61 -0.02,-0.2 -0.04,-0.39 0.01,-0.58 0.06,-0.24 0.21,-0.45 0.31,-0.67 0.09,-0.19 0.13,-0.46 0.17,-0.75 0.02,-0.15 0.05,-0.3 0.08,-0.45 0.02,-0.11 -0.15,-0.15 -0.17,-0.03 -0.03,0.15 -0.06,0.31 -0.08,0.46 -0.04,0.27 -0.09,0.53 -0.16,0.7 -0.1,0.24 -0.26,0.45 -0.32,0.71 -0.05,0.21 -0.03,0.43 -0.01,0.63 0.02,0.2 0.04,0.38 0,0.56 -0.04,0.2 -0.16,0.4 -0.27,0.59 -0.15,0.25 -0.31,0.51 -0.3,0.81l-0.7 -0.04c-0.09,-0.29 0.12,-0.65 0.31,-0.97 0.1,-0.16 0.25,-0.31 0.31,-0.5 0.07,-0.22 0.02,-0.44 -0.03,-0.65 -0.09,-0.35 -0.17,-0.65 0.24,-0.97 0.46,-0.36 0.36,-0.74 0.25,-1.11 -0.16,-0.56 -0.35,-1.26 1.32,-2.41 0.68,-0.47 1.42,-0.57 1.92,-0.57 0.9,0 1.67,0.32 1.83,0.62 0.02,0.03 0.05,0.06 0.08,0.07 0.01,0 0.66,0.17 1.08,0.6 0.38,0.39 0.58,0.98 0.57,1.64l-0.42 -0.01c-0.09,-0.59 -0.49,-1.26 -1.04,-1.73 -0.08,-0.07 -0.21,0.06 -0.11,0.13 0.51,0.42 0.89,1.05 0.97,1.59 0,0 -4.21,-0.12 -4.23,-0.12 -0.11,-0 -0.17,0.12 -0.11,0.21 0.13,0.18 0.2,0.42 0.19,0.65 -0.01,0.24 -0.14,0.38 -0.21,0.59 -0.07,0.22 0.02,0.43 0.1,0.62 0.06,0.14 0.12,0.27 0.11,0.4 -0.02,0.16 -0.13,0.29 -0.21,0.42 -0.18,0.3 -0.16,0.51 -0.1,0.63 0.05,0.11 0.11,0.17 0.11,0.3 -0,0.26 -0.11,0.52 -0.29,0.71zm6.29 5c0,0 0.15,0.24 0.16,0.24 -0.03,0.53 -0.08,1.06 -0.13,1.6 -0.02,0.17 0.24,0.19 0.26,0.03 0.06,-0.58 0.11,-1.18 0.14,-1.76l2.17 -2.78 1.65 0.74 0.13 0.06 0.04 0.02c0,0 -3.03,4.74 -3.16,4.92 -0.14,0.19 -0.18,0.31 -0.35,0.37 -0.17,0.06 -0.35,0.03 -0.5,-0.06l-0.89 -0.6c-0.04,-0.62 -0.11,-1.66 -0.11,-1.66 0.33,-0.41 0.51,-0.77 0.6,-1.1zm0.01 -3.63l1.78 -5.29 4.38 0.34c0,0 -1,3.13 -1,3.14 -0.1,-0.02 -0.31,0.01 -0.33,0.01 -0.58,0.08 -0.71,0.34 -0.73,0.5 -0.16,1.01 -0.51,1.25 -0.77,1.42 -0.06,0.04 -0.11,0.08 -0.16,0.12 -0.04,0.03 -0.08,0.08 -0.1,0.13l-3.07 -0.35zm6.4 -4.97l3.27 -0.7 -2.36 5.47 -1.72 0.45c0.04,-0.14 0.08,-0.28 0.09,-0.36 0.03,-0.55 -0.03,-1.01 -0.19,-1.42 -0.02,-0.06 -0.08,-0.16 -0.13,-0.2l1.06 -3.24zm-0.99 4.84c-0.01,0.1 -0.11,0.42 -0.2,0.63 -0.07,0.16 -0.29,0.35 -0.51,0.53 -0.16,0.13 -0.31,0.26 -0.42,0.39l-1.04 -0.49c-0.05,-0.2 -0.01,-0.42 0.09,-0.51 0.04,-0.03 0.09,-0.06 0.14,-0.1 0.28,-0.19 0.71,-0.47 0.88,-1.6 0.02,-0.14 0.21,-0.24 0.51,-0.28 0.02,-0 0.03,-0 0.03,-0.01 0.18,-0.04 0.29,-0.01 0.34,0.11 0.15,0.38 0.2,0.8 0.18,1.31zm54.18 35.66l-8.26 0c1.42,-0.44 2.44,-1.65 2.44,-3.06l0 -2.04c0,-1.36 -0.95,-2.53 -2.3,-3.01l0.1 0c0.3,0 0.53,-0.24 0.53,-0.55 0,-0.3 -0.24,-0.54 -0.53,-0.54 -0,0 -0.01,0 -0.01,0 -0.01,-0.01 -0.01,-0.01 -0.02,-0.02 -0.79,-0.84 -0.8,-5.39 -0.03,-6.46 0.29,-0.01 0.52,-0.25 0.52,-0.55 0,-0.19 -0.1,-0.36 -0.25,-0.46 0,-0.02 0.01,-2.18 0.01,-2.18 0.03,0.18 0.06,0.29 0.06,0.3 0.04,0.12 0.15,0.1 0.25,0.11 -0.04,0.44 0.04,0.87 0.17,1.29 0.02,0.06 0.05,0.14 0.1,0.2 0.05,0.05 0.1,0.08 0.15,0.1 0,0 0.24,1.24 0.24,1.24 0.08,0.43 0.75,0.33 0.7,-0.1l-0.07 -0.73c0.14,0.12 0.25,0.28 0.35,0.44 0.14,0.22 0.28,0.45 0.52,0.58 0.18,0.1 0.38,0.11 0.55,0.12 0.54,0.02 1.09,-0.04 1.61,-0.18 0.07,-0.02 0.18,-0.05 0.26,-0.15 0.07,-0.09 0.09,-0.21 0.1,-0.3 0.05,-0.38 0.06,-0.76 -0.17,-1.02 -0.18,-0.21 -0.44,-0.25 -0.67,-0.29 -0.13,-0.02 -0.25,-0.04 -0.35,-0.08 -0.22,-0.09 -0.4,-0.36 -0.54,-0.66 -0.1,-0.21 -0.35,-0.84 -0.4,-0.93 -0.02,-0.04 -0.01,-0.13 -0.01,-0.12 0,-0.45 -0.12,-0.93 -0.18,-1.38 -0.08,-0.59 -0.15,-1.06 -0.18,-1.71 -0,-0.02 -0.04,-0.89 -0.06,-1.63 -0.06,-2.35 -0.14,-4.52 -0.32,-5.39 -0.11,-0.51 -0.58,-0.81 -1.02,-1.02 -0.33,-0.15 -0.68,-0.25 -1.03,-0.36 -0.55,-0.18 -2.32,-0.74 -2.65,-0.83 -0.06,-0.02 -1.84,-0.5 -1.84,-0.5 0.03,-0.43 0.12,-1.1 0.18,-1.52 0.13,0.19 0.34,0.32 0.58,0.32 0.08,0 0.15,-0.01 0.23,-0.04l1.04 -0.37c0,0 1.57,0.31 1.58,0.31 0.02,0 2.57,-1.17 2.57,-1.17 0.04,-0.02 0.06,-0.05 0.07,-0.09l0.24 -1.12c0.01,0 0.02,-0 0.04,-0 0.08,-0.01 0.21,-0.12 0.23,-0.2 0.1,-0.38 0.2,-1.41 0.26,-2.2 0,-0.03 0,-0.07 -0.01,-0.1l0.66 -3.16c0.01,-0.05 -0.01,-0.1 -0.05,-0.13 -0.04,-0.03 -0.09,-0.04 -0.13,-0.02l-2.88 1.27 -4.26 -0.85c-0.04,-0.01 -0.07,0 -0.1,0.02 -0.03,0.02 -0.05,0.05 -0.05,0.09l-0.06 0.39c-0.04,-0.09 -0.07,-0.17 -0.1,-0.25 -0.21,-0.65 -1.16,-0.68 -1.34,-0.68 -0.04,0 -0.11,0.01 -0.11,0.01l-0.02 -0.28c0.71,-0.09 1.32,-0.63 1.72,-1.54 0.09,-0.21 0.18,-0.44 0.25,-0.68 0.27,-0.12 0.47,-0.39 0.5,-0.7 0.02,-0.26 -0.08,-0.51 -0.25,-0.68 0.03,-0.36 0.03,-0.69 -0,-0.97 0.11,-0.2 0.13,-0.43 0.06,-0.67 -0.13,-0.46 -0.57,-0.87 -0.92,-1.03 -0.02,-0.01 -0.04,-0.04 -0.07,-0.07 -0.18,-0.22 -0.61,-0.71 -1.55,-0.97 -0.91,-0.25 -1.73,-0.17 -2.39,0.23 -0.5,-0.31 -1.17,-0.39 -1.73,-0.2 -0.86,0.28 -1.38,1.06 -1.45,2.21 -0.03,0.41 -0,0.85 0.07,1.42 0.02,0.15 0.05,0.31 0.08,0.46 0.07,0.38 0.15,0.77 0.07,1.12 -0.13,0.58 -0.73,0.96 -1.22,1.17 -0.11,0.05 -0.1,0.2 0.01,0.24 0.54,0.21 1.05,0.31 1.51,0.31 0.15,0 0.29,-0.01 0.43,-0.03 0.72,-0.11 1.34,-0.52 1.63,-1.08 0.1,-0.2 0.16,-0.4 0.2,-0.62 0.08,0.08 0.16,0.15 0.25,0.23 0.16,0.3 0.37,0.6 0.61,0.86 -0.06,0.54 -0.25,1.04 -0.32,1.19 0,0 -1.24,0.48 -1.29,0.5 -0.39,0.13 -1.2,0.4 -1.23,1.15 0,0 -1,5.94 -1,5.95 -0.08,0.47 0.39,0.89 0.77,1.09 0.04,0.02 0.46,0.21 0.48,0.17 -0.07,0.18 -0.15,0.41 -0.23,0.66 -0.11,0.34 -0.23,0.69 -0.32,0.88 -0.47,0.97 -0.9,2 -0.6,2.99 0.11,0.36 0.31,0.69 0.57,0.96 0.19,0.21 0.41,0.38 0.65,0.53l-2.93 0c0,-0.03 0.01,-0.05 0.01,-0.08 0,-0.29 -0.22,-0.52 -0.5,-0.55 -0,-0.01 -0,-0.01 -0.01,-0.01 -0.83,-0.85 -0.83,-5.46 -0.04,-6.54 0.3,-0 0.54,-0.25 0.54,-0.56 0,-0.3 -0.25,-0.55 -0.55,-0.55l-9.78 0c0.04,-0.53 -0.02,-1.1 -0.17,-1.61l0.99 -0.28c0.81,-0.23 1.32,-1.08 1.21,-1.9 -0.12,-0.87 -0.86,-1.55 -1.74,-1.55 -0.04,0 -0.08,0 -0.12,0.01 0.42,-0.23 0.76,-0.5 0.9,-0.79 0.11,-0.22 0.11,-0.44 0.01,-0.65l-2.03 -5.75c-0.2,-0.71 -0.77,-1.26 -1.49,-1.42l-2.18 -0.49 0 -0.14c0.6,-0.39 1.05,-1.02 1.26,-1.8 0.52,-0.1 0.67,-0.79 0.68,-0.87 0.07,-0.31 0.17,-0.77 -0.25,-0.92 -0.02,-0.01 -0.03,-0.01 -0.05,-0.01l0.13 -1.56c0,-0.71 -0.5,-1.64 -1.06,-1.76 -0,-0.08 -0.03,-0.15 -0.07,-0.21 -0.11,-0.19 -0.36,-0.31 -0.59,-0.3 -0.12,0.01 -0.23,0.05 -0.31,0.12 -0.16,-0.22 -0.43,-0.35 -0.72,-0.35 -0.25,0 -0.49,0.1 -0.65,0.27 -0.13,0.13 -0.38,0.12 -0.62,0.1 -0.11,-0.01 -0.22,-0.01 -0.32,-0.01 -0.89,0 -1.76,1.2 -1.76,2.1l0.1 1.65c-0.13,0.03 -0.24,0.11 -0.31,0.23 -0.08,0.14 -0.14,0.39 0.03,0.8 0.04,0.15 0.23,0.74 0.58,0.74 0.18,0.73 0.56,1.32 1.07,1.7l0 0.14c-0.16,0.06 -0.39,0.12 -0.66,0.19 -0.56,0.15 -1.26,0.33 -1.74,0.6 -0.41,0.23 -0.81,0.77 -0.89,0.88 -0.01,0.01 -2.27,4.64 -2.58,5.21 -0.08,0.16 -0.18,0.65 -0.12,1.14 0.03,0.3 0.13,0.54 0.27,0.8 -0.01,-0.02 -0.34,0.16 -0.37,0.18 -0.12,0.07 -0.23,0.16 -0.34,0.26 -0.64,0.62 -0.7,1.66 -0.15,2.36 0.21,0.27 0.5,0.47 0.82,0.57l0.4 0.13c-0.38,0.59 -0.52,1.42 -0.37,2.21l-4.14 0c-2.09,0 -3.78,1.5 -3.78,3.34l0 2.11c0,1.2 0.72,2.25 1.79,2.84l-4.76 0c-0.3,0 -0.53,0.17 -0.53,0.39 0,0.22 0.23,0.38 0.53,0.38l0.03 0c0.33,0.32 0.54,1.19 0.52,2.12 -0.02,0.85 -0.33,1.64 -0.59,1.77 -0.28,0.02 -0.49,0.18 -0.49,0.39 0,0.05 0.01,0.1 0.04,0.14l-1.72 0c-0.21,0 -0.39,0.17 -0.39,0.39l0 4.34c0,0.21 0.17,0.39 0.39,0.39l1.48 0c-1.04,0.58 -1.74,1.63 -1.74,2.82l0 2.09c0,1.36 0.9,2.53 2.18,3.04 -0.2,0.08 -0.33,0.27 -0.33,0.5 0,0.3 0.24,0.53 0.53,0.53l0.1 0c0.76,0.96 0.78,5.36 0.06,6.38l-0.16 0c-0.3,0 -0.53,0.2 -0.53,0.5 0,0.15 0.06,0.28 0.16,0.38l-3.67 0c0.07,-0.09 0.1,-0.2 0.13,-0.28 0.13,-0.46 0.22,-0.93 -0.03,-1.28 -0.3,-0.42 -0.86,-0.43 -1.29,-0.61 -0.11,-0.05 -0.2,-0.11 -0.28,-0.2 -0.13,-0.14 -0.22,-0.33 -0.3,-0.56 -0.13,-0.37 -0.28,-0.75 -0.38,-1.13 -0.02,-0.08 -0.04,-0.17 -0.06,-0.25 -0.01,-0.05 -0.12,-0.36 -0.09,-0.39 0.02,-0.02 0.03,-0.05 0.04,-0.08l1.23 -9.81 0.01 -0.06c0.15,-1.01 0.57,-3.95 0.78,-6.51 0.01,-0.06 0.01,-0.13 0.01,-0.19 0.05,-0.64 0.1,-1.84 0.09,-1.85 0.02,-0.01 0.16,-0.05 0.17,-0.05 0.06,-0.01 0.11,-0.06 0.11,-0.13 -0,-0.52 -0.18,-3.24 -0.33,-5.42l0.72 0.49c0.22,0.15 0.51,0.18 0.76,0.09 0.23,-0.09 0.37,-0.3 0.49,-0.51 0,0 3.21,-4.99 3.22,-5 0.04,-0.07 0.02,-0.16 -0.06,-0.19l-0.13 -0.06c0.09,-0.1 0.22,-0.2 0.34,-0.3 0.24,-0.2 0.49,-0.41 0.58,-0.63 0.01,-0.02 0.01,-0.03 0.02,-0.05l1.96 -0.51c0.04,-0.01 0.07,-0.04 0.09,-0.07 0,0 2.48,-5.74 2.48,-5.76 0.04,-0.09 -0.04,-0.2 -0.15,-0.18l-3.59 0.77 -4.58 -0.36c-0.06,-0.01 -0.12,0.03 -0.13,0.09 0,0 -1.86,5.53 -1.86,5.55 -0.03,0.08 0.03,0.16 0.11,0.17l3.17 0.36c-0.01,0.07 -0.02,0.15 -0.01,0.23l-0.36 -0.16c-0.05,-0.02 -0.12,-0.01 -0.16,0.04l-2.21 2.83c0,0 -0.19,-0.3 -0.2,-0.31 -0.04,-0.07 -0.02,-0.3 -0.03,-0.39 -0.03,-0.13 -0.07,-0.26 -0.12,-0.38 -0.1,-0.24 -0.26,-0.46 -0.39,-0.69 -0.13,-0.23 -0.68,-1.23 -0.81,-1.49 -0.15,-0.3 -0.3,-0.61 -0.74,-0.75l-1.07 -0.29 -0.05 -0.44c0.12,-0.07 0.23,-0.15 0.33,-0.24 0,0 0.94,0.15 0.94,0.15 0.15,0 0.18,-0.23 0.02,-0.26l-0.73 -0.12c0.08,0 0.32,-0.41 0.35,-0.47 0.17,-0.28 0.31,-0.59 0.41,-0.9 0.09,-0.3 0.16,-0.62 0.18,-0.94 0.04,-0.51 -0.04,-1.03 -0.22,-1.52l0.67 0.02c0.12,0.28 0.03,0.5 -0.1,0.75 -0.22,0.41 -0.24,0.71 0.01,1.11 0.1,0.16 0.17,0.33 0.14,0.53 -0.02,0.2 -0.15,0.39 -0.09,0.6 0.05,0.17 0.2,0.29 0.28,0.45 0.02,0.04 0.15,0.55 0.09,0.55 0,0 -0.39,-0.02 -0.39,-0.02 -0.16,-0.01 -0.19,0.25 -0.01,0.26l0.5 0.03 0.01 0c0.06,0 0.11,-0.04 0.13,-0.1 0.06,-0.22 0.05,-0.45 -0.02,-0.67 -0.07,-0.22 -0.27,-0.37 -0.33,-0.58 -0.06,-0.22 0.09,-0.41 0.11,-0.62 0.02,-0.21 -0.09,-0.4 -0.2,-0.57 -0.2,-0.31 -0.18,-0.52 -0,-0.85 0.15,-0.28 0.26,-0.56 0.16,-0.87 0.06,-0 0.12,-0.06 0.12,-0.12 0.05,-0.78 -0.19,-1.49 -0.64,-1.96 -0.4,-0.42 -0.97,-0.61 -1.15,-0.66 -0.26,-0.4 -1.13,-0.71 -2.03,-0.71 -0.54,0 -1.33,0.11 -2.07,0.62 -1.82,1.26 -1.59,2.09 -1.42,2.7 0.1,0.36 0.16,0.58 -0.16,0.83 -0.54,0.42 -0.43,0.87 -0.33,1.24 0.05,0.19 0.09,0.36 0.04,0.5 -0.06,0.16 -0.21,0.3 -0.29,0.45 -0.23,0.38 -0.51,0.86 -0.29,1.29 0.02,0.04 0.06,0.07 0.11,0.07l2.78 0.14 0.01 0c0.03,0 0.07,-0.01 0.09,-0.03 0.14,-0.13 0.25,-0.3 0.32,-0.48 0.07,0.06 0.13,0.12 0.2,0.17 -0.02,0.09 -0.15,0.79 -0.17,0.93 0,0 -1.34,0.38 -1.86,0.54 -0.48,0.14 -0.89,0.34 -0.97,0.76l-0.97 6.4c-0.18,0.72 -0.19,6.48 -0.19,6.73 0,0.03 0.01,0.07 0.04,0.09 0.02,0.02 0.06,0.04 0.09,0.04l0.09 0c-0.29,0.6 -0.44,1.99 -0.47,2.33 -0.07,0.28 0,0.58 0.2,0.88 0.14,0.21 0.32,0.39 0.53,0.53 0.19,0.12 0.44,0.26 0.67,0.26 0.49,0 0.92,-1.27 1.07,-1.86 0.06,0.07 0.13,0.15 0.2,0.21 0.03,0.02 0.22,0.1 0.22,0.11 0.04,0.3 0.11,1.05 0.11,1.05 0.09,0.96 0.14,1.87 0.16,2.79 0,0.17 0.27,0.16 0.26,-0.01 -0.02,-0.92 -0.07,-1.84 -0.16,-2.81 0,0 -0.07,-0.73 -0.1,-0.97 0.06,0 0.11,-0 0.15,-0.03 0.1,-0.06 0.21,-0.15 0.22,-0.27 0.01,-0.11 -0.06,-0.2 -0.13,-0.26 -0.18,-0.17 -0.33,-0.68 -0.37,-0.9 -0.01,-0.07 -0.19,-0.74 -0.37,-1.06 0.05,-0.01 0.09,-0.06 0.09,-0.12l0.02 -1.2c0.56,0.06 1.61,0.14 2.58,0.14 0.43,0 0.8,-0.02 1.1,-0.05 0.31,-0.03 0.55,-0.84 0.71,-1.56 0.69,-0.01 1.45,-0.1 1.77,-0.14 0.01,0.39 0.01,0.97 -0,1.11 -0.01,0.13 0.11,0.2 0.23,0.2 0.06,0 0.14,-0.01 0.21,-0.03 -0.08,2.77 -0.7,7.16 -0.89,8.44 -0.01,0.05 -0.01,0.07 -0.01,0.07l-1.21 9.68 -2.4 -0.25 0.34 -6.85c0.07,-0.1 1.27,-1.77 1.29,-1.83 0.14,-0.29 0.34,-1.08 0.62,-2.47 0.07,-0.33 0.46,-2.43 0.58,-3.11 0.08,-0.43 0.35,-1.93 0.41,-2.22 0.03,-0.17 -0.22,-0.22 -0.26,-0.05 -0.06,0.29 -0.33,1.79 -0.41,2.22 -0.12,0.68 -0.52,2.78 -0.58,3.11 -0.27,1.34 -0.47,2.14 -0.6,2.41 -0.01,0.03 -5,7.08 -5.05,7.15 0,0 -0.55,0.78 -0.61,0.86 -0.01,-0.01 -0.41,-0.26 -0.62,-0.43 -0.21,-0.17 -0.81,-0.77 -0.94,-0.85 -0,-0 -0.01,-0 -0.01,-0.01 0,-0.01 2.2,-4.3 2.41,-4.69 0.07,-0.13 0.94,-1.73 1.01,-1.83 0.21,-0.35 0.41,-0.67 0.6,-0.93 0.1,-0.14 -0.12,-0.29 -0.21,-0.15 -0.19,0.27 -0.4,0.59 -0.61,0.94 -0.07,0.11 -0.95,1.72 -1.02,1.85 -0.2,0.39 -2.43,4.74 -2.45,4.78 -0.04,-0 -0.08,-0.01 -0.13,-0.01 -0.3,0 -0.62,0.09 -0.89,0.24 -0.48,0.28 -0.88,0.76 -1.22,1.48 -0.03,0.06 -0.06,0.13 -0.07,0.2 -0.01,0.01 -1.03,1.57 -1.03,1.57 -0.12,0.18 -0.06,0.43 0.13,0.57 0.08,0.05 0.16,0.08 0.25,0.08 0.13,0 0.25,-0.05 0.32,-0.15l0.79 -0.99c0.07,0.19 0.1,0.38 0.1,0.56 -0,0.17 -0.03,0.34 -0.06,0.52 -0.06,0.32 -0.12,0.65 -0,0.97 0.09,0.24 0.26,0.43 0.42,0.58 0.51,0.5 1.1,0.93 1.74,1.27 0.09,0.05 0.2,0.1 0.31,0.1 0.01,0 0.03,0 0.04,-0 0.14,-0.02 0.26,-0.1 0.34,-0.17 0.38,-0.29 0.73,-0.63 0.74,-1.06 0.01,-0.34 -0.2,-0.59 -0.39,-0.83 -0.11,-0.13 -0.21,-0.26 -0.28,-0.4 -0.27,-0.56 0.05,-1.24 0.27,-1.76 0.13,-0.3 0.27,-0.57 0.43,-0.85 0.27,-0.45 0.56,-0.88 0.86,-1.31 0.05,-0.07 0.7,-0.99 0.81,-1.15l2.69 -3.81 -0.32 6.56c-0,0.06 0.04,0.11 0.09,0.13 -0.16,0.15 -0.29,0.33 -0.38,0.54 -0.22,0.5 -0.26,1.12 -0.11,1.9 0.01,0.05 0.02,0.13 0.06,0.2 -0,0.01 0.11,1.86 0.11,1.87 0.03,0.41 0.64,0.52 0.82,0.16 0.04,-0.08 0.04,-0.18 0.05,-0.27 0.02,-0.38 0.03,-0.77 0.05,-1.15 0.19,0.11 0.34,0.29 0.46,0.47 0.12,0.19 0.21,0.39 0.32,0.59 0.14,0.27 0.32,0.54 0.6,0.66l-13.43 0c-0.07,0 -0.13,0.06 -0.13,0.13 0,0.07 0.06,0.13 0.13,0.13l76.41 0c0.07,0 0.13,-0.06 0.13,-0.13 0,-0.07 -0.06,-0.13 -0.13,-0.13z"/>
  </g>
 </g>
</svg>
