<svg xmlns="http://www.w3.org/2000/svg" xml:space="preserve" width="119.547" height="93.695" style="shape-rendering:geometricPrecision;text-rendering:geometricPrecision;image-rendering:optimizeQuality;fill-rule:evenodd;clip-rule:evenodd" viewBox="0 0 76.67 60.09">
    <g id="Camada_x0020_1">
        <g id="_1486461592304">
            <path style="fill:#4b3584;fill-rule:nonzero" d="M64.79 42.86c.04.19.05.39.07.59h-.88c0-.01.01-.01.01-.02l.1-.24.38-.95c.15.18.26.39.32.63zM65.14 38.59c-.12.43-.22.85-.27 1.23-.09.06-.17.13-.24.21-.36.39-.52.94-.61 1.47-.01.06-.03.24-.03.24l-.43 1.44-.02.08c-.02.06-.01.13.02.18H18.62c-.14 0-.26-.12-.26-.26v-4.34c0-.14.12-.26.26-.26h46.54zM68.59 39.5l.02 3.58c0 .04-.01.08-.04.12-.09.14-.33.25-.61.25h-.47c-.11-.09-.23-.17-.34-.27-.04-.03-.07-.07-.1-.1-.4-.49-.22-1.27-.15-1.96.02 0 .04 0 .06-.01.05-.02.11-.06.12-.12.12-.57.6-1.48 1.02-2.39.1.01.18.04.26.07 0 0 .22.71.22.83z" />
            <path style="fill:#e6325c" d="M67.49 44.86c-.05.07-.11.15-.19.19-.08.03-.16.02-.24 0a5.48 5.48 0 0 1-1.6-.62c-.16-.09-.32-.19-.42-.35-.22-.33-.15-.82-.25-1.22-.06-.24-.18-.45-.32-.63l-.38.95c-.04.11-.07.23-.15.32-.06.07-.17.09-.25.06h-.01a.225.225 0 0 1-.15-.15c-.03-.07 0-.16.02-.23l.43-1.44s.02-.17.03-.24c.09-.53.26-1.08.61-1.47.07-.08.15-.15.24-.21.13.1.27.19.42.29.03.39.18.88.3 1.14 1.09 2.44 1.22.88 1.25-.02 0 0-.2 1.36.21 1.85.24.3.68.42.77.82.08.33-.14.68-.34.97z" />
            <path style="fill:#f7af4d;" d="M26.24 10.25c-.49.54-.81 1.22-.91 1.94-.02.16-.16.29-.33.29h-2.98c-.17 0-.31-.12-.33-.29-.1-.73-.41-1.39-.92-1.95-.6-.66-.96-1.53-.96-2.48 0-2.13 1.8-3.84 3.96-3.69a3.71 3.71 0 0 1 3.42 3.41c.08 1.06-.3 2.04-.95 2.76z" />
            <path style="fill:#c2def5;fill-rule:nonzero" d="M23.53 15.46h-.03c-.87 0-1.58-.61-1.58-1.36v-1.02c0-.05.04-.09.09-.09h3c.05 0 .09.04.09.09v1.02c0 .75-.71 1.36-1.58 1.36z" />
            <path d="M22.05 13.12v.98c0 .68.65 1.23 1.45 1.23h.03c.8 0 1.45-.55 1.45-1.23v-.98h-2.93zm1.48 2.47h-.03c-.94 0-1.71-.67-1.71-1.49v-1.02c0-.12.1-.22.22-.22h3c.12 0 .22.1.22.22v1.02c0 .82-.77 1.49-1.71 1.49z" style="fill:#2a2150;fill-rule:nonzero" />
            <path style="fill:#2b2150;fill-rule:nonzero" d="M18.19 8.5h-3.01a.09.09 0 0 1-.09-.09c0-.05.04-.09.09-.09h3.01c.05 0 .09.04.09.09 0 .05-.04.09-.09.09zM31.84 8.5h-3.01a.09.09 0 0 1-.09-.09c0-.05.04-.09.09-.09h3.01c.05 0 .09.04.09.09 0 .05-.04.09-.09.09zM23.51 3.18a.09.09 0 0 1-.09-.09v-3c0-.05.04-.09.09-.09.05 0 .09.04.09.09v3c0 .05-.04.09-.09.09zM19.75 4.74c-.02 0-.04-.01-.06-.03l-2.13-2.12a.091.091 0 0 1 0-.12c.03-.03.09-.03.12 0l2.12 2.12c.03.03.03.09 0 .12-.02.02-.04.03-.06.03zM27.28 4.74c-.02 0-.04-.01-.06-.03a.091.091 0 0 1 0-.12l2.12-2.12c.03-.03.09-.03.12 0s.03.09 0 .12l-2.12 2.12c-.02.02-.04.03-.06.03z" />
            <path style="fill:#2bb19e" d="M70.59 54.73v2.04c0 1.72-1.57 3.06-3.51 3.06H20.72c-.22 0-.4-.16-.4-.38v-.01c0-.22.18-.41.4-.41h.23l-.03.04v.02h19.71c1.18 0 2.13-.93 2.13-2.08v-2.49c0-1.15-.95-2.08-2.13-2.08H28.01v-.01h-7.29c-.22 0-.4-.18-.4-.4v-.01c0-.22.18-.41.4-.41h36.91v1.25c0 .1.07.15.13.09l1.16-1.34h.28l1.16 1.34c.05.06.13.01.13-.09v-1.25h6.6c1.94 0 3.51 1.39 3.51 3.11z" />
            <path style="fill:#c2def5;fill-rule:nonzero" d="M20.93 59.07v.02h19.71c1.18 0 2.13-.93 2.13-2.08v-2.49c0-1.15-.95-2.08-2.13-2.08H20.93v.02c.81.98.84 5.7 0 6.61z" />
            <path style="fill:#f7af4d;" d="M68.85 43.59c0 .02 0 .05-.01.07-.03.23-.23.35-.45.35l-.56-.03c0-.03-.01-.06-.01-.09-.05-.2-.18-.33-.33-.45h.47c.28 0 .52-.1.61-.25.01-.01.11.06.12.06.1.08.16.2.16.33zM68.85 51.18v.01c0 .23-.18.44-.4.44H22.09c-1.93 0-3.51-1.42-3.51-3.18v-2.09c0-1.3.87-2.42 2.1-2.92h44.17c.02.16.03.31.08.45.01.03.02.06.04.09h-23c-1.2 0-2.17.94-2.17 2.11v2.52c0 .54.21 1.04.56 1.41.4.42.97.69 1.61.69l26.47.05c.22 0 .4.19.4.41z" />
            <path style="fill:#c2def5;fill-rule:nonzero" d="M68.25 43.98c-.77 1.13-.78 5.72.05 6.61v.02h-7.82v-3.72h-2.85v3.72H41.88c-.59 0-1.12-.23-1.51-.59-.41-.38-.66-.92-.66-1.51v-2.52c0-1.16.97-2.1 2.17-2.1h23.05c.01.03.02.06.04.09.01.03.03.06.05.09.1.16.26.26.42.35.5.29 1.04.49 1.6.62.08.02.16.03.24 0 .08-.03.13-.11.19-.19.18-.26.37-.57.35-.87 0-.03-.01-.06-.01-.09h.48l-.05.09z" />
            <path style="fill:#5970b4" d="M28.15 51.63h-3.3c-.75-.92-.93-1.75-.93-2.76v-2.7c0-1 .55-2.17 1.5-2.73h2.63c-1.17.22-2.06 1.36-2.06 2.73v2.7c0 1.41.94 2.58 2.16 2.75zM33.75 51.63h-3.3c-.75-.92-.93-1.76-.93-2.77v-2.71c0-.99.52-2.13 1.44-2.71h2.53c-1.09.29-1.9 1.39-1.9 2.71v2.71c0 1.42.94 2.59 2.16 2.77z" />
            <path style="fill:#4a5da6" d="M55.11 25.52v.01c0 .23-.19.42-.42.42h-.06v-.03H27.1c-1.25 0-2.26.95-2.26 2.13v2.56c0 1.18 1.01 2.13 2.26 2.13h1.34v.9h-.87c-.33 0-.65-.04-.95-.11-1.56-.37-2.71-1.62-2.71-3.1v-2.11c0-1.77 1.64-3.21 3.65-3.21h27.12c.23 0 .42.19.42.42zM55.11 33.18v.01c0 .23-.19.42-.42.42l-22.57.02v-.89l22.57.03c.23 0 .42.19.42.42z" />
            <path style="fill:#c2def5;fill-rule:nonzero" d="M54.64 25.95c-.85 1.01-.89 5.84 0 6.77v.02H32.12V28.7h-3.68v4.04H27.1c-1.25 0-2.26-.95-2.26-2.13v-2.56c0-1.18 1.01-2.13 2.26-2.13h27.53v.03z" />
            <path style="fill:#e6325c" d="M66.49 33.57c-.09.67-.58 1.78-.89 3.26-.11.54-.3 1.15-.46 1.76l-44.32-.02c-.22 0-.4-.11-.4-.25v-.01c0-.14.18-.25.4-.25h7.29v-.03h19.18c1.2 0 2.17-.58 2.17-1.3v-1.56c0-.72-.97-1.3-2.17-1.3H32.13v2.84c0 .13-.1.2-.16.12l-1.68-1.95-1.68 1.95c-.07.08-.16.01-.16-.12v-2.84h-7.58v.01c.01.01.02.02.03.02h-.08c-.22 0-.4-.11-.4-.25v-.01c0-.14.18-.25.4-.25H58.7c.07.03.15.06.22.09.89.32 4.83.27 6.04.22.38-.01 1.37-.07 1.52-.14z" />
            <path style="fill:#c2def5;fill-rule:nonzero" d="M49.46 35.17v1.56c0 .72-.97 1.3-2.17 1.3H20.87v-.01c.86-.56.82-3.52 0-4.13v-.01h7.58v2.84c0 .13.1.2.16.12l1.68-1.95 1.68 1.95c.07.08.16.01.16-.12v-2.84h15.16c1.2 0 2.17.58 2.17 1.3z" />
            <path style="fill:#e6325c" d="m42.79 18.31.03-1.57.45.76.1.17.09.15-.68.49zm3.08-.07c-.02-.06-.04-.11-.06-.17 0 0-1.94-5.51-2.01-5.7-.23-.59-.73-1.07-1.36-1.22l-1.42-.32c-.28-.06-.56-.12-.84-.19.12.03-.02.24-.02.28 0 .31-.21.56-.44.75-.27.22-.55.41-.87.55-.02.01-.11-.05-.13-.06-.2-.1-.4-.22-.58-.36-.15-.12-.3-.25-.41-.4-.04-.06-.08-.11-.1-.17-.09-.21-.08-.42-.08-.64-.07.02-.14.05-.21.07-.15.05-.32.03-.48.09-.4.16-.83.23-1.23.38-.36.13-.68.44-1 .67-.21.15-.36.35-.49.57-.26.46-2.41 5-2.46 5.13-.05.12-.12.26-.13.38-.01.25-.02.51.04.75.05.22.28.6.46.74.61.48 2.52-.37 2.52-.37-.02.08-.28.63-.33.77-.02.04-.03.09-.05.13 0 .01-.01.02-.01.03l4.68 1.72s3.82-1.24 3.81-1.27c1.36-.37 3.65-1.16 3.18-2.14z" />
            <path style="fill:#f7af4d;" d="M35.43 25.87c-.61.05-1.95.09-2.56.13-.13.01-.27.02-.4-.02-.26-.09-.41-.34-.49-.56-.33-.89-.23-2.04.32-2.73l2.63.86.51 2.32z" />
            <path style="fill:#2b2150;fill-rule:nonzero" d="M33.61 25.02c-.01 0-.02 0-.03-.01-.05-.02-.07-.07-.05-.11.14-.37.18-.77.13-1.18-.01-.05.03-.09.08-.1.05-.01.09.03.1.08.05.44.01.87-.14 1.26-.01.04-.05.06-.08.06zM34.22 25.09c-.01 0-.02 0-.03-.01-.05-.02-.07-.07-.05-.11.13-.36.18-.77.13-1.18-.01-.05.03-.09.08-.1.05-.01.09.03.1.08.05.44 0 .87-.14 1.26-.01.04-.05.06-.08.06z" />
            <path style="fill:#f7af4d;" d="M44.02 22.23c.67.8.92 2.18.7 3.2-.05.24-.16.5-.4.57-.12.04-.24.01-.36-.01-.56-.11-1.79-.29-2.35-.4l.02-2.55c.6-.23 2.31-.93 2.4-.81z" />
            <path style="fill:#2b2150;fill-rule:nonzero" d="M43.17 24.82c-.03 0-.07-.02-.08-.06-.17-.44-.26-.91-.25-1.39 0-.05.04-.09.09-.09.05 0 .09.04.09.09 0 .45.08.91.24 1.32.02.04 0 .1-.05.11-.01 0-.02.01-.03.01zM42.61 24.85c-.04 0-.07-.02-.08-.06-.17-.44-.26-.91-.25-1.39 0-.05.04-.09.09-.09.05 0 .09.04.09.09 0 .45.08.91.24 1.32.02.05-.01.1-.05.11-.01 0-.02.01-.03.01zM42.12 24.98c-.03 0-.07-.02-.08-.06-.17-.44-.26-.91-.25-1.39 0-.05.03-.08.09-.09.05 0 .09.04.09.09 0 .45.08.91.24 1.32.02.04 0 .1-.05.11-.01 0-.02.01-.03.01z" />
            <path style="fill:#2bb19e" d="m45.69 22.95-1.12.32a3.25 3.25 0 0 0-.56-1.04c-.1-.11-1.8.59-2.4.81.06.81-.06 1.77-.02 2.55l.01.15-2.66-.87-3.52 1-.51-2.32-3.19-1.05a1.613 1.613 0 0 1-1.03-2.04l.01-.03c.16-.48.52-.84.97-1.01.02-.01.05-.02.08-.03.08-.03.16-.05.24-.06.11.03.21.12.31.17.21.1.45.05.67-.02l5.91 2.17 5.84-1.82c.81-.25 1.71.18 2 .98.29.79-.05 1.71-.83 2.06-.06.03-.13.05-.19.07z" />
            <path style="fill:#8396cc" d="M37.52 10.84h-1.03c.27-.06.54-.11.8-.17h.22c-.01.06 0 .12 0 .17zM41.13 10.84h-.91c0-.06-.01-.12-.03-.17h.01c.31.06.62.12.93.17zM37.66 11.23c.03.06.08.12.12.17h-2.92c.07-.05.14-.1.21-.14l.06-.03h2.53zM43.02 11.41h-3a.99.99 0 0 0 .11-.17h2.57c.11.05.21.1.32.17zM38.24 11.8c.09.06.18.12.27.17h-4.18c.04-.06.08-.12.13-.17h3.78zM43.59 11.98h-4.3c.01-.01.03-.02.04-.03.08-.05.16-.1.23-.15h3.89c.05.06.09.11.13.17zM43.9 12.55h-9.92c.03-.06.06-.12.1-.17h9.74c.03.06.05.11.08.17zM44.1 13.12H33.7c.02-.04.04-.09.07-.13.01-.01.01-.03.02-.04h10.27c.02.06.04.11.06.17zM33.51 13.51h.82v.17h-.9c.03-.06.06-.12.08-.17zM42.47 13.51l-.67.18h-6.48l-.67-.18zM44.26 13.69h-1.47v-.17h1.43c.02.06.03.11.05.17zM33.23 14.08h1.1v.17h-1.18c.03-.06.06-.12.09-.17zM40.24 14.08l-.66.17h-2.04l-.67-.17zM44.41 14.25h-1.62v-.17h1.57c.01.02.01.04.02.06.01.04.02.08.03.11zM32.95 14.65h1.38v.17h-1.46c.03-.06.06-.12.08-.17zM44.58 14.82h-1.79v-.17h1.73c.01.06.03.12.05.17zM32.67 15.22h1.65v.17h-1.74c.03-.06.06-.12.09-.17zM44.77 15.39h-1.98v-.17h1.92c.02.06.04.12.06.17zM32.4 15.79h1.93v.17h-2.02c.03-.06.06-.12.09-.17zM44.99 15.96h-2.2v-.17h2.14c.02.06.05.12.07.17zM32.12 16.36h2.21v.17h-2.3c.03-.06.06-.12.09-.17zM45.25 16.53h-2.46v-.17h2.38c.03.06.05.12.08.17zM31.84 16.93h2.49v.17h-2.57c.03-.06.05-.12.08-.17zM45.52 17.1h-2.33c-.03-.06-.06-.11-.09-.17h2.34c.03.06.05.11.08.17zM35.27 17.67h-3.66c-.02 0-.03-.01-.05-.02a.084.084 0 0 1-.04-.07c0-.05.04-.08.08-.09h3.54l.12.17zM45.62 17.68l-2.24-.01-.1-.17 2.29.01c.02.06.04.11.05.17zM35.68 18.24H31.6c-.01 0-.03 0-.04-.01a.075.075 0 0 1-.05-.07c0-.03.02-.06.05-.08.01-.01.03-.01.04-.01h3.95l.13.17zM45.83 18.24h-2.97c.07-.06.15-.12.22-.17h2.74v.17zM35.84 18.64c-.01.02-.01.02-.02.02-.07.02-.24.09-.39.15h-3.82c-.02 0-.03-.01-.04-.01-.03-.01-.04-.04-.04-.07 0-.02.01-.03.01-.05.02-.02.04-.04.07-.04h4.23zM45.76 18.64c-.01.03-.02.06-.03.1-.01.02-.02.05-.03.07h-3.72c-.04-.06-.09-.11-.15-.17l-.01-.01h3.95zM33.87 19.21c-.09.04-.19.1-.28.15.02.01.03.02.05.02h-1.72a.55.55 0 0 1-.09-.07c-.03-.03-.06-.06-.09-.1h2.13zM37.04 19.38h-2.66c.01-.06.03-.11.03-.17h1.95l.67.17zM45.4 19.21c-.06.06-.13.12-.21.17h-3.26l.03-.17h3.43zM38.84 19.95h-4.53c-.03-.02-.07-.03-.1-.04l-.06-.03c.01-.03.03-.07.04-.1h4.45c.07.06.14.12.22.17zM44.41 19.78c-.1.04-.2.07-.29.1-.06.02-.13.05-.2.07h-2.09l.03-.17h2.54zM42.78 20.35c-.16.06-.33.11-.5.17h-6.61c-.14-.06-.27-.11-.41-.17h7.52zM40.8 20.92s-.45.12-.59.17h-3.15c-.14-.06-.27-.11-.41-.17h4.15z" />
            <path style="fill:#ea5e83" d="m26.84 18.45-2.49 5.76-2.02.53c.07-.19.16-.45.16-.56.03-.48-.02-.93-.18-1.36-.08-.21-.27-.25-.49-.19-.03.01-.58.05-.64.39-.2 1.28-.72 1.4-.98 1.61-.05.04-.08.1-.11.17l-3.32-.38 1.86-5.55 4.61.36v-.01l3.59-.77z" />
            <path style="fill:#f7af4d;" d="M7.3 58.28c-.01.4-.36.71-.69.96-.08.06-.17.13-.28.14-.1.01-.19-.03-.28-.08-.63-.33-1.2-.75-1.71-1.25-.16-.16-.32-.32-.39-.53-.16-.45.07-.96.08-1.45 0-.29-.07-.56-.19-.81l-.93 1.16c-.09.12-.27.14-.4.05H2.5c-.13-.09-.17-.26-.09-.38l.99-1.54.11-.25c.27-.56.63-1.11 1.17-1.42.3-.17.66-.25.99-.21l-.09.09c-.25.39-.13 1.21.03 1.65.09.25.2.45.32.59.21.25.52.35.83.23.05-.02.11-.05.16-.08-.27.66-.59 1.36-.3 1.96.2.41.67.71.66 1.17z" />
            <path style="fill:#f5ae9e;" d="M7.06 54.84c-.26.6-1.02.69-1.43-.44-.16-.45-.28-1.27-.03-1.65l.18-.19c-.04.07.93.9 1 .95.2.16.41.31.61.42.05.03.09.05.14.07 0 0-.14.26-.1.2.02-.03-.37.64-.37.64z" />
            <path style="fill:#f7af4d;" d="M16.69 59.51c-.03.1-.06.21-.14.28-.08.07-.18.08-.28.1-.71.09-1.43.08-2.13-.03-.22-.03-.45-.08-.64-.21-.4-.27-.52-.82-.8-1.21-.17-.23-.39-.41-.64-.55L12 59.37c-.01.15-.14.27-.3.27h-.01c-.16 0-.29-.11-.3-.26l-.11-1.82s-.04-.19-.06-.27c-.12-.61-.15-1.26.1-1.82.14-.33.37-.58.67-.73-.01.01.02 0 0 0 .12.51.26 1.06.66 1.41.39.35.96.43 1.49.38.13-.01.27-.04.35-.14.03-.03.05-.08.06-.12.24.7.32 1.28.87 1.52.43.18.97.19 1.24.57.23.33.13.78.02 1.17z" />
            <path style="fill:#f5ae9e;" d="M14.45 56.34c-.18.29-.86.29-1.69-.15-.42-.22-.72-.86-.76-1.32.05-.03.09-.05.14-.08l2.06.22c.06.13.22 1.19.27 1.33z" />
            <path style="fill:#4b3584;fill-rule:nonzero" d="M16.41 36.51c-.04 2.18-.45 5.46-.71 7.3-.08.58-.14 1.02-.18 1.24-.01.03-.01.06-.01.08-.01.03-.01.05-.01.06v.03l-.61 4.87-.2 1.62v.01l-.41 3.29-.2-.02-.19-.02-.61-.06-.2-.02-.61-.06-.2-.02-.61-.06h-.03l.34-7.01c-.02.02-.13.19-.32.45-.06.09-.13.19-.2.29-.17.25-.38.54-.61.87l-.06.09c-1.19 1.7-2.88 4.12-3.21 4.52-.01.01-.02.02-.02.03l-.02.02h-.01c-.07.03-.57-.35-.74-.49-.02-.02-.04-.03-.05-.04-.05-.04-.1-.09-.15-.13-.21-.19-.41-.39-.61-.59l-.04-.04c-.06-.05-.15-.13-.14-.15.21-.5 1.85-3.65 2.42-4.76.07-.13.63-1.19.81-1.5.21-.36.41-.74.66-1.07.06-.08.24-.24.35-.34.04-.04.08-.07.09-.09.11-.13.07-.22.07-.22-.03-1.3-.11-2.61-.28-3.9.1.03.2.04.23.02.2-.12.2-.2.07-.32-.24-.22-.39-.84-.41-.97-.02-.09-.08-.34-.17-.57-.05-.29-.08-.54-.11-.71-.06-.4-.08-.8-.08-1.21v-.07c.03 0 .06.01.1.01.69.07 2.59.24 3.79.11.3-.03.62-1.56.62-1.56.91 0 2-.16 2-.16s.02 1.06 0 1.27c-.01.1.24.05.45-.01z" />
            <path style="fill:#f5ae9e;" d="M7.62 38.21c-.38.28-.59 2.48-.59 2.48-.17.67.61 1.42 1.25 1.51.44.05.97-1.65 1.02-2.02 0 0 .24.3.36.4.09.07.42.16.49.12.2-.12.2-.2.07-.32-.24-.22-.39-.84-.41-.97-.04-.19-.27-.97-.42-1.11l-1.77-.09z" />
            <path style="fill:#2bb19e" d="m9.57 35.72.07-3.78.54-2.25.35 2.15-.97 3.88zm4.33-7.97c-.19-.6-.62-1.1-1.05-1.56-.68-.73-1.4-1.42-2.15-2.08l-1.29.31c-.03.01-.05.01-.08.02-.45.13-.81.3-.88.66l-.97 6.41c-.18.72-.19 6.7-.19 6.7h2.24l.02-1.34c.69.07 2.59.24 3.79.11.3-.03.62-1.56.62-1.56.09-2-.03-4.05.05-6.06.02-.54.04-1.09-.12-1.6zM21.57 26.01l-3.23 5.01a.7.7 0 0 1-1.06.37l-.94-.64c.14 2.03.34 5.13.35 5.68-.08.01-.73.26-.72.09.02-.22 0-1.27 0-1.27s-.33-2.57-.36-2.92c-.06-.64.07-4.31.08-4.57 0-.25-.09-.48-.19-.71-.42-.98-.86-1.95-1.33-2.91-.06-.12-.12-.24-.22-.31a.419.419 0 0 0-.21-.08c0-.04-.01-.08-.01-.13l1.16.32c.56.18 1.28 1.88 1.53 2.28.21.34.5.77.47 1.35l.32.5 2.32-2.98 2.06.92z" />
            <path style="fill:#f5ae9e;" d="M15.18 20.29c-.03.42-.12.85-.29 1.23-.19.47-.46.87-.8 1.17-.14.12-.28.23-.43.31.04.44.08.88.13 1.31.02.21.06.46 0 .67-.17.58-1.02.04-1.31-.14-.71-.43-1.2-1.07-1.2-1.07 0-.25.1-.55.19-.98-.14-.11-.28-.23-.41-.37-.05-.06.03-.19.02-.26-.01-.11-.07-.21-.12-.31-.08-.16 0-.35.09-.5.09-.15.21-.3.23-.48.03-.34-.32-.66-.22-.99.02-.08.07-.14.11-.22.2-.37.08-.9-.1-1.14l3.82.11c.22.5.33 1.07.29 1.64z" />
            <path d="M13.96 35.41c.09-2-.03-4.05.05-6.06.02-.54.04-1.09-.12-1.6-.19-.6-.62-1.1-1.05-1.56-.68-.73-1.4-1.42-2.15-2.08.2-.12.41-.21.63-.27.14.17.57.66 1.15 1.01.29.17 1.14.72 1.31.14.06-.21.02-.46 0-.67l-.06-.57c.08.01.15.04.21.08.11.07.17.19.22.31.46.96.91 1.93 1.33 2.91.1.23.2.46.19.71 0 .26-.14 3.93-.08 4.57.03.35.36 2.92.36 2.92s-1.09.16-2 .16z" style="fill:#a4c6e9;fill-rule:nonzero" />
            <path style="fill:#f7af4d;" d="m16.19 22.93-.5-.03v-.01l-.61-.03c-.32-.02-.69-.02-.98-.16.33-.3.61-.71.8-1.18.24-.57.35-1.3.27-1.92-.04-.33-.13-.65-.27-.95h-.08l-3.74-.1c.09 0 .18.42.19.49.06.36-.1.55-.2.87-.11.33.25.65.22.99-.03.33-.49.63-.32.98.2.42.09.88-.25 1.2l-2.78-.14c-.2-.4.12-.87.34-1.26.08-.13.2-.24.25-.38.17-.49-.5-1.1.25-1.68 1.04-.81-1.24-1.58 1.58-3.53 1.54-1.06 3.64-.49 3.94.1 0 0 .69.17 1.14.64.47.49.65 1.2.61 1.86l-.19-.01c.08.15.13.32.11.49-.04.36-.39.66-.35 1.02.03.32.36.55.37.87.01.24-.18.47-.11.71.03.11.12.19.18.28.18.25.24.59.16.89z" />
            <path style="fill:#2b2150;fill-rule:nonzero" d="M12.17 20.18h-.01c-.07 0-.13-.07-.12-.14l.01-.21c0-.07.06-.13.14-.12.07 0 .13.07.12.14l-.01.21c0 .07-.06.12-.13.12zM14.17 20.28h-.01c-.07 0-.13-.07-.12-.14l.01-.18c0-.07.06-.13.14-.12.07 0 .13.07.12.14l-.01.18c0 .07-.06.12-.13.12zM13.12 21.31c-.14 0-.3-.03-.41-.14-.05-.05-.05-.14.01-.18.05-.05.14-.05.18.01.08.09.28.06.39.05 0-.01.01-.03.01-.04l-.15-1.51c-.01-.07.05-.14.12-.14.07-.01.14.05.14.12l.15 1.5c.02.07 0 .15-.04.21-.04.07-.12.11-.2.12-.06.01-.13.02-.21.02zM13.7 21.8c-.1.06-.22.1-.35.13a1.934 1.934 0 0 1-.91-.06c.13.21.35.27.67.21.07-.01.14.03.15.1.02.07-.03.14-.1.16-.1.02-.19.03-.28.03-.41 0-.68-.23-.8-.67a.195.195 0 0 1 .02-.16c.03-.03.08-.06.12-.06.04 0 .07.02.09.05l.01.01.06.03c.2.11.62.16.91.11.1-.02.2-.05.27-.09.06-.04.14-.02.18.05.04.06.02.14-.05.18z" />
            <path style="fill:#ee7e94;fill-rule:nonzero" d="M13.85 21.14c-.02.32.23.59.54.61.2.01.38-.08.49-.23.04-.1.08-.21.12-.32a.584.584 0 0 0-.54-.6.58.58 0 0 0-.61.54zM12.11 21.04c-.02.32-.29.56-.61.54a.571.571 0 0 1-.44-.25c.09-.15.2-.29.21-.45a.732.732 0 0 0-.07-.35.573.573 0 0 1 .91.5z" />
            <path style="fill:#2b2150;fill-rule:nonzero" d="M14.44 19.51c-.02 0-.03 0-.05-.01a1.15 1.15 0 0 0-.41-.08c-.07 0-.13-.06-.13-.13s.05-.13.13-.13c.17 0 .35.04.51.11.07.03.1.1.07.17a.13.13 0 0 1-.12.08zM11.86 19.33c-.06 0-.11-.04-.13-.09-.02-.07.02-.14.09-.16.17-.05.34-.06.52-.05.07.01.12.07.12.14a.14.14 0 0 1-.14.12c-.14-.01-.28 0-.42.04-.01 0-.02.01-.04.01zM13.99 16.69c-.01 0-.03 0-.04-.01-.19-.11-.38-.18-.57-.2-.05-.01-.08-.05-.07-.1.01-.05.05-.08.1-.07.21.03.42.11.63.23.04.02.06.08.03.12a.09.09 0 0 1-.08.04zM10.06 18.05c-.01 0-.02 0-.03-.01-.05-.02-.07-.07-.05-.11.13-.36.31-.61.56-.77.04-.03.09-.01.12.03s.01.09-.03.12c-.22.13-.38.35-.49.68-.01.04-.05.06-.08.06zM10.25 22.29a.09.09 0 0 1-.09-.09c0-.08-.01-.17-.02-.25-.02-.14-.04-.29-.01-.43.03-.17.11-.31.19-.44.05-.08.1-.16.13-.25.12-.28.09-.61-.07-.87-.03-.04-.01-.09.03-.12s.09-.01.12.03c.19.3.23.7.09 1.03-.04.09-.09.18-.14.27-.08.13-.15.25-.17.39-.02.12 0 .25.01.38.01.09.03.18.03.28 0 .05-.04.09-.09.09z" />
            <path style="fill:#ea5e83" d="M5.98 52.6v.16l-.05-.05c.02-.04.03-.07.05-.11zM6.79 50.78v2.74c-.07-.06-.14-.11-.2-.17v-2.13c.07-.15.14-.3.2-.45zM7.6 49.05v4.87l-.06.09a.914.914 0 0 1-.14-.07v-4.47c.07-.14.14-.29.2-.42zM8.41 47.45v5.33c-.07.1-.14.19-.2.29v-5.23c.07-.13.14-.26.2-.39zM9.22 46v5.63c-.07.1-.14.19-.2.29v-5.58c.07-.12.14-.24.2-.34zM10.03 36.97v2.73c-.04-.33-.2-.83-.2-.83v-1.92c.07.01.14.02.2.02zM9.83 45.25c.08-.11.15-.3.2-.36v5.61c-.07.09-.14.18-.2.28v-5.52zM10.84 37.05v12.3c-.07.1-.14.19-.2.29v-12.6c.07.01.13.01.2.01zM11.65 37.09v11.12c-.07.09-.13.19-.2.29V37.09c.07.01.13.01.2.01zM11.63 54.74l.02-.53v.54zM12.46 37.12v17.71l-.2-.02v-17.7c.07 0 .13 0 .2.01zM13.27 37.12v17.8l-.2-.02V37.14c.07 0 .14 0 .2-.01zM14.08 35.62v19.34c0 .01 0 .03-.01.04l-.19-.02V36.16c.05-.18.09-.35.14-.53.02 0 .04 0 .06-.01zM14.89 35.43V50.1l-.2 1.62V35.44c.07-.01.14-.01.2-.02zM15.7 35.35v8.47l-.2 1.39v.03-9.86c.07-.01.14-.01.2-.02z" />
            <path style="fill:#f7af4d;" d="m31.96 36.82-1.68-1.95-1.68 1.95c-.07.08-.16.01-.16-.12v-8.01h3.68v8.01c0 .12-.1.2-.16.12z" />
            <path d="m60.45 53.06-1.3-1.51-1.3 1.51c-.05.06-.13.01-.13-.09l.04-6.04h2.8v6.04c0 .1-.07.15-.13.09z" style="fill:#313c85;fill-rule:nonzero" />
            <path style="fill:#e6325c" d="m26.65 58.45-1.01-1.17-1.01 1.17c-.04.05-.1 0-.1-.07v-4.83h2.22v4.83c0 .08-.06.12-.1.07z" />
            <path style="fill:#2b2150;fill-rule:nonzero" d="m26.61 58.15-.88-1.02a.134.134 0 0 0-.2 0l-.88 1.02v-4.51h1.95v4.51zm8.32-4.68H23.78a.09.09 0 0 0-.09.09c0 .05.04.09.09.09h.61v4.67c0 .05.01.1.04.14.07.1.21.1.29.02l.91-1.06.91 1.06c.04.04.08.07.14.07.11 0 .19-.1.19-.22v-4.67h8.06c.05 0 .09-.04.09-.09a.09.09 0 0 0-.09-.09z" />
            <path style="fill:#f7af4d;" d="m23.01 21.73.66-1.64 1.99-.36-.72 1.67z" />
            <path style="fill:#2b2150;fill-rule:nonzero" d="M23.67 20.95c-.04 0-.08-.03-.09-.07-.01-.05.02-.09.07-.1l1.24-.25c.05-.01.09.02.1.07.01.05-.02.09-.07.1l-1.24.25h-.02z" />
            <path style="fill:#f7af4d;" d="M42.79 13.43v4.88c-.15.05-.64.53-.71.5-.09-.03-.42-.3-.52-.32-.17-.03-.35-.13-.51-.25-.08-.06-.16-.12-.23-.17-.2-.15-.36-.26-.46-.19-.09.06-.03.28-.01.36.04.14.19.42.24.56l-.55-.16c-.59-.2-1.42-.47-1.74-.23-.13.1-.27.23-.3.4-.02.12.03.25.12.4.14.21.32.4.51.57l-.02.01h-.02l-1.55-.4-.67-.17-1.2-.31c.05-.01.15-.05.25-.09.15-.06.32-.13.39-.15.01 0 .01-.01.02-.02.01-.02.03-.07.05-.13.67-.09 1.4-.16 2.02-.45.28-.13.51-.32.69-.57.13-.18.26-.37.35-.57.07-.14.1-.28.1-.4.01-.24-.13-.44-.33-.57-.05-.04-.12-.07-.18-.1-.18-.09-.47-.02-.78.1-.26.11-.54.26-.78.4l-.31.17c-.13.07-.24.13-.31.14.02-.01.05-.3.06-.32.03-.14.09-.25.08-.4-.01-.19-.11-.31-.28-.17-.05.04-.11.1-.17.17-.11.12-.24.27-.38.4-.09.08-.2.16-.31.2-.09.03-.21.2-.3.37-.04.08-.08.16-.1.25l-.62.03v-3.78l.32.08.67.17 1.55.4.67.17 1.02.26 1.02-.26.67-.17 1.55-.4.67-.17.32-.08z" />
            <path style="fill:#f5ae9e;" d="M42.02 18.92c-.04-.16-.31-.4-.47-.43-.5-.09-.98-.76-1.2-.61-.07.05-.05.35.07.53.08.11.16.39.16.39-.36-.03-1.84-.73-2.29-.39-.52.39-.33.69.18 1.22.62.65 1.37.83 3.25.91l.29-1.62zM35.89 18.52c2.22-.31 2.43-.57 2.91-1.33.4-.62.32-1.05-.26-1.33-.51-.25-1.83.72-2.18.82 0 0 .03-.3.09-.42.09-.2.05-.49-.03-.53-.25-.11-.59.65-1.07.83-.15.06-.4.5-.4.67l.94 1.29zM36.16 6.96l.22 1.52c-.3.04-.49-.65-.49-.65-.25-.58-.01-.85.27-.87zM42.1 7.7c0 .01-.13.76-.67.78-.22.73-.69 1.36-1.28 1.74v.71c0 .72-1.31 1.3-1.31 1.3s-1.29-.58-1.29-1.3v-.76c-.64-.51-1.03-1.42-1.15-2.48.09-.82.33-2.29.82-2.79.14-.14.37-.12.48.05.09.14.21.26.26.31.3.21.76.27 1.35-.03.42.24 1.24.37 1.6-.2.57.4.51 2.34.58 3.11l.27-1.15.01-.08c.05-.01.1 0 .15.02.28.1.25.39.17.77z" />
            <path style="fill:#2b2150;fill-rule:nonzero" d="M37.82 7.73c-.07 0-.13-.06-.13-.13v-.29c0-.07.06-.13.13-.13s.13.06.13.13v.29c0 .07-.06.13-.13.13zM40.26 7.73c-.07 0-.13-.06-.13-.13v-.29c0-.07.06-.13.13-.13s.13.06.13.13v.29c0 .07-.06.13-.13.13z" />
            <path style="fill:#ee7e94;fill-rule:nonzero" d="M39.72 8.52c0 .33.27.6.6.6.33 0 .6-.27.6-.6 0-.33-.27-.6-.6-.6-.33 0-.6.27-.6.6zM36.92 8.48c0 .33.27.6.6.6.33 0 .6-.27.6-.6 0-.33-.27-.6-.6-.6-.33 0-.6.27-.6.6z" />
            <path style="fill:#4b3584;fill-rule:nonzero" d="m41.92 5.23-.14 1.76-.27 1.15c-.07-.77-.01-2.7-.58-3.11-.36.57-1.18.44-1.6.2-.59.3-1.05.24-1.35.03-.06-.04-.18-.17-.26-.31-.11-.17-.34-.2-.48-.05-.56.57-.8 2.41-.85 3.09l-.19-1-.1-1.81c0-.8.79-1.96 1.63-1.96h.1c.31 0 .72.09.93-.13.13-.14.34-.23.56-.23.31 0 .58.17.69.42.02 0 .04.01.05 0 .34-.42.94.12.86.31.38-.11 1.02.96 1.02 1.64z" />
            <path style="fill:#2b2150;fill-rule:nonzero" d="M38.94 9.69c-.23 0-.46-.09-.62-.24-.05-.05-.05-.13 0-.19.05-.05.13-.05.19 0 .11.1.27.16.44.16.17 0 .32-.07.43-.18.05-.05.13-.05.18 0 .05.05.06.13 0 .18-.16.17-.38.26-.62.26h-.02zM53.23 46.98h-3.28a.09.09 0 0 1-.09-.09c0-.05.04-.09.09-.09h3.28c.05 0 .09.04.09.09 0 .05-.04.09-.09.09z" />
            <path style="fill:#2bb19e" d="M55.11 38.59h-1.42l.01-.03c.55-1.66.56-3.45.01-5.11l-.02-.06h1.42l.02.06a8.12 8.12 0 0 1-.01 5.11l-.01.03zM57.69 38.59h-1.42l.01-.03c.55-1.66.56-3.45.01-5.11l-.02-.06h1.42l.02.06a8.12 8.12 0 0 1-.01 5.11l-.01.03zM60.29 38.59h-1.42l.01-.03c.55-1.66.56-3.45.01-5.11l-.02-.06h1.42l.02.06a8.12 8.12 0 0 1-.01 5.11l-.01.03z" />
            <path style="fill:#e6325c" d="M73.59 43.86c-.01.08-.02.17-.07.23s-.12.08-.19.1c-.51.14-1.04.2-1.57.18-.17-.01-.34-.02-.49-.1-.32-.17-.47-.6-.72-.88-.11-.12-.23-.22-.37-.29l.1 1.02c.03.27-.39.33-.44.06 0 0-.25-1.3-.25-1.31-.06-.02-.13-.04-.17-.09-.04-.04-.06-.1-.08-.16-.15-.45-.24-.95-.14-1.4.22-.02.46-.05.69-.09.15.21.33.41.51.52 1.29.82 1.54.63 1.46.21.16.34.35.63.62.74.33.13.73.05.97.33.2.24.18.61.14.92z" />
            <path style="fill:#f5ae9e;" d="M70.41 41.65c-.18-.11-.36-.31-.51-.52.7-.12 1.39-.29 1.55-.32l.01.1c0 .02.01.04.02.06.04.07.08.14.12.22v.01c.11.21.22.46.26.66v.01c.08.42-.17.61-1.46-.21zM66.89 41.12l-.04.11c-.04.9-.17 2.46-1.25.02-.12-.27-.27-.75-.3-1.14.47.31 1.02.62 1.43.93.05.04.11.08.17.09z" />
            <path style="fill:#f7af4d;" d="M71.45 40.81c-.23.04-1.63.41-2.53.42 0 0-.42-2.22-.68-2.93-.46 1.01-1.03 2.06-1.16 2.69-.01.06-.07.1-.12.12-.08.03-.17-.03-.24-.08-.54-.4-1.32-.81-1.85-1.21.13-.92.55-2.07.73-2.98.31-1.49.8-2.59.89-3.26-.15.07-1.14.13-1.52.14-1.22.05-5.15.1-6.04-.22-.83-.3-1.61-.9-1.86-1.75-.29-.97.16-1.98.6-2.9.18-.38.45-1.36.62-1.7h.01c.05.02.09.03.14.05-.14.34-.3.69-.48 1.05 0 0 .01 0 .02.01.19.1 2.11 1.13 4.2 1.31 1.46.12 1.86-.5 1.97-.94.01-.04.01-.08.02-.11 0-.05 0-.12.01-.19v-.03c.01-.05.01-.13.02-.21 1.05.21 3.87 1.11 5.39 1.62.29.1.87.45 1.03.71.39.59.41 6.31.48 7.24.08 1.08.22 1.6.37 3.18z" />
            <path style="fill:#4b3584;fill-rule:nonzero" d="m66.32 26.22-1.07.38c-.29.1-.61-.05-.72-.34l-.09-.26c-.08.23-.21 1.25-.22 1.48-.03.55.06 1.22-.36 1.66-.42.44-1.12.47-1.69.42-2.09-.17-4.01-1.2-4.2-1.31-.01-.01-.02-.01-.02-.01.18-.36.33-.72.48-1.05-.08-.03-.17-.06-.26-.09-.3-.1-.58-.2-.61-.21-.41-.17-.61-.64-.54-1.11l.79-4.66.16-1.06c.01-.15.05-.28.11-.39.13-.23.37-.39.6-.49.11-.05 1.44-.57 1.62-.64.05-.02.1-.04.16-.05 0 .01-.01.01-.01.01-.04.43.33.77.33.77.93.68 1.9.35 1.98-.42l.01-.01-.02-.3c.25.03.4.07.4.07.64.09.96.2 1.17.94.04.13.1.26.16.38 0 0-.36 2.35-.36 2.36l-.67.27.51 1.13.02.24-.38 1.75 2.71.54z" />
            <path style="fill:#ea5e83" d="M64.94 13.6c-.11.17-.4.28-.59.36-.5.2-1.18-.12-1.71-.2-1.22-.19-1.92.9-1.92.9-.13-.51-.63-.62-.89-.43-.14.1-.21.28-.14.52.03.11.06.2.09.28.16.41.31.45.43 1.26-.17-.14-.33-.29-.48-.46-.03.29-.09.58-.22.84-.28.56-.9.91-1.53 1.01-.63.09-1.28-.05-1.88-.27.58-.25 1.16-.66 1.29-1.26.12-.52-.08-1.1-.15-1.63-.06-.46-.1-.93-.07-1.4.06-.9.42-1.78 1.36-2.09.54-.18 1.16-.1 1.64.2.01.01.02.01.03.02.01.01.02.01.02.02.01-.01.02-.01.02-.02.71-.45 1.53-.46 2.33-.24 1.13.31 1.49.99 1.59 1.03.52.24 1.16.99.79 1.56z" />
            <path style="fill:#f5ae9e;" d="M64.89 15.07c-.04.27-.09.53-.16.78-.07.27-.16.52-.27.75-.38.84-.96 1.44-1.75 1.48l.05.77c-.08.78-1.06 1.1-1.98.42 0 0-.37-.35-.33-.77 0 0 .29-.63.36-1.34-.26-.27-.48-.58-.65-.9l.03.03c-.15-.96-.32-.83-.52-1.53-.21-.73.83-.86 1.03-.1 0 0 .71-1.09 1.92-.9.53.09 1.21.4 1.71.2.19-.08.48-.18.59-.36.05.42.03.91-.05 1.47z" />
            <path style="fill:#2b2150;fill-rule:nonzero" d="M63.13 17.17c-.22 0-.44-.07-.58-.18-.01-.01-.03-.02-.04-.04-.05-.05-.06-.14-.02-.19.05-.05.12-.06.18-.01l.01.01.04.04c.13.1.39.15.57.1.07-.02.13-.05.18-.09.06-.05.14-.04.18.02.05.06.04.14-.02.18-.08.06-.17.11-.27.14-.07.02-.15.03-.23.03zM61.25 12.95a.09.09 0 0 1-.07-.03.091.091 0 0 1 .01-.12c.22-.18.49-.26.83-.27.05 0 .09.04.09.09 0 .05-.04.09-.09.09-.3 0-.53.08-.72.23-.02.01-.04.02-.05.02zM57.73 17.2h-.11c-.05 0-.08-.05-.08-.09 0-.05.05-.08.09-.08.6.05 1.01-.42 1.2-.71.03-.04.08-.05.12-.02.04.03.05.08.03.12-.2.3-.62.79-1.25.79z" />
            <path style="fill:#ee7e94;fill-rule:nonzero" d="M62.57 16.13a.6.6 0 0 1-.64.54.6.6 0 0 1-.54-.64.6.6 0 0 1 .64-.54.6.6 0 0 1 .54.64z" />
            <path style="fill:#2b2150;fill-rule:nonzero" d="M60.33 15.21a.09.09 0 0 1-.07-.03c-.12-.15-.23-.37-.21-.51 0-.05.05-.09.09-.08.05 0 .08.05.08.09-.01.08.07.25.18.39.03.04.02.09-.02.12-.02.01-.03.02-.05.02zM64.35 15.44h-.01c-.07-.01-.13-.07-.12-.14l.01-.18c.01-.07.07-.13.14-.12.07.01.13.07.12.14l-.02.18c-.01.07-.06.12-.13.12zM62.32 15.37h-.01c-.07-.01-.13-.07-.12-.14l.01-.17c.01-.07.07-.13.14-.12.07.01.13.07.12.14l-.01.17c-.01.07-.06.12-.13.12z" />
            <path style="fill:#ee7e94;fill-rule:nonzero" d="M64.62 15.77c-.01.04-.02.09-.04.13-.08.26-.17.51-.28.74-.03.07-.07.15-.11.21-.24-.08-.4-.34-.37-.63.04-.32.32-.55.61-.52.06.01.13.03.18.06z" />
            <path d="m71.84 18.59-1.42 6.79-2.48 1.14-.03.02-1.59-.32-2.71-.54.27-1.74 2.83-.56c.26-.05.44-.34.39-.63v-.01c-.12-.69-1.24-.99-2-.83l-.96.39.36-2.35.14-.91 4.3.86 2.92-1.29z" style="fill:#8ecfd4;fill-rule:nonzero" />
            <path style="fill:#f5ae9e;" d="m66.7 23.38-2.65.52-.6-1.34 1.63-.66c.77-.15 1.89.15 2 .84v.01c.05.3-.13.58-.39.63zM71.18 21.87c.03-.35-.7-.25-.9.03-.12.17-.24.34-.29.54-.12.42-.12 1.7.17 1.72.21.02.43.02.64-.01.03 0 .11-.08.12-.11.1-.38.2-1.5.26-2.18z" />
            <path style="fill:#2b2150;fill-rule:nonzero" d="M69.29 21.04c-.03 0-.07-.02-.08-.05-.02-.04 0-.1.05-.11l1.66-.69c.04-.02.1 0 .11.05.02.04 0 .1-.05.11l-1.66.69c-.01 0-.02.01-.03.01zM69.17 21.45c-.03 0-.07-.02-.08-.05-.02-.04 0-.1.05-.11l1.66-.69c.04-.02.1 0 .11.05.02.04 0 .1-.05.11l-1.66.69c-.01 0-.02.01-.03.01z" />
            <path style="fill:#c2def5;fill-rule:nonzero" d="M39.46 17.24v-1.6l2.66-.72v1.61z" />
            <path style="fill:#2b2150;fill-rule:nonzero" d="M40.84 15.88c-.04 0-.07-.03-.08-.06-.01-.05.01-.09.06-.11l.98-.27c.05-.01.09.01.11.06.01.05-.01.09-.06.11l-.98.27h-.02zM39.71 16.19c-.04 0-.07-.03-.08-.06-.01-.05.01-.09.06-.11l.76-.21c.05-.01.09.01.11.06.01.05-.01.09-.06.11l-.76.21h-.02zM39.73 16.74c-.04 0-.07-.03-.08-.06-.01-.05.01-.09.06-.11l2.11-.58c.05-.01.09.01.11.06.01.05-.01.09-.06.11l-2.11.58h-.02z" />
            <path style="fill:#f5ae9e;" d="m20.09 25.32 1.19.56c.2-.32.86-.68 1.01-1.04.07-.18.2-.53.2-.67.03-.48-.02-.93-.18-1.37-.08-.21-.27-.25-.49-.19-.03.01-.59.05-.64.39-.2 1.28-.72 1.4-.97 1.61-.16.13-.2.45-.12.7z" />
            <path style="fill:#2b2150;fill-rule:nonzero" d="M26.15 10.16c-.51.56-.84 1.25-.95 2.01-.01.1-.1.17-.2.17h-1.4v-2.17l1.19-1.42c.03-.04.03-.09-.01-.12s-.09-.03-.12.01L23.51 10l-1.15-1.36a.082.082 0 0 0-.12-.01c-.04.03-.04.09-.01.12l1.19 1.42v2.17h-1.4c-.1 0-.18-.07-.2-.18a3.77 3.77 0 0 0-.96-2.02c-.6-.65-.92-1.5-.92-2.39a3.561 3.561 0 0 1 3.82-3.55c1.75.12 3.17 1.54 3.3 3.29.07.99-.26 1.94-.92 2.66zm1.18-2.68a3.822 3.822 0 0 0-3.54-3.53 3.827 3.827 0 0 0-4.1 3.82c0 .95.35 1.87.99 2.57.49.54.79 1.17.89 1.88.03.23.23.4.46.4H25c.23 0 .43-.17.46-.4.1-.71.4-1.35.88-1.87.71-.78 1.06-1.79.99-2.86z" />
            <path style="fill:#2b2150;fill-rule:nonzero" d="M20.73 59.83c-.15 0-.27-.23-.27-.39 0-.15.12-.26.27-.26h19.91c1.25 0 2.26-.95 2.26-2.17v-2.49c0-1.22-1.01-2.22-2.26-2.22H20.73c-.15 0-.27-.13-.27-.29 0-.15.12-.27.27-.27H57.6v1.22c0 .06.02.12.05.16.08.11.23.12.31.02l1.2-1.39 1.2 1.39c.04.05.09.07.15.07.12 0 .21-.11.21-.25v-1.22h6.37c1.86 0 3.37 1.34 3.37 2.98v2.04c0 1.64-1.51 3.06-3.37 3.06H20.73zm.79-2.06c.09-.53.14-1.16.14-1.79.02-1.35-.16-2.74-.51-3.4h19.48c1.1 0 2 .87 2 1.95v2.49c0 1.07-.9 1.93-2 1.93H21.16c.01-.02.28-.71.36-1.18zm-2.92-9.28V46.4c0-1.27.87-2.37 2.1-2.82h42.77c.04.05.1.09.16.11.14.04.31.01.41-.11h.7c.01.09.03.19.05.28H41.98c-1.27 0-2.3 1-2.3 2.24v2.52c0 1.23 1.03 2.23 2.3 2.23H57.6v.66c-.01-.01-36.25-.02-36.25-.02-1.56-.26-2.75-1.51-2.75-3zm0-5.18c-.07 0-.13-.06-.13-.13v-4.34c0-.07.06-.13.13-.13h46.36l-.12.47c-.04.18-.08.37-.1.56-.08.06-.15.12-.22.2-.32.35-.53.86-.65 1.54-.01.06-.02.12-.01.18-.02.06-.47 1.56-.47 1.56-.01.03-.01.06-.01.09H18.6zm2.22-5.13 26.47-.03c1.29 0 2.3-.63 2.3-1.43v-1.56c0-.8-1.01-1.43-2.3-1.43H32.26v-.21h26.42c.07.03.14.05.21.08.54.23 1.28.2 1.91.23.68.03 3.77.02 4.19 0 .18-.01.95-.04 1.36-.1-.06.27-.16.6-.29 1-.34 1.09-.96 3.58-1 3.72l-44.22-.02c-.16 0-.27-.07-.27-.13 0-.04.1-.12.27-.12zm.81-2.03c.02-.76-.11-1.63-.44-2.13-.01-.01-.02-.02-.02-.04h7.15v2.7c0 .07.02.13.06.18.08.11.24.13.34.02l1.58-1.83 1.58 1.83c.04.05.1.08.16.08.13 0 .23-.12.23-.28v-2.7H47.3c1.12 0 2.04.52 2.04 1.17v1.56c0 .64-.91 1.17-2.04 1.17H21.19c.27-.35.43-.97.45-1.73zm-1.08-2.51c0-.04.1-.12.27-.12h7.49v.21h-7.45c-.18.02-.32-.05-.32-.09zm3.5-3.23V28.3c0-1.7 1.58-3.08 3.52-3.08h4.21c.02.08.05.16.07.23.05.12.1.23.16.32H27.1c-1.32 0-2.39 1.02-2.39 2.26v2.56c0 1.25 1.07 2.26 2.39 2.26h1.21v.4H26.2c-1.27-.47-2.16-1.56-2.16-2.84zm8.29-7.58.36.12c-.26.54-.49 1.23-.34 2.01.03.17.08.33.15.49.04.1.21.05.16-.07-.06-.14-.1-.28-.13-.43-.16-.74.06-1.41.33-1.95l1.94.63.12.55c.01.33-.04.65-.15.95-.04.1.12.17.16.06.05-.13.09-.27.11-.41l.21.96c-.3.02-.72.04-1.12.06-.48.02-.97.04-1.28.07-.13.01-.26.01-.35-.02-.18-.06-.31-.22-.41-.48-.05-.13-.09-.27-.12-.41-.16-.76-.02-1.59.36-2.13zm-.58-.46c-.8-.26-1.21-1.17-.92-1.95.18-.48.59-.84 1.09-.94.16.12.38.21.69.21.13 0 .26-.02.38-.05l8.48 3.11-.01 2.81-9.71-3.18zm2.52-3.12c-.01.02-.02.05-.02.08-.05.14-.1.33-.14.43l-.69-.26.86-.26zm-2.49-1.81c.31-.58 2.28-4.7 2.55-5.16 0 0 0-.01.01-.01.05-.07.44-.61.81-.81.45-.25 1.13-.43 1.68-.57.23-.06.43-.11.59-.17v.2c0 .79 1.31 1.39 1.36 1.42.09.04.22-.05.3-.09.17-.09.33-.19.49-.3.33-.24.72-.58.72-1.03v-.12l.18.04c-.01.26-.07.52-.16.77-.05.13-.1.24-.16.32-.17.25-.43.43-.68.6l-.62.42-.7-.38c-.35-.19-.65-.37-.78-.67-.04-.1-.21-.04-.16.07.17.38.56.6.85.76l.79.43.71-.47c.26-.17.54-.36.73-.64.07-.1.12-.22.18-.36.09-.26.15-.52.17-.79l1.77.4c.63.14 1.12.61 1.3 1.24l2.04 5.77c.07.14.07.28 0 .43-.34.69-2.15 1.29-3.38 1.6-.2.05-.57.13-.58.14 0 0 .36-1.56.37-1.56l.68-.48c.03-.01.72-.54.72-.54.06-.04.07-.12.03-.18-.04-.06-.12-.07-.18-.03l-.48.36-.01-.92.1.15a.13.13 0 1 0 .22-.14l-.29-.57v-3.13c0-.09-.08-.14-.16-.13l-.73.19a2.01 2.01 0 0 1-.08-.64c0-.17-.26-.18-.26-.01-.01.24.02.49.09.72l-3.22.83-2.95-.76.07-.77c.01-.17-.25-.19-.26-.02l-.06.73s-.99-.25-1-.26a.13.13 0 0 0-.16.13v3.64c-.65.02-1.54.17-2.01.73-.11.13.09.3.2.17.29-.34.72-.49 1.14-.56.43-.07 1.34-.06 1.34-.06.33.47.68.98.82 1.21l-2.85.85c-.42.06-.73-.05-.92-.32-.36-.51-.22-1.47-.12-1.65zm8.23-6.9v.38c0 .49-.81.98-1.18 1.15-.37-.18-1.16-.66-1.16-1.15v-.44c.25.25 1.03.32 1.15.32.41.01.82-.08 1.19-.26zm-3.51-2.56c.01-.2.04-.44.07-.69l.12.06c0 .03-.01.06-.01.09a.946.946 0 0 0 1.89.09H39c.01.27.02.54.03.72v.06l-.33.01c-.07 0-.13.06-.13.14 0 .07.06.13.13.13h.01l.39-.02c.02 0 .04-.01.06-.02.11-.06.14-.21.13-.33-.02-.18-.03-.44-.03-.7h.1a.946.946 0 0 0 1.89-.09c0-.03 0-.06-.01-.1l.08-.04c0 .07.01.13.01.2.01.24.02.45.03.61-.11.82-.52 1.52-1.09 1.95-.08.06-.17.12-.26.17-.72.42-1.64.39-2.34-.07-.09-.06-.18-.13-.26-.21-.5-.45-.83-1.14-.91-1.98zm-.17-.86-.03-.17-.1-1.78c0-.77.75-1.83 1.5-1.83.1 0 .2 0 .31.01.29.02.61.03.82-.18.12-.12.28-.19.46-.19.25 0 .48.14.57.34.05.12.23.1.29 0 .04-.09.12-.11.18-.11.25-.01.48.2.34.45-.01.01-.01.02-.01.03a.566.566 0 0 0-.18-.03c-.16 0-.17.26 0 .26.13 0 .22.11.27.18.19.27.22.65.01.91-.26.34-.71.3-.92.27-.13-.02-.66-.15-.66-.35 0-.17-.26-.17-.26 0 0 .09.05.18.13.26-.4.15-.76.14-1.02-.04a1.17 1.17 0 0 1-.23-.27.446.446 0 0 0-.69-.08c-.41.42-.65 1.42-.77 2.18-.01.05-.01.1-.02.14zm-.32.66-.01-.02c-.1-.25-.12-.45-.05-.57a.26.26 0 0 1 .11-.1l.17.89v.01c.01.1.02.2.04.3-.1-.08-.21-.31-.27-.52zm2.4-.34a.77.77 0 1 1-.77-.77c.42 0 .77.35.77.77zm2.66 0c0 .43-.35.77-.77.77-.42 0-.77-.35-.77-.77a.77.77 0 0 1 1.54 0zm-.77-.95c-.49 0-.9.38-.94.86h-.11c-.01-.42 0-.79 0-.8 0-.07-.06-.13-.13-.13s-.13.06-.13.13c0 .03-.01.39 0 .8h-.41a.948.948 0 0 0-1.85-.19l-.13-.07c.13-.84.37-1.78.71-2.12.04-.04.09-.06.14-.05.05.01.1.04.13.09.09.15.22.29.3.34.37.26.89.26 1.42.01.15.07.32.13.49.16.1.02.2.03.3.03.35 0 .64-.12.83-.34.26.34.34 1.21.38 1.91l-.1.05a.957.957 0 0 0-.91-.68zm.64-2.78c.39.09.84.87.84 1.49l-.14 1.75v.01l-.07.04c-.06-.92-.16-1.67-.48-2.01.02-.03.03-.07.04-.1.1-.27.03-.66-.16-.94a.4.4 0 0 0-.1-.12c.01-.01.06-.08.07-.11zm1.02 3.95c-.01.02-.09.46-.36.62.01-.04.02-.08.02-.12l.26-1.11c.15.06.17.2.07.62zm-3.4 12.23h.01c.57.49 1.31.67 2.91.75 0 .01.01.02.01.04l-2.62.82-4.5-1.69c.03-.1.08-.24.13-.41.03-.09.06-.18.08-.25l.51-.15c.01.01 3.46.9 3.46.9zm-2.59-1.28c.01-.02 2.23-.33 2.49-.79v.35c-.1.02-.19.05-.26.11-.23.17-.34.34-.35.52-.02.24.13.46.36.72l-2.61-.67c.06-.02.26-.1.26-.1.04-.01.06-.04.1-.15zm5.6-.27c-.21-.04-.44-.21-.63-.36-.26-.2-.47-.36-.67-.23-.05.03-.08.09-.09.16-.02.14.01.38.13.54.02.03.04.08.07.13-.09-.03-.2-.06-.32-.1-.43-.14-.93-.31-1.33-.33v-.65c.06-.08.12-.17.18-.27.24-.37.32-.68.24-.94-.06-.2-.19-.36-.42-.5v-1.21l3.93-1.01v4.62l-.64.43c-.12-.09-.36-.28-.44-.29zm-.87.4c-.01-.03-.1-.31-.18-.43a.543.543 0 0 1-.09-.34c.07.01.24.14.34.22.22.17.47.36.75.41.1.02.3.19.35.31l-.35 1.48c-1.76-.08-2.41-.28-2.97-.86-.3-.31-.47-.53-.45-.69.01-.1.09-.21.25-.34.26-.2 1.11.08 1.61.25.26.09.47.16.59.17.09.01.16-.08.14-.17zm-5.31-2.08c.26-.1.47-.34.66-.54.09-.1.23-.26.3-.28.02.07.03.23-.02.35-.06.13-.09.42-.1.46a.1.1 0 0 0 .05.11c.03.03.08.04.12.03.12-.03.31-.14.55-.28.46-.26 1.24-.7 1.53-.55.24.12.38.25.42.41.05.19-.02.43-.21.73-.45.7-.61.96-2.81 1.26-.21-.34-.62-.93-.8-1.19.04-.16.24-.48.32-.51zm1.19-.93c-.03-.07-.07-.12-.12-.14-.21-.09-.4.11-.61.35-.17.19-.35.4-.55.47-.17.06-.39.41-.46.65-.09-.01-.22-.01-.38-.02v-3.47l3.93 1.01.08.02v1.07c-.43-.09-1.1.29-1.65.6-.1.06-.2.12-.29.16.01-.06.03-.11.04-.14.08-.19.07-.43.02-.56zm8.61 4.13c.87 0 1.57.8 1.49 1.66-.06.59-.47 1.1-1.04 1.28l-1 .28c-.13-.36-.32-.7-.54-.96-.03-.04-.08-.06-.14-.06-.24 0-1.18.36-2.23.76v-.2c0-.06-.03-.1-.09-.12l-2.38-.87 5.47-1.71c.15-.05.29-.07.44-.07zm-.36 5.57c.02-.08.03-.15.04-.23h9.81c.16 0 .29.13.29.3 0 .15-.12.26-.26.27-.02-.02-9.99 0-9.99 0 .05-.09.08-.21.11-.34zm-.71 0c.04.01.09 0 .1-.06.17-.66.09-1.3-.08-1.88-.06-.19-.13-.38-.21-.57-.02-.05-.23-.54-.25-.54.11-.03.2-.06.25-.06.18.23.34.51.45.83.03.08.06.16.08.25.19.64.24 1.36.1 1.97-.03.13-.08.28-.17.38-.12.13-.28.11-.44.08-.12-.02-1.96-.32-2.24-.37l.01-2.35c.46-.18 1.26-.49 1.78-.66.08-.02.43.98.47 1.1.17.55.24 1.16.08 1.79-.01.05.02.09.06.1zm-8.67.54h-.03.03zm4.17-.77 1.69.55h-5.11l1.94-.55h1.48zm-4.11.48-.43-1.96 3.41 1.12-2.98.85zm-3.53 3.12v7.83s-1.6-1.86-1.61-1.87a.134.134 0 0 0-.2 0l-1.61 1.87V28.8h3.41zm22.4-2.75c-.72 1.32-.71 5.31.01 6.53H32.26v-3.83h6.35c.05 0 .09-.04.09-.09a.09.09 0 0 0-.09-.09H27.45a.09.09 0 0 0-.09.09c0 .05.04.09.09.09h.87v3.83h-1.21c-1.17 0-2.13-.9-2.13-2v-2.56c0-1.1.95-2 2.13-2h5.19c.12.08.26.1.4.1.06 0 .12 0 .18-.01.3-.02 1.61-.08 1.78-.09h8.87c.15.03.29.05.4.07.14.03.29.05.43.01.06-.02.12-.04.16-.08h9.89c-.01.01-.01.02-.01.03zm.59 7.11c0 .03 0 .05-.01.07H32.26v-.4l22.44.03c.16 0 .29.13.29.3zm2.21-1.49c-.27-.9.13-1.84.59-2.8.03-.06.18-.47.19-.5.41.21 2.24 1.13 4.19 1.29.13.01.25.02.37.02.4 0 .74-.06 1.01-.18l4.8 1.37c.7.25 1.45.88 1.27 1.82-.01.03-.66 3.41-1.47 5.53-.07.16-.34.73-.4.86-.35.72-.68 1.45-.78 1.91-.01 0-.76-.5-1.08-.7-.3-.18-.6-.37-.85-.55 0-.01.1-.53.13-.64.21.14 1.63.85 1.68.88.09.07.2-.06.11-.13-.06-.05-1.54-.78-1.74-.93.02-.07.04-.14.06-.22.05-.2.87-3.34 1.05-3.9.13-.41.25-.82.39-1.23.08-.24.23-.69.29-.76.11-.13-.09-.3-.2-.17-.09.1-.25.57-.34.8 0 0-.37.06-.53.07-1.02.08-2.05.09-3.07.09-2.05 0-3.42-.09-3.87-.25-.9-.33-1.56-.95-1.78-1.66zm.64-3.47v.01-.01zm.55-.96c.07 0 .15-.01.23-.02 1.36-.21 3.99-2.04 5.06-2.82l-.19 1.22c-.01.07.03.13.1.15l.73.15c-.02 0-.27 2.04-.28 2.25-.03.44-.19.86-.56 1.05-.39.2-.86.2-1.29.17-1.96-.16-3.8-1.11-4.11-1.27l.3-.88zm-.78-.51c-.23-.16-.54-.41-.49-.73l1-5.97c.01-.32.21-.53.48-.69.34-.15.7-.3 1.03-.44.13.37.68.85 1.29 1.14.3.14.69.28 1.12.28.23 0 .46-.04.69-.14.29-.12.47-.33.61-.7.04-.1-.12-.17-.16-.06-.12.32-.27.49-.51.6-.61.25-1.24.06-1.67-.14-.64-.31-1.11-.77-1.21-1.05l.56-.21c.04.4.35.7.38.72.35.26.73.4 1.1.4.27 0 .54-.08.75-.25.1-.08.18-.18.24-.3.07-.13.13-.51.13-.51.09 0 1.01.03 1.16.51.07.21.17.41.28.61l-.36 2.37-.48.19-4.11 1.93s.58-2.75.58-2.76c.03-.16-.22-.22-.26-.05l-.62 2.95c-.03.01-.21.06-.27.1-.33.18-.5.35-.65.55-.1.14.11.29.21.16.13-.18.27-.32.56-.48.1-.06.23-.07.33-.12.55-.26 2.79-1.32 3.37-1.59h.01c.11.38.21.77.3 1.15.02.11.2.07.17-.04-.09-.4-.2-.8-.31-1.19l.54-.25.5 1.2c-.05.03-3.96 2.83-5.33 3.04-.34.05-.69-.05-.97-.24zm3.32-9.33c.46.43 1.01.73 1.56.78.04 0 .09.01.13.01l.04.62c-.04.4-.38.68-.83.68-.31 0-.64-.12-.93-.34 0 0-.31-.3-.29-.65.05-.1.23-.55.32-1.1zm-.58-1.15c0-.02-.1-.67-.31-1.03-.07-.13-.14-.27-.22-.54-.07-.23.04-.44.3-.44.17 0 .4.11.48.42.02.08.11.12.19.08l.72.27c-.03.24.03.47.19.66.16.19.4.3.65.3.37 0 .7-.25.81-.6h.18l.09.71v.01c-.13 0-.28-.02-.31-.05-.05-.05-.13-.05-.19 0-.05.05-.05.13 0 .18.15.15.4.14.59.12.17-.01.18-.2.16-.32l-.09-.66h.09c.09.33.38.59.74.62.04 0 .08.01.12 0-.06.17-.12.34-.19.5-.3.67-.88 1.48-1.85 1.4-.84-.07-1.69-.83-2.16-1.66zm-1.33-2.56c.06-1.02.53-1.88 1.3-2.36.38-.24.81-.36 1.29-.36.29 0 .61.05.93.14.86.24 1.26.69 1.42.89 0 .02-.2.42-1.13.46-.07 0-.15.03-.13.12.02.07.09.06.14.06.42-.04.98-.1 1.26-.49.3.14.67.49.78.87.05.16.04.33-.04.47-.08.14-.23.21-.37.27-.16.06-.32.12-.49.12-.25 0-.54-.07-.81-.15-.27-.07-.54-.14-.81-.14-.81 0-1.35.51-1.6.79a.747.747 0 0 0-.64-.39c-.2 0-.37.08-.48.22-.11.15-.14.34-.07.56.09.3.17.45.24.59.08.14.15.28.21.56-.68-.66-1.04-1.45-.99-2.21zm.37 2.89c-.25.49-.8.85-1.43.94-.13.02-.26.03-.39.03-.35 0-.73-.06-1.13-.19.47-.25.95-.64 1.08-1.22.13-.56-.07-1.12-.15-1.67-.07-.56-.1-.98-.07-1.37.05-.73.3-1.66 1.27-1.97.45-.15.98-.1 1.41.12-.1.07-.19.16-.28.24-.01 0-.25-.1-.36-.12-.47-.07-.94.16-1.28.64-.07.09.07.19.14.1.36-.52.89-.7 1.38-.49-.48.53-.77 1.25-.82 2.06-.04.75.26 1.51.83 2.16-.03.26-.08.52-.2.74zm5.67-1.77c.08.12.11.27.1.42-.02.19-.12.36-.26.47.05-.21.09-.42.12-.64l.03-.25zm-2.05.38a.67.67 0 0 1-.72.61.677.677 0 0 1-.61-.72c.03-.36.36-.64.72-.61.36.03.64.36.61.72zm1.83-.79a.842.842 0 0 0-1.18.7v.11h-.09l-.04-.3c-.01-.07-.07-.12-.15-.11-.07.01-.12.08-.11.15l.03.26s-.12 0-.12-.01a.832.832 0 0 0-.2-.62.867.867 0 0 0-.57-.3.845.845 0 0 0-.86.55l-.65-.24c.18-.23.69-.76 1.45-.76.25 0 .5.07.75.13.29.08.59.16.88.16.16 0 .3-.02.42-.08.04-.02.44-.14.44-.21.01.17.01.36-.01.56zm-.07.62c-.04.26-.16.79-.17.81-.05.01-.1.01-.16.01a.67.67 0 0 1-.61-.72c.03-.34.32-.61.67-.61.04 0 .33.03.32.09-.01.14-.03.28-.05.44zm-1.13 7.59 1.49-.6c.69-.13 1.74.13 1.84.74.04.23-.09.44-.29.48l-2.58.51-.47-1.13zm1.1-3.46 4.08.81s-.29 1.96-.29 1.97c-.02.11.16.14.17.03l.29-2 2.67-1.18-.57 2.73a.665.665 0 0 0-.21-.03c-.24 0-.56.11-.7.31-.13.19-.25.37-.31.58-.11.38-.13 1.44.09 1.76.06.09.14.12.2.12.1.01.34.01.36.01l-.21.98-2.25 1.04.55-3.75c.01-.05-.03-.09-.07-.1-.05-.01-.09.02-.1.07l-.57 3.84-4.11-.82.21-1.36c.09-.07.25-.18.25-.18l2.52-.52c.33-.07.55-.42.49-.79-.11-.65-.94-.98-1.72-.98-.15 0-.3.01-.44.04l-.77.31.44-2.91zm6.07 4.81c-.01.01-.02.02-.04.03-.1.01-.21.02-.32.02-.09 0-.18-.01-.26-.01-.14-.1-.19-1.13-.07-1.56.05-.17.15-.33.27-.5.08-.11.3-.2.49-.2.09 0 .15.02.16.04 0 0 .01.01.01.04-.05.63-.15 1.74-.25 2.14zm-5.6 2.48c-.05.02-.1.02-.14.02-.18 0-.35-.12-.41-.29l-.07-.2 1.24.25-.62.22zm-.16 1.94c.97.24 1.93.58 2.88.87.23.07.45.14.66.21.41.13.82.24 1.21.44.26.13.54.3.71.54.3.42.38 4.35.42 6.03.01.53.02.94.03 1.14v.01c.04.54.1.93.16 1.39.06.44.13.94.2 1.67 0 0-2.14.39-2.2.39v-.01c-.06-.25-.13-.52-.2-.78.13.03.3.04.47.04.65 0 1.45-.17 1.49-.18.05-.01.08-.06.07-.1-.01-.05-.06-.08-.1-.07-.02 0-1.45.31-1.98.11-.03-.11-.36-1.28-.42-1.55-.02-.1-.04-.18-.05-.25v-.01c.81-2.14 1.47-5.5 1.47-5.53.22-1.1-.64-1.83-1.45-2.12l-4.58-1.31c.05-.04.09-.08.14-.13.34-.37.34-.82.32-.98 0 .01.64.16.75.19zm6.7 13.49c.02.13-.01.16-.01.17-.01.01-.18.15-1.25-.53-.12-.07-.24-.19-.34-.32.05-.01 1.23-.25 1.24-.25.04.11.35.82.37.94zm.69.82c.14.02.28.08.41.1.21.03.39.06.51.2.11.12.14.3.13.5-.17.22-.5.25-.75.29-.44.08-.9.09-1.35.01-.11-.02-.14.15-.03.17.22.04.43.06.65.06.47 0 1.03-.05 1.46-.28-.02.08 0 .19-.07.26-.02.02-.05.03-.08.03-.5.14-1.03.2-1.55.18-.14-.01-.3-.02-.43-.09-.17-.1-.3-.29-.42-.49-.08-.13-.16-.26-.26-.37-.17-.2-.39-.33-.59-.42a2.33 2.33 0 0 1-.02-.79c.01-.05.01-.09.03-.14.02-.08.09-.23.13-.29.05.04.1.08.15.11.62.4 1.05.59 1.32.59.1 0 .19-.03.26-.1.03.15.46.46.51.47zm-2.36 1.49c-.04.01-.09-.02-.1-.07l-.21-1.1c.11.04.21.08.3.13 0 0 .1.94.1.95.01.06-.04.09-.08.1zm-.42-1.48a.26.26 0 0 1-.14-.06.281.281 0 0 1-.05-.11c-.16-.49-.21-.89-.15-1.24.15-.02.33-.04.53-.07.07.09.15.18.22.26-.05.1-.15.29-.17.37l-.03.16c-.04.25-.04.5 0 .75-.07-.02-.15-.05-.21-.06zm-1.18 1.13-.53-.02a.818.818 0 0 0-.14-.28h.15c.27 0 .5-.08.64-.21.07.05.12.14.12.24 0 .14-.11.27-.24.28zm-1.49-2.41c.01-.08.04-.25.06-.26.08-.05.14-.1.16-.19.09-.44.41-1.1.75-1.81.05-.1.2-.47.26-.55.09.31.25 1.03.26 1.08v3.34c0 .1-.2.24-.52.24h-.43c-.03-.02-.05-.04-.08-.06-.11-.08-.22-.16-.3-.26-.3-.36-.23-.95-.16-1.52zm-1.53-1.1c.01.01.18.11.27.17.32.2.99.65 1 .65 0 0-.09.93-.13 1.08-.05.15-.09.16-.1.16-.02 0-.24-.03-.77-1.23-.09-.21-.2-.53-.25-.83zm-1.22 1.42c-.05-.05-.09-.09-.11-.13-.01-.03.04-.25.03-.25.34.23.57.53.72.92.04.1.2.05.16-.06-.17-.45-.44-.78-.84-1.04.11-.48.29-.85.52-1.11.04-.05.09-.1.14-.14.09.07.19.14.3.2.04.42.2.89.31 1.12.54 1.22.82 1.38 1.01 1.38.09 0 .16-.03.21-.1.04.21.12.4.25.57.1.12.22.21.35.3.19.14.35.26.4.46.06.23-.07.49-.23.75-.33-.06-1.11-.35-1.33-.47-.1-.06-.18.09-.09.15.2.11.91.39 1.3.48-.07.1-.14.13-.26.1-.55-.12-1.08-.32-1.57-.6-.13-.08-.28-.17-.38-.31-.22-.34-.14-.8-.23-1.18-.12-.47-.44-.81-.68-1.03zm-.37 1.58c-.05.13-.25.06-.21-.08l.39-1.33c.01.01.2.19.27.28 0 0-.44 1.1-.45 1.13zm.63-.87c.08.13.13.26.16.39s.04.28.06.43h-.55l.33-.81zm-4.05 4.48v5.87l-1.19-1.38a.123.123 0 0 0-.1-.05c-.04 0-.07.02-.1.05l-1.19 1.39v-5.87h2.59zm7.71 3.6H60.7v-3.6h4.45c.05 0 .09-.04.09-.09a.09.09 0 0 0-.09-.09H54.1a.09.09 0 0 0-.09.09c0 .05.04.09.09.09h3.49v3.6H41.97c-1.12 0-2.04-.89-2.04-1.97v-2.52c0-1.09.91-1.97 2.04-1.97h22.92c.01.01.02.02.02.04.12.18.31.3.47.39.51.29 1.07.51 1.64.63.11.02.22.04.32-.01.12-.05.19-.16.24-.23.18-.25.33-.52.37-.79h.2c-.69 1.3-.68 5.24.01 6.44zm.36.9H60.7v-.64h7.72c.39-.03.51.64.09.64zm-51.96 7.99c-.02.08-.05.17-.1.22-.05.04-.12.05-.21.06a7.456 7.456 0 0 1-2.09-.03c-.19-.03-.41-.07-.58-.19-.22-.15-.35-.41-.49-.69a3.53 3.53 0 0 0-.28-.5c-.17-.23-.39-.41-.61-.54-.19-.12-.39-.21-.6-.29-.08-.03-.15-.06-.19-.11a.336.336 0 0 1-.05-.16c-.14-.73-.11-1.3.09-1.75.1-.22.25-.41.42-.55.05.33.2.72.43 1-.05.07-.09.15-.13.23-.03.06-.05.12-.07.19-.1.33-.15.68-.13 1.02 0 .06 0 .12.07.13.16.03.1-.36.11-.44.02-.23.06-.45.12-.66.04-.12.09-.23.16-.34.08.08.17.15.27.21.46.24.9.37 1.25.37.24 0 .43-.06.56-.18.01.02.1.29.09.29-.02.01-.03.02-.05.03-.19.1-.47.26-.65.4a.22.22 0 0 0-.05.3c.11.17.38.5.47.61.07.09.21.1.3.02s.3-.27.52-.39c.07.06.16.11.25.15.14.06.29.1.44.14.3.08.58.16.74.38.19.27.11.67 0 1.06zm-4.69-.12c-.01.18-.33.19-.34.01l-.1-1.62c.06.03.5.17.5.22l-.05 1.39zm2.23-4.22c.04.22.35 1.03.21 1.17-.18.18-.76.16-1.5-.23-.35-.18-.62-.72-.69-1.15l1.98.21zm.57 1.9c.07.19.15.37.26.51-.19.11-.36.25-.47.35-.12-.14-.3-.37-.39-.5.16-.12.42-.26.59-.35 0 0 .01 0 .01-.01zm-7.74-2.24c-.1.23-.28.36-.47.36-.27-.01-.54-.3-.72-.79-.15-.43-.26-1.19-.05-1.53l.06-.06c.06.03.46.43.73.67.17.15.34.28.52.41.11.07.23.17.35.22l-.43.72zm-.55 1.9c-.24-.03-.5-.01-.65.01-.01-.15-.03-.54-.01-.72.21-.01.74.05.74.05-.06.22-.09.44-.08.66zm.13-.83c-.26-.03-.53-.07-.8-.06-.1.01-.17.08-.18.17-.01.2.01.61.02.76.01.09.09.16.18.15.12-.02.42-.05.67-.01.02.1.05.2.1.3.08.17.2.31.31.45.17.21.34.42.34.66-.01.32-.31.6-.64.86-.15.12-.24.14-.42.05-.62-.33-1.18-.74-1.68-1.23-.14-.13-.29-.3-.36-.49a.964.964 0 0 1-.04-.45c.08.11.17.22.27.31.31.31.64.62.96.92.12.11.22.2.34.29.15.11.31.2.49.27.1.03.17-.13.06-.16-.16-.06-.31-.14-.45-.24a2.67 2.67 0 0 1-.32-.28c-.32-.3-.65-.61-.96-.91-.16-.16-.31-.32-.34-.51 0-.02.01-.04.01-.06.03-.18.07-.37.07-.56.01-.56-.27-1.05-.48-1.37-.05-.07-.09-.14-.09-.2 0-.04.02-.1.05-.16.32-.67.69-1.11 1.12-1.37.2-.12.44-.19.68-.2-.12.26-.13.62-.09.96-.05.03-.14.06-.17.08-.09.04-.17.09-.24.15-.3.22-.55.49-.75.8-.06.09.09.19.14.1.19-.29.43-.54.71-.75.1-.08.21-.14.34-.19.03.2.08.39.14.53.18.48.59 1.14 1.2.93-.07.16-.13.32-.18.49zm-3.71.47c-.11.14-.39-.03-.28-.19l.89-1.37c.11.1.27.46.27.46s-.87 1.1-.88 1.1zm13.29-19.89c.01-.24 0-.47 0-.71s0-.46-.03-.7c-.02-.18-.05-.37-.07-.55-.06-.49-.24-1.94-.27-2.17-.02-.24.08-4.51.08-4.56.01-.28-.11-.55-.2-.76-.42-.98-1.39-3.05-1.44-3.11l.66.18c.33.11.44.33.58.62.07.14.91 1.66.91 1.66.12.19.25.4.33.64.06.18.1.39.08.62-.03.37-.2.8-.62 1.3-.03.04-.03.04-.02.18.02.33.44 6.52.46 7.25-.01 0-.02.01-.03.01-.11.03-.31.09-.42.11zm-2-1.17v-.03c.03-.95.03-1.92.02-2.86-.01-1-.02-2.03.03-3.04.02-.52.05-1.1-.13-1.64-.2-.63-.64-1.14-1.08-1.61a31.14 31.14 0 0 0-2.02-1.96c.02-.01.27-.08.37-.11.09.09.16.15.25.25.26.26.55.5.86.69.37.22 1.16.76 1.46.17.1-.2.08-.43.06-.64-.01-.11-.02-.42-.05-.55.07.08.45.85.45.85.06.14-.06.38-.13.5-.19.28-.48.35-.8.35-.11 0-.24.01-.34-.06-.1-.06-.19.09-.09.15.13.08.28.08.42.08.25 0 .5-.02.72-.17.18-.13.32-.33.38-.54.31.66.61 1.33.89 1.99.09.2.19.43.18.66 0 .05-.1 4.33-.08 4.59.03.3.35 2.79.35 2.8-.29.04-1.04.13-1.72.14zm-4.38-.71.05-2.62.39-1.61.25 1.49-.68 2.73zm4.17-5.55c-.01 0-.03 0-.04.01-.73.32-1.22.25-1.78.16-.06-.01-.16-.04-.18.05-.03.1.09.12.16.13.26.04.51.08.77.08.32 0 .66-.06 1.07-.23 0 .05 0 .1-.01.14-.04 1.01-.03 2.05-.03 3.05.01.99.02 2.01-.03 3.01-.15.72-.39 1.39-.5 1.44-.3.03-.66.05-1.07.05-.97 0-2.03-.09-2.57-.14l.02-1.01.96-3.86c0-.02.01-.03 0-.05l-.35-2.13s.81-3.36.82-3.37c.04-.16-.21-.23-.26-.06l-.83 3.42-.54 2.22c0 .01 0 .02-.01.03l-.07 3.77-.03 1.75c-.01-.01-1.99-.01-1.99-.01.01-2.16.06-5.41.18-5.91l.97-6.4c.05-.25.31-.4.65-.51.08-.03.25-.08.25-.08l1.14-.32s.26.23.38.34c.61.55 1.2 1.13 1.76 1.72.42.45.84.93 1.02 1.51.12.39.14.81.12 1.23zM9.65 39.39c0 .01.15.76.45 1.04l.04.04c.01.01-.09.06-.1.07a.499.499 0 0 1-.33-.11c-.09-.08-.28-.3-.34-.38a.13.13 0 0 0-.23.07c-.06.52-.6 1.93-.87 1.91-.35-.05-.76-.33-.99-.67-.1-.16-.17-.34-.17-.53 0-.16.03-.33.05-.5.04-.34.09-.68.16-1.02.04-.22.09-.43.15-.65.04-.13.08-.28.17-.38h1.59c.06-.01.2.39.22.43.08.22.14.45.2.68zm-2.26-1.82s1.98.01 1.99 0l-.01.46H7.39v-.46zm6.19-12.56c-.22.24-.88-.21-1.06-.32-.41-.25-.75-.57-.96-.79-.01-.01-.15-.17-.18-.2 0-.01.12-.63.13-.69.17.1.47.2.53.22a1.956 1.956 0 0 0 1.47-.07c.04.35.23 1.68.06 1.85zm-2.41-2.68c.01-.05.01-.11.01-.16 0-.07-.01-.17-.05-.27-.09-.2-.14-.31 0-.52.11-.16.23-.33.25-.53.02-.19-.06-.37-.13-.53-.07-.16-.13-.3-.09-.43.08-.22.2-.37.22-.62.01-.07-.02-.64-.11-.64l3.51.1c.2.48.28 1 .24 1.5-.02.3-.08.6-.17.88-.32 1-1.12 2.05-2.28 1.96-.51-.04-1.01-.33-1.4-.73zm-.54.55-1.77-.09c-.01-.25.13-.48.28-.73.12-.2.25-.41.3-.65.04-.2.02-.41 0-.61s-.04-.39.01-.58c.06-.24.21-.45.31-.67.09-.19.13-.46.17-.75.02-.15.05-.3.08-.45.02-.11-.15-.15-.17-.03-.03.15-.06.31-.08.46-.04.27-.09.53-.16.7-.1.24-.26.45-.32.71-.05.21-.03.43-.01.63.02.2.04.38 0 .56-.04.2-.16.4-.27.59-.15.25-.31.51-.3.81l-.7-.04c-.09-.29.12-.65.31-.97.1-.16.25-.31.31-.5.07-.22.02-.44-.03-.65-.09-.35-.17-.65.24-.97.46-.36.36-.74.25-1.11-.16-.56-.35-1.26 1.32-2.41.68-.47 1.42-.57 1.92-.57.9 0 1.67.32 1.83.62.02.03.05.06.08.07.01 0 .66.17 1.08.6.38.39.58.98.57 1.64l-.42-.01c-.09-.59-.49-1.26-1.04-1.73-.08-.07-.21.06-.11.13.51.42.89 1.05.97 1.59l-4.23-.12c-.11 0-.17.12-.11.21.13.18.2.42.19.65-.01.24-.14.38-.21.59-.07.22.02.43.1.62.06.14.12.27.11.4-.02.16-.13.29-.21.42-.18.3-.16.51-.1.63.05.11.11.17.11.3 0 .26-.11.52-.29.71zm6.29 5s.15.24.16.24c-.03.53-.08 1.06-.13 1.6-.02.17.24.19.26.03.06-.58.11-1.18.14-1.76l2.17-2.78 1.65.74.13.06.04.02s-3.03 4.74-3.16 4.92c-.14.19-.18.31-.35.37-.17.06-.35.03-.5-.06l-.89-.6c-.04-.62-.11-1.66-.11-1.66.33-.41.51-.77.6-1.1zm.01-3.63 1.78-5.29 4.38.34s-1 3.13-1 3.14c-.1-.02-.31.01-.33.01-.58.08-.71.34-.73.5-.16 1.01-.51 1.25-.77 1.42-.06.04-.11.08-.16.12-.04.03-.08.08-.1.13l-3.07-.35zm6.4-4.97 3.27-.7-2.36 5.47-1.72.45c.04-.14.08-.28.09-.36.03-.55-.03-1.01-.19-1.42a.533.533 0 0 0-.13-.2l1.06-3.24zm-.99 4.84c-.01.1-.11.42-.2.63-.07.16-.29.35-.51.53-.16.13-.31.26-.42.39l-1.04-.49c-.05-.2-.01-.42.09-.51.04-.03.09-.06.14-.1.28-.19.71-.47.88-1.6.02-.14.21-.24.51-.28.02 0 .03 0 .03-.01.18-.04.29-.01.34.11.15.38.2.8.18 1.31zm54.18 35.66h-8.26c1.42-.44 2.44-1.65 2.44-3.06v-2.04c0-1.36-.95-2.53-2.3-3.01h.1c.3 0 .53-.24.53-.55 0-.3-.24-.54-.53-.54h-.01l-.02-.02c-.79-.84-.8-5.39-.03-6.46.29-.01.52-.25.52-.55 0-.19-.1-.36-.25-.46l.01-2.18c.03.18.06.29.06.3.04.12.15.1.25.11-.04.44.04.87.17 1.29.02.06.05.14.1.2.05.05.1.08.15.1l.24 1.24c.08.43.75.33.7-.1l-.07-.73c.14.12.25.28.35.44.14.22.28.45.52.58.18.1.38.11.55.12.54.02 1.09-.04 1.61-.18.07-.02.18-.05.26-.15.07-.09.09-.21.1-.3.05-.38.06-.76-.17-1.02-.18-.21-.44-.25-.67-.29-.13-.02-.25-.04-.35-.08-.22-.09-.4-.36-.54-.66-.1-.21-.35-.84-.4-.93-.02-.04-.01-.13-.01-.12 0-.45-.12-.93-.18-1.38-.08-.59-.15-1.06-.18-1.71 0-.02-.04-.89-.06-1.63-.06-2.35-.14-4.52-.32-5.39-.11-.51-.58-.81-1.02-1.02-.33-.15-.68-.25-1.03-.36-.55-.18-2.32-.74-2.65-.83-.06-.02-1.84-.5-1.84-.5.03-.43.12-1.1.18-1.52.13.19.34.32.58.32.08 0 .15-.01.23-.04l1.04-.37s1.57.31 1.58.31c.02 0 2.57-1.17 2.57-1.17.04-.02.06-.05.07-.09l.24-1.12h.04c.08-.01.21-.12.23-.2.1-.38.2-1.41.26-2.2 0-.03 0-.07-.01-.1l.66-3.16a.13.13 0 0 0-.05-.13c-.04-.03-.09-.04-.13-.02l-2.88 1.27-4.26-.85c-.04-.01-.07 0-.1.02s-.05.05-.05.09l-.06.39c-.04-.09-.07-.17-.1-.25-.21-.65-1.16-.68-1.34-.68-.04 0-.11.01-.11.01l-.02-.28c.71-.09 1.32-.63 1.72-1.54.09-.21.18-.44.25-.68.27-.12.47-.39.5-.7a.875.875 0 0 0-.25-.68c.03-.36.03-.69 0-.97.11-.2.13-.43.06-.67-.13-.46-.57-.87-.92-1.03-.02-.01-.04-.04-.07-.07-.18-.22-.61-.71-1.55-.97-.91-.25-1.73-.17-2.39.23-.5-.31-1.17-.39-1.73-.2-.86.28-1.38 1.06-1.45 2.21-.03.41 0 .85.07 1.42.02.15.05.31.08.46.07.38.15.77.07 1.12-.13.58-.73.96-1.22 1.17-.11.05-.1.2.01.24.54.21 1.05.31 1.51.31.15 0 .29-.01.43-.03.72-.11 1.34-.52 1.63-1.08.1-.2.16-.4.2-.62.08.08.16.15.25.23.16.3.37.6.61.86a4.35 4.35 0 0 1-.32 1.19l-1.29.5c-.39.13-1.2.4-1.23 1.15 0 0-1 5.94-1 5.95-.08.47.39.89.77 1.09.04.02.46.21.48.17-.07.18-.15.41-.23.66-.11.34-.23.69-.32.88-.47.97-.9 2-.6 2.99.11.36.31.69.57.96.19.21.41.38.65.53h-2.93c0-.03.01-.05.01-.08 0-.29-.22-.52-.5-.55 0-.01 0-.01-.01-.01-.83-.85-.83-5.46-.04-6.54.3 0 .54-.25.54-.56 0-.3-.25-.55-.55-.55h-9.78c.04-.53-.02-1.1-.17-1.61l.99-.28c.81-.23 1.32-1.08 1.21-1.9-.12-.87-.86-1.55-1.74-1.55-.04 0-.08 0-.12.01.42-.23.76-.5.9-.79a.71.71 0 0 0 .01-.65l-2.03-5.75c-.2-.71-.77-1.26-1.49-1.42l-2.18-.49v-.14c.6-.39 1.05-1.02 1.26-1.8.52-.1.67-.79.68-.87.07-.31.17-.77-.25-.92-.02-.01-.03-.01-.05-.01l.13-1.56c0-.71-.5-1.64-1.06-1.76 0-.08-.03-.15-.07-.21-.11-.19-.36-.31-.59-.3-.12.01-.23.05-.31.12a.886.886 0 0 0-.72-.35c-.25 0-.49.1-.65.27-.13.13-.38.12-.62.1-.11-.01-.22-.01-.32-.01-.89 0-1.76 1.2-1.76 2.1l.1 1.65a.48.48 0 0 0-.31.23c-.08.14-.14.39.03.8.04.15.23.74.58.74.18.73.56 1.32 1.07 1.7v.14c-.16.06-.39.12-.66.19-.56.15-1.26.33-1.74.6-.41.23-.81.77-.89.88-.01.01-2.27 4.64-2.58 5.21-.08.16-.18.65-.12 1.14.03.3.13.54.27.8-.01-.02-.34.16-.37.18-.12.07-.23.16-.34.26-.64.62-.7 1.66-.15 2.36.21.27.5.47.82.57l.4.13c-.38.59-.52 1.42-.37 2.21h-4.14c-2.09 0-3.78 1.5-3.78 3.34v2.11c0 1.2.72 2.25 1.79 2.84h-4.76c-.3 0-.53.17-.53.39s.23.38.53.38h.03c.33.32.54 1.19.52 2.12-.02.85-.33 1.64-.59 1.77-.28.02-.49.18-.49.39 0 .05.01.1.04.14h-1.72a.39.39 0 0 0-.39.39v4.34c0 .21.17.39.39.39h1.48c-1.04.58-1.74 1.63-1.74 2.82v2.09c0 1.36.9 2.53 2.18 3.04-.2.08-.33.27-.33.5 0 .3.24.53.53.53h.1c.76.96.78 5.36.06 6.38h-.16c-.3 0-.53.2-.53.5 0 .15.06.28.16.38h-3.67c.07-.09.1-.2.13-.28.13-.46.22-.93-.03-1.28-.3-.42-.86-.43-1.29-.61a.799.799 0 0 1-.28-.2c-.13-.14-.22-.33-.3-.56-.13-.37-.28-.75-.38-1.13l-.06-.25c-.01-.05-.12-.36-.09-.39.02-.02.03-.05.04-.08l1.23-9.81.01-.06c.15-1.01.57-3.95.78-6.51.01-.06.01-.13.01-.19.05-.64.1-1.84.09-1.85.02-.01.16-.05.17-.05a.13.13 0 0 0 .11-.13c0-.52-.18-3.24-.33-5.42l.72.49c.22.15.51.18.76.09.23-.09.37-.3.49-.51 0 0 3.21-4.99 3.22-5 .04-.07.02-.16-.06-.19l-.13-.06c.09-.1.22-.2.34-.3.24-.2.49-.41.58-.63.01-.02.01-.03.02-.05l1.96-.51a.16.16 0 0 0 .09-.07s2.48-5.74 2.48-5.76c.04-.09-.04-.2-.15-.18l-3.59.77-4.58-.36a.113.113 0 0 0-.13.09s-1.86 5.53-1.86 5.55c-.03.08.03.16.11.17l3.17.36c-.01.07-.02.15-.01.23l-.36-.16a.142.142 0 0 0-.16.04l-2.21 2.83s-.19-.3-.2-.31c-.04-.07-.02-.3-.03-.39-.03-.13-.07-.26-.12-.38-.1-.24-.26-.46-.39-.69-.13-.23-.68-1.23-.81-1.49-.15-.3-.3-.61-.74-.75l-1.07-.29-.05-.44c.12-.07.23-.15.33-.24l.94.15c.15 0 .18-.23.02-.26l-.73-.12c.08 0 .32-.41.35-.47.17-.28.31-.59.41-.9.09-.3.16-.62.18-.94.04-.51-.04-1.03-.22-1.52l.67.02c.12.28.03.5-.1.75-.22.41-.24.71.01 1.11.1.16.17.33.14.53-.02.2-.15.39-.09.6.05.17.2.29.28.45.02.04.15.55.09.55l-.39-.02c-.16-.01-.19.25-.01.26l.5.03h.01c.06 0 .11-.04.13-.1.06-.22.05-.45-.02-.67-.07-.22-.27-.37-.33-.58-.06-.22.09-.41.11-.62.02-.21-.09-.4-.2-.57-.2-.31-.18-.52 0-.85.15-.28.26-.56.16-.87.06 0 .12-.06.12-.12.05-.78-.19-1.49-.64-1.96-.4-.42-.97-.61-1.15-.66-.26-.4-1.13-.71-2.03-.71-.54 0-1.33.11-2.07.62-1.82 1.26-1.59 2.09-1.42 2.7.1.36.16.58-.16.83-.54.42-.43.87-.33 1.24.05.19.09.36.04.5-.06.16-.21.3-.29.45-.23.38-.51.86-.29 1.29.02.04.06.07.11.07l2.78.14h.01c.03 0 .07-.01.09-.03.14-.13.25-.3.32-.48.07.06.13.12.2.17-.02.09-.15.79-.17.93 0 0-1.34.38-1.86.54-.48.14-.89.34-.97.76l-.97 6.4c-.18.72-.19 6.48-.19 6.73 0 .03.01.07.04.09.02.02.06.04.09.04h.09c-.29.6-.44 1.99-.47 2.33-.07.28 0 .58.2.88.14.21.32.39.53.53.19.12.44.26.67.26.49 0 .92-1.27 1.07-1.86.06.07.13.15.2.21.03.02.22.1.22.11.04.3.11 1.05.11 1.05.09.96.14 1.87.16 2.79 0 .17.27.16.26-.01-.02-.92-.07-1.84-.16-2.81 0 0-.07-.73-.1-.97.06 0 .11 0 .15-.03.1-.06.21-.15.22-.27.01-.11-.06-.2-.13-.26-.18-.17-.33-.68-.37-.9-.01-.07-.19-.74-.37-1.06.05-.01.09-.06.09-.12l.02-1.2c.56.06 1.61.14 2.58.14.43 0 .8-.02 1.1-.05.31-.03.55-.84.71-1.56.69-.01 1.45-.1 1.77-.14.01.39.01.97 0 1.11-.01.13.11.2.23.2.06 0 .14-.01.21-.03-.08 2.77-.7 7.16-.89 8.44-.01.05-.01.07-.01.07l-1.21 9.68-2.4-.25.34-6.85c.07-.1 1.27-1.77 1.29-1.83.14-.29.34-1.08.62-2.47.07-.33.46-2.43.58-3.11.08-.43.35-1.93.41-2.22.03-.17-.22-.22-.26-.05-.06.29-.33 1.79-.41 2.22-.12.68-.52 2.78-.58 3.11-.27 1.34-.47 2.14-.6 2.41-.01.03-5 7.08-5.05 7.15 0 0-.55.78-.61.86-.01-.01-.41-.26-.62-.43-.21-.17-.81-.77-.94-.85 0 0-.01 0-.01-.01s2.2-4.3 2.41-4.69c.07-.13.94-1.73 1.01-1.83.21-.35.41-.67.6-.93.1-.14-.12-.29-.21-.15-.19.27-.4.59-.61.94-.07.11-.95 1.72-1.02 1.85l-2.45 4.78c-.04 0-.08-.01-.13-.01-.3 0-.62.09-.89.24-.48.28-.88.76-1.22 1.48-.03.06-.06.13-.07.2-.01.01-1.03 1.57-1.03 1.57-.12.18-.06.43.13.57.08.05.16.08.25.08.13 0 .25-.05.32-.15l.79-.99c.07.19.1.38.1.56 0 .17-.03.34-.06.52-.06.32-.12.65 0 .97.09.24.26.43.42.58.51.5 1.1.93 1.74 1.27.09.05.2.1.31.1h.04c.14-.02.26-.1.34-.17.38-.29.73-.63.74-1.06.01-.34-.2-.59-.39-.83a2.07 2.07 0 0 1-.28-.4c-.27-.56.05-1.24.27-1.76.13-.3.27-.57.43-.85.27-.45.56-.88.86-1.31.05-.07.7-.99.81-1.15l2.69-3.81-.32 6.56c0 .06.04.11.09.13a1.6 1.6 0 0 0-.38.54c-.22.5-.26 1.12-.11 1.9.01.05.02.13.06.2l.11 1.87c.03.41.64.52.82.16.04-.08.04-.18.05-.27.02-.38.03-.77.05-1.15.19.11.34.29.46.47.12.19.21.39.32.59.14.27.32.54.6.66H.12c-.07 0-.13.06-.13.13s.06.13.13.13h76.41c.07 0 .13-.06.13-.13s-.06-.13-.13-.13z" />
        </g>
    </g>
</svg>