<svg xmlns="http://www.w3.org/2000/svg" xml:space="preserve" width="115.363" height="113.386" style="shape-rendering:geometricPrecision;text-rendering:geometricPrecision;image-rendering:optimizeQuality;fill-rule:evenodd;clip-rule:evenodd" viewBox="0 0 70.85 69.64">
    <g id="Camada_x0020_1">
        <g id="_1486468311360">
            <path style="fill:#e0e1e2" d="M15.6 24.38c-.49.51-.48 1.32.03 1.82.51.49 1.32.48 1.82-.03.49-.51.48-1.32-.03-1.82-.51-.49-1.32-.48-1.82.03zm-.64-1.6c.23-.14.47-.24.72-.31l.15-.71 1.2-.02.17.7c.25.06.5.16.73.29l.61-.4.86.83-.38.62c.14.23.24.47.31.72l.71.15.02 1.2-.7.17c-.06.25-.16.5-.29.73l.4.61-.83.86-.62-.38c-.23.14-.47.24-.72.31l-.15.71-1.2.02-.17-.7c-.25-.06-.5-.16-.73-.29l-.61.4-.86-.83.38-.62a2.85 2.85 0 0 1-.31-.72l-.71-.15-.02-1.2.7-.17c.06-.25.16-.5.29-.73l-.4-.61.83-.86.62.38z" />
            <path style="fill:#e0e1e2" d="M15.6 24.38s.07-.09.24-.21a1.305 1.305 0 0 1 1.41 0c.18.12.35.29.46.52a1.333 1.333 0 0 1 .13.76c-.03.27-.16.53-.36.74-.2.2-.46.34-.73.38a1.342 1.342 0 0 1-.76-.09c-.23-.1-.41-.26-.54-.44-.13-.18-.19-.38-.22-.56a1.259 1.259 0 0 1 .37-1.09c.01.01-.08.08-.18.26-.1.17-.2.47-.14.82.03.18.1.37.22.53.12.17.3.32.51.42.11.05.22.08.35.1.12.02.25.02.37-.01.25-.04.5-.17.69-.36.19-.2.31-.45.34-.7.02-.13.02-.25-.01-.37-.02-.12-.06-.24-.11-.34-.1-.21-.26-.38-.43-.5-.17-.12-.37-.18-.54-.2-.36-.04-.65.07-.82.17-.17.11-.25.19-.25.19z" />
            <path style="fill:#e0e1e2" d="M14.96 22.78s-.01-.01-.04-.02c-.03-.02-.07-.04-.12-.07-.11-.06-.26-.16-.47-.28h.01c-.21.22-.49.51-.83.87v-.02l.4.6.01.01-.01.01a2.7 2.7 0 0 0-.28.72v.01h-.01c-.22.05-.46.11-.7.17l.02-.03c.01.38.02.78.02 1.2l-.02-.03c.22.05.46.1.71.15h.02l.01.02c.07.23.17.48.31.71l.01.02-.01.02c-.12.19-.24.4-.37.62l-.01-.04.86.83h-.04c.19-.12.4-.26.6-.4l.02-.01.02.01c.21.12.46.22.72.28l.02.01.01.02c.05.22.11.46.17.7l-.04-.03c.38-.01.79-.01 1.2-.02l-.04.03c.05-.22.1-.47.15-.71v-.02l.02-.01c.24-.07.48-.17.71-.31l.02-.01.02.01c.21.13.41.25.62.38l-.05.01.83-.86v.05l-.4-.61-.01-.02.01-.02c.13-.23.22-.47.28-.72l.01-.02.02-.01c.24-.06.47-.12.7-.17l-.03.03c-.01-.41-.01-.81-.02-1.2l.03.03c-.24-.05-.48-.1-.71-.15h-.02l-.01-.02c-.07-.25-.18-.49-.31-.71l-.01-.02.01-.02c.13-.21.25-.42.38-.62v.04l-.86-.83h.04c-.21.14-.41.27-.61.4l-.01.01-.01-.01c-.24-.14-.48-.23-.72-.29h-.01v-.01c-.06-.26-.12-.49-.17-.7l.02.02c-.46.01-.86.01-1.2.02l.02-.01c-.06.28-.11.51-.15.71v.01h-.01a3.048 3.048 0 0 0-.68.28c-.03.02-.04.02-.04.02s.01-.01.04-.03c.03-.02.07-.04.13-.07.11-.06.29-.15.55-.22l-.01.01c.04-.19.09-.43.14-.71v-.01h.01c.34-.01.73-.02 1.2-.03h.02v.02c.05.22.11.45.17.7l-.02-.02c.24.06.49.15.73.29h-.03c.19-.13.39-.26.6-.4l.02-.01.02.02.86.83.02.02-.01.02c-.12.2-.25.41-.37.62v-.03c.13.22.24.46.32.72l-.03-.02c.23.05.47.1.71.15l.03.01v.03c.01.39.01.79.02 1.2v.03l-.03.01c-.23.06-.47.11-.7.17l.03-.03c-.06.25-.16.5-.29.74v-.04c.13.2.26.4.4.61l.02.02-.02.02-.83.86-.02.02-.03-.02c-.2-.12-.41-.25-.62-.37h.04c-.23.14-.48.25-.72.31l.03-.03c-.05.24-.1.48-.15.71l-.01.03h-.03c-.41.01-.82.01-1.2.02h-.03l-.01-.03c-.06-.24-.12-.48-.17-.7l.03.03a3.26 3.26 0 0 1-.74-.29h.04c-.21.14-.42.27-.61.4l-.02.02-.02-.02-.86-.83-.02-.02.01-.02c.13-.22.26-.43.38-.62v.03c-.14-.24-.25-.49-.31-.72l.02.02c-.25-.05-.49-.1-.71-.15h-.02v-.02c-.01-.42-.01-.82-.02-1.2v-.02h.02c.25-.06.48-.12.7-.17l-.02.02c.07-.27.17-.52.29-.73v.02c-.14-.22-.27-.42-.39-.61l-.01-.01.01-.01c.34-.35.62-.64.84-.86l.01-.01h.01c.2.12.35.22.46.28.05.03.09.06.12.07.03.02.04.03.04.03z" />
            <path style="fill:#f3f4f4" d="M50.5 32.24c-.3.31-.29.79.02 1.09.31.3.79.29 1.09-.02.3-.31.29-.79-.02-1.09a.764.764 0 0 0-1.09.02zm-.38-.95c.14-.08.28-.14.43-.19l.09-.42.72-.01.1.42c.15.04.3.09.43.17l.36-.24.52.5-.22.37c.08.14.14.28.19.43l.42.09.01.72-.42.1c-.04.15-.09.3-.17.43l.24.36-.5.52-.37-.22c-.14.08-.28.14-.43.19l-.09.42-.72.01-.1-.42c-.15-.04-.3-.09-.43-.17l-.36.24-.52-.5.22-.37c-.08-.14-.14-.28-.19-.43l-.42-.09-.01-.72.42-.1c.04-.15.09-.3.17-.43l-.24-.36.5-.52.37.22z" />
            <path style="fill:#f3f4f4" d="M50.5 32.24s.04-.06.14-.13a.77.77 0 0 1 .84 0c.11.07.21.18.28.31.03.07.06.14.07.22.01.08.02.16 0 .24-.02.16-.1.32-.21.44-.12.12-.28.2-.44.23-.08.01-.16.02-.24 0a.794.794 0 0 1-.22-.06.834.834 0 0 1-.32-.26.686.686 0 0 1-.13-.34.83.83 0 0 1 .1-.51c.07-.11.12-.15.12-.15s-.05.05-.11.16a.77.77 0 0 0-.09.49c.02.11.06.22.13.32a.78.78 0 0 0 .74.31c.15-.02.3-.1.41-.22a.784.784 0 0 0 .2-.64.664.664 0 0 0-.06-.2.768.768 0 0 0-.26-.3.764.764 0 0 0-.81-.02c-.1.06-.15.12-.15.11z" />
            <path style="fill:#f3f4f4" d="M50.12 31.28s-.01 0-.02-.01c-.02-.01-.04-.02-.07-.04-.06-.04-.16-.09-.28-.16h.01c-.13.13-.29.31-.5.52v-.01c.07.11.15.23.24.36v.02c-.07.13-.13.27-.17.43v.01h-.01c-.13.03-.27.07-.42.1l.01-.02c0 .23.01.47.01.72l-.01-.02c.13.03.28.06.42.09h.01v.01c.04.14.1.29.19.42l.01.01-.01.01c-.07.11-.15.24-.22.37v-.02c.16.16.34.32.52.5h-.03c.11-.07.24-.16.36-.24l.01-.01.01.01c.13.07.27.13.43.17h.01v.01c.03.13.07.28.1.42l-.02-.02c.23 0 .47-.01.72-.01l-.02.02c.03-.13.06-.28.09-.42v-.01h.01c.14-.04.29-.1.42-.18l.01-.01.01.01c.12.08.25.15.37.22h-.03c.17-.17.33-.35.5-.52v.03l-.24-.36-.01-.01.01-.01c.08-.14.13-.28.17-.43v-.01h.01c.14-.03.28-.07.42-.1l-.02.02c0-.24-.01-.48-.01-.72l.02.02c-.14-.03-.29-.06-.42-.09h-.01v-.01a1.97 1.97 0 0 0-.18-.42l-.01-.01.01-.01c.08-.13.15-.25.23-.37v.02c-.18-.18-.35-.34-.51-.5h.02c-.13.08-.25.16-.36.24l-.01.01h-.01a1.54 1.54 0 0 0-.43-.17h-.01v-.01c-.04-.15-.07-.29-.1-.42l.01.01c-.28 0-.51.01-.72.01l.01-.01a8.7 8.7 0 0 0-.09.42 1.4 1.4 0 0 0-.33.13c-.03.02-.06.03-.08.04-.02.01-.03.01-.03.01l.02-.02c.02-.01.04-.03.08-.04.07-.04.18-.09.33-.13v.01c.02-.12.05-.26.09-.43v-.01h.01c.2 0 .44-.01.72-.02h.01v.01c.03.13.07.27.1.42l-.01-.01c.14.04.29.09.44.17h-.02c.12-.08.23-.15.36-.24l.01-.01.01.01c.16.16.33.32.52.5l.01.01-.01.01c-.07.12-.15.24-.22.37v-.02c.08.13.14.28.19.43l-.02-.01.42.09h.02v.02c0 .23.01.47.01.72v.02h-.02c-.14.03-.28.07-.42.1l.02-.02c-.04.15-.09.3-.17.44v-.02l.24.36.01.01-.01.01c-.16.17-.33.34-.5.52l-.01.01-.01-.01c-.12-.07-.25-.15-.37-.22h.02c-.14.08-.29.15-.43.19l.02-.02c-.03.15-.06.29-.09.42v.02h-.02c-.25 0-.49.01-.72.01h-.02v-.02c-.04-.15-.07-.29-.1-.42l.02.02c-.16-.04-.31-.1-.44-.17h.02c-.13.08-.25.16-.36.24l-.01.01-.01-.01c-.18-.17-.35-.34-.52-.5l-.01-.01.01-.01c.08-.13.16-.26.22-.37v.02c-.09-.14-.15-.29-.19-.43l.01.01c-.15-.03-.29-.06-.42-.09h-.01v-.01c0-.25-.01-.49-.01-.72v-.01h.01c.15-.04.29-.07.42-.1l-.01.01c.04-.16.1-.31.17-.44v.01c-.09-.13-.16-.25-.24-.36v-.01l.01-.01c.2-.21.37-.38.5-.51.12.07.21.13.27.17.03.02.05.03.07.04.02.01.02.02.02.02zM56.24 6.19a.993.993 0 0 0 .02 1.4c.39.38 1.02.37 1.4-.02a.993.993 0 0 0-.02-1.4.993.993 0 0 0-1.4.02zm-.49-1.23c.17-.11.36-.19.55-.24l.11-.55.92-.02.13.54c.19.05.38.12.56.22l.47-.31.66.64-.29.48c.11.17.19.36.24.55l.55.11.02.92-.54.13c-.05.19-.12.38-.22.56l.31.47-.64.66-.48-.29c-.17.11-.36.19-.55.24l-.11.55-.92.02-.13-.54c-.19-.05-.38-.12-.56-.22l-.47.31-.66-.64.29-.48c-.11-.17-.19-.36-.24-.55l-.55-.11-.02-.92.54-.13c.05-.19.12-.38.22-.56l-.31-.47.64-.66.48.29z" />
            <path style="fill:#f3f4f4" d="M56.24 6.19s.05-.07.18-.16a.98.98 0 0 1 .65-.15c.14.02.3.06.44.16.14.09.27.23.36.4.04.08.07.18.09.28.02.1.02.2.01.3-.03.21-.12.41-.27.57-.15.16-.36.26-.56.3-.1.02-.21.02-.3.01a.9.9 0 0 1-.28-.08.99.99 0 0 1-.41-.34.99.99 0 0 1-.04-1.08c.08-.14.16-.19.16-.19.01 0-.06.06-.14.2-.07.13-.15.36-.11.63.02.14.07.28.17.41.1.13.23.25.4.32.08.04.17.06.27.07a.983.983 0 0 0 .82-.29c.14-.15.24-.34.26-.54.01-.1.01-.2 0-.29a.786.786 0 0 0-.08-.26c-.08-.16-.2-.29-.33-.38a.989.989 0 0 0-.42-.16c-.28-.03-.5.05-.63.13s-.19.15-.2.14z" />
            <path style="fill:#f3f4f4" d="M55.75 4.96s-.01 0-.03-.02c-.02-.01-.05-.03-.09-.05-.08-.05-.2-.12-.36-.21h.01c-.16.17-.38.4-.64.67v-.02c.09.14.2.3.31.47l.01.01v.01c-.09.16-.17.35-.22.56v.01h-.01c-.17.04-.35.09-.54.13l.02-.02c.01.29.01.6.02.92l-.02-.02c.17.03.36.07.55.11h.01v.01c.05.18.13.37.24.55l.01.01-.01.01c-.09.15-.19.31-.29.48v-.03c.21.2.43.42.67.64h-.03c.15-.1.3-.2.47-.31l.01-.01.01.01c.16.09.35.17.55.22h.02v.02c.04.17.09.35.13.54l-.03-.02c.29-.01.61-.01.92-.02l-.03.02c.04-.17.07-.36.11-.55v-.02h.02c.18-.05.37-.13.54-.24l.02-.01.01.01c.16.1.32.19.48.29h-.03c.22-.22.43-.45.64-.66v.04c-.1-.16-.2-.31-.31-.47l-.01-.01.01-.01c.1-.18.17-.36.22-.55v-.02h.02c.18-.04.36-.09.54-.13l-.02.03c-.01-.32-.01-.62-.02-.92l.02.03c-.19-.04-.37-.08-.55-.11h-.02v-.01c-.06-.2-.14-.38-.24-.55l-.01-.01.01-.01c.1-.16.2-.32.29-.48v.03c-.23-.23-.45-.44-.66-.64h.03c-.16.11-.32.21-.47.3l-.01.01-.01-.01c-.19-.1-.37-.17-.55-.22h-.01v-.01c-.05-.2-.09-.37-.13-.54l.02.01c-.36 0-.66.01-.92.01l.01-.01c-.05.22-.09.4-.12.55v.01h-.01c-.2.05-.33.12-.42.16l-.1.05c-.02.01-.03.02-.03.02s.01-.01.03-.02c.02-.01.05-.03.1-.06.09-.05.23-.11.42-.17l-.01.01c.03-.15.07-.33.11-.55v-.01h.01c.26-.01.57-.01.92-.02h.01v.01c.04.17.09.34.13.54l-.01-.01c.19.05.38.12.57.22h-.02c.15-.1.3-.2.47-.31l.01-.01.01.01.67.64.01.01-.01.02c-.09.15-.19.31-.29.48v-.03c.1.17.19.36.24.56l-.02-.02c.18.04.36.07.55.11h.02v.02c.01.3.01.61.02.92v.02l-.02.01c-.18.04-.36.09-.54.13l.02-.02c-.05.19-.12.39-.22.57v-.03c.1.15.2.31.31.47l.01.02-.02.02c-.21.22-.42.44-.64.66l-.02.02-.02-.01c-.16-.1-.32-.19-.48-.29h.03c-.18.11-.37.19-.56.24l.02-.02c-.04.19-.08.37-.11.55v.02h-.02c-.32.01-.63.01-.92.02h-.02l-.01-.02c-.05-.19-.09-.37-.13-.54l.02.02c-.21-.05-.4-.13-.57-.22h.03c-.16.11-.32.21-.47.31l-.02.01-.02-.01c-.23-.22-.45-.44-.66-.64l-.01-.01.01-.02c.1-.17.2-.33.29-.48v.03c-.11-.18-.19-.38-.24-.56l.02.02c-.19-.04-.38-.08-.55-.11h-.02v-.02c0-.32-.01-.63-.01-.92v-.02h.02c.19-.05.37-.09.54-.13l-.01.01c.05-.21.13-.4.22-.56v.02c-.11-.17-.21-.33-.3-.47l-.01-.01.01-.01c.26-.27.48-.49.64-.66l.01-.01h.01c.15.09.27.17.35.22.04.02.07.04.09.06.02.01.03.02.03.02zM41.06 10.01c-.3.31-.29.79.02 1.09.31.3.79.29 1.09-.02.3-.31.29-.79-.02-1.09a.764.764 0 0 0-1.09.02zm-.38-.95c.14-.08.28-.14.43-.19l.09-.42.72-.01.1.42c.15.04.3.09.43.17l.36-.24.52.5-.22.37c.08.14.14.28.19.43l.42.09.01.72-.42.1c-.04.15-.09.3-.17.43l.24.36-.5.52-.37-.22c-.14.08-.28.14-.43.19l-.09.42-.72.01-.1-.42c-.15-.04-.3-.09-.43-.17l-.36.24-.52-.5.22-.37c-.08-.14-.14-.28-.19-.43l-.42-.09-.01-.72.42-.1c.04-.15.09-.3.17-.43l-.24-.36.5-.52.37.22z" />
            <path style="fill:#f3f4f4" d="M41.06 10.01s.04-.06.14-.13a.77.77 0 0 1 .84 0c.11.07.21.18.28.31.03.07.06.14.07.22.01.08.02.16 0 .24-.02.16-.1.32-.21.44-.12.12-.28.2-.44.23-.08.01-.16.02-.24 0a.794.794 0 0 1-.22-.06.834.834 0 0 1-.32-.26.686.686 0 0 1-.13-.34.83.83 0 0 1 .1-.51c.07-.11.12-.15.12-.15s-.05.05-.11.16c-.06.1-.12.28-.08.49.02.11.06.22.13.32a.78.78 0 0 0 .74.31c.15-.02.3-.1.41-.22a.784.784 0 0 0 .2-.64.664.664 0 0 0-.06-.2.768.768 0 0 0-.26-.3.764.764 0 0 0-.81-.02c-.1.06-.15.12-.15.11z" />
            <path style="fill:#f3f4f4" d="M40.68 9.05s-.01 0-.02-.01c-.02-.01-.04-.02-.07-.04-.06-.04-.16-.09-.28-.17h.01c-.13.13-.29.31-.49.52v-.01c.07.11.15.23.24.36v.02c-.07.13-.13.27-.17.43v.01h-.01c-.13.03-.27.07-.42.1l.01-.02c0 .23.01.47.01.72l-.01-.02c.13.03.28.06.42.09h.01v.01c.04.14.1.29.19.42l.01.01-.01.01c-.07.12-.15.24-.22.37v-.02c.16.16.34.32.52.5h-.03c.11-.07.24-.16.36-.24l.01-.01.01.01c.13.07.27.13.43.17h.01v.01c.03.13.07.28.1.42l-.02-.02c.23 0 .47-.01.72-.01l-.02.02c.03-.13.06-.28.09-.42v-.01h.01c.14-.04.29-.1.42-.18l.01-.01.01.01c.12.08.25.15.37.22h-.03c.17-.17.33-.35.5-.52v.03l-.24-.36-.01-.01.01-.01c.08-.14.13-.28.17-.43v-.01h.01c.14-.03.28-.07.42-.1l-.02.02c0-.24-.01-.48-.01-.72l.02.02c-.14-.03-.29-.06-.42-.09h-.01v-.01a1.97 1.97 0 0 0-.18-.42l-.01-.01.01-.01c.08-.13.15-.25.23-.37v.02c-.18-.18-.35-.34-.51-.5h.02c-.13.08-.25.16-.36.24l-.01.01h-.01a1.54 1.54 0 0 0-.43-.17h-.01v-.01c-.04-.15-.07-.29-.1-.42l.01.01c-.28 0-.51.01-.72.01l.01-.01a8.7 8.7 0 0 0-.09.42 1.4 1.4 0 0 0-.33.13c-.03.02-.06.03-.08.04-.02.01-.03.01-.03.01l.02-.02c.02-.01.04-.03.08-.04.07-.04.18-.09.33-.13v.01c.02-.12.05-.26.09-.42v-.01h.01c.2 0 .44-.01.72-.02h.01v.01c.03.13.07.27.1.42l-.01-.01c.14.04.29.09.44.17h-.02c.12-.08.23-.15.36-.24l.01-.01.01.01c.16.16.34.32.52.5l.01.01-.01.01c-.07.12-.15.24-.22.37v-.02c.08.13.14.28.19.43l-.02-.01.42.09h.02v.02c0 .23.01.47.01.72v.02h-.02c-.14.03-.28.07-.42.1l.02-.02c-.04.15-.1.3-.17.44v-.02l.24.36.01.01-.01.01c-.16.17-.33.34-.5.52l-.01.01-.02-.01c-.12-.07-.25-.15-.37-.22h.02c-.14.08-.29.15-.43.19l.02-.02c-.03.15-.06.29-.09.42v.02H42c-.25 0-.49.01-.72.01h-.02v-.02c-.04-.15-.07-.29-.1-.42l.02.02c-.16-.04-.31-.1-.44-.17h.02c-.13.08-.25.16-.36.24l-.01.01-.01-.01c-.18-.17-.35-.34-.52-.5l-.01-.01.01-.01c.08-.13.16-.26.23-.37v.02c-.09-.14-.15-.29-.19-.43l.01.01c-.15-.03-.29-.06-.42-.09h-.01v-.01c0-.25-.01-.49-.01-.72v-.01h.01c.15-.04.29-.07.42-.1l-.01.01c.04-.16.1-.31.17-.44v.01c-.09-.13-.16-.25-.24-.36v-.01l.01-.01c.2-.21.37-.38.5-.51.12.07.21.13.27.17.03.02.05.03.07.04.02.01.02.02.02.02zM8.21 22.65c-.3.31-.29.79.02 1.09.31.29.79.29 1.09-.02.3-.31.29-.79-.02-1.09a.764.764 0 0 0-1.09.02zm-.38-.95c.14-.08.28-.14.43-.19l.09-.42.72-.01.1.42c.15.04.3.09.43.17l.36-.24.52.5-.22.37c.08.14.14.28.19.43l.42.09.01.72-.42.1c-.04.15-.09.3-.17.43l.24.36-.5.52-.37-.22c-.14.08-.28.14-.43.19l-.09.42-.72.01-.1-.42c-.15-.04-.3-.09-.43-.17l-.36.24-.52-.5.22-.37c-.08-.14-.14-.28-.19-.43l-.42-.09-.01-.72.42-.1c.04-.15.09-.3.17-.43L6.96 22l.5-.52.37.22z" />
            <path style="fill:#f3f4f4" d="M8.21 22.65s.04-.06.14-.13a.77.77 0 0 1 .84 0c.11.07.21.18.28.31.03.07.06.14.07.22.01.08.02.16 0 .24-.02.16-.1.32-.21.44-.12.12-.28.2-.44.23-.08.01-.16.02-.24 0a.794.794 0 0 1-.22-.06.834.834 0 0 1-.32-.26.686.686 0 0 1-.13-.34.83.83 0 0 1 .1-.51c.07-.11.12-.15.12-.15s-.05.05-.11.16c-.06.1-.12.28-.08.49.02.11.06.22.13.32a.78.78 0 0 0 .74.31c.15-.02.3-.1.41-.22a.784.784 0 0 0 .2-.64.664.664 0 0 0-.06-.2.768.768 0 0 0-.26-.3.764.764 0 0 0-.81-.02c-.1.06-.15.12-.15.11z" />
            <path style="fill:#f3f4f4" d="M7.83 21.7s-.01 0-.02-.01c-.02-.01-.04-.02-.07-.04-.06-.04-.16-.09-.28-.16h.01c-.13.13-.29.31-.49.52V22c.07.11.15.23.24.36v.02c-.07.13-.13.27-.17.43v.01h-.01c-.13.03-.27.07-.42.1l.01-.02c0 .23.01.47.01.72l-.01-.02c.13.03.28.06.42.09h.01v.01c.04.14.1.29.19.42l.01.01-.01.01c-.07.11-.15.24-.22.37v-.02c.16.16.34.32.52.5h-.03c.11-.07.24-.16.36-.24l.01-.01.01.01c.13.07.27.13.43.17h.01v.01c.03.13.07.28.1.42l-.02-.02c.23 0 .47-.01.72-.01l-.02.02c.03-.13.06-.28.09-.42v-.01h.01c.14-.04.29-.1.42-.18l.01-.01.01.01c.12.08.25.15.37.22H10c.17-.17.33-.35.5-.52v.03l-.24-.36-.01-.01.01-.01c.08-.14.13-.28.17-.43v-.01h.01c.14-.03.28-.07.42-.1l-.02.02c0-.24-.01-.48-.01-.72l.02.02c-.14-.03-.29-.06-.42-.09h-.01v-.01a1.97 1.97 0 0 0-.18-.42l-.01-.01.01-.01c.08-.13.15-.25.23-.37v.02c-.18-.18-.35-.34-.51-.5h.02c-.13.08-.25.16-.36.24l-.01.01H9.6a1.54 1.54 0 0 0-.43-.17h-.01v-.01c-.04-.15-.07-.29-.1-.42l.01.01c-.28 0-.51.01-.72.01l.01-.01a8.7 8.7 0 0 0-.09.42 1.4 1.4 0 0 0-.33.13c-.03.02-.06.03-.08.04-.02.01-.03.01-.03.01l.02-.02c.02-.01.04-.03.08-.04.07-.04.18-.09.33-.13v.01c.02-.12.05-.26.09-.43v-.01h.01c.2 0 .44-.01.72-.02h.01v.01c.03.13.07.27.1.42l-.01-.01c.14.04.29.09.44.17H9.6c.11-.08.23-.15.36-.24l.01-.01.01.01c.16.16.33.32.52.5l.01.01-.01.01c-.07.12-.15.24-.22.37v-.02c.08.13.14.28.19.43l-.02-.01.42.09h.02v.02c0 .23.01.47.01.72v.02h-.02c-.14.03-.28.07-.42.1l.02-.02c-.04.15-.1.3-.17.44v-.02l.24.36.01.01-.01.01c-.16.17-.33.34-.5.52l-.01.01-.02-.01c-.12-.07-.25-.15-.37-.22h.02c-.14.08-.29.15-.43.19l.02-.02c-.03.15-.06.29-.09.42v.02h-.02c-.25 0-.49.01-.72.01h-.02v-.02c-.04-.15-.07-.29-.1-.42l.02.02c-.16-.04-.31-.1-.44-.17h.02c-.13.08-.25.16-.36.24l-.01.01-.01-.01c-.18-.17-.35-.34-.52-.5L7 24.52l.01-.01c.08-.13.16-.26.22-.37v.02c-.09-.14-.15-.29-.19-.43l.01.01c-.15-.03-.29-.06-.42-.09h-.01v-.01c0-.25-.01-.49-.01-.72v-.01h.01c.15-.04.29-.07.42-.1l-.01.01c.04-.16.1-.31.17-.44v.01c-.09-.13-.16-.25-.24-.36l-.01-.01.01-.01c.2-.21.37-.38.5-.51.12.07.21.13.27.17.03.02.05.03.07.04.02.01.02.02.02.02z" />
            <path style="fill:#e0e1e2" d="M12.39 35.88c-.46.47-.68 1.08-.68 1.7 0 .64.25 1.28.75 1.76.47.46 1.08.68 1.7.68.64 0 1.28-.25 1.76-.75.46-.47.68-1.08.68-1.7 0-.64-.25-1.28-.75-1.76-.47-.46-1.08-.68-1.69-.68-.64 0-1.28.25-1.76.75a2.439 2.439 0 0 1 3.44-.06 2.439 2.439 0 0 1 .06 3.44 2.439 2.439 0 0 1-3.44.06 2.439 2.439 0 0 1-.06-3.44zm-1.21-3.03c.43-.26.89-.46 1.36-.59l.28-1.34 2.27-.04.33 1.33c.48.12.94.3 1.38.54l1.15-.75 1.63 1.57-.71 1.17c.26.43.46.89.59 1.36l1.34.28.04 2.27-1.33.33c-.12.48-.3.94-.54 1.38l.75 1.15-1.57 1.63-1.17-.71c-.43.26-.89.46-1.36.59l-.28 1.34-2.27.04-.33-1.33c-.48-.12-.94-.3-1.38-.54l-1.15.75-1.63-1.57.71-1.17c-.26-.43-.46-.89-.59-1.36l-1.34-.28-.04-2.27 1.33-.33c.12-.48.3-.94.54-1.38l-.75-1.15 1.57-1.63 1.17.71-1.18-.71-1.58 1.64.75 1.15c-.24.44-.43.9-.54 1.38l-1.34.33.04 2.28 1.35.28c.13.47.33.93.59 1.36l-.71 1.18 1.64 1.58 1.15-.75c.44.24.9.43 1.38.54l.33 1.34 2.28-.04.28-1.35c.47-.13.93-.33 1.36-.59l1.18.71 1.58-1.64-.75-1.15c.24-.44.43-.9.54-1.38l1.34-.33-.04-2.28-1.35-.28c-.13-.47-.33-.93-.59-1.36l.71-1.18L17.96 32l-1.15.75c-.44-.24-.9-.43-1.38-.54l-.33-1.34-2.28.04-.28 1.35c-.47.13-.93.33-1.36.59z" />
            <path style="fill:#ededeb;fill-rule:nonzero" d="M12.39 35.88s.13-.18.45-.4a2.467 2.467 0 0 1 2.67 0c.34.23.67.56.87.98.11.21.18.44.22.68.04.24.05.5.01.75-.06.51-.3 1.01-.68 1.41-.38.39-.87.65-1.38.73-.25.05-.51.05-.75.01-.24-.03-.48-.1-.69-.2a2.471 2.471 0 0 1-1.43-1.91c-.1-.71.12-1.27.32-1.6.21-.33.38-.47.38-.47.01.01-.15.16-.33.49-.18.33-.38.88-.27 1.56.06.33.18.69.42 1.01.24.32.56.61.97.79.2.09.43.15.66.18.23.03.47.03.71-.02a2.37 2.37 0 0 0 1.72-3.38 2.366 2.366 0 0 0-1.85-1.32c-.68-.08-1.23.13-1.55.32-.33.2-.47.36-.48.35z" />
            <path style="fill:#ededeb;fill-rule:nonzero" d="M11.18 32.85s-.03-.01-.08-.04c-.06-.03-.13-.07-.23-.13-.21-.12-.5-.3-.88-.52h.03c-.4.42-.93.97-1.57 1.64v-.04c.23.35.48.73.76 1.14l.01.02-.01.02c-.22.4-.41.86-.53 1.37l-.01.03-.03.01c-.42.1-.87.21-1.33.33l.04-.05c.01.72.03 1.47.05 2.27l-.04-.05c.42.09.87.18 1.34.28l.03.01.01.03c.12.44.32.9.59 1.34l.02.03-.02.03c-.22.36-.46.77-.71 1.17l-.01-.08 1.64 1.58-.08-.01c.36-.23.75-.49 1.15-.75l.03-.02.04.02c.4.22.87.41 1.36.53l.04.01.01.04c.1.42.21.87.33 1.33l-.07-.05c.72-.01 1.49-.03 2.27-.04l-.07.06c.09-.42.18-.88.28-1.34l.01-.04.04-.01c.45-.13.91-.32 1.34-.58l.04-.02.04.02c.39.24.79.48 1.17.71l-.09.01c.53-.55 1.06-1.1 1.58-1.63l-.01.09c-.25-.39-.5-.77-.75-1.15l-.02-.03.02-.04c.24-.43.42-.89.54-1.36l.01-.04.04-.01c.45-.11.9-.22 1.33-.33l-.05.07c-.01-.78-.03-1.53-.04-2.27l.05.06c-.46-.1-.9-.19-1.34-.28l-.04-.01-.01-.04c-.14-.48-.33-.93-.58-1.34l-.02-.03.02-.03c.24-.4.48-.79.71-1.17l.01.07c-.57-.56-1.12-1.08-1.63-1.58l.07.01c-.4.26-.78.51-1.15.75l-.03.02-.03-.01c-.46-.26-.92-.43-1.36-.54l-.03-.01-.01-.03c-.12-.49-.22-.92-.32-1.33l.04.03c-.88.01-1.63.02-2.27.03l.03-.02c-.12.54-.21.98-.29 1.34v.01h-.01a5.4 5.4 0 0 0-1.04.4c-.11.05-.19.1-.24.13l-.08.04s.03-.02.08-.05c.05-.03.13-.08.24-.14.22-.12.55-.28 1.04-.42l-.02.02c.07-.37.16-.81.27-1.35v-.02h.03c.64-.01 1.39-.03 2.27-.05h.03l.01.03c.1.41.21.85.33 1.33l-.03-.03c.46.11.92.28 1.39.54h-.05c.36-.24.74-.49 1.15-.76l.04-.02.03.03c.52.5 1.06 1.02 1.64 1.57l.03.03-.02.04c-.23.38-.47.77-.71 1.17v-.06c.25.42.46.88.6 1.37l-.05-.04c.44.09.89.18 1.34.28l.05.01v.05c.01.74.03 1.5.04 2.27v.05l-.05.01c-.44.11-.88.22-1.33.33l.05-.05c-.12.48-.3.95-.55 1.4v-.07c.25.38.5.76.75 1.15l.03.05-.04.04c-.52.54-1.04 1.08-1.58 1.63l-.04.04-.05-.03c-.39-.24-.78-.47-1.17-.71h.07c-.44.27-.92.47-1.37.6l.05-.05c-.1.46-.19.92-.28 1.34l-.01.05h-.06c-.78.01-1.55.03-2.27.04h-.05l-.01-.05c-.11-.46-.22-.92-.33-1.33l.05.05c-.51-.12-.98-.32-1.39-.55h.07c-.4.26-.79.52-1.15.75l-.04.03-.04-.04c-.57-.55-1.12-1.08-1.63-1.58l-.04-.03.03-.04c.25-.41.49-.81.71-1.17v.06c-.27-.45-.47-.93-.59-1.37l.04.04c-.47-.1-.93-.2-1.34-.28l-.04-.01v-.04l-.03-2.27v-.04l.04-.01c.47-.11.92-.22 1.33-.32l-.03.03c.13-.51.32-.98.55-1.39v.04c-.27-.41-.52-.8-.75-1.15l-.02-.02.02-.02c.65-.66 1.18-1.21 1.59-1.63l.01-.01.01.01c.38.23.66.41.86.54.09.06.17.11.22.14.05.03.08.05.08.05z" />
            <path style="fill:#e0e1e2" d="M49.95 12.09c-.88.22-1.42 1.1-1.2 1.98.22.88 1.1 1.42 1.98 1.2.88-.22 1.42-1.1 1.2-1.98-.22-.88-1.1-1.42-1.98-1.2zm.4-2.16c.34.01.67.06.98.15l.64-.66 1.31.79-.29.88c.23.24.43.51.59.8l.92-.02.36 1.48-.83.41c-.01.34-.06.67-.15.98l.66.64-.79 1.31-.88-.29c-.24.23-.51.43-.8.59l.02.92-1.48.36-.41-.83c-.34-.01-.67-.06-.98-.15l-.64.66-1.31-.79.29-.88c-.23-.24-.43-.51-.59-.8l-.92.02-.36-1.48.83-.41c.01-.34.06-.67.15-.98l-.66-.64.79-1.31.88.29c.24-.23.51-.43.8-.59l-.02-.92 1.48-.36.41.83z" />
            <path style="fill:#e0e1e2" d="M49.95 12.09s.14-.06.4-.06c.26-.01.66.06 1.04.36.18.15.36.35.48.61.11.25.18.56.14.87-.01.16-.06.32-.12.47-.06.15-.15.3-.26.43-.22.27-.53.47-.89.56-.36.08-.73.05-1.05-.08-.16-.06-.31-.15-.43-.26-.13-.11-.24-.23-.32-.36-.18-.26-.26-.56-.28-.84a1.644 1.644 0 0 1 .9-1.56c.24-.12.39-.13.39-.13 0 .01-.14.04-.37.16a1.646 1.646 0 0 0-.84 1.52c.02.27.1.55.27.8.08.13.19.24.31.34a1.587 1.587 0 0 0 1.4.33c.33-.09.63-.27.84-.52.11-.12.19-.26.25-.41.06-.14.1-.29.12-.44.04-.3-.02-.59-.13-.83-.11-.25-.27-.44-.45-.59-.36-.29-.74-.37-1-.37s-.4.04-.4.03z" />
            <path style="fill:#e0e1e2" d="M50.35 9.93s-.01-.02-.03-.05c-.02-.04-.05-.09-.08-.15-.07-.14-.18-.35-.32-.61l.02.01c-.38.1-.88.22-1.48.37l.02-.02c.01.28.01.59.02.92v.02l-.01.01c-.27.15-.54.34-.79.59l-.01.01-.02-.01c-.27-.09-.57-.19-.88-.29l.04-.01c-.25.41-.51.85-.79 1.31l-.01-.05c.21.2.43.42.67.64l.02.02-.01.02c-.09.29-.14.63-.15.97v.02l-.02.01c-.26.13-.54.27-.83.41l.02-.05c.11.47.24.97.37 1.48l-.04-.03c.29-.01.6-.01.92-.02h.03l.01.02c.15.27.35.55.58.79l.02.02-.01.03c-.09.27-.19.57-.29.88l-.02-.05c.41.25.86.52 1.31.79l-.06.01c.2-.21.42-.44.64-.66l.02-.02.03.01c.3.09.63.14.97.15h.03l.01.03c.14.28.28.55.41.83l-.05-.02c.5-.12 1-.24 1.48-.36l-.04.05c-.01-.31-.01-.62-.02-.92V17l.02-.01c.29-.16.56-.36.79-.58l.02-.02.03.01c.3.1.59.2.88.29l-.05.02c.27-.45.54-.88.79-1.31l.01.05c-.23-.22-.45-.43-.66-.64l-.02-.02.01-.02c.1-.32.14-.65.15-.97v-.02l.02-.01c.28-.14.56-.28.83-.41l-.02.04c-.13-.52-.25-1.02-.36-1.48l.04.03c-.32.01-.63.01-.92.01h-.02l-.01-.02c-.17-.31-.37-.57-.58-.8l-.01-.01.01-.02c.11-.32.2-.6.3-.88l.01.03c-.5-.31-.93-.57-1.3-.8h.03c-.26.26-.47.48-.65.66l-.01.01h-.01c-.32-.1-.57-.13-.73-.15-.08-.01-.14-.01-.18-.01-.04 0-.06 0-.06-.01h.06c.04 0 .1 0 .19.01.17.01.42.04.74.13h-.01c.17-.18.38-.4.64-.67l.01-.01.01.01c.37.22.8.48 1.31.79l.02.01-.01.02c-.09.27-.18.56-.29.88l-.01-.03c.22.23.42.49.6.81l-.03-.02c.29-.01.6-.01.92-.02h.03l.01.03c.12.47.24.96.37 1.48l.01.03-.03.01c-.27.13-.54.27-.83.41l.02-.04c-.01.33-.06.67-.15 1l-.01-.04.67.64.03.02-.02.03c-.26.43-.52.86-.79 1.31l-.02.03-.03-.01c-.29-.1-.58-.19-.88-.29l.05-.01c-.24.23-.51.43-.81.6l.02-.04c.01.3.01.61.02.92v.04l-.04.01c-.49.12-.98.24-1.48.36l-.04.01-.02-.03c-.14-.27-.27-.55-.41-.83l.04.03c-.35-.01-.69-.06-1-.15l.05-.01c-.22.23-.44.45-.64.66l-.03.03-.03-.02c-.45-.27-.89-.54-1.31-.79l-.03-.02.01-.03c.1-.3.2-.6.29-.88l.01.05c-.24-.25-.45-.54-.6-.81l.04.02c-.32.01-.64.01-.92.02h-.03l-.01-.03c-.13-.52-.25-1.02-.36-1.48l-.01-.03.03-.01c.29-.14.57-.28.83-.41l-.02.04c.01-.35.07-.69.16-1l.01.04c-.23-.22-.46-.44-.66-.64l-.02-.02.02-.03c.28-.46.55-.89.8-1.3l.01-.02.03.01c.31.1.6.2.88.3l-.03.01c.26-.25.53-.44.81-.59l-.01.02c0-.33-.01-.64-.01-.92v-.02h.02c.61-.14 1.11-.26 1.49-.36h.01l.01.01c.13.27.23.47.3.62.03.07.06.12.08.16.02.04.03.06.02.06z" />
            <path style="fill:#ededeb;fill-rule:nonzero" d="M54.63 39.04s.14-.06.4-.06c.26-.01.67.06 1.05.36.19.15.36.35.48.61.11.26.18.56.15.88-.01.16-.06.32-.12.47-.06.15-.15.3-.26.44-.22.27-.54.47-.9.56-.36.08-.74.05-1.06-.08-.16-.06-.31-.16-.44-.26-.13-.11-.24-.23-.33-.36-.18-.26-.26-.57-.28-.85-.02-.28.05-.55.14-.77.2-.44.53-.69.76-.8.24-.12.39-.13.39-.13 0 .01-.14.04-.37.16-.22.12-.54.37-.72.8-.09.21-.15.46-.13.73.02.27.1.56.27.81.08.13.19.24.31.34a1.618 1.618 0 0 0 1.41.33c.34-.09.64-.27.85-.53.11-.12.19-.27.25-.41.06-.15.1-.3.12-.45a1.621 1.621 0 0 0-.58-1.43c-.36-.29-.75-.37-1.01-.38-.26 0-.4.04-.4.03z" />
            <path style="fill:#ededeb;fill-rule:nonzero" d="M55.03 36.86s-.01-.02-.03-.05c-.02-.04-.05-.09-.08-.16-.07-.14-.18-.35-.32-.62l.02.01c-.38.1-.89.22-1.5.38l.02-.02c.01.28.01.6.02.93v.02l-.01.01c-.27.15-.55.35-.8.59l-.01.01-.02-.01c-.28-.09-.57-.19-.89-.29l.04-.01c-.25.42-.52.86-.8 1.32l-.01-.05c.21.2.44.42.67.65l.02.02-.01.02c-.09.3-.14.64-.15.98v.02l-.02.01c-.26.13-.54.27-.83.42l.02-.05c.12.47.24.98.37 1.5l-.04-.03c.29-.01.61-.01.93-.02h.03l.01.02c.15.27.35.55.59.8l.02.02-.01.03c-.09.28-.19.58-.29.88l-.02-.05c.42.25.87.52 1.32.8l-.06.01c.2-.21.43-.44.65-.67l.02-.02.03.01c.3.09.64.14.98.15h.03l.01.03c.14.28.28.56.42.83l-.05-.02c.51-.12 1.01-.25 1.5-.37l-.04.05c-.01-.31-.01-.62-.02-.93v-.03l.02-.01c.3-.16.56-.36.8-.59l.02-.02.03.01c.3.1.59.2.88.3l-.05.02c.27-.45.54-.89.8-1.32l.01.05c-.23-.22-.45-.44-.67-.65l-.02-.02.01-.02c.1-.33.15-.66.15-.98v-.02l.02-.01c.29-.14.56-.28.83-.42l-.02.04c-.13-.53-.25-1.02-.36-1.5l.04.03c-.33 0-.64.01-.93.01h-.02l-.01-.02c-.17-.31-.37-.58-.59-.81l-.01-.01.01-.02c.11-.32.21-.61.3-.88l.01.03c-.51-.31-.94-.58-1.32-.81h.03c-.26.27-.47.48-.65.67l-.01.01h-.01c-.32-.1-.58-.13-.74-.15-.08-.01-.14-.01-.19-.02-.04 0-.06 0-.06-.01h.06c.04 0 .1 0 .19.01.17.01.42.04.75.13h-.02c.18-.18.39-.41.64-.68l.01-.01.01.01c.37.22.81.49 1.32.79l.02.01-.01.02c-.09.27-.19.56-.29.89l-.01-.03c.22.23.43.5.6.82l-.03-.02c.3-.01.6-.01.93-.02h.03l.01.03c.12.47.24.97.37 1.5l.01.03-.03.01c-.27.14-.55.27-.83.42l.02-.04c-.01.33-.06.67-.15 1l-.01-.04c.22.21.44.43.67.65l.03.02-.02.03c-.26.43-.53.87-.8 1.32l-.02.03-.03-.01c-.29-.1-.59-.19-.88-.29l.05-.01c-.24.23-.52.44-.82.6l.02-.04c.01.31.01.62.02.93v.04l-.04.01c-.49.12-.99.24-1.5.37l-.04.01-.02-.03c-.14-.28-.28-.55-.42-.83l.04.03c-.35-.01-.69-.06-1.01-.15l.05-.01c-.22.23-.44.46-.65.67l-.03.03-.03-.02c-.45-.28-.9-.55-1.32-.8l-.03-.02.01-.04c.1-.31.2-.61.3-.88l.01.05c-.25-.25-.45-.54-.6-.82l.04.02c-.32.01-.64.01-.93.02h-.04l-.01-.03c-.13-.52-.25-1.03-.37-1.5l-.01-.03.03-.02c.29-.14.58-.29.83-.41l-.02.04c.01-.36.07-.7.16-1l.01.04c-.23-.23-.46-.45-.67-.65l-.02-.02.02-.03c.28-.46.55-.9.8-1.32l.01-.02.03.01c.31.1.61.2.88.3l-.03.01c.26-.25.54-.45.82-.6l-.01.02c0-.34-.01-.65-.01-.93v-.02h.02c.61-.15 1.12-.27 1.5-.36h.01l.01.01c.13.27.23.48.3.62.03.07.06.12.08.16.02.04.03.06.02.06z" />
            <path style="fill:#f3f4f4" d="M5.66 64.83v4.74h14.57v-4.74z" />
            <path style="fill:#e0e1e2" d="M5.05 63.51v1.32h15.69v-1.32z" />
            <path style="fill:#e0e1e2" d="M12.9 69.57h7.33v-4.74h.51v-1.32h-8.15v1.2zM7.7 66.31h2.96v-.72H7.7z" />
            <path style="fill:#fefefe;fill-rule:nonzero" d="M7.32 68.7h3.8v-1.5h-3.8z" />
            <path style="fill:#f3f4f4" d="M7.91 58.78v4.73h14.56v-4.73z" />
            <path style="fill:#e0e1e2" d="M7.29 57.45v1.33h15.69v-1.33z" />
            <path style="fill:#e0e1e2" d="M15.14 63.51h7.33v-4.73h.51v-1.33h-8.15v1.2zM9.94 60.25h2.96v-.71H9.94z" />
            <path style="fill:#fefefe;fill-rule:nonzero" d="M9.56 62.65h3.8v-1.51h-3.8z" />
            <path style="fill:#313f44;" d="M70.85 69.57c0 .02-15.86.04-35.42.04-19.57 0-35.43-.02-35.43-.04s15.86-.04 35.43-.04c19.56 0 35.42.02 35.42.04z" />
            <path style="fill:#3f79bc;" d="M10.27 5.08c.57-.34 1.18-.6 1.81-.78l.38-1.78 3.02-.04.43 1.77c.63.16 1.25.4 1.83.73l1.53-.99 2.16 2.1-.95 1.55c.34.57.6 1.18.78 1.81l1.78.38.04 3.02-1.77.43c-.16.63-.4 1.25-.73 1.83l.99 1.53-2.1 2.16-1.55-.95c-.57.34-1.18.6-1.81.78l-.38 1.78-3.02.04-.43-1.77c-.63-.16-1.25-.4-1.83-.73l-1.53.99-2.16-2.1.95-1.55c-.34-.57-.6-1.18-.78-1.81l-1.78-.38-.04-3.02 1.77-.43c.16-.63.4-1.25.73-1.83l-.99-1.53 2.1-2.16 1.56.95z" />
            <path style="fill:#fefefe;fill-rule:nonzero" d="M15.86 10.57c-.01 0 0-.23-.1-.63-.05-.2-.14-.44-.29-.69a2.592 2.592 0 0 0-1.75-1.21c-.42-.07-.9-.06-1.35.11-.23.08-.45.2-.65.35-.1.07-.2.16-.29.25-.09.1-.18.19-.25.3-.32.42-.49.96-.5 1.52.01.56.18 1.1.5 1.52.07.11.17.2.25.3.1.09.19.18.29.25.2.15.42.27.65.35.45.17.93.19 1.35.11.43-.07.79-.26 1.09-.48.29-.22.51-.48.66-.73.15-.25.24-.49.29-.69.1-.4.08-.63.1-.63v.16c0 .06 0 .12-.02.2-.01.08-.02.17-.05.27-.04.2-.14.45-.28.7-.15.26-.37.52-.66.75-.3.23-.67.42-1.11.5-.43.08-.92.07-1.39-.11-.24-.08-.46-.2-.67-.36-.11-.07-.2-.17-.3-.26-.09-.1-.18-.19-.26-.31-.33-.43-.51-.99-.52-1.57 0-.57.19-1.13.52-1.57.08-.11.17-.21.26-.31.1-.09.19-.18.3-.25.21-.16.44-.28.67-.36.47-.18.96-.19 1.39-.11.44.08.81.27 1.11.5.3.23.52.5.66.75.15.26.24.5.28.7.03.1.04.19.05.27.01.08.02.15.02.2v.16z" />
            <path style="fill:#fefefe;fill-rule:nonzero" d="M15.04 12.47c.02-.02.58.53 1.27 1.21.69.69 1.23 1.26 1.21 1.27-.02.02-.58-.53-1.27-1.21-.69-.69-1.23-1.26-1.21-1.27z" />
            <path style="fill:#3f79bc;" d="M30.88 16.49c.73-.44 1.51-.77 2.32-1l.48-2.29 3.87-.05.55 2.27c.81.2 1.6.51 2.35.93l1.96-1.28 2.78 2.7-1.22 2c.44.73.77 1.51 1 2.32l2.29.48.05 3.87-2.27.55c-.2.81-.51 1.6-.93 2.35l1.28 1.96-2.7 2.78-2-1.22c-.73.44-1.51.77-2.32 1l-.48 2.29-3.87.05-.55-2.28c-.81-.2-1.6-.51-2.35-.93l-1.96 1.28-2.78-2.7 1.22-2c-.44-.73-.77-1.51-1-2.32l-2.29-.48-.05-3.87 2.27-.55c.2-.81.51-1.6.93-2.35l-1.28-1.96 2.7-2.78 2 1.22z" />
            <path style="fill:#fefefe;fill-rule:nonzero" d="M34.47 28.71h.18c.12 0 .29 0 .51-.01.44 0 1.09-.01 1.9-.01l-.02.02c-.01-.33-.02-.69-.03-1.09v-.02l.02-.01c.54-.25 1.11-.61 1.63-1.11.26-.25.49-.54.68-.87.2-.33.32-.71.37-1.11.09-.8-.09-1.69-.58-2.43-.48-.74-1.24-1.35-2.12-1.69a3.62 3.62 0 0 0-2.03-.14c-.66.12-1.27.42-1.77.82-.5.4-.85.93-1.07 1.47-.05.14-.11.27-.14.41-.03.14-.07.28-.1.42-.05.28-.08.55-.07.82.01.27.04.53.1.77.06.25.15.47.25.69.21.43.48.78.77 1.06.57.57 1.16.89 1.58 1.08h.01v.01c-.02.3-.03.52-.04.68 0 .07-.01.13-.01.17 0 .04 0 .06-.01.06v-.23c.01-.16.01-.39.02-.69l.01.01c-.43-.18-1.03-.5-1.61-1.07-.29-.29-.57-.64-.78-1.07-.1-.22-.19-.45-.26-.7a3.934 3.934 0 0 1-.03-1.62c.03-.14.07-.28.1-.42.03-.14.1-.28.14-.42.22-.56.58-1.1 1.08-1.51.5-.41 1.12-.71 1.8-.84.67-.14 1.4-.11 2.08.14.9.34 1.66.96 2.16 1.72.25.38.43.79.52 1.22.03.1.04.21.06.32.02.11.03.21.03.32 0 .11.01.21.01.32l-.03.31c-.06.41-.18.8-.39 1.14-.2.34-.43.63-.7.89-.53.5-1.1.87-1.65 1.12l.02-.03c.01.39.01.76.02 1.09v.02h-.02c-.82-.01-1.47-.01-1.91-.01-.22 0-.39 0-.5-.01h-.17zM37.1 29.43c0 .02-.59.04-1.33.04-.73 0-1.33-.02-1.33-.04s.59-.04 1.33-.04c.73 0 1.33.02 1.33.04zM36.24 30.44c0 .02-.21.06-.47.06-.26-.01-.47-.06-.47-.08 0-.02.21 0 .47 0 .26.01.47 0 .47.02z" />
            <path style="fill:#fefefe;fill-rule:nonzero" d="M35.02 28.71v-.17c0-.12 0-.28.01-.49.01-.43.02-1.05.04-1.82l.03-1.25c0-.11 0-.22-.04-.32-.03-.1-.13-.18-.23-.16-.1.02-.18.13-.21.23-.03.11-.01.23.04.34.11.22.34.36.59.4.25.04.52-.08.69-.28.18-.2.28-.47.29-.74 0-.14-.01-.28-.08-.39-.06-.11-.21-.18-.33-.14-.12.04-.18.19-.16.32.02.13.1.25.18.36.17.22.39.41.64.49.13.04.26.06.39.05.13-.02.25-.07.35-.15.1-.07.18-.18.22-.29.04-.11.03-.24-.02-.35-.05-.1-.15-.18-.26-.18-.11 0-.21.07-.28.16-.13.19-.13.44-.16.66-.05.45-.08.87-.11 1.25-.05.76-.09 1.38-.12 1.81-.01.21-.03.37-.03.49 0 .05-.01.09-.01.13 0 .03 0 .04-.01.04v-.17c0-.12.01-.28.02-.49.02-.43.05-1.05.1-1.82.03-.38.05-.8.1-1.25.01-.11.02-.23.04-.34.02-.12.05-.24.13-.35.07-.1.19-.19.33-.2.14-.01.27.1.33.22s.07.27.03.4c-.04.13-.13.25-.25.33-.11.08-.24.14-.38.16-.14.02-.29 0-.42-.05-.27-.1-.5-.29-.68-.52-.09-.11-.18-.24-.2-.4-.02-.15.04-.34.21-.41.17-.06.34.04.42.17.08.14.1.29.09.44-.01.29-.12.58-.31.79-.19.21-.48.34-.76.3-.27-.04-.53-.19-.65-.44a.532.532 0 0 1-.05-.39c.04-.12.12-.25.26-.28.07-.01.14.01.2.04.06.04.09.1.11.16.04.12.05.24.05.35-.02.45-.03.87-.04 1.25-.03.76-.05 1.38-.07 1.82-.01.21-.02.37-.02.49 0 .05-.01.09-.01.13 0 .03 0 .04-.01.04zM36.86 29.93c0 .02-.48.04-1.08.04-.6 0-1.08-.02-1.08-.04s.48-.04 1.08-.04c.6 0 1.08.02 1.08.04z" />
            <path style="fill:#3f79bc;" d="M56.3 22.67c.47-.29.97-.52 1.49-.67l.29-1.49 2.51-.07.38 1.47c.53.12 1.04.32 1.53.58l1.26-.85 1.83 1.72-.77 1.31c.29.47.52.97.67 1.49l1.49.29.07 2.51-1.47.38c-.12.53-.32 1.04-.58 1.53l.85 1.26-1.72 1.83-1.31-.77c-.47.29-.97.52-1.49.67l-.29 1.49-2.51.07-.38-1.47c-.53-.12-1.04-.32-1.53-.58l-1.26.85-1.83-1.72.77-1.31c-.29-.47-.52-.97-.67-1.49l-1.49-.29-.07-2.51 1.47-.38c.12-.53.32-1.04.58-1.53l-.85-1.26 1.72-1.83 1.31.77z" />
            <path style="fill:#fefefe;fill-rule:nonzero" d="M62.93 30.64s-.04.01-.12.01c-.09 0-.2 0-.35.01-.31 0-.75.01-1.28.01-1.09 0-2.59.01-4.24.01H56.6v-.04c0-1.58.01-3 .01-4.04 0-.51.01-.92.01-1.21 0-.14.01-.25.01-.33 0-.07.01-.11.01-.11s.01.04.01.11c0 .08 0 .19.01.33 0 .29.01.71.01 1.21 0 1.03.01 2.45.01 4.04l-.04-.04h.3c1.65 0 3.15.01 4.24.01.54.01.97.01 1.28.01.15 0 .26.01.35.01.08 0 .12.01.12.01z" />
            <path style="fill:#fefefe;fill-rule:nonzero" d="M62.23 26.32s-.06.07-.19.18c-.14.12-.31.28-.53.47-.45.39-1.08.93-1.77 1.52l-.11.09-.03.02-.03-.02-.79-.73h.05c-.46.38-.86.71-1.16.96-.14.11-.25.2-.34.27-.08.06-.12.09-.13.09l.11-.11c.08-.07.19-.17.32-.29.29-.25.68-.59 1.14-.98l.02-.02.02.02.79.73h-.05l.11-.09c.7-.59 1.33-1.12 1.79-1.5.22-.18.41-.33.55-.45.13-.1.2-.16.21-.16z" />
            <path style="fill:#fefefe;fill-rule:nonzero" d="M62.23 27.64c-.01 0-.02-.15-.03-.39-.01-.24-.01-.58-.01-.96l.04.04h-.07c-.39 0-.75 0-1-.01-.26-.01-.42-.02-.42-.03 0-.01.16-.02.42-.03.26-.01.61-.01 1-.01H62.27v.04c0 .38-.01.71-.01.96-.01.24-.02.39-.03.39z" />
            <path style="fill:#313f44;" d="M21.61 30.86c-.02.01-.1-.18-.18-.43-.08-.24-.12-.45-.1-.45.02-.01.1.19.18.43.08.24.12.44.1.45zM23.24 34.14c-.02.01-.26-.32-.52-.76-.25-.44-.42-.82-.4-.83.02-.01.22.35.47.79.25.44.47.79.45.8zM25.63 36.92c-.01.02-.34-.24-.69-.61-.36-.36-.61-.69-.59-.7.02-.01.3.29.65.65.35.36.65.65.64.66zM28.67 38.97c-.01.02-.39-.14-.83-.4-.44-.26-.77-.51-.76-.52.01-.02.36.2.8.46.44.26.8.45.79.47zM32.16 40.1c0 .02-.41-.04-.91-.14-.49-.14-.88-.27-.88-.29.01-.02.41.07.89.21.49.1.9.2.89.22zM35.82 40.18c0 .02-.41.09-.92.11-.51.02-.92-.01-.92-.03 0-.02.41-.03.92-.05.51-.02.92-.05.92-.03zM39.41 39.39c.01.02-.38.17-.87.31-.49.14-.9.21-.9.19 0-.02.39-.13.88-.26.49-.14.88-.25.89-.23zM42.73 37.83c.01.02-.33.25-.78.49s-.83.4-.84.38c-.01-.02.36-.21.8-.45.45-.24.8-.44.82-.42zM45.58 35.52c.02.01-.25.33-.62.68-.37.35-.71.59-.72.57-.01-.02.3-.29.67-.63.37-.34.66-.63.68-.62zM47.61 32.47c.02.01-.13.39-.38.84-.24.45-.49.78-.51.77-.02-.01.2-.36.44-.81.24-.44.43-.81.45-.8zM48.87 29.02c.02.01-.09.4-.25.89-.16.48-.3.87-.32.86-.02-.01.09-.4.25-.89.16-.48.3-.87.32-.86zM50.04 25.54c.02.01-.12.4-.28.88-.17.48-.32.86-.34.85-.02-.01.1-.4.26-.88.08-.24.17-.45.24-.61.07-.15.11-.25.12-.24zM51.67 22.25c.02.01-.19.37-.43.81-.25.44-.44.81-.46.8-.02-.01.14-.39.39-.84.25-.45.49-.78.5-.77zM54.13 19.53c.01.02-.31.27-.68.62-.37.34-.65.64-.67.63-.02-.01.24-.34.62-.69.37-.35.72-.58.73-.56zM57.44 17.98c.01.02-.39.14-.86.31-.48.17-.86.33-.86.31-.01-.02.36-.21.84-.38s.89-.26.89-.24zM61.08 17.58c0 .02-.41.01-.92.03-.51.02-.92.05-.92.03 0-.02.41-.09.92-.11.51-.02.92.03.92.05zM64.62 18.48c-.01.02-.39-.13-.87-.3-.48-.17-.87-.29-.86-.31.01-.02.41.07.89.24.48.17.85.36.84.38zM67.75 20.39c-.01.02-.34-.24-.75-.53-.41-.29-.76-.52-.74-.54.01-.02.38.18.79.47.42.3.72.58.7.59zM69.59 22.43c-.02.01-.14-.15-.3-.35-.15-.2-.27-.37-.25-.39.02-.01.16.13.32.34.15.21.25.39.23.4z" />
            <path style="fill:#313f44;" d="m2.02 9.27.03-.14.09-.41c.09-.36.24-.87.51-1.52.28-.64.68-1.4 1.27-2.19.59-.8 1.36-1.63 2.34-2.4.99-.76 2.18-1.46 3.57-1.93.7-.23 1.43-.42 2.21-.53.77-.11 1.58-.16 2.4-.14.82.02 1.67.12 2.51.32.84.19 1.68.48 2.49.88.81.4 1.57.91 2.27 1.51.71.6 1.35 1.3 1.89 2.08.54.78.96 1.64 1.27 2.51a12.04 12.04 0 0 1 .63 3.34c.01.22.01.44.02.66 0 .22-.01.44-.02.66-.02.22-.03.43-.06.65-.11.86-.34 1.68-.66 2.44s-.7 1.47-1.09 2.15c-.39.67-.78 1.32-1.15 1.96-.74 1.26-1.12 2.59-1.34 3.81-.11.61-.18 1.2-.22 1.76-.04.56-.06 1.09-.06 1.58 0 .99.01 1.84.12 2.53.1.69.24 1.21.35 1.56.06.17.1.31.14.39.02.04.03.08.04.1.01.02.01.03.01.03s-.09-.17-.21-.52-.26-.87-.37-1.56c-.11-.69-.13-1.54-.13-2.53 0-.49.02-1.02.06-1.58.04-.56.1-1.15.21-1.76.21-1.22.6-2.56 1.34-3.83.37-.63.75-1.29 1.14-1.96.39-.68.77-1.38 1.08-2.14.31-.76.54-1.57.65-2.42.03-.21.04-.43.06-.64 0-.22.02-.43.02-.65-.01-.22-.01-.44-.02-.66-.01-.22-.03-.44-.05-.66-.09-.89-.27-1.78-.57-2.65-.3-.87-.72-1.71-1.26-2.49a10.88 10.88 0 0 0-1.87-2.07c-.7-.6-1.46-1.11-2.26-1.5-.8-.4-1.63-.68-2.47-.87-.84-.2-1.67-.3-2.49-.32-.82-.02-1.62.03-2.39.14-.77.11-1.5.3-2.2.53-1.39.46-2.57 1.16-3.56 1.91-.98.76-1.75 1.59-2.34 2.38-.59.79-.99 1.55-1.28 2.18-.27.64-.43 1.16-.52 1.51-.04.18-.08.31-.1.4-.02.09-.04.14-.04.14z" />
            <path style="fill:#3f79bc;" d="m39.4 65.74 2.3.81-.02 2.22c-1.1.31-1.26.87-1.26.87l2.31-.05 2.01-4.08-1.59-1.04-2.97-1.3-.78 2.58z" />
            <path style="fill:#8eb6e1;fill-rule:nonzero" d="m40.43 69.64.25-.36 1.87-.14 1.85-3.86.34.22-2.01 4.08z" />
            <path style="fill:#313f44;" d="M41.67 67.75c.02.02.15-.06.33-.05.18 0 .31.07.33.05.02-.02-.11-.15-.33-.15-.22 0-.35.14-.33.16zM41.7 67.2c.02.02.12-.12.31-.16.18-.04.33.04.35.02.01-.01-.02-.05-.09-.08-.06-.03-.17-.06-.28-.03-.11.03-.2.09-.24.15-.04.06-.05.1-.04.11zM41.67 66.5c.03.01.1-.12.26-.18s.3-.01.32-.04c.01-.01-.02-.04-.09-.07a.392.392 0 0 0-.26.01c-.1.04-.17.11-.2.17-.03.06-.04.1-.02.11zM41.5 66.5c.03-.01.01-.15.08-.31.06-.16.18-.25.17-.27-.01-.03-.18.04-.26.23-.08.19-.01.36.01.35zM41.23 66.24c.01 0 .03-.12.05-.31l.03-.34c0-.06.02-.13 0-.21a.178.178 0 0 0-.08-.11c-.04-.03-.12-.03-.16.01-.08.06-.1.14-.13.2-.02.07-.04.14-.04.21-.01.14.02.26.06.35.08.19.2.26.2.25.01-.01-.08-.1-.14-.27a.663.663 0 0 1-.03-.32c.01-.06.02-.12.04-.18a.35.35 0 0 1 .09-.15c.02-.01.03-.01.05 0 .02.01.03.03.04.05.01.05 0 .12 0 .18 0 .11-.01.23-.01.34 0 .19 0 .31.02.31z" />
            <path style="fill:#313f44;" d="M41.19 66.34c.01-.01-.06-.11-.24-.17a.58.58 0 0 0-.65.23c-.01.03-.01.06.01.09s.04.04.06.05c.04.02.08.02.11.02.06.01.13.01.19 0a.94.94 0 0 0 .31-.08c.17-.07.24-.16.23-.17-.01-.01-.1.05-.26.1-.08.03-.18.05-.29.05-.05 0-.11 0-.17-.01-.03 0-.06-.01-.08-.02-.02-.01-.01-.01-.01-.02s.02-.03.05-.05a.18.18 0 0 1 .07-.05c.05-.03.1-.06.15-.07.1-.03.2-.03.28-.01.16.03.24.11.25.1z" />
            <path style="fill:#8eb6e1;fill-rule:nonzero" d="M43.17 65.74c-.15 0-.27-.12-.27-.27 0-.15.12-.28.27-.28h.01c.15 0 .27.12.27.27 0 .15-.12.28-.27.28h-.01z" />
            <path style="fill:#3f79bc;" d="m27.58 64.82.03 3.02s-3.06 1.05-3.11 1.6l5.86.15.14-4.71-2.93-.07z" />
            <path style="fill:#8eb6e1;fill-rule:nonzero" d="M29.36 68.07c-.02 0-.04 0-.05-.01-.11-.03-.21-.18-.17-.29.03-.08.13-.15.23-.15.03 0 .05.01.08.02.1.04.17.16.14.27-.02.1-.12.17-.22.17zm.08-.44z" />
            <path style="fill:#fefefe;fill-rule:nonzero" d="m27.96 69.53-3.46-.09c-.02-.13.12-.23.19-.27-.11.1-.18.19-.19.27l3.46.09z" />
            <path style="fill:#8eb6e1;fill-rule:nonzero" d="m30.36 69.59-2.4-.06-3.46-.09c.01-.08.08-.17.19-.27.03-.02.05-.02.05-.02l5.61-.03v.47z" />
            <path style="fill:#313f44;" d="M27.51 67.8c0 .03.14.05.28.14.14.09.21.22.24.21.03 0-.01-.18-.18-.29-.17-.11-.34-.08-.34-.06zM26.89 68.04c-.01.03.12.08.21.2.1.12.12.25.15.25.03.01.05-.16-.07-.31-.12-.15-.29-.17-.29-.14zM26.52 68.77c.03.01.07-.14 0-.29-.07-.16-.2-.22-.21-.2-.02.02.07.11.12.24.06.13.06.25.09.25zM27.58 67.11c.01.03.14-.01.3.01.16.01.29.07.3.05.02-.02-.1-.13-.29-.14-.19-.02-.33.07-.31.09z" />
            <path d="m30.47 66 .01-.21-.01.21zm-2.88-.05v-.01.01z" style="fill:#b4b6b5;fill-rule:nonzero" />
            <path style="fill:#2c3c43;" d="m30.47 66-2.88-.05v-.24l2.88.08V66z" />
            <path style="fill:#313f44;" d="M27.59 66.51c0 .01.11.03.29.01.09-.01.2-.04.31-.09.06-.02.11-.05.17-.08.03-.02.06-.03.09-.07.03-.03.05-.1.02-.15a.142.142 0 0 0-.12-.07c-.04 0-.08.01-.11.01-.07.01-.13.03-.18.06-.11.05-.21.11-.27.17-.14.12-.19.23-.18.23.01.01.08-.08.22-.18.07-.05.16-.1.27-.14.05-.02.11-.04.17-.05.06-.01.12-.01.13.01.01.01.01.01-.01.03-.01.02-.04.03-.07.05-.05.03-.11.06-.16.08-.1.05-.2.08-.29.1-.17.04-.28.05-.28.06z" />
            <path style="fill:#313f44;" d="M27.62 66.55c.01 0 .07-.1.08-.28a.931.931 0 0 0-.1-.5c-.03-.06-.07-.14-.18-.15-.06 0-.11.04-.12.08-.02.04-.03.07-.03.11-.01.07-.01.14-.01.2.02.13.06.23.12.31.11.15.23.19.23.18.01-.01-.09-.07-.17-.22a.71.71 0 0 1-.09-.28c0-.05 0-.11.01-.17.01-.06.04-.11.06-.1.03 0 .08.05.1.1.03.05.05.11.07.16.03.11.05.21.05.29 0 .17-.03.28-.01.28zM41.19 63.28l-6.74-2.51 7.09-1 .35-3.45-13.25 1.16-1.88 2.69.5 3.38 12.91 3.29z" />
            <path style="fill:#313f44;" d="m26.89 65.69-.65-12.34c.04-1.2.69-2.3 1.73-2.9.86-.5 1.89-.6 2.84-.29l8.6 2.87 4.72 1.21s.8 1.98.33 3.53c-.46 1.51-2.12 2.51-3.57 2.08-1.81-.54-10.1-4.1-10.1-4.1V65.8l-3.9-.1z" />
            <path style="fill:#44616b;" d="M40.77 59.88s-.02 0-.05-.02a.772.772 0 0 1-.15-.06c-.13-.05-.32-.13-.56-.23-.49-.2-1.2-.49-2.07-.84-1.75-.72-4.16-1.71-6.81-2.81-.12-.05-.24-.1-.35-.14l.06-.04c0 2.79-.01 5.3-.01 7.12-.01.9-.01 1.63-.01 2.15 0 .25-.01.44-.01.58v.2-.2c0-.14 0-.33-.01-.58 0-.51-.01-1.24-.01-2.15 0-1.82-.01-4.33-.01-7.12v-.06l.06.02c.11.05.23.09.35.14 2.66 1.11 5.06 2.11 6.81 2.83.87.36 1.57.66 2.06.87.24.1.43.18.56.24.06.03.11.05.14.06.03.01.05.02.05.02z" />
            <path style="fill:#44616b;" d="M32.83 59.89c0-.02.43.06.88.31.46.25.75.57.73.58-.02.02-.32-.27-.77-.51-.45-.25-.85-.36-.84-.38zM30.05 54.07c.02-.01.24.35.45.83.22.48.34.89.32.9-.02.01-.18-.39-.39-.86-.21-.48-.4-.86-.38-.87z" />
            <path style="fill:#fabba3" d="m30.07 48.63-1.53-.28-1.59 1.63.29 1.04 1.86-.69z" />
            <path style="fill:#f79a73;fill-rule:nonzero" d="m24.44 30.54-.41.03s-.74.12-.74.14c0 .02-.33.47-.33.47l-.3.46s.24.09.42-.08l-.1.23s.34.15.57-.22c.13-.21.25-.36.32-.46l.14-.01c.01.03.53.76.54.75.01-.02.44-.43.44-.43l-.55-.88z" />
            <path style="fill:#fabba3" d="m25.55 33.73.12-2.28-1.15-1.31-1.27.08-.52.36c.03.13.39.21.78.1.38-.11.8-.03.8-.03l.49.85-.32.36.41 2.19.67-.32z" />
            <path style="fill:#313f44;" d="M22.17 30.73h4.13a.19.19 0 1 1 0 .38h-4.13l-.4-.19.4-.19z" />
            <path style="fill:#fabba3" d="m24.26 34.35-.42-1.03a.96.96 0 0 1-.07-.41c.02-.37.05-1.12-.01-1.29-.08-.23-.38-1.02-.21-1.14.17-.12.41-.15.58.31.17.46.69 1.46.69 1.46l.39 1.65-.95.45z" />
            <path style="fill:#f79a73;fill-rule:nonzero" d="M24.77 32.14c-.01 0-.1-.16-.24-.44-.14-.27-.33-.67-.53-1.08-.06-.09-.15-.16-.24-.16a.24.24 0 0 0-.21.15c-.03.09-.01.18.01.27.02.09.04.17.06.24.08.3.17.47.15.47 0 0-.03-.04-.07-.12-.04-.08-.09-.19-.14-.34-.02-.07-.05-.16-.07-.25a.601.601 0 0 1-.01-.3.29.29 0 0 1 .27-.21c.13 0 .25.09.31.19.21.44.38.82.51 1.1.12.28.2.46.19.47z" />
            <path style="fill:#fabba3" d="m44.01 54.21-.42-.74-4.51-1.12.53.91z" />
            <path style="fill:#3f79bc;" d="m23.87 34.35 2.83 6.71c.27.63.78 1.14 1.41 1.4l6.11 2.51 1.42-3.94-5.95-2.11-3.87-5.51-1.96.94z" />
            <path style="fill:#3f79bc;" d="M33.08 41.1c.01.16-.66 5.04-.66 6.04s1.91 2.08 1.91 2.08l2.09 4.44h7.45l-2.55-4.78-1.15-3.83a9.133 9.133 0 0 0-2.31-3.84l-1.24-.83-3.54.72z" />
            <path style="fill:#3f79bc;" d="m35.24 44.96 1.25 5.25-6.31-1.78-1.08 1.9 8.22 3.74c1.01.46 2.21.14 2.85-.78.39-.55.51-1.25.35-1.9l-1.84-7.19a1.75 1.75 0 0 0-2.26-1.23c-.83.28-1.32 1.12-1.17 1.97z" />
            <path style="fill:#313f44;" d="M34.33 49.22s-.03-.01-.07-.03c-.05-.02-.11-.06-.2-.11-.17-.1-.41-.24-.69-.46-.27-.22-.6-.5-.81-.93-.2-.44-.19-.98-.11-1.5.08-.53.19-1.03.25-1.48.07-.46.12-.87.14-1.22.03-.35.03-.63.03-.83 0-.2-.01-.3 0-.3 0 0 .01.03.01.08.01.05.01.13.02.23.01.2.01.48 0 .83-.02.35-.06.77-.13 1.22-.06.46-.17.96-.24 1.48-.07.52-.09 1.04.1 1.46.2.41.52.69.78.91.27.22.51.37.67.48.17.1.26.16.26.16zM37.81 43.56c-.01.02-.36-.18-.85-.2-.49-.04-.86.11-.87.09-.01-.02.37-.2.88-.17s.86.27.84.28zM36.96 40.73s-.04.05-.11.13a18.536 18.536 0 0 1-1.49 1.32c-.47.37-.91.69-1.23.92-.16.11-.29.2-.39.26-.09.06-.15.09-.15.08 0 0 .04-.04.13-.11.1-.08.23-.17.37-.28.31-.23.75-.56 1.21-.93.47-.37.88-.72 1.17-.98.14-.12.26-.22.35-.3.08-.07.13-.11.14-.1zM29.7 38.94c.01.02-.22.12-.47.29-.25.17-.44.34-.45.32-.02-.01.14-.22.41-.39.26-.17.51-.24.52-.22z" />
            <path style="fill:#f9f8f8" d="M35.85 47.34c0 .01-.05.02-.14.04-.09.02-.22.05-.39.07-.17.02-.36.03-.58.02a3.746 3.746 0 0 1-1.38-.35c-.2-.09-.37-.19-.51-.29-.14-.09-.24-.18-.31-.24s-.1-.1-.1-.1c.01-.01.16.12.44.3a4.024 4.024 0 0 0 2.44.61c.33-.02.53-.07.53-.06zM36.28 49.65c0 .01-.11.04-.28.05-.18.01-.43.01-.69-.05-.27-.05-.5-.15-.66-.23-.16-.08-.25-.15-.24-.16.01-.02.39.2.91.31.52.11.96.05.96.07zM39.54 48.21c0 .01-.04.03-.12.07a5.197 5.197 0 0 1-1.53.46c-.48.07-.91.06-1.23.02-.16-.02-.28-.04-.37-.05-.09-.02-.13-.03-.13-.04 0-.01.19.02.5.03.31.02.74.02 1.21-.05s.88-.18 1.18-.28c.29-.1.47-.18.48-.17zM38.96 45.64c0 .01-.2-.02-.51-.06a7.49 7.49 0 0 0-1.23-.05c-.48.02-.91.08-1.22.14-.31.06-.5.11-.5.1 0-.01.04-.02.13-.05.08-.03.21-.06.36-.1.31-.07.75-.15 1.23-.17.49-.02.93.02 1.24.08.16.03.28.05.37.07.09.02.13.04.13.04zM40.26 52.83c0 .01-.07-.01-.18-.04a6.235 6.235 0 0 1-1.94-.91c-.53-.37-.94-.79-1.21-1.11-.13-.16-.24-.3-.3-.4-.06-.1-.1-.15-.09-.16.01-.01.16.2.44.52.28.31.69.72 1.21 1.08.52.37 1.04.62 1.43.77.39.15.64.22.64.24zM34.6 52.75c-.01 0-.03-.17-.02-.44a4.896 4.896 0 0 1 .54-2.04c.13-.24.22-.38.23-.37.01.01-.07.15-.18.4-.11.24-.25.59-.35.98-.1.39-.15.76-.18 1.03-.02.27-.02.43-.04.43zM30.8 51.02c-.01 0-.02-.14 0-.37.02-.22.09-.54.27-.85.18-.3.42-.52.59-.66.18-.14.29-.22.3-.21.01.01-.1.1-.26.26s-.39.37-.56.66c-.17.29-.25.59-.29.81-.04.22-.05.36-.06.36zM43.38 52.71c0 .01-.16.09-.44.2-.28.11-.67.24-1.12.34-.45.1-.86.14-1.17.13-.08 0-.14-.01-.2-.01-.06-.01-.11-.01-.15-.02-.08-.02-.13-.03-.13-.03 0-.01.06 0 .16 0 .08 0 .19.01.32.01.3 0 .7-.05 1.15-.15.44-.1.84-.22 1.12-.31.28-.09.46-.15.46-.14zM41.69 49.67c.01 0-.04.1-.17.19-.13.1-.32.2-.54.28-.22.09-.43.14-.59.17-.08.01-.14.02-.19.02-.04 0-.07-.02-.07-.02 0-.01.09-.01.24-.06.15-.04.35-.11.57-.19.22-.08.41-.18.54-.26.13-.08.19-.15.2-.14zM40.64 46.59s0 .03-.02.06-.07.06-.12.1c-.11.07-.28.15-.46.22-.19.07-.36.11-.49.13-.13.02-.22 0-.21-.01 0-.01.08-.01.2-.05.12-.03.29-.09.48-.15.18-.07.35-.13.46-.19.06-.03.1-.05.13-.07.03-.02.04-.04.05-.03zM35.16 44.96c0 .01-.14.02-.36.01-.22-.01-.53-.04-.86-.12-.33-.08-.62-.19-.83-.28-.2-.09-.32-.17-.32-.17.01-.02.5.22 1.16.38.66.16 1.21.16 1.21.18zM39.59 43.57c.02.02-.21.17-.5.29-.3.12-.56.17-.56.15 0-.02.24-.1.53-.22.3-.12.52-.23.53-.22zM36.14 41.57c.01-.01.09.05.21.17.12.12.26.31.37.54.11.24.16.47.17.64.01.17 0 .27-.01.27-.03 0-.02-.42-.23-.88-.21-.46-.53-.73-.51-.75zM31.3 43.76s-.03-.05-.07-.14c-.04-.1-.08-.24-.12-.42-.08-.36-.09-.89.01-1.44.1-.56.28-1.04.42-1.38.07-.17.13-.31.17-.4.04-.09.07-.15.07-.14.01 0-.01.06-.04.15-.04.11-.09.25-.14.41-.12.35-.29.83-.39 1.38-.1.55-.1 1.06-.03 1.42.06.36.15.57.14.58zM27.69 42.28c-.01 0 0-.06.03-.15.02-.1.06-.24.12-.41.12-.34.33-.8.64-1.26.32-.45.68-.81.96-1.04.14-.11.26-.2.34-.26.08-.06.13-.08.14-.08.01.01-.17.14-.44.38s-.61.59-.93 1.04c-.31.45-.53.9-.66 1.23-.13.33-.19.55-.2.55zM28.27 36.88c0 .01-.17.02-.44.1-.27.07-.63.22-1 .45-.37.22-.67.47-.87.67-.2.2-.3.34-.31.33 0 0 .02-.04.06-.11.02-.03.05-.07.09-.12.03-.05.08-.09.12-.15.19-.21.49-.47.87-.7.37-.22.75-.37 1.03-.43.07-.02.13-.03.19-.04.06-.01.1-.01.15-.01h.12zM26.84 34.79c0 .03-.61-.08-1.32.1-.72.18-1.2.56-1.21.54-.01-.01.1-.11.31-.24s.51-.28.88-.37c.36-.09.71-.11.95-.09.24.02.39.06.39.07z" />
            <path style="fill:#313f44;" d="m35.24 44.96.03.1c.02.07.04.17.08.29.07.26.16.63.27 1.1.23.94.55 2.25.91 3.76l.02.06-.06-.02c-.51-.14-1.05-.3-1.61-.45-1.83-.52-3.48-.99-4.7-1.34l.03-.01c-.33.58-.61 1.05-.8 1.38-.09.16-.17.28-.22.37-.02.04-.04.07-.06.1-.01.02-.02.03-.02.03s0-.01.02-.04c.01-.03.03-.06.05-.1.05-.09.12-.22.21-.38.19-.34.45-.81.78-1.4l.01-.02.02.01 4.71 1.31c.56.16 1.1.31 1.61.45l-.05.05c-.35-1.51-.66-2.82-.88-3.76-.11-.46-.19-.84-.25-1.1-.03-.12-.05-.22-.06-.3-.01-.07-.02-.1-.02-.1zM38.7 44.63l.03.09c.02.07.04.15.07.26.06.24.15.57.25.97.21.83.49 1.96.81 3.2.15.63.31 1.22.43 1.77.13.55.18 1.06.12 1.48-.06.43-.21.75-.35.94-.14.19-.25.27-.25.27-.01-.01.1-.09.23-.29.13-.19.27-.51.32-.93.05-.42-.01-.92-.14-1.46-.14-.54-.28-1.14-.44-1.76-.31-1.25-.58-2.38-.79-3.21-.1-.4-.17-.73-.23-.97-.02-.11-.04-.2-.06-.27a.66.66 0 0 0-.02-.09z" />
            <path style="fill:#2d3336;fill-rule:nonzero" d="M40.03 53.67c.06 0 .12 0 .17-.01h-.37c.06.01.12.01.18.01z" />
            <path style="fill:#2c3c43;" d="M40.22 53.66h-.37c.12-.11.22-.23.32-.37 0 .01.04.02.13.03.04.01.09.02.15.02.06.01.13.01.2.01h.11c.07 0 .13 0 .21-.01-.19.16-.44.27-.74.3zm.36-.35c-.1 0-.19 0-.25-.01-.07 0-.11-.01-.14-.01h-.02c.39-.55.51-1.25.35-1.9l-.27-1.06c.04 0 .09-.01.15-.02.12-.02.26-.06.42-.11.13.37.26.75.39 1.12.13.38.26.78.21 1.17-.04.31-.16.58-.36.78-.15.02-.28.02-.4.02h-.07z" />
            <path style="fill:#2c3c43;" d="M39.85 53.66c.13-.15.25-.33.34-.52.1-.19.19-.44.23-.75.06-.42.01-.94-.12-1.48-.04-.19-.09-.38-.14-.58.01 0 .02.01.04.01h.03l.27 1.06c.17.65.04 1.35-.35 1.9-.09.13-.2.26-.32.37zM40.23 50.3l-.82-3.2c.03 0 .06 0 .09-.01.51.97.91 2 1.28 3.04-.16.06-.3.1-.41.13-.06.02-.11.03-.15.04z" />
            <path style="fill:#2c3c43;" d="M40.16 50.32c-.09-.37-.19-.76-.29-1.17-.19-.74-.36-1.43-.52-2.05h.06l.82 3.2c-.03.01-.06.01-.07.01zM39.41 47.06l-.08-.3c.05.09.1.19.15.28-.03.01-.05.01-.08.02z" />
            <path style="fill:#2c3c43;" d="M39.35 47.08c-.04-.17-.09-.34-.13-.5.04.06.07.13.11.19l.08.3c-.02 0-.05.01-.06.01z" />
            <path style="fill:#b2b3b3" d="M40.76 53.37h-.11c-.08 0-.14-.01-.2-.01-.06-.01-.11-.01-.15-.02-.08-.02-.13-.03-.13-.03h.02c.03 0 .07 0 .14.01.07 0 .15.01.25.01h.07c.12 0 .25-.01.4-.02l-.08.08c-.07 0-.14.01-.21.01zM40.23 50.34h-.01c-.02 0-.03 0-.04-.01v-.02c.02 0 .04-.01.07-.01.04-.01.09-.02.15-.04.11-.03.25-.08.41-.13.01.02.02.05.03.07-.16.05-.3.09-.42.11-.06.01-.11.02-.15.02h-.02zM39.41 47.1h-.06c0-.01 0-.01-.01-.02.01 0 .03-.01.06-.01.02 0 .05-.01.08-.02.01.02.02.03.03.05-.04 0-.07.01-.09.01z" />
            <path style="fill:#2d3336;fill-rule:nonzero" d="M40.19 53.15c.14-.29.22-.61.23-.91.01-.5-.03-.79-.14-1.28-.34-1.51-.77-2.96-1.11-4.47.02.03.04.06.06.1.04.16.08.33.13.5 0 .01 0 .02.01.02.16.62.33 1.31.52 2.05.1.4.2.79.29 1.17v.02c.05.2.1.39.14.58.13.55.18 1.06.12 1.48-.04.31-.13.56-.23.75z" />
            <path style="fill:#313f44;" d="M36.45 40.06c.5.15 1.06.08 1.51-.19.45-.27.78-.73.88-1.24.25.24.62.31.95.25.34-.06.64-.25.89-.48.46-.43.77-1.04.75-1.67-.02-.63-.42-1.25-1.01-1.46-.59-.21-1.34.06-1.58.64-.11-.33.17-.77.1-1.11-.14-.68-.54-1.08-.89-1.1l-1.6 6.35z" />
            <path style="fill:#313f44;" d="M37.19 39.88c.68-1.18.87-2.75 1.04-4.11.08-.64.22-1.55-.21-1.95-.47-.43-.51-1.09-1.05-1.42-.54-.33-1.26-.36-1.77.02l1.99 7.46z" />
            <path style="fill:#fabba3" d="M33.67 42.23v-1.85s-1.93-.34-2.04-1.89c-.11-1.54-.07-5.11-.07-5.11a5.08 5.08 0 0 1 5.27.33l-.08 5.44v1.77l-1.58 1.28-1.51 1.19v-1.16z" />
            <path style="fill:#313f44;" d="M33.12 36.6c.26-.33.68-.46 1.02-.23.35.23.48.74.29 1.12-.13.27-.43.51-.73.58 0 0 .69 1.27 1.14 1.6.53.4.77.6 1.42.67.64.08.56.08.93-.46.27-.39.35-.77.36-1.26l.06-3.42c.01-.41.01-.83-.08-1.23s-.3-.79-.63-1.01c-.36-.25-.83-.27-1.24-.4-.52-.17-.96-.53-1.45-.78s-1.08-.41-1.57-.15c-.35.18-.58.54-.92.74-.48.29-1.14.22-1.38.96-.08.25-.07.53.01.79.33 1 1.53 1.4 2.39.96.02.17-.14.55.03 1.08.06.17.08.43.33.44z" />
            <path style="fill:#f79a73;fill-rule:nonzero" d="M33.39 37.57c-.01 0-.01.03.02.07.03.04.08.08.17.09.17.02.38-.17.39-.43a.472.472 0 0 0-.11-.33.478.478 0 0 0-.23-.14c-.15-.03-.24.03-.24.04 0 .02.09-.01.22.04.12.04.27.18.26.38 0 .2-.16.35-.28.35-.13.01-.18-.08-.19-.07z" />
            <path style="fill:#44616b;" d="M41.22 36.75s-.01.05-.04.15c-.04.09-.1.22-.2.36-.2.28-.61.62-1.15.7a1.73 1.73 0 0 1-1.3-.34c-.14-.11-.24-.21-.3-.29-.06-.08-.09-.12-.08-.13.01-.01.13.17.41.37.27.19.74.38 1.26.3.51-.08.91-.39 1.11-.66.21-.27.28-.48.29-.47z" />
            <path style="fill:#44616b;" d="M41.01 36.5s-.01.05-.05.12a1.94 1.94 0 0 1-1.21.89c-.46.1-.88.01-1.16-.11-.14-.06-.24-.12-.31-.17-.07-.05-.1-.08-.1-.09.01-.01.15.1.43.21.27.1.68.18 1.12.08.43-.1.77-.35.97-.56.2-.21.29-.38.3-.37zM38.42 38.49s-.02.01-.06.04c-.04.02-.11.04-.2.05-.18.03-.46-.02-.74-.2-.28-.18-.51-.51-.69-.9-.19-.38-.34-.84-.63-1.22-.14-.19-.32-.35-.53-.45-.2-.1-.42-.14-.63-.17-.42-.04-.81-.01-1.13-.06-.32-.04-.58-.13-.73-.23a.92.92 0 0 1-.17-.13l-.05-.05c.01-.01.08.07.23.15.16.09.4.17.72.2.32.04.7 0 1.13.04.21.02.44.07.66.17.22.1.41.27.56.47.3.4.45.86.63 1.24s.39.71.66.89c.26.18.53.23.7.22.18-.01.27-.07.27-.06z" />
            <path style="fill:#44616b;" d="M38.27 37.93s-.02 0-.07.01c-.05 0-.11 0-.2-.03-.17-.04-.4-.17-.6-.41a3.3 3.3 0 0 1-.29-.41c-.09-.16-.17-.33-.26-.51s-.19-.37-.31-.54c-.06-.09-.14-.17-.22-.24-.04-.04-.09-.07-.13-.1-.05-.03-.09-.07-.14-.09-.2-.11-.42-.16-.63-.19-.21-.03-.43-.03-.63-.03-.4 0-.77.01-1.07-.03-.31-.04-.55-.12-.7-.21-.08-.04-.13-.09-.16-.11-.04-.03-.05-.04-.05-.04 0-.01.08.05.23.13.15.08.39.15.69.18.3.03.66.02 1.07.01.2 0 .42 0 .64.03.22.03.45.08.66.19.06.02.1.06.15.09.05.03.1.06.14.11.09.08.16.16.23.25.13.18.23.37.32.55.09.18.17.36.25.51.08.16.18.29.27.41.19.23.41.36.57.41.16.05.26.04.26.05z" />
            <path d="M38.65 38.72s-.04-.02-.08-.07c-.05-.05-.12-.13-.19-.24a1.907 1.907 0 0 1-.08-1.92c.06-.11.12-.2.17-.25.05-.05.07-.08.08-.08.01.01-.09.13-.2.36-.11.22-.21.56-.19.94.01.38.14.71.27.92.12.22.23.33.22.34z" style="fill:#f05b66;fill-rule:nonzero" />
            <path style="fill:#3f79bc;" d="M60.02 59.98c1.06.37 2.44.04 3.35-.62.91-.66 1.56-1.61 2.14-2.57.25-.41.49-.84.57-1.31.08-.47-.04-1-.4-1.31-.57-.48-1.44-.24-2.09.13-2.02 1.15-3.41 3.36-3.56 5.69zM61.16 62.52c.64.84 1.73 1.21 2.78 1.26 1.05.05 2.09-.24 3.08-.62.36-.14.75-.32.87-.69.09-.27 0-.59-.19-.81-.18-.22-.44-.37-.71-.48-.97-.41-2.08-.43-3.1-.17s-1.91.85-2.74 1.51zM60.01 55.45c.88.02 1.54-.75 1.94-1.53.55-1.08.74-2.35.52-3.54-.08-.45-.25-.93-.65-1.15-.41-.22-.94-.07-1.28.24-.34.31-.53.76-.67 1.2-.47 1.52-.37 3.27.14 4.79zM57.12 60.3c1.5-2.55 1.74-5.66.86-8.48-.14-.46-.41-.98-.89-1.01-.53-.03-.86.56-1.01 1.07-.51 1.79-.4 3.69-.29 5.55.07 1.14.46 2.12 1.33 2.87zM55.57 61.34c-.54-1.74-1.92-3.21-3.63-3.85-.4-.15-.9-.23-1.2.07-.29.3-.2.8-.01 1.17.3.6.79 1.08 1.28 1.55.44.42.9.84 1.46 1.09.56.24 1.59.31 2.1-.03z" />
            <path style="fill:#313f44;" d="M64.84 54.81s-.01.01-.03.02c-.02.02-.05.04-.08.06-.08.06-.18.14-.31.23-.07.05-.14.11-.23.17-.08.06-.17.14-.26.21-.19.15-.4.32-.62.53l-.35.32c-.12.11-.24.24-.37.36-.26.25-.51.54-.77.83-.52.61-1.05 1.32-1.54 2.1-.48.79-.88 1.58-1.19 2.32-.15.37-.29.73-.4 1.07-.06.17-.12.33-.16.49-.04.16-.09.31-.13.46-.09.29-.14.56-.2.8-.03.12-.05.23-.07.33-.02.1-.03.19-.05.28-.03.16-.05.29-.07.39-.01.04-.01.07-.02.1 0 .02-.01.03-.01.03v-.03c0-.03.01-.06.01-.1.01-.09.03-.22.06-.39.01-.08.03-.18.04-.28.02-.1.04-.21.07-.33.05-.24.1-.51.19-.8.04-.15.08-.3.13-.46.04-.16.1-.32.16-.49.1-.34.25-.7.4-1.07.31-.74.71-1.54 1.19-2.33.49-.79 1.03-1.5 1.55-2.11.27-.3.52-.59.78-.83.13-.13.25-.25.37-.36.12-.11.24-.22.36-.32.22-.21.44-.37.63-.52.1-.07.18-.15.27-.21.08-.06.16-.11.23-.16.14-.09.24-.17.32-.22.03-.02.06-.04.08-.06.02-.01.03-.02.03-.02z" />
            <path style="fill:#313f44;" d="M66.82 61.86s-.04 0-.1-.02c-.07-.01-.16-.04-.29-.06-.25-.05-.62-.11-1.08-.13a8.05 8.05 0 0 0-3.52.59c-1.3.54-2.29 1.39-2.9 2.08-.3.35-.53.65-.67.86-.07.11-.12.19-.16.25-.04.06-.06.09-.06.08 0 0 .01-.03.05-.09.03-.06.08-.15.15-.26.14-.22.35-.53.65-.88.6-.7 1.59-1.56 2.91-2.11a7.88 7.88 0 0 1 3.55-.58c.46.03.83.1 1.09.16.13.03.22.06.29.07l.1.03zM61.3 50.24s0 .01-.01.04-.01.07-.02.11c-.02.1-.06.25-.1.44l-.38 1.61c-.33 1.35-.81 3.22-1.31 5.29-.25 1.03-.47 2.02-.67 2.92-.19.9-.35 1.72-.47 2.4-.06.34-.11.65-.16.93-.05.27-.08.51-.11.7-.03.19-.05.34-.07.44-.01.05-.01.09-.02.12 0 .03-.01.04-.01.04v-.04c0-.03.01-.07.01-.12.01-.11.03-.26.06-.45.02-.19.06-.43.1-.7.04-.27.09-.59.15-.93.11-.69.27-1.5.46-2.41.19-.9.41-1.89.66-2.93.5-2.07.99-3.93 1.33-5.28.17-.67.31-1.22.4-1.6.05-.19.08-.33.11-.43.01-.05.02-.08.03-.11.01-.03.01-.04.01-.04zM57.86 65.07s0-.01-.01-.03c-.01-.02-.01-.05-.02-.09-.02-.09-.04-.2-.07-.35-.06-.31-.15-.75-.24-1.31-.19-1.11-.42-2.65-.56-4.36-.07-.86-.11-1.67-.12-2.42-.01-.74-.01-1.41.02-1.97.01-.28.03-.53.04-.76.01-.22.03-.41.04-.57.01-.15.03-.27.03-.36 0-.04.01-.07.01-.09 0-.02 0-.03.01-.03v.12c0 .09-.01.21-.02.36-.01.16-.02.35-.03.57a32.197 32.197 0 0 0-.03 2.73c.02.74.06 1.56.13 2.41.14 1.71.36 3.24.54 4.35.09.55.17 1 .22 1.31.03.15.05.27.06.36.01.04.01.07.01.09v.03z" />
            <path style="fill:#313f44;" d="M57.97 65.39s-.02-.03-.04-.09c-.03-.07-.06-.15-.1-.26-.02-.06-.05-.12-.07-.19-.03-.07-.06-.14-.1-.22-.03-.08-.07-.16-.11-.25-.04-.09-.09-.18-.14-.27-.05-.09-.1-.19-.15-.3-.06-.1-.12-.2-.18-.31-.12-.22-.28-.44-.43-.68-.32-.46-.7-.95-1.13-1.44-.43-.48-.88-.92-1.29-1.29-.21-.18-.41-.36-.61-.51-.1-.08-.19-.15-.28-.23-.09-.07-.18-.14-.27-.2a7.07 7.07 0 0 0-.47-.33c-.14-.1-.26-.18-.36-.24-.1-.06-.17-.11-.23-.15-.05-.03-.08-.05-.08-.06 0 0 .03.01.09.04s.14.08.24.14c.1.06.23.13.37.23.14.09.31.2.48.32.09.06.18.13.27.2.09.07.19.15.29.22.2.15.4.33.62.51.42.38.87.81 1.3 1.3.43.49.81.98 1.13 1.45.15.24.3.46.42.68.06.11.12.21.18.32l.15.3c.05.1.09.19.13.27.04.09.07.17.11.25.03.08.06.15.09.22.02.07.05.13.06.19.04.11.06.19.09.26l.03.09zM64.29 57.76c0 .01-.18.01-.47.03-.29.02-.69.05-1.13.14-.44.08-.82.19-1.1.29-.28.09-.44.16-.45.15 0 0 .04-.03.11-.06.07-.04.18-.08.32-.13.27-.1.66-.22 1.1-.31.44-.08.85-.11 1.14-.12.15 0 .27 0 .35.01.08.01.13.01.13.02zM65.41 63.27c-.02.01-.19-.48-.62-.93-.42-.46-.89-.66-.88-.68 0-.01.12.03.3.13s.41.27.63.5c.21.23.37.48.45.66.09.19.12.31.11.31zM61.57 52.3c.01.02-.26.29-.56.66-.3.37-.51.69-.53.68-.02-.01.17-.35.48-.73.3-.37.6-.63.62-.61zM60.66 50.74c.02 0 .08.26.14.59.06.33.09.6.07.6-.02 0-.08-.26-.14-.59-.06-.33-.09-.6-.07-.6zM57.87 55.64c.02.01-.18.42-.44.92s-.48.9-.5.89c-.02-.01.18-.42.44-.92s.48-.9.5-.89zM56.2 53.98c.02-.01.18.29.37.67.19.38.33.69.31.7-.02.01-.18-.29-.37-.67-.19-.38-.33-.69-.31-.7z" />
            <path style="fill:#313f44;" d="M53.75 59.66c0 .02-.3-.04-.67-.06-.37-.03-.67-.01-.67-.03 0-.02.3-.07.68-.04.38.03.67.12.67.13zM55.42 64.69l.83 4.38c.06.29.31.5.6.5h2.46c.3 0 .56-.22.61-.51l.72-4.36h-5.22z" />
            <path style="fill:#44616b;" d="M55.7 66.11h4.7l.25-1.42h-5.23z" />
            <path style="fill:#f9f8f8" d="m55.7 66.11.09.52h4.54l.07-.52z" />
        </g>
    </g>
</svg>