<?xml version="1.0" encoding="UTF-8"?>
<!DOCTYPE svg PUBLIC "-//W3C//DTD SVG 1.1//EN" "http://www.w3.org/Graphics/SVG/1.1/DTD/svg11.dtd">
<!-- Creator: CorelDRAW 2019 (64 Bit) -->
<svg xmlns="http://www.w3.org/2000/svg" xml:space="preserve" width="30.523mm" height="30.0001mm" version="1.1" style="shape-rendering:geometricPrecision; text-rendering:geometricPrecision; image-rendering:optimizeQuality; fill-rule:evenodd; clip-rule:evenodd"
viewBox="0 0 70.85 69.64"
 xmlns:xlink="http://www.w3.org/1999/xlink">
 <defs>
  <style type="text/css">
   <![CDATA[
    .fil5 {fill:#3F79BC}
    .fil3 {fill:#FEFEFE;fill-rule:nonzero}
    .fil11 {fill:#FABBA3;fill-rule:nonzero}
    .fil12 {fill:#F79A73;fill-rule:nonzero}
    .fil16 {fill:#F05B66;fill-rule:nonzero}
    .fil13 {fill:#F9F8F8;fill-rule:nonzero}
    .fil1 {fill:#F3F4F4;fill-rule:nonzero}
    .fil2 {fill:#EDEDEB;fill-rule:nonzero}
    .fil0 {fill:#E0E1E2;fill-rule:nonzero}
    .fil8 {fill:#B4B6B5;fill-rule:nonzero}
    .fil15 {fill:#B2B3B3;fill-rule:nonzero}
    .fil7 {fill:#8EB6E1;fill-rule:nonzero}
    .fil10 {fill:#44616B;fill-rule:nonzero}
    .fil6 {fill:#3F79BC;fill-rule:nonzero}
    .fil14 {fill:#2D3336;fill-rule:nonzero}
    .fil4 {fill:#313F44;fill-rule:nonzero}
    .fil9 {fill:#2C3C43;fill-rule:nonzero}
   ]]>
  </style>
 </defs>
 <g id="Camada_x0020_1">
  <metadata id="CorelCorpID_0Corel-Layer"/>
  <g id="_1486468311360">
   <path class="fil0" d="M15.6 24.38c-0.49,0.51 -0.48,1.32 0.03,1.82 0.51,0.49 1.32,0.48 1.82,-0.03 0.49,-0.51 0.48,-1.32 -0.03,-1.82 -0.51,-0.49 -1.32,-0.48 -1.82,0.03zm-0.64 -1.6c0.23,-0.14 0.47,-0.24 0.72,-0.31l0.15 -0.71 1.2 -0.02 0.17 0.7c0.25,0.06 0.5,0.16 0.73,0.29l0.61 -0.4 0.86 0.83 -0.38 0.62c0.14,0.23 0.24,0.47 0.31,0.72l0.71 0.15 0.02 1.2 -0.7 0.17c-0.06,0.25 -0.16,0.5 -0.29,0.73l0.4 0.61 -0.83 0.86 -0.62 -0.38c-0.23,0.14 -0.47,0.24 -0.72,0.31l-0.15 0.71 -1.2 0.02 -0.17 -0.7c-0.25,-0.06 -0.5,-0.16 -0.73,-0.29l-0.61 0.4 -0.86 -0.83 0.38 -0.62c-0.14,-0.23 -0.24,-0.47 -0.31,-0.72l-0.71 -0.15 -0.02 -1.2 0.7 -0.17c0.06,-0.25 0.16,-0.5 0.29,-0.73l-0.4 -0.61 0.83 -0.86 0.62 0.38z"/>
   <path class="fil0" d="M15.6 24.38c0,0 0.07,-0.09 0.24,-0.21 0.17,-0.11 0.46,-0.24 0.84,-0.2 0.18,0.02 0.39,0.08 0.57,0.2 0.18,0.12 0.35,0.29 0.46,0.52 0.06,0.11 0.1,0.23 0.12,0.36 0.02,0.13 0.03,0.26 0.01,0.4 -0.03,0.27 -0.16,0.53 -0.36,0.74 -0.2,0.2 -0.46,0.34 -0.73,0.38 -0.13,0.02 -0.27,0.03 -0.4,0.01 -0.13,-0.02 -0.25,-0.05 -0.36,-0.1 -0.23,-0.1 -0.41,-0.26 -0.54,-0.44 -0.13,-0.18 -0.19,-0.38 -0.22,-0.56 -0.05,-0.37 0.06,-0.67 0.17,-0.84 0.11,-0.18 0.2,-0.25 0.2,-0.25 0.01,0.01 -0.08,0.08 -0.18,0.26 -0.1,0.17 -0.2,0.47 -0.14,0.82 0.03,0.18 0.1,0.37 0.22,0.53 0.12,0.17 0.3,0.32 0.51,0.42 0.11,0.05 0.22,0.08 0.35,0.1 0.12,0.02 0.25,0.02 0.37,-0.01 0.25,-0.04 0.5,-0.17 0.69,-0.36 0.19,-0.2 0.31,-0.45 0.34,-0.7 0.02,-0.13 0.02,-0.25 -0.01,-0.37 -0.02,-0.12 -0.06,-0.24 -0.11,-0.34 -0.1,-0.21 -0.26,-0.38 -0.43,-0.5 -0.17,-0.12 -0.37,-0.18 -0.54,-0.2 -0.36,-0.04 -0.65,0.07 -0.82,0.17 -0.17,0.11 -0.25,0.19 -0.25,0.19z"/>
   <path class="fil0" d="M14.96 22.78c0,0 -0.01,-0.01 -0.04,-0.02 -0.03,-0.02 -0.07,-0.04 -0.12,-0.07 -0.11,-0.06 -0.26,-0.16 -0.47,-0.28l0.01 -0c-0.21,0.22 -0.49,0.51 -0.83,0.87l0 -0.02c0.12,0.18 0.26,0.39 0.4,0.6l0.01 0.01 -0.01 0.01c-0.12,0.21 -0.22,0.46 -0.28,0.72l-0 0.01 -0.01 0c-0.22,0.05 -0.46,0.11 -0.7,0.17l0.02 -0.03c0.01,0.38 0.02,0.78 0.02,1.2l-0.02 -0.03c0.22,0.05 0.46,0.1 0.71,0.15l0.02 0 0.01 0.02c0.07,0.23 0.17,0.48 0.31,0.71l0.01 0.02 -0.01 0.02c-0.12,0.19 -0.24,0.4 -0.37,0.62l-0.01 -0.04c0.27,0.26 0.56,0.54 0.86,0.83l-0.04 -0c0.19,-0.12 0.4,-0.26 0.6,-0.4l0.02 -0.01 0.02 0.01c0.21,0.12 0.46,0.22 0.72,0.28l0.02 0.01 0.01 0.02c0.05,0.22 0.11,0.46 0.17,0.7l-0.04 -0.03c0.38,-0.01 0.79,-0.01 1.2,-0.02l-0.04 0.03c0.05,-0.22 0.1,-0.47 0.15,-0.71l0 -0.02 0.02 -0.01c0.24,-0.07 0.48,-0.17 0.71,-0.31l0 -0 0.02 -0.01 0.02 0.01c0.21,0.13 0.41,0.25 0.62,0.38l-0.05 0.01c0.28,-0.29 0.56,-0.58 0.83,-0.86l-0 0.05c-0.13,-0.2 -0.27,-0.41 -0.4,-0.61l-0.01 -0.02 0.01 -0.02c0.13,-0.23 0.22,-0.47 0.28,-0.72l0.01 -0.02 0.02 -0.01c0.24,-0.06 0.47,-0.12 0.7,-0.17l-0.03 0.03c-0.01,-0.41 -0.01,-0.81 -0.02,-1.2l0.03 0.03c-0.24,-0.05 -0.48,-0.1 -0.71,-0.15l-0.02 -0 -0.01 -0.02c-0.07,-0.25 -0.18,-0.49 -0.31,-0.71l-0.01 -0.02 0.01 -0.02c0.13,-0.21 0.25,-0.42 0.38,-0.62l0 0.04c-0.3,-0.29 -0.59,-0.57 -0.86,-0.83l0.04 0c-0.21,0.14 -0.41,0.27 -0.61,0.4l-0.01 0.01 -0.01 -0.01c-0.24,-0.14 -0.48,-0.23 -0.72,-0.29l-0.01 -0 -0 -0.01c-0.06,-0.26 -0.12,-0.49 -0.17,-0.7l0.02 0.02c-0.46,0.01 -0.86,0.01 -1.2,0.02l0.02 -0.01c-0.06,0.28 -0.11,0.51 -0.15,0.71l-0 0.01 -0.01 0c-0.25,0.07 -0.43,0.15 -0.55,0.21 -0.06,0.03 -0.1,0.05 -0.13,0.07 -0.03,0.02 -0.04,0.02 -0.04,0.02 0,-0 0.01,-0.01 0.04,-0.03 0.03,-0.02 0.07,-0.04 0.13,-0.07 0.11,-0.06 0.29,-0.15 0.55,-0.22l-0.01 0.01c0.04,-0.19 0.09,-0.43 0.14,-0.71l0 -0.01 0.01 -0c0.34,-0.01 0.73,-0.02 1.2,-0.03l0.02 -0 0 0.02c0.05,0.22 0.11,0.45 0.17,0.7l-0.02 -0.02c0.24,0.06 0.49,0.15 0.73,0.29l-0.03 0c0.19,-0.13 0.39,-0.26 0.6,-0.4l0.02 -0.01 0.02 0.02c0.27,0.26 0.56,0.54 0.86,0.83l0.02 0.02 -0.01 0.02c-0.12,0.2 -0.25,0.41 -0.37,0.62l0 -0.03c0.13,0.22 0.24,0.46 0.32,0.72l-0.03 -0.02c0.23,0.05 0.47,0.1 0.71,0.15l0.03 0.01 0 0.03c0.01,0.39 0.01,0.79 0.02,1.2l0 0.03 -0.03 0.01c-0.23,0.06 -0.47,0.11 -0.7,0.17l0.03 -0.03c-0.06,0.25 -0.16,0.5 -0.29,0.74l-0 -0.04c0.13,0.2 0.26,0.4 0.4,0.61l0.02 0.02 -0.02 0.02c-0.27,0.28 -0.55,0.57 -0.83,0.86l-0.02 0.02 -0.03 -0.02c-0.2,-0.12 -0.41,-0.25 -0.62,-0.37l0.04 0 -0 0c-0.23,0.14 -0.48,0.25 -0.72,0.31l0.03 -0.03c-0.05,0.24 -0.1,0.48 -0.15,0.71l-0.01 0.03 -0.03 0c-0.41,0.01 -0.82,0.01 -1.2,0.02l-0.03 0 -0.01 -0.03c-0.06,-0.24 -0.12,-0.48 -0.17,-0.7l0.03 0.03c-0.27,-0.07 -0.52,-0.17 -0.74,-0.29l0.04 -0c-0.21,0.14 -0.42,0.27 -0.61,0.4l-0.02 0.02 -0.02 -0.02c-0.3,-0.29 -0.59,-0.57 -0.86,-0.83l-0.02 -0.02 0.01 -0.02c0.13,-0.22 0.26,-0.43 0.38,-0.62l0 0.03c-0.14,-0.24 -0.25,-0.49 -0.31,-0.72l0.02 0.02c-0.25,-0.05 -0.49,-0.1 -0.71,-0.15l-0.02 -0 -0 -0.02c-0.01,-0.42 -0.01,-0.82 -0.02,-1.2l-0 -0.02 0.02 -0c0.25,-0.06 0.48,-0.12 0.7,-0.17l-0.02 0.02c0.07,-0.27 0.17,-0.52 0.29,-0.73l0 0.02c-0.14,-0.22 -0.27,-0.42 -0.39,-0.61l-0.01 -0.01 0.01 -0.01c0.34,-0.35 0.62,-0.64 0.84,-0.86l0.01 -0.01 0.01 0c0.2,0.12 0.35,0.22 0.46,0.28 0.05,0.03 0.09,0.06 0.12,0.07 0.03,0.02 0.04,0.03 0.04,0.03z"/>
   <path class="fil1" d="M50.5 32.24c-0.3,0.31 -0.29,0.79 0.02,1.09 0.31,0.3 0.79,0.29 1.09,-0.02 0.3,-0.31 0.29,-0.79 -0.02,-1.09 -0.31,-0.3 -0.79,-0.29 -1.09,0.02zm-0.38 -0.95c0.14,-0.08 0.28,-0.14 0.43,-0.19l0.09 -0.42 0.72 -0.01 0.1 0.42c0.15,0.04 0.3,0.09 0.43,0.17l0.36 -0.24 0.52 0.5 -0.22 0.37c0.08,0.14 0.14,0.28 0.19,0.43l0.42 0.09 0.01 0.72 -0.42 0.1c-0.04,0.15 -0.09,0.3 -0.17,0.43l0.24 0.36 -0.5 0.52 -0.37 -0.22c-0.14,0.08 -0.28,0.14 -0.43,0.19l-0.09 0.42 -0.72 0.01 -0.1 -0.42c-0.15,-0.04 -0.3,-0.09 -0.43,-0.17l-0.36 0.24 -0.52 -0.5 0.22 -0.37c-0.08,-0.14 -0.14,-0.28 -0.19,-0.43l-0.42 -0.09 -0.01 -0.72 0.42 -0.1c0.04,-0.15 0.09,-0.3 0.17,-0.43l-0.24 -0.36 0.5 -0.52 0.37 0.22z"/>
   <path class="fil1" d="M50.5 32.24c0,0 0.04,-0.06 0.14,-0.13 0.1,-0.07 0.28,-0.14 0.5,-0.12 0.11,0.01 0.23,0.05 0.34,0.12 0.11,0.07 0.21,0.18 0.28,0.31 0.03,0.07 0.06,0.14 0.07,0.22 0.01,0.08 0.02,0.16 0,0.24 -0.02,0.16 -0.1,0.32 -0.21,0.44 -0.12,0.12 -0.28,0.2 -0.44,0.23 -0.08,0.01 -0.16,0.02 -0.24,0 -0.08,-0.01 -0.15,-0.03 -0.22,-0.06 -0.14,-0.06 -0.24,-0.16 -0.32,-0.26 -0.08,-0.11 -0.12,-0.23 -0.13,-0.34 -0.03,-0.22 0.04,-0.4 0.1,-0.51 0.07,-0.11 0.12,-0.15 0.12,-0.15 0,0 -0.05,0.05 -0.11,0.16 -0.06,0.1 -0.12,0.28 -0.09,0.49 0.02,0.11 0.06,0.22 0.13,0.32 0.07,0.1 0.18,0.19 0.31,0.25 0.06,0.03 0.13,0.05 0.21,0.06 0.07,0.01 0.15,0.01 0.22,-0 0.15,-0.02 0.3,-0.1 0.41,-0.22 0.11,-0.12 0.18,-0.27 0.2,-0.42 0.01,-0.08 0.01,-0.15 -0,-0.22 -0.01,-0.07 -0.03,-0.14 -0.06,-0.2 -0.06,-0.13 -0.16,-0.23 -0.26,-0.3 -0.1,-0.07 -0.22,-0.11 -0.32,-0.12 -0.21,-0.03 -0.39,0.04 -0.49,0.1 -0.1,0.06 -0.15,0.12 -0.15,0.11z"/>
   <path class="fil1" d="M50.12 31.28c0,0 -0.01,-0 -0.02,-0.01 -0.02,-0.01 -0.04,-0.02 -0.07,-0.04 -0.06,-0.04 -0.16,-0.09 -0.28,-0.16l0.01 -0c-0.13,0.13 -0.29,0.31 -0.5,0.52l0 -0.01c0.07,0.11 0.15,0.23 0.24,0.36l0 0.01 -0 0.01c-0.07,0.13 -0.13,0.27 -0.17,0.43l-0 0.01 -0.01 0c-0.13,0.03 -0.27,0.07 -0.42,0.1l0.01 -0.02c0,0.23 0.01,0.47 0.01,0.72l-0.01 -0.02c0.13,0.03 0.28,0.06 0.42,0.09l0.01 0 0 0.01c0.04,0.14 0.1,0.29 0.19,0.42l0.01 0.01 -0.01 0.01c-0.07,0.11 -0.15,0.24 -0.22,0.37l-0 -0.02c0.16,0.16 0.34,0.32 0.52,0.5l-0.03 -0c0.11,-0.07 0.24,-0.16 0.36,-0.24l0.01 -0.01 0.01 0.01c0.13,0.07 0.27,0.13 0.43,0.17l0.01 0 0 0.01c0.03,0.13 0.07,0.28 0.1,0.42l-0.02 -0.02c0.23,-0 0.47,-0.01 0.72,-0.01l-0.02 0.02c0.03,-0.13 0.06,-0.28 0.09,-0.42l0 -0.01 0.01 -0c0.14,-0.04 0.29,-0.1 0.42,-0.18l0 -0 0.01 -0.01 0.01 0.01c0.12,0.08 0.25,0.15 0.37,0.22l-0.03 0c0.17,-0.17 0.33,-0.35 0.5,-0.52l-0 0.03c-0.08,-0.12 -0.16,-0.24 -0.24,-0.36l-0.01 -0.01 0.01 -0.01c0.08,-0.14 0.13,-0.28 0.17,-0.43l0 -0.01 0.01 -0c0.14,-0.03 0.28,-0.07 0.42,-0.1l-0.02 0.02c-0,-0.24 -0.01,-0.48 -0.01,-0.72l0.02 0.02c-0.14,-0.03 -0.29,-0.06 -0.42,-0.09l-0.01 -0 -0 -0.01c-0.04,-0.15 -0.11,-0.29 -0.18,-0.42l-0.01 -0.01 0.01 -0.01c0.08,-0.13 0.15,-0.25 0.23,-0.37l0 0.02c-0.18,-0.18 -0.35,-0.34 -0.51,-0.5l0.02 0c-0.13,0.08 -0.25,0.16 -0.36,0.24l-0.01 0.01 -0.01 -0c-0.14,-0.08 -0.29,-0.14 -0.43,-0.17l-0.01 -0 -0 -0.01c-0.04,-0.15 -0.07,-0.29 -0.1,-0.42l0.01 0.01c-0.28,0 -0.51,0.01 -0.72,0.01l0.01 -0.01c-0.04,0.17 -0.07,0.31 -0.09,0.42l-0 0 -0 0c-0.15,0.04 -0.26,0.09 -0.33,0.13 -0.03,0.02 -0.06,0.03 -0.08,0.04 -0.02,0.01 -0.03,0.01 -0.03,0.01 0,-0 0.01,-0.01 0.02,-0.02 0.02,-0.01 0.04,-0.03 0.08,-0.04 0.07,-0.04 0.18,-0.09 0.33,-0.13l-0 0.01c0.02,-0.12 0.05,-0.26 0.09,-0.43l0 -0.01 0.01 0c0.2,-0 0.44,-0.01 0.72,-0.02l0.01 -0 0 0.01c0.03,0.13 0.07,0.27 0.1,0.42l-0.01 -0.01c0.14,0.04 0.29,0.09 0.44,0.17l-0.02 0c0.12,-0.08 0.23,-0.15 0.36,-0.24l0.01 -0.01 0.01 0.01c0.16,0.16 0.33,0.32 0.52,0.5l0.01 0.01 -0.01 0.01c-0.07,0.12 -0.15,0.24 -0.22,0.37l0 -0.02c0.08,0.13 0.14,0.28 0.19,0.43l-0.02 -0.01c0.14,0.03 0.28,0.06 0.42,0.09l0.02 0 0 0.02c0,0.23 0.01,0.47 0.01,0.72l0 0.02 -0.02 0c-0.14,0.03 -0.28,0.07 -0.42,0.1l0.02 -0.02c-0.04,0.15 -0.09,0.3 -0.17,0.44l-0 -0.02c0.08,0.12 0.16,0.24 0.24,0.36l0.01 0.01 -0.01 0.01c-0.16,0.17 -0.33,0.34 -0.5,0.52l-0.01 0.01 -0.01 -0.01c-0.12,-0.07 -0.25,-0.15 -0.37,-0.22l0.02 0 -0 0c-0.14,0.08 -0.29,0.15 -0.43,0.19l0.02 -0.02c-0.03,0.15 -0.06,0.29 -0.09,0.42l-0 0.02 -0.02 0c-0.25,0 -0.49,0.01 -0.72,0.01l-0.02 0 -0 -0.02c-0.04,-0.15 -0.07,-0.29 -0.1,-0.42l0.02 0.02c-0.16,-0.04 -0.31,-0.1 -0.44,-0.17l0.02 -0c-0.13,0.08 -0.25,0.16 -0.36,0.24l-0.01 0.01 -0.01 -0.01c-0.18,-0.17 -0.35,-0.34 -0.52,-0.5l-0.01 -0.01 0.01 -0.01c0.08,-0.13 0.16,-0.26 0.22,-0.37l0 0.02c-0.09,-0.14 -0.15,-0.29 -0.19,-0.43l0.01 0.01c-0.15,-0.03 -0.29,-0.06 -0.42,-0.09l-0.01 -0 -0 -0.01c-0,-0.25 -0.01,-0.49 -0.01,-0.72l-0 -0.01 0.01 -0c0.15,-0.04 0.29,-0.07 0.42,-0.1l-0.01 0.01c0.04,-0.16 0.1,-0.31 0.17,-0.44l0 0.01c-0.09,-0.13 -0.16,-0.25 -0.24,-0.36l-0 -0.01 0.01 -0.01c0.2,-0.21 0.37,-0.38 0.5,-0.51l0 -0 0 0c0.12,0.07 0.21,0.13 0.27,0.17 0.03,0.02 0.05,0.03 0.07,0.04 0.02,0.01 0.02,0.02 0.02,0.02z"/>
   <path class="fil1" d="M56.24 6.19c-0.38,0.39 -0.37,1.02 0.02,1.4 0.39,0.38 1.02,0.37 1.4,-0.02 0.38,-0.39 0.37,-1.02 -0.02,-1.4 -0.39,-0.38 -1.02,-0.37 -1.4,0.02zm-0.49 -1.23c0.17,-0.11 0.36,-0.19 0.55,-0.24l0.11 -0.55 0.92 -0.02 0.13 0.54c0.19,0.05 0.38,0.12 0.56,0.22l0.47 -0.31 0.66 0.64 -0.29 0.48c0.11,0.17 0.19,0.36 0.24,0.55l0.55 0.11 0.02 0.92 -0.54 0.13c-0.05,0.19 -0.12,0.38 -0.22,0.56l0.31 0.47 -0.64 0.66 -0.48 -0.29c-0.17,0.11 -0.36,0.19 -0.55,0.24l-0.11 0.55 -0.92 0.02 -0.13 -0.54c-0.19,-0.05 -0.38,-0.12 -0.56,-0.22l-0.47 0.31 -0.66 -0.64 0.29 -0.48c-0.11,-0.17 -0.19,-0.36 -0.24,-0.55l-0.55 -0.11 -0.02 -0.92 0.54 -0.13c0.05,-0.19 0.12,-0.38 0.22,-0.56l-0.31 -0.47 0.64 -0.66 0.48 0.29z"/>
   <path class="fil1" d="M56.24 6.19c0,0 0.05,-0.07 0.18,-0.16 0.13,-0.09 0.36,-0.18 0.65,-0.15 0.14,0.02 0.3,0.06 0.44,0.16 0.14,0.09 0.27,0.23 0.36,0.4 0.04,0.08 0.07,0.18 0.09,0.28 0.02,0.1 0.02,0.2 0.01,0.3 -0.03,0.21 -0.12,0.41 -0.27,0.57 -0.15,0.16 -0.36,0.26 -0.56,0.3 -0.1,0.02 -0.21,0.02 -0.3,0.01 -0.1,-0.01 -0.19,-0.04 -0.28,-0.08 -0.18,-0.08 -0.31,-0.2 -0.41,-0.34 -0.1,-0.14 -0.15,-0.29 -0.17,-0.43 -0.04,-0.29 0.05,-0.52 0.13,-0.65 0.08,-0.14 0.16,-0.19 0.16,-0.19 0.01,0 -0.06,0.06 -0.14,0.2 -0.07,0.13 -0.15,0.36 -0.11,0.63 0.02,0.14 0.07,0.28 0.17,0.41 0.1,0.13 0.23,0.25 0.4,0.32 0.08,0.04 0.17,0.06 0.27,0.07 0.09,0.01 0.19,0.01 0.29,-0.01 0.19,-0.03 0.38,-0.13 0.53,-0.28 0.14,-0.15 0.24,-0.34 0.26,-0.54 0.01,-0.1 0.01,-0.2 -0,-0.29 -0.01,-0.09 -0.04,-0.18 -0.08,-0.26 -0.08,-0.16 -0.2,-0.29 -0.33,-0.38 -0.13,-0.09 -0.28,-0.14 -0.42,-0.16 -0.28,-0.03 -0.5,0.05 -0.63,0.13 -0.13,0.08 -0.19,0.15 -0.2,0.14z"/>
   <path class="fil1" d="M55.75 4.96c0,0 -0.01,-0 -0.03,-0.02 -0.02,-0.01 -0.05,-0.03 -0.09,-0.05 -0.08,-0.05 -0.2,-0.12 -0.36,-0.21l0.01 -0c-0.16,0.17 -0.38,0.4 -0.64,0.67l0 -0.02c0.09,0.14 0.2,0.3 0.31,0.47l0.01 0.01 -0 0.01c-0.09,0.16 -0.17,0.35 -0.22,0.56l-0 0.01 -0.01 0c-0.17,0.04 -0.35,0.09 -0.54,0.13l0.02 -0.02c0.01,0.29 0.01,0.6 0.02,0.92l-0.02 -0.02c0.17,0.03 0.36,0.07 0.55,0.11l0.01 0 0 0.01c0.05,0.18 0.13,0.37 0.24,0.55l0.01 0.01 -0.01 0.01c-0.09,0.15 -0.19,0.31 -0.29,0.48l-0 -0.03c0.21,0.2 0.43,0.42 0.67,0.64l-0.03 -0c0.15,-0.1 0.3,-0.2 0.47,-0.31l0.01 -0.01 0.01 0.01c0.16,0.09 0.35,0.17 0.55,0.22l0.02 0 0 0.02c0.04,0.17 0.09,0.35 0.13,0.54l-0.03 -0.02c0.29,-0.01 0.61,-0.01 0.92,-0.02l-0.03 0.02c0.04,-0.17 0.07,-0.36 0.11,-0.55l0 -0.02 0.02 -0c0.18,-0.05 0.37,-0.13 0.54,-0.24l0 -0 0.02 -0.01 0.01 0.01c0.16,0.1 0.32,0.19 0.48,0.29l-0.03 0c0.22,-0.22 0.43,-0.45 0.64,-0.66l-0 0.04c-0.1,-0.16 -0.2,-0.31 -0.31,-0.47l-0.01 -0.01 0.01 -0.01c0.1,-0.18 0.17,-0.36 0.22,-0.55l0 -0.02 0.02 -0c0.18,-0.04 0.36,-0.09 0.54,-0.13l-0.02 0.03c-0.01,-0.32 -0.01,-0.62 -0.02,-0.92l0.02 0.03c-0.19,-0.04 -0.37,-0.08 -0.55,-0.11l-0.02 -0 -0 -0.01c-0.06,-0.2 -0.14,-0.38 -0.24,-0.55l-0.01 -0.01 0.01 -0.01c0.1,-0.16 0.2,-0.32 0.29,-0.48l0 0.03c-0.23,-0.23 -0.45,-0.44 -0.66,-0.64l0.03 0c-0.16,0.11 -0.32,0.21 -0.47,0.3l-0.01 0.01 -0.01 -0.01c-0.19,-0.1 -0.37,-0.17 -0.55,-0.22l-0.01 -0 -0 -0.01c-0.05,-0.2 -0.09,-0.37 -0.13,-0.54l0.02 0.01c-0.36,0 -0.66,0.01 -0.92,0.01l0.01 -0.01c-0.05,0.22 -0.09,0.4 -0.12,0.55l-0 0.01 -0.01 0c-0.2,0.05 -0.33,0.12 -0.42,0.16 -0.04,0.02 -0.08,0.04 -0.1,0.05 -0.02,0.01 -0.03,0.02 -0.03,0.02 0,-0 0.01,-0.01 0.03,-0.02 0.02,-0.01 0.05,-0.03 0.1,-0.06 0.09,-0.05 0.23,-0.11 0.42,-0.17l-0.01 0.01c0.03,-0.15 0.07,-0.33 0.11,-0.55l0 -0.01 0.01 0c0.26,-0.01 0.57,-0.01 0.92,-0.02l0.01 -0 0 0.01c0.04,0.17 0.09,0.34 0.13,0.54l-0.01 -0.01c0.19,0.05 0.38,0.12 0.57,0.22l-0.02 0c0.15,-0.1 0.3,-0.2 0.47,-0.31l0.01 -0.01 0.01 0.01c0.21,0.2 0.43,0.41 0.67,0.64l0.01 0.01 -0.01 0.02c-0.09,0.15 -0.19,0.31 -0.29,0.48l0 -0.03c0.1,0.17 0.19,0.36 0.24,0.56l-0.02 -0.02c0.18,0.04 0.36,0.07 0.55,0.11l0.02 0 0 0.02c0.01,0.3 0.01,0.61 0.02,0.92l0 0.02 -0.02 0.01c-0.18,0.04 -0.36,0.09 -0.54,0.13l0.02 -0.02c-0.05,0.19 -0.12,0.39 -0.22,0.57l-0 -0.03c0.1,0.15 0.2,0.31 0.31,0.47l0.01 0.02 -0.02 0.02c-0.21,0.22 -0.42,0.44 -0.64,0.66l-0.02 0.02 -0.02 -0.01c-0.16,-0.1 -0.32,-0.19 -0.48,-0.29l0.03 0 -0 0c-0.18,0.11 -0.37,0.19 -0.56,0.24l0.02 -0.02c-0.04,0.19 -0.08,0.37 -0.11,0.55l-0 0.02 -0.02 0c-0.32,0.01 -0.63,0.01 -0.92,0.02l-0.02 0 -0.01 -0.02c-0.05,-0.19 -0.09,-0.37 -0.13,-0.54l0.02 0.02c-0.21,-0.05 -0.4,-0.13 -0.57,-0.22l0.03 -0c-0.16,0.11 -0.32,0.21 -0.47,0.31l-0.02 0.01 -0.02 -0.01c-0.23,-0.22 -0.45,-0.44 -0.66,-0.64l-0.01 -0.01 0.01 -0.02c0.1,-0.17 0.2,-0.33 0.29,-0.48l0 0.03c-0.11,-0.18 -0.19,-0.38 -0.24,-0.56l0.02 0.02c-0.19,-0.04 -0.38,-0.08 -0.55,-0.11l-0.02 -0 -0 -0.02c-0,-0.32 -0.01,-0.63 -0.01,-0.92l-0 -0.02 0.02 -0c0.19,-0.05 0.37,-0.09 0.54,-0.13l-0.01 0.01c0.05,-0.21 0.13,-0.4 0.22,-0.56l0 0.02c-0.11,-0.17 -0.21,-0.33 -0.3,-0.47l-0.01 -0.01 0.01 -0.01c0.26,-0.27 0.48,-0.49 0.64,-0.66l0.01 -0.01 0.01 0c0.15,0.09 0.27,0.17 0.35,0.22 0.04,0.02 0.07,0.04 0.09,0.06 0.02,0.01 0.03,0.02 0.03,0.02z"/>
   <path class="fil1" d="M41.06 10.01c-0.3,0.31 -0.29,0.79 0.02,1.09 0.31,0.3 0.79,0.29 1.09,-0.02 0.3,-0.31 0.29,-0.79 -0.02,-1.09 -0.31,-0.3 -0.79,-0.29 -1.09,0.02zm-0.38 -0.95c0.14,-0.08 0.28,-0.14 0.43,-0.19l0.09 -0.42 0.72 -0.01 0.1 0.42c0.15,0.04 0.3,0.09 0.43,0.17l0.36 -0.24 0.52 0.5 -0.22 0.37c0.08,0.14 0.14,0.28 0.19,0.43l0.42 0.09 0.01 0.72 -0.42 0.1c-0.04,0.15 -0.09,0.3 -0.17,0.43l0.24 0.36 -0.5 0.52 -0.37 -0.22c-0.14,0.08 -0.28,0.14 -0.43,0.19l-0.09 0.42 -0.72 0.01 -0.1 -0.42c-0.15,-0.04 -0.3,-0.09 -0.43,-0.17l-0.36 0.24 -0.52 -0.5 0.22 -0.37c-0.08,-0.14 -0.14,-0.28 -0.19,-0.43l-0.42 -0.09 -0.01 -0.72 0.42 -0.1c0.04,-0.15 0.09,-0.3 0.17,-0.43l-0.24 -0.36 0.5 -0.52 0.37 0.22z"/>
   <path class="fil1" d="M41.06 10.01c0,0 0.04,-0.06 0.14,-0.13 0.1,-0.07 0.28,-0.14 0.5,-0.12 0.11,0.01 0.23,0.05 0.34,0.12 0.11,0.07 0.21,0.18 0.28,0.31 0.03,0.07 0.06,0.14 0.07,0.22 0.01,0.08 0.02,0.16 0,0.24 -0.02,0.16 -0.1,0.32 -0.21,0.44 -0.12,0.12 -0.28,0.2 -0.44,0.23 -0.08,0.01 -0.16,0.02 -0.24,0 -0.08,-0.01 -0.15,-0.03 -0.22,-0.06 -0.14,-0.06 -0.24,-0.16 -0.32,-0.26 -0.08,-0.11 -0.12,-0.23 -0.13,-0.34 -0.03,-0.22 0.04,-0.4 0.1,-0.51 0.07,-0.11 0.12,-0.15 0.12,-0.15 0,0 -0.05,0.05 -0.11,0.16 -0.06,0.1 -0.12,0.28 -0.08,0.49 0.02,0.11 0.06,0.22 0.13,0.32 0.07,0.1 0.18,0.19 0.31,0.25 0.06,0.03 0.13,0.05 0.21,0.06 0.07,0.01 0.15,0.01 0.22,-0 0.15,-0.02 0.3,-0.1 0.41,-0.22 0.11,-0.12 0.18,-0.27 0.2,-0.42 0.01,-0.08 0.01,-0.15 -0,-0.22 -0.01,-0.07 -0.03,-0.14 -0.06,-0.2 -0.06,-0.13 -0.16,-0.23 -0.26,-0.3 -0.1,-0.07 -0.22,-0.11 -0.32,-0.12 -0.21,-0.03 -0.39,0.04 -0.49,0.1 -0.1,0.06 -0.15,0.12 -0.15,0.11z"/>
   <path class="fil1" d="M40.68 9.05c0,0 -0.01,-0 -0.02,-0.01 -0.02,-0.01 -0.04,-0.02 -0.07,-0.04 -0.06,-0.04 -0.16,-0.09 -0.28,-0.17l0.01 -0c-0.13,0.13 -0.29,0.31 -0.49,0.52l0 -0.01c0.07,0.11 0.15,0.23 0.24,0.36l0 0.01 -0 0.01c-0.07,0.13 -0.13,0.27 -0.17,0.43l-0 0.01 -0.01 0c-0.13,0.03 -0.27,0.07 -0.42,0.1l0.01 -0.02c0,0.23 0.01,0.47 0.01,0.72l-0.01 -0.02c0.13,0.03 0.28,0.06 0.42,0.09l0.01 0 0 0.01c0.04,0.14 0.1,0.29 0.19,0.42l0.01 0.01 -0.01 0.01c-0.07,0.12 -0.15,0.24 -0.22,0.37l-0 -0.02c0.16,0.16 0.34,0.32 0.52,0.5l-0.03 -0c0.11,-0.07 0.24,-0.16 0.36,-0.24l0.01 -0.01 0.01 0.01c0.13,0.07 0.27,0.13 0.43,0.17l0.01 0 0 0.01c0.03,0.13 0.07,0.28 0.1,0.42l-0.02 -0.02c0.23,-0 0.47,-0.01 0.72,-0.01l-0.02 0.02c0.03,-0.13 0.06,-0.28 0.09,-0.42l0 -0.01 0.01 -0c0.14,-0.04 0.29,-0.1 0.42,-0.18l0 -0 0.01 -0.01 0.01 0.01c0.12,0.08 0.25,0.15 0.37,0.22l-0.03 0c0.17,-0.17 0.33,-0.35 0.5,-0.52l-0 0.03c-0.08,-0.12 -0.16,-0.24 -0.24,-0.36l-0.01 -0.01 0.01 -0.01c0.08,-0.14 0.13,-0.28 0.17,-0.43l0 -0.01 0.01 -0c0.14,-0.03 0.28,-0.07 0.42,-0.1l-0.02 0.02c-0,-0.24 -0.01,-0.48 -0.01,-0.72l0.02 0.02c-0.14,-0.03 -0.29,-0.06 -0.42,-0.09l-0.01 -0 -0 -0.01c-0.04,-0.15 -0.11,-0.29 -0.18,-0.42l-0.01 -0.01 0.01 -0.01c0.08,-0.13 0.15,-0.25 0.23,-0.37l0 0.02c-0.18,-0.18 -0.35,-0.34 -0.51,-0.5l0.02 0c-0.13,0.08 -0.25,0.16 -0.36,0.24l-0.01 0.01 -0.01 -0c-0.14,-0.08 -0.29,-0.14 -0.43,-0.17l-0.01 -0 -0 -0.01c-0.04,-0.15 -0.07,-0.29 -0.1,-0.42l0.01 0.01c-0.28,0 -0.51,0.01 -0.72,0.01l0.01 -0.01c-0.04,0.17 -0.07,0.31 -0.09,0.42l-0 0 -0 0c-0.15,0.04 -0.26,0.09 -0.33,0.13 -0.03,0.02 -0.06,0.03 -0.08,0.04 -0.02,0.01 -0.03,0.01 -0.03,0.01 0,-0 0.01,-0.01 0.02,-0.02 0.02,-0.01 0.04,-0.03 0.08,-0.04 0.07,-0.04 0.18,-0.09 0.33,-0.13l-0 0.01c0.02,-0.12 0.05,-0.26 0.09,-0.42l0 -0.01 0.01 0c0.2,-0 0.44,-0.01 0.72,-0.02l0.01 0 0 0.01c0.03,0.13 0.07,0.27 0.1,0.42l-0.01 -0.01c0.14,0.04 0.29,0.09 0.44,0.17l-0.02 0c0.12,-0.08 0.23,-0.15 0.36,-0.24l0.01 -0.01 0.01 0.01c0.16,0.16 0.34,0.32 0.52,0.5l0.01 0.01 -0.01 0.01c-0.07,0.12 -0.15,0.24 -0.22,0.37l0 -0.02c0.08,0.13 0.14,0.28 0.19,0.43l-0.02 -0.01c0.14,0.03 0.28,0.06 0.42,0.09l0.02 0 0 0.02c0,0.23 0.01,0.47 0.01,0.72l0 0.02 -0.02 0c-0.14,0.03 -0.28,0.07 -0.42,0.1l0.02 -0.02c-0.04,0.15 -0.1,0.3 -0.17,0.44l-0 -0.02c0.08,0.12 0.16,0.24 0.24,0.36l0.01 0.01 -0.01 0.01c-0.16,0.17 -0.33,0.34 -0.5,0.52l-0.01 0.01 -0.02 -0.01c-0.12,-0.07 -0.25,-0.15 -0.37,-0.22l0.02 0 -0 0c-0.14,0.08 -0.29,0.15 -0.43,0.19l0.02 -0.02c-0.03,0.15 -0.06,0.29 -0.09,0.42l-0 0.02 -0.02 0c-0.25,0 -0.49,0.01 -0.72,0.01l-0.02 0 -0 -0.02c-0.04,-0.15 -0.07,-0.29 -0.1,-0.42l0.02 0.02c-0.16,-0.04 -0.31,-0.1 -0.44,-0.17l0.02 -0c-0.13,0.08 -0.25,0.16 -0.36,0.24l-0.01 0.01 -0.01 -0.01c-0.18,-0.17 -0.35,-0.34 -0.52,-0.5l-0.01 -0.01 0.01 -0.01c0.08,-0.13 0.16,-0.26 0.23,-0.37l0 0.02c-0.09,-0.14 -0.15,-0.29 -0.19,-0.43l0.01 0.01c-0.15,-0.03 -0.29,-0.06 -0.42,-0.09l-0.01 -0 -0 -0.01c-0,-0.25 -0.01,-0.49 -0.01,-0.72l-0 -0.01 0.01 -0c0.15,-0.04 0.29,-0.07 0.42,-0.1l-0.01 0.01c0.04,-0.16 0.1,-0.31 0.17,-0.44l0 0.01c-0.09,-0.13 -0.16,-0.25 -0.24,-0.36l-0 -0.01 0.01 -0.01c0.2,-0.21 0.37,-0.38 0.5,-0.51l0 -0 0 0c0.12,0.07 0.21,0.13 0.27,0.17 0.03,0.02 0.05,0.03 0.07,0.04 0.02,0.01 0.02,0.02 0.02,0.02z"/>
   <path class="fil1" d="M8.21 22.65c-0.3,0.31 -0.29,0.79 0.02,1.09 0.31,0.29 0.79,0.29 1.09,-0.02 0.3,-0.31 0.29,-0.79 -0.02,-1.09 -0.31,-0.3 -0.79,-0.29 -1.09,0.02zm-0.38 -0.95c0.14,-0.08 0.28,-0.14 0.43,-0.19l0.09 -0.42 0.72 -0.01 0.1 0.42c0.15,0.04 0.3,0.09 0.43,0.17l0.36 -0.24 0.52 0.5 -0.22 0.37c0.08,0.14 0.14,0.28 0.19,0.43l0.42 0.09 0.01 0.72 -0.42 0.1c-0.04,0.15 -0.09,0.3 -0.17,0.43l0.24 0.36 -0.5 0.52 -0.37 -0.22c-0.14,0.08 -0.28,0.14 -0.43,0.19l-0.09 0.42 -0.72 0.01 -0.1 -0.42c-0.15,-0.04 -0.3,-0.09 -0.43,-0.17l-0.36 0.24 -0.52 -0.5 0.22 -0.37c-0.08,-0.14 -0.14,-0.28 -0.19,-0.43l-0.42 -0.09 -0.01 -0.72 0.42 -0.1c0.04,-0.15 0.09,-0.3 0.17,-0.43l-0.24 -0.36 0.5 -0.52 0.37 0.22z"/>
   <path class="fil1" d="M8.21 22.65c0,0 0.04,-0.06 0.14,-0.13 0.1,-0.07 0.28,-0.14 0.5,-0.12 0.11,0.01 0.23,0.05 0.34,0.12 0.11,0.07 0.21,0.18 0.28,0.31 0.03,0.07 0.06,0.14 0.07,0.22 0.01,0.08 0.02,0.16 0,0.24 -0.02,0.16 -0.1,0.32 -0.21,0.44 -0.12,0.12 -0.28,0.2 -0.44,0.23 -0.08,0.01 -0.16,0.02 -0.24,0 -0.08,-0.01 -0.15,-0.03 -0.22,-0.06 -0.14,-0.06 -0.24,-0.16 -0.32,-0.26 -0.08,-0.11 -0.12,-0.23 -0.13,-0.34 -0.03,-0.22 0.04,-0.4 0.1,-0.51 0.07,-0.11 0.12,-0.15 0.12,-0.15 0,0 -0.05,0.05 -0.11,0.16 -0.06,0.1 -0.12,0.28 -0.08,0.49 0.02,0.11 0.06,0.22 0.13,0.32 0.07,0.1 0.18,0.19 0.31,0.25 0.06,0.03 0.13,0.05 0.21,0.06 0.07,0.01 0.15,0.01 0.22,-0 0.15,-0.02 0.3,-0.1 0.41,-0.22 0.11,-0.12 0.18,-0.27 0.2,-0.42 0.01,-0.08 0.01,-0.15 -0,-0.22 -0.01,-0.07 -0.03,-0.14 -0.06,-0.2 -0.06,-0.13 -0.16,-0.23 -0.26,-0.3 -0.1,-0.07 -0.22,-0.11 -0.32,-0.12 -0.21,-0.03 -0.39,0.04 -0.49,0.1 -0.1,0.06 -0.15,0.12 -0.15,0.11z"/>
   <path class="fil1" d="M7.83 21.7c0,0 -0.01,-0 -0.02,-0.01 -0.02,-0.01 -0.04,-0.02 -0.07,-0.04 -0.06,-0.04 -0.16,-0.09 -0.28,-0.16l0.01 -0c-0.13,0.13 -0.29,0.31 -0.49,0.52l0 -0.01c0.07,0.11 0.15,0.23 0.24,0.36l0 0.01 -0 0.01c-0.07,0.13 -0.13,0.27 -0.17,0.43l-0 0.01 -0.01 0c-0.13,0.03 -0.27,0.07 -0.42,0.1l0.01 -0.02c0,0.23 0.01,0.47 0.01,0.72l-0.01 -0.02c0.13,0.03 0.28,0.06 0.42,0.09l0.01 0 0 0.01c0.04,0.14 0.1,0.29 0.19,0.42l0.01 0.01 -0.01 0.01c-0.07,0.11 -0.15,0.24 -0.22,0.37l-0 -0.02c0.16,0.16 0.34,0.32 0.52,0.5l-0.03 -0c0.11,-0.07 0.24,-0.16 0.36,-0.24l0.01 -0.01 0.01 0.01c0.13,0.07 0.27,0.13 0.43,0.17l0.01 0 0 0.01c0.03,0.13 0.07,0.28 0.1,0.42l-0.02 -0.02c0.23,-0 0.47,-0.01 0.72,-0.01l-0.02 0.02c0.03,-0.13 0.06,-0.28 0.09,-0.42l0 -0.01 0.01 -0c0.14,-0.04 0.29,-0.1 0.42,-0.18l0 -0 0.01 -0.01 0.01 0.01c0.12,0.08 0.25,0.15 0.37,0.22l-0.03 0c0.17,-0.17 0.33,-0.35 0.5,-0.52l-0 0.03c-0.08,-0.12 -0.16,-0.24 -0.24,-0.36l-0.01 -0.01 0.01 -0.01c0.08,-0.14 0.13,-0.28 0.17,-0.43l0 -0.01 0.01 -0c0.14,-0.03 0.28,-0.07 0.42,-0.1l-0.02 0.02c-0,-0.24 -0.01,-0.48 -0.01,-0.72l0.02 0.02c-0.14,-0.03 -0.29,-0.06 -0.42,-0.09l-0.01 -0 -0 -0.01c-0.04,-0.15 -0.11,-0.29 -0.18,-0.42l-0.01 -0.01 0.01 -0.01c0.08,-0.13 0.15,-0.25 0.23,-0.37l0 0.02c-0.18,-0.18 -0.35,-0.34 -0.51,-0.5l0.02 0c-0.13,0.08 -0.25,0.16 -0.36,0.24l-0.01 0.01 -0.01 -0c-0.14,-0.08 -0.29,-0.14 -0.43,-0.17l-0.01 -0 -0 -0.01c-0.04,-0.15 -0.07,-0.29 -0.1,-0.42l0.01 0.01c-0.28,0 -0.51,0.01 -0.72,0.01l0.01 -0.01c-0.04,0.17 -0.07,0.31 -0.09,0.42l-0 0 -0 0c-0.15,0.04 -0.26,0.09 -0.33,0.13 -0.03,0.02 -0.06,0.03 -0.08,0.04 -0.02,0.01 -0.03,0.01 -0.03,0.01 0,-0 0.01,-0.01 0.02,-0.02 0.02,-0.01 0.04,-0.03 0.08,-0.04 0.07,-0.04 0.18,-0.09 0.33,-0.13l-0 0.01c0.02,-0.12 0.05,-0.26 0.09,-0.43l0 -0.01 0.01 -0c0.2,-0 0.44,-0.01 0.72,-0.02l0.01 -0 0 0.01c0.03,0.13 0.07,0.27 0.1,0.42l-0.01 -0.01c0.14,0.04 0.29,0.09 0.44,0.17l-0.02 0c0.11,-0.08 0.23,-0.15 0.36,-0.24l0.01 -0.01 0.01 0.01c0.16,0.16 0.33,0.32 0.52,0.5l0.01 0.01 -0.01 0.01c-0.07,0.12 -0.15,0.24 -0.22,0.37l0 -0.02c0.08,0.13 0.14,0.28 0.19,0.43l-0.02 -0.01c0.14,0.03 0.28,0.06 0.42,0.09l0.02 0 0 0.02c0,0.23 0.01,0.47 0.01,0.72l0 0.02 -0.02 0c-0.14,0.03 -0.28,0.07 -0.42,0.1l0.02 -0.02c-0.04,0.15 -0.1,0.3 -0.17,0.44l-0 -0.02c0.08,0.12 0.16,0.24 0.24,0.36l0.01 0.01 -0.01 0.01c-0.16,0.17 -0.33,0.34 -0.5,0.52l-0.01 0.01 -0.02 -0.01c-0.12,-0.07 -0.25,-0.15 -0.37,-0.22l0.02 0 -0 0c-0.14,0.08 -0.29,0.15 -0.43,0.19l0.02 -0.02c-0.03,0.15 -0.06,0.29 -0.09,0.42l-0 0.02 -0.02 0c-0.25,0 -0.49,0.01 -0.72,0.01l-0.02 0 -0 -0.02c-0.04,-0.15 -0.07,-0.29 -0.1,-0.42l0.02 0.02c-0.16,-0.04 -0.31,-0.1 -0.44,-0.17l0.02 -0c-0.13,0.08 -0.25,0.16 -0.36,0.24l-0.01 0.01 -0.01 -0.01c-0.18,-0.17 -0.35,-0.34 -0.52,-0.5l-0.01 -0.01 0.01 -0.01c0.08,-0.13 0.16,-0.26 0.22,-0.37l0 0.02c-0.09,-0.14 -0.15,-0.29 -0.19,-0.43l0.01 0.01c-0.15,-0.03 -0.29,-0.06 -0.42,-0.09l-0.01 -0 -0 -0.01c-0,-0.25 -0.01,-0.49 -0.01,-0.72l-0 -0.01 0.01 -0c0.15,-0.04 0.29,-0.07 0.42,-0.1l-0.01 0.01c0.04,-0.16 0.1,-0.31 0.17,-0.44l0 0.01c-0.09,-0.13 -0.16,-0.25 -0.24,-0.36l-0.01 -0.01 0.01 -0.01c0.2,-0.21 0.37,-0.38 0.5,-0.51l0 -0 0 0c0.12,0.07 0.21,0.13 0.27,0.17 0.03,0.02 0.05,0.03 0.07,0.04 0.02,0.01 0.02,0.02 0.02,0.02z"/>
   <path class="fil0" d="M12.39 35.88l-0 -0c-0.46,0.47 -0.68,1.08 -0.68,1.7 0,0.64 0.25,1.28 0.75,1.76 0.47,0.46 1.08,0.68 1.7,0.68 0.64,0 1.28,-0.25 1.76,-0.75 0.46,-0.47 0.68,-1.08 0.68,-1.7 0,-0.64 -0.25,-1.28 -0.75,-1.76 -0.47,-0.46 -1.08,-0.68 -1.69,-0.68 -0.64,0 -1.28,0.25 -1.76,0.75l0 0 0 0c0.48,-0.49 1.11,-0.74 1.75,-0.74 0.61,0 1.22,0.23 1.69,0.68 0.49,0.48 0.74,1.11 0.74,1.75 0,0.61 -0.23,1.22 -0.68,1.69 -0.48,0.49 -1.11,0.74 -1.75,0.74 -0.61,0 -1.22,-0.23 -1.69,-0.68 -0.49,-0.48 -0.74,-1.11 -0.74,-1.75 0,-0.61 0.23,-1.22 0.68,-1.69l-0 -0zm-1.21 -3.03l0 0c0.43,-0.26 0.89,-0.46 1.36,-0.59l0 -0 0.28 -1.34 2.27 -0.04 0.33 1.33 0 0c0.48,0.12 0.94,0.3 1.38,0.54l0 0 1.15 -0.75 1.63 1.57 -0.71 1.17 0 0c0.26,0.43 0.46,0.89 0.59,1.36l0 0 1.34 0.28 0.04 2.27 -1.33 0.33 -0 0c-0.12,0.48 -0.3,0.94 -0.54,1.38l-0 0 0.75 1.15 -1.57 1.63 -1.17 -0.71 -0 0c-0.43,0.26 -0.89,0.46 -1.36,0.59l-0 0 -0.28 1.34 -2.27 0.04 -0.33 -1.33 -0 -0c-0.48,-0.12 -0.94,-0.3 -1.38,-0.54l-0 -0 -1.15 0.75 -1.63 -1.57 0.71 -1.17 -0 -0c-0.26,-0.43 -0.46,-0.89 -0.59,-1.36l-0 -0 -1.34 -0.28 -0.04 -2.27 1.33 -0.33 0 -0c0.12,-0.48 0.3,-0.94 0.54,-1.38l0 -0 -0.75 -1.15 1.57 -1.63 1.17 0.71 0 -0 -0 -0 0 -0 -1.18 -0.71 -1.58 1.64 0.75 1.15 0 -0 -0 -0c-0.24,0.44 -0.43,0.9 -0.54,1.38l0 0 -0 -0 -1.34 0.33 0.04 2.28 1.35 0.28 0 -0 -0 0c0.13,0.47 0.33,0.93 0.59,1.36l0 -0 -0 -0 -0.71 1.18 1.64 1.58 1.15 -0.75 -0 -0 -0 0c0.44,0.24 0.9,0.43 1.38,0.54l0 -0 -0 0 0.33 1.34 2.28 -0.04 0.28 -1.35 -0 -0 0 0c0.47,-0.13 0.93,-0.33 1.36,-0.59l-0 -0 -0 0 1.18 0.71 1.58 -1.64 -0.75 -1.15 -0 0 0 0c0.24,-0.44 0.43,-0.9 0.54,-1.38l-0 -0 0 0 1.34 -0.33 -0.04 -2.28 -1.35 -0.28 -0 0 0 -0c-0.13,-0.47 -0.33,-0.93 -0.59,-1.36l-0 0 0 0 0.71 -1.18 -1.64 -1.58 -1.15 0.75 0 0 0 -0c-0.44,-0.24 -0.9,-0.43 -1.38,-0.54l-0 0 0 -0 -0.33 -1.34 -2.28 0.04 -0.28 1.35 0 0 -0 -0c-0.47,0.13 -0.93,0.33 -1.36,0.59l0 0 0 -0 -0 0z"/>
   <path class="fil2" d="M12.39 35.88c0,0 0.13,-0.18 0.45,-0.4 0.32,-0.21 0.88,-0.45 1.59,-0.38 0.35,0.04 0.73,0.15 1.08,0.38 0.34,0.23 0.67,0.56 0.87,0.98 0.11,0.21 0.18,0.44 0.22,0.68 0.04,0.24 0.05,0.5 0.01,0.75 -0.06,0.51 -0.3,1.01 -0.68,1.41 -0.38,0.39 -0.87,0.65 -1.38,0.73 -0.25,0.05 -0.51,0.05 -0.75,0.01 -0.24,-0.03 -0.48,-0.1 -0.69,-0.2 -0.43,-0.19 -0.77,-0.5 -1.01,-0.84 -0.24,-0.34 -0.37,-0.72 -0.42,-1.07 -0.1,-0.71 0.12,-1.27 0.32,-1.6 0.21,-0.33 0.38,-0.47 0.38,-0.47 0.01,0.01 -0.15,0.16 -0.33,0.49 -0.18,0.33 -0.38,0.88 -0.27,1.56 0.06,0.33 0.18,0.69 0.42,1.01 0.24,0.32 0.56,0.61 0.97,0.79 0.2,0.09 0.43,0.15 0.66,0.18 0.23,0.03 0.47,0.03 0.71,-0.02 0.48,-0.08 0.94,-0.32 1.3,-0.69 0.35,-0.37 0.58,-0.84 0.64,-1.33 0.04,-0.24 0.03,-0.48 -0.01,-0.71 -0.04,-0.23 -0.11,-0.45 -0.21,-0.65 -0.19,-0.41 -0.5,-0.72 -0.82,-0.94 -0.33,-0.22 -0.69,-0.34 -1.03,-0.38 -0.68,-0.08 -1.23,0.13 -1.55,0.32 -0.33,0.2 -0.47,0.36 -0.48,0.35z"/>
   <path class="fil2" d="M11.18 32.85c0,0 -0.03,-0.01 -0.08,-0.04 -0.06,-0.03 -0.13,-0.07 -0.23,-0.13 -0.21,-0.12 -0.5,-0.3 -0.88,-0.52l0.03 -0c-0.4,0.42 -0.93,0.97 -1.57,1.64l0 -0.04c0.23,0.35 0.48,0.73 0.76,1.14l0.01 0.02 -0.01 0.02c-0.22,0.4 -0.41,0.86 -0.53,1.37l-0.01 0.03 -0.03 0.01c-0.42,0.1 -0.87,0.21 -1.33,0.33l0.04 -0.05c0.01,0.72 0.03,1.47 0.05,2.27l-0.04 -0.05c0.42,0.09 0.87,0.18 1.34,0.28l0.03 0.01 0.01 0.03c0.12,0.44 0.32,0.9 0.59,1.34l0.02 0.03 -0.02 0.03c-0.22,0.36 -0.46,0.77 -0.71,1.17l-0.01 -0.08c0.51,0.49 1.07,1.03 1.64,1.58l-0.08 -0.01c0.36,-0.23 0.75,-0.49 1.15,-0.75l0.03 -0.02 0.04 0.02c0.4,0.22 0.87,0.41 1.36,0.53l0.04 0.01 0.01 0.04c0.1,0.42 0.21,0.87 0.33,1.33l-0.07 -0.05c0.72,-0.01 1.49,-0.03 2.27,-0.04l-0.07 0.06c0.09,-0.42 0.18,-0.88 0.28,-1.34l0.01 -0.04 0.04 -0.01c0.45,-0.13 0.91,-0.32 1.34,-0.58l0 -0 0.04 -0.02 0.04 0.02c0.39,0.24 0.79,0.48 1.17,0.71l-0.09 0.01c0.53,-0.55 1.06,-1.1 1.58,-1.63l-0.01 0.09c-0.25,-0.39 -0.5,-0.77 -0.75,-1.15l-0.02 -0.03 0.02 -0.04c0.24,-0.43 0.42,-0.89 0.54,-1.36l0.01 -0.04 0.04 -0.01c0.45,-0.11 0.9,-0.22 1.33,-0.33l-0.05 0.07c-0.01,-0.78 -0.03,-1.53 -0.04,-2.27l0.05 0.06c-0.46,-0.1 -0.9,-0.19 -1.34,-0.28l-0.04 -0.01 -0.01 -0.04c-0.14,-0.48 -0.33,-0.93 -0.58,-1.34l-0.02 -0.03 0.02 -0.03c0.24,-0.4 0.48,-0.79 0.71,-1.17l0.01 0.07c-0.57,-0.56 -1.12,-1.08 -1.63,-1.58l0.07 0.01c-0.4,0.26 -0.78,0.51 -1.15,0.75l-0.03 0.02 -0.03 -0.01c-0.46,-0.26 -0.92,-0.43 -1.36,-0.54l-0.03 -0.01 -0.01 -0.03c-0.12,-0.49 -0.22,-0.92 -0.32,-1.33l0.04 0.03c-0.88,0.01 -1.63,0.02 -2.27,0.03l0.03 -0.02c-0.12,0.54 -0.21,0.98 -0.29,1.34l-0 0.01 -0.01 0c-0.48,0.13 -0.82,0.29 -1.04,0.4 -0.11,0.05 -0.19,0.1 -0.24,0.13 -0.06,0.03 -0.08,0.04 -0.08,0.04 0,-0 0.03,-0.02 0.08,-0.05 0.05,-0.03 0.13,-0.08 0.24,-0.14 0.22,-0.12 0.55,-0.28 1.04,-0.42l-0.02 0.02c0.07,-0.37 0.16,-0.81 0.27,-1.35l0 -0.02 0.03 -0c0.64,-0.01 1.39,-0.03 2.27,-0.05l0.03 -0 0.01 0.03c0.1,0.41 0.21,0.85 0.33,1.33l-0.03 -0.03c0.46,0.11 0.92,0.28 1.39,0.54l-0.05 0c0.36,-0.24 0.74,-0.49 1.15,-0.76l0.04 -0.02 0.03 0.03c0.52,0.5 1.06,1.02 1.64,1.57l0.03 0.03 -0.02 0.04c-0.23,0.38 -0.47,0.77 -0.71,1.17l0 -0.06c0.25,0.42 0.46,0.88 0.6,1.37l-0.05 -0.04c0.44,0.09 0.89,0.18 1.34,0.28l0.05 0.01 0 0.05c0.01,0.74 0.03,1.5 0.04,2.27l0 0.05 -0.05 0.01c-0.44,0.11 -0.88,0.22 -1.33,0.33l0.05 -0.05c-0.12,0.48 -0.3,0.95 -0.55,1.4l-0 -0.07c0.25,0.38 0.5,0.76 0.75,1.15l0.03 0.05 -0.04 0.04c-0.52,0.54 -1.04,1.08 -1.58,1.63l-0.04 0.04 -0.05 -0.03c-0.39,-0.24 -0.78,-0.47 -1.17,-0.71l0.07 0 -0 0c-0.44,0.27 -0.92,0.47 -1.37,0.6l0.05 -0.05c-0.1,0.46 -0.19,0.92 -0.28,1.34l-0.01 0.05 -0.06 0c-0.78,0.01 -1.55,0.03 -2.27,0.04l-0.05 0 -0.01 -0.05c-0.11,-0.46 -0.22,-0.92 -0.33,-1.33l0.05 0.05c-0.51,-0.12 -0.98,-0.32 -1.39,-0.55l0.07 -0c-0.4,0.26 -0.79,0.52 -1.15,0.75l-0.04 0.03 -0.04 -0.04c-0.57,-0.55 -1.12,-1.08 -1.63,-1.58l-0.04 -0.03 0.03 -0.04c0.25,-0.41 0.49,-0.81 0.71,-1.17l0 0.06c-0.27,-0.45 -0.47,-0.93 -0.59,-1.37l0.04 0.04c-0.47,-0.1 -0.93,-0.2 -1.34,-0.28l-0.04 -0.01 -0 -0.04c-0.01,-0.8 -0.02,-1.56 -0.03,-2.27l-0 -0.04 0.04 -0.01c0.47,-0.11 0.92,-0.22 1.33,-0.32l-0.03 0.03c0.13,-0.51 0.32,-0.98 0.55,-1.39l0 0.04c-0.27,-0.41 -0.52,-0.8 -0.75,-1.15l-0.02 -0.02 0.02 -0.02c0.65,-0.66 1.18,-1.21 1.59,-1.63l0.01 -0.01 0.01 0.01c0.38,0.23 0.66,0.41 0.86,0.54 0.09,0.06 0.17,0.11 0.22,0.14 0.05,0.03 0.08,0.05 0.08,0.05z"/>
   <path class="fil0" d="M49.95 12.09c-0.88,0.22 -1.42,1.1 -1.2,1.98 0.22,0.88 1.1,1.42 1.98,1.2 0.88,-0.22 1.42,-1.1 1.2,-1.98 -0.22,-0.88 -1.1,-1.42 -1.98,-1.2zm0.4 -2.16c0.34,0.01 0.67,0.06 0.98,0.15l0.64 -0.66 1.31 0.79 -0.29 0.88c0.23,0.24 0.43,0.51 0.59,0.8l0.92 -0.02 0.36 1.48 -0.83 0.41c-0.01,0.34 -0.06,0.67 -0.15,0.98l0.66 0.64 -0.79 1.31 -0.88 -0.29c-0.24,0.23 -0.51,0.43 -0.8,0.59l0.02 0.92 -1.48 0.36 -0.41 -0.83c-0.34,-0.01 -0.67,-0.06 -0.98,-0.15l-0.64 0.66 -1.31 -0.79 0.29 -0.88c-0.23,-0.24 -0.43,-0.51 -0.59,-0.8l-0.92 0.02 -0.36 -1.48 0.83 -0.41c0.01,-0.34 0.06,-0.67 0.15,-0.98l-0.66 -0.64 0.79 -1.31 0.88 0.29c0.24,-0.23 0.51,-0.43 0.8,-0.59l-0.02 -0.92 1.48 -0.36 0.41 0.83z"/>
   <path class="fil0" d="M49.95 12.09c0,0 0.14,-0.06 0.4,-0.06 0.26,-0.01 0.66,0.06 1.04,0.36 0.18,0.15 0.36,0.35 0.48,0.61 0.11,0.25 0.18,0.56 0.14,0.87 -0.01,0.16 -0.06,0.32 -0.12,0.47 -0.06,0.15 -0.15,0.3 -0.26,0.43 -0.22,0.27 -0.53,0.47 -0.89,0.56 -0.36,0.08 -0.73,0.05 -1.05,-0.08 -0.16,-0.06 -0.31,-0.15 -0.43,-0.26 -0.13,-0.11 -0.24,-0.23 -0.32,-0.36 -0.18,-0.26 -0.26,-0.56 -0.28,-0.84 -0.02,-0.28 0.05,-0.54 0.14,-0.76 0.2,-0.44 0.52,-0.68 0.76,-0.8 0.24,-0.12 0.39,-0.13 0.39,-0.13 0,0.01 -0.14,0.04 -0.37,0.16 -0.22,0.12 -0.53,0.37 -0.71,0.79 -0.09,0.21 -0.14,0.46 -0.13,0.73 0.02,0.27 0.1,0.55 0.27,0.8 0.08,0.13 0.19,0.24 0.31,0.34 0.12,0.1 0.26,0.19 0.41,0.25 0.3,0.13 0.65,0.16 0.99,0.08 0.33,-0.09 0.63,-0.27 0.84,-0.52 0.11,-0.12 0.19,-0.26 0.25,-0.41 0.06,-0.14 0.1,-0.29 0.12,-0.44 0.04,-0.3 -0.02,-0.59 -0.13,-0.83 -0.11,-0.25 -0.27,-0.44 -0.45,-0.59 -0.36,-0.29 -0.74,-0.37 -1,-0.37 -0.26,-0 -0.4,0.04 -0.4,0.03z"/>
   <path class="fil0" d="M50.35 9.93c-0,0 -0.01,-0.02 -0.03,-0.05 -0.02,-0.04 -0.05,-0.09 -0.08,-0.15 -0.07,-0.14 -0.18,-0.35 -0.32,-0.61l0.02 0.01c-0.38,0.1 -0.88,0.22 -1.48,0.37l0.02 -0.02c0.01,0.28 0.01,0.59 0.02,0.92l0 0.02 -0.01 0.01c-0.27,0.15 -0.54,0.34 -0.79,0.59l-0.01 0.01 -0.02 -0.01c-0.27,-0.09 -0.57,-0.19 -0.88,-0.29l0.04 -0.01c-0.25,0.41 -0.51,0.85 -0.79,1.31l-0.01 -0.05c0.21,0.2 0.43,0.42 0.67,0.64l0.02 0.02 -0.01 0.02c-0.09,0.29 -0.14,0.63 -0.15,0.97l-0 0.02 -0.02 0.01c-0.26,0.13 -0.54,0.27 -0.83,0.41l0.02 -0.05c0.11,0.47 0.24,0.97 0.37,1.48l-0.04 -0.03c0.29,-0.01 0.6,-0.01 0.92,-0.02l0.03 -0 0.01 0.02c0.15,0.27 0.35,0.55 0.58,0.79l0.02 0.02 -0.01 0.03c-0.09,0.27 -0.19,0.57 -0.29,0.88l-0.02 -0.05c0.41,0.25 0.86,0.52 1.31,0.79l-0.06 0.01c0.2,-0.21 0.42,-0.44 0.64,-0.66l0.02 -0.02 0.03 0.01c0.3,0.09 0.63,0.14 0.97,0.15l0 0 0.03 0 0.01 0.03c0.14,0.28 0.28,0.55 0.41,0.83l-0.05 -0.02c0.5,-0.12 1,-0.24 1.48,-0.36l-0.04 0.05c-0.01,-0.31 -0.01,-0.62 -0.02,-0.92l-0 -0.03 0.02 -0.01c0.29,-0.16 0.56,-0.36 0.79,-0.58l0.02 -0.02 0.03 0.01c0.3,0.1 0.59,0.2 0.88,0.29l-0.05 0.02c0.27,-0.45 0.54,-0.88 0.79,-1.31l0.01 0.05c-0.23,-0.22 -0.45,-0.43 -0.66,-0.64l-0.02 -0.02 0.01 -0.02c0.1,-0.32 0.14,-0.65 0.15,-0.97l0 -0.02 0.02 -0.01c0.28,-0.14 0.56,-0.28 0.83,-0.41l-0.02 0.04c-0.13,-0.52 -0.25,-1.02 -0.36,-1.48l0.04 0.03c-0.32,0.01 -0.63,0.01 -0.92,0.01l-0.02 0 -0.01 -0.02c-0.17,-0.31 -0.37,-0.57 -0.58,-0.8l-0.01 -0.01 0.01 -0.02c0.11,-0.32 0.2,-0.6 0.3,-0.88l0.01 0.03c-0.5,-0.31 -0.93,-0.57 -1.3,-0.8l0.03 -0c-0.26,0.26 -0.47,0.48 -0.65,0.66l-0.01 0.01 -0.01 -0c-0.32,-0.1 -0.57,-0.13 -0.73,-0.15 -0.08,-0.01 -0.14,-0.01 -0.18,-0.01 -0.04,-0 -0.06,-0 -0.06,-0.01 0,-0 0.02,-0 0.06,-0 0.04,0 0.1,0 0.19,0.01 0.17,0.01 0.42,0.04 0.74,0.13l-0.01 0c0.17,-0.18 0.38,-0.4 0.64,-0.67l0.01 -0.01 0.01 0.01c0.37,0.22 0.8,0.48 1.31,0.79l0.02 0.01 -0.01 0.02c-0.09,0.27 -0.18,0.56 -0.29,0.88l-0.01 -0.03c0.22,0.23 0.42,0.49 0.6,0.81l-0.03 -0.02c0.29,-0.01 0.6,-0.01 0.92,-0.02l0.03 -0 0.01 0.03c0.12,0.47 0.24,0.96 0.37,1.48l0.01 0.03 -0.03 0.01c-0.27,0.13 -0.54,0.27 -0.83,0.41l0.02 -0.04c-0.01,0.33 -0.06,0.67 -0.15,1l-0.01 -0.04c0.22,0.21 0.44,0.42 0.67,0.64l0.03 0.02 -0.02 0.03c-0.26,0.43 -0.52,0.86 -0.79,1.31l-0.02 0.03 -0.03 -0.01c-0.29,-0.1 -0.58,-0.19 -0.88,-0.29l0.05 -0.01c-0.24,0.23 -0.51,0.43 -0.81,0.6l0.02 -0.04c0.01,0.3 0.01,0.61 0.02,0.92l0 0.04 -0.04 0.01c-0.49,0.12 -0.98,0.24 -1.48,0.36l-0.04 0.01 -0.02 -0.03c-0.14,-0.27 -0.27,-0.55 -0.41,-0.83l0.04 0.03 -0 0c-0.35,-0.01 -0.69,-0.06 -1,-0.15l0.05 -0.01c-0.22,0.23 -0.44,0.45 -0.64,0.66l-0.03 0.03 -0.03 -0.02c-0.45,-0.27 -0.89,-0.54 -1.31,-0.79l-0.03 -0.02 0.01 -0.03c0.1,-0.3 0.2,-0.6 0.29,-0.88l0.01 0.05c-0.24,-0.25 -0.45,-0.54 -0.6,-0.81l0.04 0.02c-0.32,0.01 -0.64,0.01 -0.92,0.02l-0.03 0 -0.01 -0.03c-0.13,-0.52 -0.25,-1.02 -0.36,-1.48l-0.01 -0.03 0.03 -0.01c0.29,-0.14 0.57,-0.28 0.83,-0.41l-0.02 0.04c0.01,-0.35 0.07,-0.69 0.16,-1l0.01 0.04c-0.23,-0.22 -0.46,-0.44 -0.66,-0.64l-0.02 -0.02 0.02 -0.03c0.28,-0.46 0.55,-0.89 0.8,-1.3l0.01 -0.02 0.03 0.01c0.31,0.1 0.6,0.2 0.88,0.3l-0.03 0.01c0.26,-0.25 0.53,-0.44 0.81,-0.59l-0.01 0.02c-0,-0.33 -0.01,-0.64 -0.01,-0.92l-0 -0.02 0.02 -0c0.61,-0.14 1.11,-0.26 1.49,-0.36l0.01 -0 0.01 0.01c0.13,0.27 0.23,0.47 0.3,0.62 0.03,0.07 0.06,0.12 0.08,0.16 0.02,0.04 0.03,0.06 0.02,0.06z"/>
   <path class="fil2" d="M54.63 39.04c0,0 0.14,-0.06 0.4,-0.06 0.26,-0.01 0.67,0.06 1.05,0.36 0.19,0.15 0.36,0.35 0.48,0.61 0.11,0.26 0.18,0.56 0.15,0.88 -0.01,0.16 -0.06,0.32 -0.12,0.47 -0.06,0.15 -0.15,0.3 -0.26,0.44 -0.22,0.27 -0.54,0.47 -0.9,0.56 -0.36,0.08 -0.74,0.05 -1.06,-0.08 -0.16,-0.06 -0.31,-0.16 -0.44,-0.26 -0.13,-0.11 -0.24,-0.23 -0.33,-0.36 -0.18,-0.26 -0.26,-0.57 -0.28,-0.85 -0.02,-0.28 0.05,-0.55 0.14,-0.77 0.2,-0.44 0.53,-0.69 0.76,-0.8 0.24,-0.12 0.39,-0.13 0.39,-0.13 0,0.01 -0.14,0.04 -0.37,0.16 -0.22,0.12 -0.54,0.37 -0.72,0.8 -0.09,0.21 -0.15,0.46 -0.13,0.73 0.02,0.27 0.1,0.56 0.27,0.81 0.08,0.13 0.19,0.24 0.31,0.34 0.12,0.1 0.26,0.19 0.41,0.25 0.3,0.13 0.66,0.16 1,0.08 0.34,-0.09 0.64,-0.27 0.85,-0.53 0.11,-0.12 0.19,-0.27 0.25,-0.41 0.06,-0.15 0.1,-0.3 0.12,-0.45 0.04,-0.3 -0.02,-0.59 -0.13,-0.84 -0.11,-0.25 -0.28,-0.45 -0.45,-0.59 -0.36,-0.29 -0.75,-0.37 -1.01,-0.38 -0.26,-0 -0.4,0.04 -0.4,0.03z"/>
   <path class="fil2" d="M55.03 36.86c-0,0 -0.01,-0.02 -0.03,-0.05 -0.02,-0.04 -0.05,-0.09 -0.08,-0.16 -0.07,-0.14 -0.18,-0.35 -0.32,-0.62l0.02 0.01c-0.38,0.1 -0.89,0.22 -1.5,0.38l0.02 -0.02c0.01,0.28 0.01,0.6 0.02,0.93l0 0.02 -0.01 0.01c-0.27,0.15 -0.55,0.35 -0.8,0.59l-0.01 0.01 -0.02 -0.01c-0.28,-0.09 -0.57,-0.19 -0.89,-0.29l0.04 -0.01c-0.25,0.42 -0.52,0.86 -0.8,1.32l-0.01 -0.05c0.21,0.2 0.44,0.42 0.67,0.65l0.02 0.02 -0.01 0.02c-0.09,0.3 -0.14,0.64 -0.15,0.98l-0 0.02 -0.02 0.01c-0.26,0.13 -0.54,0.27 -0.83,0.42l0.02 -0.05c0.12,0.47 0.24,0.98 0.37,1.5l-0.04 -0.03c0.29,-0.01 0.61,-0.01 0.93,-0.02l0.03 -0 0.01 0.02c0.15,0.27 0.35,0.55 0.59,0.8l0.02 0.02 -0.01 0.03c-0.09,0.28 -0.19,0.58 -0.29,0.88l-0.02 -0.05c0.42,0.25 0.87,0.52 1.32,0.8l-0.06 0.01c0.2,-0.21 0.43,-0.44 0.65,-0.67l0.02 -0.02 0.03 0.01c0.3,0.09 0.64,0.14 0.98,0.15l0 0 0.03 0 0.01 0.03c0.14,0.28 0.28,0.56 0.42,0.83l-0.05 -0.02c0.51,-0.12 1.01,-0.25 1.5,-0.37l-0.04 0.05c-0.01,-0.31 -0.01,-0.62 -0.02,-0.93l-0 -0.03 0.02 -0.01c0.3,-0.16 0.56,-0.36 0.8,-0.59l0.02 -0.02 0.03 0.01c0.3,0.1 0.59,0.2 0.88,0.3l-0.05 0.02c0.27,-0.45 0.54,-0.89 0.8,-1.32l0.01 0.05c-0.23,-0.22 -0.45,-0.44 -0.67,-0.65l-0.02 -0.02 0.01 -0.02c0.1,-0.33 0.15,-0.66 0.15,-0.98l0 -0.02 0.02 -0.01c0.29,-0.14 0.56,-0.28 0.83,-0.42l-0.02 0.04c-0.13,-0.53 -0.25,-1.02 -0.36,-1.5l0.04 0.03c-0.33,0 -0.64,0.01 -0.93,0.01l-0.02 0 -0.01 -0.02c-0.17,-0.31 -0.37,-0.58 -0.59,-0.81l-0.01 -0.01 0.01 -0.02c0.11,-0.32 0.21,-0.61 0.3,-0.88l0.01 0.03c-0.51,-0.31 -0.94,-0.58 -1.32,-0.81l0.03 -0c-0.26,0.27 -0.47,0.48 -0.65,0.67l-0.01 0.01 -0.01 -0c-0.32,-0.1 -0.58,-0.13 -0.74,-0.15 -0.08,-0.01 -0.14,-0.01 -0.19,-0.02 -0.04,-0 -0.06,-0 -0.06,-0.01 0,-0 0.02,-0 0.06,-0 0.04,0 0.1,0 0.19,0.01 0.17,0.01 0.42,0.04 0.75,0.13l-0.02 0c0.18,-0.18 0.39,-0.41 0.64,-0.68l0.01 -0.01 0.01 0.01c0.37,0.22 0.81,0.49 1.32,0.79l0.02 0.01 -0.01 0.02c-0.09,0.27 -0.19,0.56 -0.29,0.89l-0.01 -0.03c0.22,0.23 0.43,0.5 0.6,0.82l-0.03 -0.02c0.3,-0.01 0.6,-0.01 0.93,-0.02l0.03 -0 0.01 0.03c0.12,0.47 0.24,0.97 0.37,1.5l0.01 0.03 -0.03 0.01c-0.27,0.14 -0.55,0.27 -0.83,0.42l0.02 -0.04c-0.01,0.33 -0.06,0.67 -0.15,1l-0.01 -0.04c0.22,0.21 0.44,0.43 0.67,0.65l0.03 0.02 -0.02 0.03c-0.26,0.43 -0.53,0.87 -0.8,1.32l-0.02 0.03 -0.03 -0.01c-0.29,-0.1 -0.59,-0.19 -0.88,-0.29l0.05 -0.01c-0.24,0.23 -0.52,0.44 -0.82,0.6l0.02 -0.04c0.01,0.31 0.01,0.62 0.02,0.93l0 0.04 -0.04 0.01c-0.49,0.12 -0.99,0.24 -1.5,0.37l-0.04 0.01 -0.02 -0.03c-0.14,-0.28 -0.28,-0.55 -0.42,-0.83l0.04 0.03 -0 0c-0.35,-0.01 -0.69,-0.06 -1.01,-0.15l0.05 -0.01c-0.22,0.23 -0.44,0.46 -0.65,0.67l-0.03 0.03 -0.03 -0.02c-0.45,-0.28 -0.9,-0.55 -1.32,-0.8l-0.03 -0.02 0.01 -0.04c0.1,-0.31 0.2,-0.61 0.3,-0.88l0.01 0.05c-0.25,-0.25 -0.45,-0.54 -0.6,-0.82l0.04 0.02c-0.32,0.01 -0.64,0.01 -0.93,0.02l-0.04 0 -0.01 -0.03c-0.13,-0.52 -0.25,-1.03 -0.37,-1.5l-0.01 -0.03 0.03 -0.02c0.29,-0.14 0.58,-0.29 0.83,-0.41l-0.02 0.04c0.01,-0.36 0.07,-0.7 0.16,-1l0.01 0.04c-0.23,-0.23 -0.46,-0.45 -0.67,-0.65l-0.02 -0.02 0.02 -0.03c0.28,-0.46 0.55,-0.9 0.8,-1.32l0.01 -0.02 0.03 0.01c0.31,0.1 0.61,0.2 0.88,0.3l-0.03 0.01c0.26,-0.25 0.54,-0.45 0.82,-0.6l-0.01 0.02c-0,-0.34 -0.01,-0.65 -0.01,-0.93l-0 -0.02 0.02 -0c0.61,-0.15 1.12,-0.27 1.5,-0.36l0.01 -0 0.01 0.01c0.13,0.27 0.23,0.48 0.3,0.62 0.03,0.07 0.06,0.12 0.08,0.16 0.02,0.04 0.03,0.06 0.02,0.06z"/>
   <polygon class="fil1" points="5.66,64.83 5.66,69.57 20.23,69.57 20.23,64.83 "/>
   <polygon class="fil0" points="5.05,63.51 5.05,64.83 20.74,64.83 20.74,63.51 "/>
   <polygon class="fil0" points="12.9,69.57 20.23,69.57 20.23,64.83 20.74,64.83 20.74,63.51 12.59,63.51 12.59,64.71 "/>
   <polygon class="fil0" points="7.7,66.31 10.66,66.31 10.66,65.59 7.7,65.59 "/>
   <polygon class="fil3" points="7.32,68.7 11.12,68.7 11.12,67.2 7.32,67.2 "/>
   <polygon class="fil1" points="7.91,58.78 7.91,63.51 22.47,63.51 22.47,58.78 "/>
   <polygon class="fil0" points="7.29,57.45 7.29,58.78 22.98,58.78 22.98,57.45 "/>
   <polygon class="fil0" points="15.14,63.51 22.47,63.51 22.47,58.78 22.98,58.78 22.98,57.45 14.83,57.45 14.83,58.65 "/>
   <polygon class="fil0" points="9.94,60.25 12.9,60.25 12.9,59.54 9.94,59.54 "/>
   <polygon class="fil3" points="9.56,62.65 13.36,62.65 13.36,61.14 9.56,61.14 "/>
   <path class="fil4" d="M70.85 69.57c0,0.02 -15.86,0.04 -35.42,0.04 -19.57,0 -35.43,-0.02 -35.43,-0.04 0,-0.02 15.86,-0.04 35.43,-0.04 19.56,0 35.42,0.02 35.42,0.04z"/>
   <path class="fil5" d="M10.27 5.08c0.57,-0.34 1.18,-0.6 1.81,-0.78l0.38 -1.78 3.02 -0.04 0.43 1.77c0.63,0.16 1.25,0.4 1.83,0.73l1.53 -0.99 2.16 2.1 -0.95 1.55c0.34,0.57 0.6,1.18 0.78,1.81l1.78 0.38 0.04 3.02 -1.77 0.43c-0.16,0.63 -0.4,1.25 -0.73,1.83l0.99 1.53 -2.1 2.16 -1.55 -0.95c-0.57,0.34 -1.18,0.6 -1.81,0.78l-0.38 1.78 -3.02 0.04 -0.43 -1.77c-0.63,-0.16 -1.25,-0.4 -1.83,-0.73l-1.53 0.99 -2.16 -2.1 0.95 -1.55c-0.34,-0.57 -0.6,-1.18 -0.78,-1.81l-1.78 -0.38 -0.04 -3.02 1.77 -0.43c0.16,-0.63 0.4,-1.25 0.73,-1.83l-0.99 -1.53 2.1 -2.16 1.56 0.95z"/>
   <path class="fil3" d="M15.86 10.57c-0.01,0 0,-0.23 -0.1,-0.63 -0.05,-0.2 -0.14,-0.44 -0.29,-0.69 -0.15,-0.25 -0.37,-0.51 -0.66,-0.73 -0.29,-0.22 -0.66,-0.4 -1.09,-0.48 -0.42,-0.07 -0.9,-0.06 -1.35,0.11 -0.23,0.08 -0.45,0.2 -0.65,0.35 -0.1,0.07 -0.2,0.16 -0.29,0.25 -0.09,0.1 -0.18,0.19 -0.25,0.3 -0.32,0.42 -0.49,0.96 -0.5,1.52 0.01,0.56 0.18,1.1 0.5,1.52 0.07,0.11 0.17,0.2 0.25,0.3 0.1,0.09 0.19,0.18 0.29,0.25 0.2,0.15 0.42,0.27 0.65,0.35 0.45,0.17 0.93,0.19 1.35,0.11 0.43,-0.07 0.79,-0.26 1.09,-0.48 0.29,-0.22 0.51,-0.48 0.66,-0.73 0.15,-0.25 0.24,-0.49 0.29,-0.69 0.1,-0.4 0.08,-0.63 0.1,-0.63 0,0 0,0.01 0,0.04 -0,0.03 -0,0.07 -0,0.12 -0,0.06 -0,0.12 -0.02,0.2 -0.01,0.08 -0.02,0.17 -0.05,0.27 -0.04,0.2 -0.14,0.45 -0.28,0.7 -0.15,0.26 -0.37,0.52 -0.66,0.75 -0.3,0.23 -0.67,0.42 -1.11,0.5 -0.43,0.08 -0.92,0.07 -1.39,-0.11 -0.24,-0.08 -0.46,-0.2 -0.67,-0.36 -0.11,-0.07 -0.2,-0.17 -0.3,-0.26 -0.09,-0.1 -0.18,-0.19 -0.26,-0.31 -0.33,-0.43 -0.51,-0.99 -0.52,-1.57 0,-0.57 0.19,-1.13 0.52,-1.57 0.08,-0.11 0.17,-0.21 0.26,-0.31 0.1,-0.09 0.19,-0.18 0.3,-0.25 0.21,-0.16 0.44,-0.28 0.67,-0.36 0.47,-0.18 0.96,-0.19 1.39,-0.11 0.44,0.08 0.81,0.27 1.11,0.5 0.3,0.23 0.52,0.5 0.66,0.75 0.15,0.26 0.24,0.5 0.28,0.7 0.03,0.1 0.04,0.19 0.05,0.27 0.01,0.08 0.02,0.15 0.02,0.2 0,0.05 0,0.09 0,0.12 0,0.03 -0,0.04 -0,0.04z"/>
   <path class="fil3" d="M15.04 12.47c0.02,-0.02 0.58,0.53 1.27,1.21 0.69,0.69 1.23,1.26 1.21,1.27 -0.02,0.02 -0.58,-0.53 -1.27,-1.21 -0.69,-0.69 -1.23,-1.26 -1.21,-1.27z"/>
   <path class="fil5" d="M30.88 16.49c0.73,-0.44 1.51,-0.77 2.32,-1l0.48 -2.29 3.87 -0.05 0.55 2.27c0.81,0.2 1.6,0.51 2.35,0.93l1.96 -1.28 2.78 2.7 -1.22 2c0.44,0.73 0.77,1.51 1,2.32l2.29 0.48 0.05 3.87 -2.27 0.55c-0.2,0.81 -0.51,1.6 -0.93,2.35l1.28 1.96 -2.7 2.78 -2 -1.22c-0.73,0.44 -1.51,0.77 -2.32,1l-0.48 2.29 -3.87 0.05 -0.55 -2.28c-0.81,-0.2 -1.6,-0.51 -2.35,-0.93l-1.96 1.28 -2.78 -2.7 1.22 -2c-0.44,-0.73 -0.77,-1.51 -1,-2.32l-2.29 -0.48 -0.05 -3.87 2.27 -0.55c0.2,-0.81 0.51,-1.6 0.93,-2.35l-1.28 -1.96 2.7 -2.78 2 1.22z"/>
   <path class="fil3" d="M34.47 28.71c0,-0 0.02,-0 0.05,-0 0.03,-0 0.08,-0 0.13,-0 0.12,-0 0.29,-0 0.51,-0.01 0.44,-0 1.09,-0.01 1.9,-0.01l-0.02 0.02c-0.01,-0.33 -0.02,-0.69 -0.03,-1.09l-0 -0.02 0.02 -0.01c0.54,-0.25 1.11,-0.61 1.63,-1.11 0.26,-0.25 0.49,-0.54 0.68,-0.87 0.2,-0.33 0.32,-0.71 0.37,-1.11 0.09,-0.8 -0.09,-1.69 -0.58,-2.43 -0.48,-0.74 -1.24,-1.35 -2.12,-1.69 -0.66,-0.25 -1.37,-0.28 -2.03,-0.14 -0.66,0.12 -1.27,0.42 -1.77,0.82 -0.5,0.4 -0.85,0.93 -1.07,1.47 -0.05,0.14 -0.11,0.27 -0.14,0.41 -0.03,0.14 -0.07,0.28 -0.1,0.42 -0.05,0.28 -0.08,0.55 -0.07,0.82 0.01,0.27 0.04,0.53 0.1,0.77 0.06,0.25 0.15,0.47 0.25,0.69 0.21,0.43 0.48,0.78 0.77,1.06 0.57,0.57 1.16,0.89 1.58,1.08l0.01 0 -0 0.01c-0.02,0.3 -0.03,0.52 -0.04,0.68 -0,0.07 -0.01,0.13 -0.01,0.17 -0,0.04 -0,0.06 -0.01,0.06 -0,0 -0,-0.02 0,-0.06 0,-0.04 0,-0.1 0,-0.17 0.01,-0.16 0.01,-0.39 0.02,-0.69l0.01 0.01c-0.43,-0.18 -1.03,-0.5 -1.61,-1.07 -0.29,-0.29 -0.57,-0.64 -0.78,-1.07 -0.1,-0.22 -0.19,-0.45 -0.26,-0.7 -0.06,-0.25 -0.09,-0.51 -0.1,-0.79 -0.01,-0.27 0.02,-0.55 0.07,-0.83 0.03,-0.14 0.07,-0.28 0.1,-0.42 0.03,-0.14 0.1,-0.28 0.14,-0.42 0.22,-0.56 0.58,-1.1 1.08,-1.51 0.5,-0.41 1.12,-0.71 1.8,-0.84 0.67,-0.14 1.4,-0.11 2.08,0.14 0.9,0.34 1.66,0.96 2.16,1.72 0.25,0.38 0.43,0.79 0.52,1.22 0.03,0.1 0.04,0.21 0.06,0.32 0.02,0.11 0.03,0.21 0.03,0.32 0,0.11 0.01,0.21 0.01,0.32 -0.01,0.1 -0.02,0.21 -0.03,0.31 -0.06,0.41 -0.18,0.8 -0.39,1.14 -0.2,0.34 -0.43,0.63 -0.7,0.89 -0.53,0.5 -1.1,0.87 -1.65,1.12l0.02 -0.03c0.01,0.39 0.01,0.76 0.02,1.09l0 0.02 -0.02 0c-0.82,-0.01 -1.47,-0.01 -1.91,-0.01 -0.22,-0 -0.39,-0 -0.5,-0.01 -0.05,-0 -0.1,-0 -0.13,-0 -0.03,-0 -0.04,-0 -0.04,-0z"/>
   <path class="fil3" d="M37.1 29.43c0,0.02 -0.59,0.04 -1.33,0.04 -0.73,0 -1.33,-0.02 -1.33,-0.04 0,-0.02 0.59,-0.04 1.33,-0.04 0.73,-0 1.33,0.02 1.33,0.04z"/>
   <path class="fil3" d="M36.24 30.44c0,0.02 -0.21,0.06 -0.47,0.06 -0.26,-0.01 -0.47,-0.06 -0.47,-0.08 0,-0.02 0.21,-0 0.47,0 0.26,0.01 0.47,0 0.47,0.02z"/>
   <path class="fil3" d="M35.02 28.71c-0,0 -0,-0.02 -0,-0.04 0,-0.03 0,-0.08 0,-0.13 0,-0.12 0,-0.28 0.01,-0.49 0.01,-0.43 0.02,-1.05 0.04,-1.82 0.01,-0.38 0.02,-0.8 0.03,-1.25 0,-0.11 -0,-0.22 -0.04,-0.32 -0.03,-0.1 -0.13,-0.18 -0.23,-0.16 -0.1,0.02 -0.18,0.13 -0.21,0.23 -0.03,0.11 -0.01,0.23 0.04,0.34 0.11,0.22 0.34,0.36 0.59,0.4 0.25,0.04 0.52,-0.08 0.69,-0.28 0.18,-0.2 0.28,-0.47 0.29,-0.74 0,-0.14 -0.01,-0.28 -0.08,-0.39 -0.06,-0.11 -0.21,-0.18 -0.33,-0.14 -0.12,0.04 -0.18,0.19 -0.16,0.32 0.02,0.13 0.1,0.25 0.18,0.36 0.17,0.22 0.39,0.41 0.64,0.49 0.13,0.04 0.26,0.06 0.39,0.05 0.13,-0.02 0.25,-0.07 0.35,-0.15 0.1,-0.07 0.18,-0.18 0.22,-0.29 0.04,-0.11 0.03,-0.24 -0.02,-0.35 -0.05,-0.1 -0.15,-0.18 -0.26,-0.18 -0.11,0 -0.21,0.07 -0.28,0.16 -0.13,0.19 -0.13,0.44 -0.16,0.66 -0.05,0.45 -0.08,0.87 -0.11,1.25 -0.05,0.76 -0.09,1.38 -0.12,1.81 -0.01,0.21 -0.03,0.37 -0.03,0.49 -0,0.05 -0.01,0.09 -0.01,0.13 -0,0.03 -0,0.04 -0.01,0.04 -0,0 -0,-0.02 -0,-0.04 0,-0.03 0,-0.08 0,-0.13 0,-0.12 0.01,-0.28 0.02,-0.49 0.02,-0.43 0.05,-1.05 0.1,-1.82 0.03,-0.38 0.05,-0.8 0.1,-1.25 0.01,-0.11 0.02,-0.23 0.04,-0.34 0.02,-0.12 0.05,-0.24 0.13,-0.35 0.07,-0.1 0.19,-0.19 0.33,-0.2 0.14,-0.01 0.27,0.1 0.33,0.22 0.06,0.12 0.07,0.27 0.03,0.4 -0.04,0.13 -0.13,0.25 -0.25,0.33 -0.11,0.08 -0.24,0.14 -0.38,0.16 -0.14,0.02 -0.29,-0 -0.42,-0.05 -0.27,-0.1 -0.5,-0.29 -0.68,-0.52 -0.09,-0.11 -0.18,-0.24 -0.2,-0.4 -0.02,-0.15 0.04,-0.34 0.21,-0.41 0.17,-0.06 0.34,0.04 0.42,0.17 0.08,0.14 0.1,0.29 0.09,0.44 -0.01,0.29 -0.12,0.58 -0.31,0.79 -0.19,0.21 -0.48,0.34 -0.76,0.3 -0.27,-0.04 -0.53,-0.19 -0.65,-0.44 -0.06,-0.12 -0.09,-0.26 -0.05,-0.39 0.04,-0.12 0.12,-0.25 0.26,-0.28 0.07,-0.01 0.14,0.01 0.2,0.04 0.06,0.04 0.09,0.1 0.11,0.16 0.04,0.12 0.05,0.24 0.05,0.35 -0.02,0.45 -0.03,0.87 -0.04,1.25 -0.03,0.76 -0.05,1.38 -0.07,1.82 -0.01,0.21 -0.02,0.37 -0.02,0.49 -0,0.05 -0.01,0.09 -0.01,0.13 -0,0.03 -0,0.04 -0.01,0.04z"/>
   <path class="fil3" d="M36.86 29.93c0,0.02 -0.48,0.04 -1.08,0.04 -0.6,0 -1.08,-0.02 -1.08,-0.04 0,-0.02 0.48,-0.04 1.08,-0.04 0.6,0 1.08,0.02 1.08,0.04z"/>
   <path class="fil5" d="M56.3 22.67c0.47,-0.29 0.97,-0.52 1.49,-0.67l0.29 -1.49 2.51 -0.07 0.38 1.47c0.53,0.12 1.04,0.32 1.53,0.58l1.26 -0.85 1.83 1.72 -0.77 1.31c0.29,0.47 0.52,0.97 0.67,1.49l1.49 0.29 0.07 2.51 -1.47 0.38c-0.12,0.53 -0.32,1.04 -0.58,1.53l0.85 1.26 -1.72 1.83 -1.31 -0.77c-0.47,0.29 -0.97,0.52 -1.49,0.67l-0.29 1.49 -2.51 0.07 -0.38 -1.47c-0.53,-0.12 -1.04,-0.32 -1.53,-0.58l-1.26 0.85 -1.83 -1.72 0.77 -1.31c-0.29,-0.47 -0.52,-0.97 -0.67,-1.49l-1.49 -0.29 -0.07 -2.51 1.47 -0.38c0.12,-0.53 0.32,-1.04 0.58,-1.53l-0.85 -1.26 1.72 -1.83 1.31 0.77z"/>
   <path class="fil3" d="M62.93 30.64c0,0 -0.04,0.01 -0.12,0.01 -0.09,0 -0.2,0 -0.35,0.01 -0.31,0 -0.75,0.01 -1.28,0.01 -1.09,0 -2.59,0.01 -4.24,0.01 -0.1,0 -0.21,0 -0.3,0l-0.04 0 0 -0.04c0,-1.58 0.01,-3 0.01,-4.04 0,-0.51 0.01,-0.92 0.01,-1.21 0,-0.14 0.01,-0.25 0.01,-0.33 0,-0.07 0.01,-0.11 0.01,-0.11 0,0 0.01,0.04 0.01,0.11 0,0.08 0,0.19 0.01,0.33 0,0.29 0.01,0.71 0.01,1.21 0,1.03 0.01,2.45 0.01,4.04l-0.04 -0.04c0.1,0 0.2,0 0.3,0 1.65,0 3.15,0.01 4.24,0.01 0.54,0.01 0.97,0.01 1.28,0.01 0.15,0 0.26,0.01 0.35,0.01 0.08,0 0.12,0.01 0.12,0.01z"/>
   <path class="fil3" d="M62.23 26.32c0,0 -0.06,0.07 -0.19,0.18 -0.14,0.12 -0.31,0.28 -0.53,0.47 -0.45,0.39 -1.08,0.93 -1.77,1.52l-0.11 0.09 -0.03 0.02 -0.03 -0.02c-0.28,-0.26 -0.54,-0.5 -0.79,-0.73l0.05 0c-0.46,0.38 -0.86,0.71 -1.16,0.96 -0.14,0.11 -0.25,0.2 -0.34,0.27 -0.08,0.06 -0.12,0.09 -0.13,0.09 -0,-0 0.04,-0.04 0.11,-0.11 0.08,-0.07 0.19,-0.17 0.32,-0.29 0.29,-0.25 0.68,-0.59 1.14,-0.98l0.02 -0.02 0.02 0.02c0.25,0.23 0.51,0.47 0.79,0.73l-0.05 -0 0.11 -0.09c0.7,-0.59 1.33,-1.12 1.79,-1.5 0.22,-0.18 0.41,-0.33 0.55,-0.45 0.13,-0.1 0.2,-0.16 0.21,-0.16z"/>
   <path class="fil3" d="M62.23 27.64c-0.01,0 -0.02,-0.15 -0.03,-0.39 -0.01,-0.24 -0.01,-0.58 -0.01,-0.96l0.04 0.04c-0.02,0 -0.04,0 -0.07,0 -0.39,0 -0.75,-0 -1,-0.01 -0.26,-0.01 -0.42,-0.02 -0.42,-0.03 0,-0.01 0.16,-0.02 0.42,-0.03 0.26,-0.01 0.61,-0.01 1,-0.01 0.02,0 0.05,0 0.07,0l0.04 0 0 0.04c-0,0.38 -0.01,0.71 -0.01,0.96 -0.01,0.24 -0.02,0.39 -0.03,0.39z"/>
   <path class="fil4" d="M21.61 30.86c-0.02,0.01 -0.1,-0.18 -0.18,-0.43 -0.08,-0.24 -0.12,-0.45 -0.1,-0.45 0.02,-0.01 0.1,0.19 0.18,0.43 0.08,0.24 0.12,0.44 0.1,0.45z"/>
   <path class="fil4" d="M23.24 34.14c-0.02,0.01 -0.26,-0.32 -0.52,-0.76 -0.25,-0.44 -0.42,-0.82 -0.4,-0.83 0.02,-0.01 0.22,0.35 0.47,0.79 0.25,0.44 0.47,0.79 0.45,0.8z"/>
   <path class="fil4" d="M25.63 36.92c-0.01,0.02 -0.34,-0.24 -0.69,-0.61 -0.36,-0.36 -0.61,-0.69 -0.59,-0.7 0.02,-0.01 0.3,0.29 0.65,0.65 0.35,0.36 0.65,0.65 0.64,0.66z"/>
   <path class="fil4" d="M28.67 38.97c-0.01,0.02 -0.39,-0.14 -0.83,-0.4 -0.44,-0.26 -0.77,-0.51 -0.76,-0.52 0.01,-0.02 0.36,0.2 0.8,0.46 0.44,0.26 0.8,0.45 0.79,0.47z"/>
   <path class="fil4" d="M32.16 40.1c-0,0.02 -0.41,-0.04 -0.91,-0.14 -0.49,-0.14 -0.88,-0.27 -0.88,-0.29 0.01,-0.02 0.41,0.07 0.89,0.21 0.49,0.1 0.9,0.2 0.89,0.22z"/>
   <path class="fil4" d="M35.82 40.18c0,0.02 -0.41,0.09 -0.92,0.11 -0.51,0.02 -0.92,-0.01 -0.92,-0.03 0,-0.02 0.41,-0.03 0.92,-0.05 0.51,-0.02 0.92,-0.05 0.92,-0.03z"/>
   <path class="fil4" d="M39.41 39.39c0.01,0.02 -0.38,0.17 -0.87,0.31 -0.49,0.14 -0.9,0.21 -0.9,0.19 -0,-0.02 0.39,-0.13 0.88,-0.26 0.49,-0.14 0.88,-0.25 0.89,-0.23z"/>
   <path class="fil4" d="M42.73 37.83c0.01,0.02 -0.33,0.25 -0.78,0.49 -0.45,0.24 -0.83,0.4 -0.84,0.38 -0.01,-0.02 0.36,-0.21 0.8,-0.45 0.45,-0.24 0.8,-0.44 0.82,-0.42z"/>
   <path class="fil4" d="M45.58 35.52c0.02,0.01 -0.25,0.33 -0.62,0.68 -0.37,0.35 -0.71,0.59 -0.72,0.57 -0.01,-0.02 0.3,-0.29 0.67,-0.63 0.37,-0.34 0.66,-0.63 0.68,-0.62z"/>
   <path class="fil4" d="M47.61 32.47c0.02,0.01 -0.13,0.39 -0.38,0.84 -0.24,0.45 -0.49,0.78 -0.51,0.77 -0.02,-0.01 0.2,-0.36 0.44,-0.81 0.24,-0.44 0.43,-0.81 0.45,-0.8z"/>
   <path class="fil4" d="M48.87 29.02c0.02,0.01 -0.09,0.4 -0.25,0.89 -0.16,0.48 -0.3,0.87 -0.32,0.86 -0.02,-0.01 0.09,-0.4 0.25,-0.89 0.16,-0.48 0.3,-0.87 0.32,-0.86z"/>
   <path class="fil4" d="M50.04 25.54c0.02,0.01 -0.12,0.4 -0.28,0.88 -0.17,0.48 -0.32,0.86 -0.34,0.85 -0.02,-0.01 0.1,-0.4 0.26,-0.88 0.08,-0.24 0.17,-0.45 0.24,-0.61 0.07,-0.15 0.11,-0.25 0.12,-0.24z"/>
   <path class="fil4" d="M51.67 22.25c0.02,0.01 -0.19,0.37 -0.43,0.81 -0.25,0.44 -0.44,0.81 -0.46,0.8 -0.02,-0.01 0.14,-0.39 0.39,-0.84 0.25,-0.45 0.49,-0.78 0.5,-0.77z"/>
   <path class="fil4" d="M54.13 19.53c0.01,0.02 -0.31,0.27 -0.68,0.62 -0.37,0.34 -0.65,0.64 -0.67,0.63 -0.02,-0.01 0.24,-0.34 0.62,-0.69 0.37,-0.35 0.72,-0.58 0.73,-0.56z"/>
   <path class="fil4" d="M57.44 17.98c0.01,0.02 -0.39,0.14 -0.86,0.31 -0.48,0.17 -0.86,0.33 -0.86,0.31 -0.01,-0.02 0.36,-0.21 0.84,-0.38 0.48,-0.17 0.89,-0.26 0.89,-0.24z"/>
   <path class="fil4" d="M61.08 17.58c-0,0.02 -0.41,0.01 -0.92,0.03 -0.51,0.02 -0.92,0.05 -0.92,0.03 -0,-0.02 0.41,-0.09 0.92,-0.11 0.51,-0.02 0.92,0.03 0.92,0.05z"/>
   <path class="fil4" d="M64.62 18.48c-0.01,0.02 -0.39,-0.13 -0.87,-0.3 -0.48,-0.17 -0.87,-0.29 -0.86,-0.31 0.01,-0.02 0.41,0.07 0.89,0.24 0.48,0.17 0.85,0.36 0.84,0.38z"/>
   <path class="fil4" d="M67.75 20.39c-0.01,0.02 -0.34,-0.24 -0.75,-0.53 -0.41,-0.29 -0.76,-0.52 -0.74,-0.54 0.01,-0.02 0.38,0.18 0.79,0.47 0.42,0.3 0.72,0.58 0.7,0.59z"/>
   <path class="fil4" d="M69.59 22.43c-0.02,0.01 -0.14,-0.15 -0.3,-0.35 -0.15,-0.2 -0.27,-0.37 -0.25,-0.39 0.02,-0.01 0.16,0.13 0.32,0.34 0.15,0.21 0.25,0.39 0.23,0.4z"/>
   <path class="fil4" d="M2.02 9.27c0,0 0.01,-0.05 0.03,-0.14 0.02,-0.09 0.05,-0.23 0.09,-0.41 0.09,-0.36 0.24,-0.87 0.51,-1.52 0.28,-0.64 0.68,-1.4 1.27,-2.19 0.59,-0.8 1.36,-1.63 2.34,-2.4 0.99,-0.76 2.18,-1.46 3.57,-1.93 0.7,-0.23 1.43,-0.42 2.21,-0.53 0.77,-0.11 1.58,-0.16 2.4,-0.14 0.82,0.02 1.67,0.12 2.51,0.32 0.84,0.19 1.68,0.48 2.49,0.88 0.81,0.4 1.57,0.91 2.27,1.51 0.71,0.6 1.35,1.3 1.89,2.08 0.54,0.78 0.96,1.64 1.27,2.51 0.3,0.88 0.49,1.78 0.58,2.67 0.02,0.22 0.04,0.45 0.05,0.67 0.01,0.22 0.01,0.44 0.02,0.66 0,0.22 -0.01,0.44 -0.02,0.66 -0.02,0.22 -0.03,0.43 -0.06,0.65 -0.11,0.86 -0.34,1.68 -0.66,2.44 -0.32,0.76 -0.7,1.47 -1.09,2.15 -0.39,0.67 -0.78,1.32 -1.15,1.96 -0.74,1.26 -1.12,2.59 -1.34,3.81 -0.11,0.61 -0.18,1.2 -0.22,1.76 -0.04,0.56 -0.06,1.09 -0.06,1.58 -0,0.99 0.01,1.84 0.12,2.53 0.1,0.69 0.24,1.21 0.35,1.56 0.06,0.17 0.1,0.31 0.14,0.39 0.02,0.04 0.03,0.08 0.04,0.1 0.01,0.02 0.01,0.03 0.01,0.03 0,0 -0.09,-0.17 -0.21,-0.52 -0.12,-0.35 -0.26,-0.87 -0.37,-1.56 -0.11,-0.69 -0.13,-1.54 -0.13,-2.53 0,-0.49 0.02,-1.02 0.06,-1.58 0.04,-0.56 0.1,-1.15 0.21,-1.76 0.21,-1.22 0.6,-2.56 1.34,-3.83 0.37,-0.63 0.75,-1.29 1.14,-1.96 0.39,-0.68 0.77,-1.38 1.08,-2.14 0.31,-0.76 0.54,-1.57 0.65,-2.42 0.03,-0.21 0.04,-0.43 0.06,-0.64 0,-0.22 0.02,-0.43 0.02,-0.65 -0.01,-0.22 -0.01,-0.44 -0.02,-0.66 -0.01,-0.22 -0.03,-0.44 -0.05,-0.66 -0.09,-0.89 -0.27,-1.78 -0.57,-2.65 -0.3,-0.87 -0.72,-1.71 -1.26,-2.49 -0.54,-0.78 -1.17,-1.47 -1.87,-2.07 -0.7,-0.6 -1.46,-1.11 -2.26,-1.5 -0.8,-0.4 -1.63,-0.68 -2.47,-0.87 -0.84,-0.2 -1.67,-0.3 -2.49,-0.32 -0.82,-0.02 -1.62,0.03 -2.39,0.14 -0.77,0.11 -1.5,0.3 -2.2,0.53 -1.39,0.46 -2.57,1.16 -3.56,1.91 -0.98,0.76 -1.75,1.59 -2.34,2.38 -0.59,0.79 -0.99,1.55 -1.28,2.18 -0.27,0.64 -0.43,1.16 -0.52,1.51 -0.04,0.18 -0.08,0.31 -0.1,0.4 -0.02,0.09 -0.04,0.14 -0.04,0.14z"/>
   <path class="fil6" d="M39.4 65.74l2.3 0.81 -0.02 2.22c-1.1,0.31 -1.26,0.87 -1.26,0.87l2.31 -0.05 2.01 -4.08 -1.59 -1.04 -2.97 -1.3 -0.78 2.58z"/>
   <polygon class="fil7" points="40.43,69.64 40.68,69.28 42.55,69.14 44.4,65.28 44.74,65.5 42.73,69.58 "/>
   <path class="fil4" d="M41.67 67.75c0.02,0.02 0.15,-0.06 0.33,-0.05 0.18,-0 0.31,0.07 0.33,0.05 0.02,-0.02 -0.11,-0.15 -0.33,-0.15 -0.22,0 -0.35,0.14 -0.33,0.16z"/>
   <path class="fil4" d="M41.7 67.2c0.02,0.02 0.12,-0.12 0.31,-0.16 0.18,-0.04 0.33,0.04 0.35,0.02 0.01,-0.01 -0.02,-0.05 -0.09,-0.08 -0.06,-0.03 -0.17,-0.06 -0.28,-0.03 -0.11,0.03 -0.2,0.09 -0.24,0.15 -0.04,0.06 -0.05,0.1 -0.04,0.11z"/>
   <path class="fil4" d="M41.67 66.5c0.03,0.01 0.1,-0.12 0.26,-0.18 0.16,-0.06 0.3,-0.01 0.32,-0.04 0.01,-0.01 -0.02,-0.04 -0.09,-0.07 -0.06,-0.02 -0.16,-0.03 -0.26,0.01 -0.1,0.04 -0.17,0.11 -0.2,0.17 -0.03,0.06 -0.04,0.1 -0.02,0.11z"/>
   <path class="fil4" d="M41.5 66.5c0.03,-0.01 0.01,-0.15 0.08,-0.31 0.06,-0.16 0.18,-0.25 0.17,-0.27 -0.01,-0.03 -0.18,0.04 -0.26,0.23 -0.08,0.19 -0.01,0.36 0.01,0.35z"/>
   <path class="fil4" d="M41.23 66.24c0.01,0 0.03,-0.12 0.05,-0.31 0.01,-0.11 0.02,-0.22 0.03,-0.34 0,-0.06 0.02,-0.13 0,-0.21 -0.01,-0.04 -0.04,-0.09 -0.08,-0.11 -0.04,-0.03 -0.12,-0.03 -0.16,0.01 -0.08,0.06 -0.1,0.14 -0.13,0.2 -0.02,0.07 -0.04,0.14 -0.04,0.21 -0.01,0.14 0.02,0.26 0.06,0.35 0.08,0.19 0.2,0.26 0.2,0.25 0.01,-0.01 -0.08,-0.1 -0.14,-0.27 -0.03,-0.09 -0.05,-0.2 -0.03,-0.32 0.01,-0.06 0.02,-0.12 0.04,-0.18 0.02,-0.06 0.06,-0.13 0.09,-0.15 0.02,-0.01 0.03,-0.01 0.05,-0 0.02,0.01 0.03,0.03 0.04,0.05 0.01,0.05 0,0.12 0,0.18 -0,0.11 -0.01,0.23 -0.01,0.34 -0,0.19 0,0.31 0.02,0.31z"/>
   <path class="fil4" d="M41.19 66.34c0.01,-0.01 -0.06,-0.11 -0.24,-0.17 -0.17,-0.05 -0.47,-0.04 -0.65,0.23 -0.01,0.03 -0.01,0.06 0.01,0.09 0.02,0.03 0.04,0.04 0.06,0.05 0.04,0.02 0.08,0.02 0.11,0.02 0.06,0.01 0.13,0.01 0.19,-0 0.12,-0.01 0.22,-0.04 0.31,-0.08 0.17,-0.07 0.24,-0.16 0.23,-0.17 -0.01,-0.01 -0.1,0.05 -0.26,0.1 -0.08,0.03 -0.18,0.05 -0.29,0.05 -0.05,0 -0.11,0 -0.17,-0.01 -0.03,-0 -0.06,-0.01 -0.08,-0.02 -0.02,-0.01 -0.01,-0.01 -0.01,-0.02 0,-0.01 0.02,-0.03 0.05,-0.05 0.02,-0.02 0.04,-0.04 0.07,-0.05 0.05,-0.03 0.1,-0.06 0.15,-0.07 0.1,-0.03 0.2,-0.03 0.28,-0.01 0.16,0.03 0.24,0.11 0.25,0.1z"/>
   <path class="fil7" d="M43.17 65.74c-0.15,0 -0.27,-0.12 -0.27,-0.27 -0,-0.15 0.12,-0.28 0.27,-0.28 0,0 0,-0 0.01,-0 0.15,0 0.27,0.12 0.27,0.27 0,0.15 -0.12,0.28 -0.27,0.28 -0,0 -0,0 -0.01,0z"/>
   <path class="fil6" d="M27.58 64.82l0.03 3.02c0,0 -3.06,1.05 -3.11,1.6l5.86 0.15 0.14 -4.71 -2.93 -0.07z"/>
   <path class="fil7" d="M29.36 68.07c-0.02,0 -0.04,-0 -0.05,-0.01 -0.11,-0.03 -0.21,-0.18 -0.17,-0.29 0.03,-0.08 0.13,-0.15 0.23,-0.15 0.03,0 0.05,0.01 0.08,0.02 0.1,0.04 0.17,0.16 0.14,0.27 -0.02,0.1 -0.12,0.17 -0.22,0.17zm0.08 -0.44l0 0z"/>
   <path class="fil3" d="M27.96 69.53l-3.46 -0.09c-0.02,-0.13 0.12,-0.23 0.19,-0.27 -0.11,0.1 -0.18,0.19 -0.19,0.27l3.46 0.09 0 0z"/>
   <path class="fil7" d="M30.36 69.59l-2.4 -0.06 -3.46 -0.09c0.01,-0.08 0.08,-0.17 0.19,-0.27 0.03,-0.02 0.05,-0.02 0.05,-0.02l5.61 -0.03 0 0.47z"/>
   <path class="fil4" d="M27.51 67.8c0,0.03 0.14,0.05 0.28,0.14 0.14,0.09 0.21,0.22 0.24,0.21 0.03,-0 -0.01,-0.18 -0.18,-0.29 -0.17,-0.11 -0.34,-0.08 -0.34,-0.06z"/>
   <path class="fil4" d="M26.89 68.04c-0.01,0.03 0.12,0.08 0.21,0.2 0.1,0.12 0.12,0.25 0.15,0.25 0.03,0.01 0.05,-0.16 -0.07,-0.31 -0.12,-0.15 -0.29,-0.17 -0.29,-0.14z"/>
   <path class="fil4" d="M26.52 68.77c0.03,0.01 0.07,-0.14 0,-0.29 -0.07,-0.16 -0.2,-0.22 -0.21,-0.2 -0.02,0.02 0.07,0.11 0.12,0.24 0.06,0.13 0.06,0.25 0.09,0.25z"/>
   <path class="fil4" d="M27.58 67.11c0.01,0.03 0.14,-0.01 0.3,0.01 0.16,0.01 0.29,0.07 0.3,0.05 0.02,-0.02 -0.1,-0.13 -0.29,-0.14 -0.19,-0.02 -0.33,0.07 -0.31,0.09z"/>
   <path class="fil8" d="M30.47 66l0 0 0.01 -0.21 0 0 -0.01 0.21zm-2.88 -0.05l0 0 -0 -0.01 0 0.01z"/>
   <polygon class="fil9" points="30.47,66 27.59,65.95 27.59,65.95 27.59,65.71 30.47,65.79 30.47,66 "/>
   <path class="fil4" d="M27.59 66.51c-0,0.01 0.11,0.03 0.29,0.01 0.09,-0.01 0.2,-0.04 0.31,-0.09 0.06,-0.02 0.11,-0.05 0.17,-0.08 0.03,-0.02 0.06,-0.03 0.09,-0.07 0.03,-0.03 0.05,-0.1 0.02,-0.15 -0.03,-0.05 -0.08,-0.07 -0.12,-0.07 -0.04,-0 -0.08,0.01 -0.11,0.01 -0.07,0.01 -0.13,0.03 -0.18,0.06 -0.11,0.05 -0.21,0.11 -0.27,0.17 -0.14,0.12 -0.19,0.23 -0.18,0.23 0.01,0.01 0.08,-0.08 0.22,-0.18 0.07,-0.05 0.16,-0.1 0.27,-0.14 0.05,-0.02 0.11,-0.04 0.17,-0.05 0.06,-0.01 0.12,-0.01 0.13,0.01 0.01,0.01 0.01,0.01 -0.01,0.03 -0.01,0.02 -0.04,0.03 -0.07,0.05 -0.05,0.03 -0.11,0.06 -0.16,0.08 -0.1,0.05 -0.2,0.08 -0.29,0.1 -0.17,0.04 -0.28,0.05 -0.28,0.06z"/>
   <path class="fil4" d="M27.62 66.55c0.01,0 0.07,-0.1 0.08,-0.28 0.01,-0.09 0,-0.2 -0.03,-0.32 -0.02,-0.06 -0.04,-0.12 -0.07,-0.18 -0.03,-0.06 -0.07,-0.14 -0.18,-0.15 -0.06,-0 -0.11,0.04 -0.12,0.08 -0.02,0.04 -0.03,0.07 -0.03,0.11 -0.01,0.07 -0.01,0.14 -0.01,0.2 0.02,0.13 0.06,0.23 0.12,0.31 0.11,0.15 0.23,0.19 0.23,0.18 0.01,-0.01 -0.09,-0.07 -0.17,-0.22 -0.04,-0.07 -0.08,-0.17 -0.09,-0.28 -0,-0.05 -0,-0.11 0.01,-0.17 0.01,-0.06 0.04,-0.11 0.06,-0.1 0.03,0 0.08,0.05 0.1,0.1 0.03,0.05 0.05,0.11 0.07,0.16 0.03,0.11 0.05,0.21 0.05,0.29 0,0.17 -0.03,0.28 -0.01,0.28z"/>
   <polygon class="fil4" points="41.19,63.28 34.45,60.77 41.54,59.77 41.89,56.32 28.64,57.48 26.76,60.17 27.26,63.55 40.17,66.84 "/>
   <path class="fil4" d="M26.89 65.69l-0.65 -12.34c0.04,-1.2 0.69,-2.3 1.73,-2.9 0.86,-0.5 1.89,-0.6 2.84,-0.29l8.6 2.87 4.72 1.21c0,0 0.8,1.98 0.33,3.53 -0.46,1.51 -2.12,2.51 -3.57,2.08 -1.81,-0.54 -10.1,-4.1 -10.1,-4.1l0 10.05 -3.9 -0.1z"/>
   <path class="fil10" d="M40.77 59.88c-0,0 -0.02,-0 -0.05,-0.02 -0.04,-0.01 -0.09,-0.03 -0.15,-0.06 -0.13,-0.05 -0.32,-0.13 -0.56,-0.23 -0.49,-0.2 -1.2,-0.49 -2.07,-0.84 -1.75,-0.72 -4.16,-1.71 -6.81,-2.81 -0.12,-0.05 -0.24,-0.1 -0.35,-0.14l0.06 -0.04c-0,2.79 -0.01,5.3 -0.01,7.12 -0.01,0.9 -0.01,1.63 -0.01,2.15 -0,0.25 -0.01,0.44 -0.01,0.58 -0,0.06 -0,0.11 -0,0.15 -0,0.03 -0,0.05 -0,0.05 -0,0 -0,-0.02 -0,-0.05 -0,-0.04 -0,-0.09 -0,-0.15 -0,-0.14 -0,-0.33 -0.01,-0.58 -0,-0.51 -0.01,-1.24 -0.01,-2.15 -0,-1.82 -0.01,-4.33 -0.01,-7.12l0 -0.06 0.06 0.02c0.11,0.05 0.23,0.09 0.35,0.14 2.66,1.11 5.06,2.11 6.81,2.83 0.87,0.36 1.57,0.66 2.06,0.87 0.24,0.1 0.43,0.18 0.56,0.24 0.06,0.03 0.11,0.05 0.14,0.06 0.03,0.01 0.05,0.02 0.05,0.02z"/>
   <path class="fil10" d="M32.83 59.89c0,-0.02 0.43,0.06 0.88,0.31 0.46,0.25 0.75,0.57 0.73,0.58 -0.02,0.02 -0.32,-0.27 -0.77,-0.51 -0.45,-0.25 -0.85,-0.36 -0.84,-0.38z"/>
   <path class="fil10" d="M30.05 54.07c0.02,-0.01 0.24,0.35 0.45,0.83 0.22,0.48 0.34,0.89 0.32,0.9 -0.02,0.01 -0.18,-0.39 -0.39,-0.86 -0.21,-0.48 -0.4,-0.86 -0.38,-0.87z"/>
   <polygon class="fil11" points="30.07,48.63 28.54,48.35 26.95,49.98 27.24,51.02 29.1,50.33 "/>
   <path class="fil12" d="M24.44 30.54l-0.41 0.03c0,0 -0.74,0.12 -0.74,0.14 0,0.02 -0.33,0.47 -0.33,0.47l-0.3 0.46c0,0 0.24,0.09 0.42,-0.08l-0.1 0.23c0,0 0.34,0.15 0.57,-0.22 0.13,-0.21 0.25,-0.36 0.32,-0.46l0.14 -0.01c0.01,0.03 0.53,0.76 0.54,0.75 0.01,-0.02 0.44,-0.43 0.44,-0.43l-0.55 -0.88z"/>
   <path class="fil11" d="M25.55 33.73l0.12 -2.28 -1.15 -1.31 -1.27 0.08 -0.52 0.36c0.03,0.13 0.39,0.21 0.78,0.1 0.38,-0.11 0.8,-0.03 0.8,-0.03l0.49 0.85 -0.32 0.36 0.41 2.19 0.67 -0.32z"/>
   <path class="fil4" d="M22.17 30.73l4.13 0c0.1,0 0.19,0.08 0.19,0.19 0,0.1 -0.08,0.19 -0.19,0.19l-4.13 0 -0.4 -0.19 0.4 -0.19z"/>
   <path class="fil11" d="M24.26 34.35l-0.42 -1.03c-0.05,-0.13 -0.08,-0.27 -0.07,-0.41 0.02,-0.37 0.05,-1.12 -0.01,-1.29 -0.08,-0.23 -0.38,-1.02 -0.21,-1.14 0.17,-0.12 0.41,-0.15 0.58,0.31 0.17,0.46 0.69,1.46 0.69,1.46l0.39 1.65 -0.95 0.45z"/>
   <path class="fil12" d="M24.77 32.14c-0.01,0 -0.1,-0.16 -0.24,-0.44 -0.14,-0.27 -0.33,-0.67 -0.53,-1.08 -0.06,-0.09 -0.15,-0.16 -0.24,-0.16 -0.09,0 -0.18,0.07 -0.21,0.15 -0.03,0.09 -0.01,0.18 0.01,0.27 0.02,0.09 0.04,0.17 0.06,0.24 0.08,0.3 0.17,0.47 0.15,0.47 -0,0 -0.03,-0.04 -0.07,-0.12 -0.04,-0.08 -0.09,-0.19 -0.14,-0.34 -0.02,-0.07 -0.05,-0.16 -0.07,-0.25 -0.02,-0.09 -0.04,-0.19 -0.01,-0.3 0.03,-0.11 0.14,-0.21 0.27,-0.21 0.13,-0 0.25,0.09 0.31,0.19 0.21,0.44 0.38,0.82 0.51,1.1 0.12,0.28 0.2,0.46 0.19,0.47z"/>
   <polygon class="fil11" points="44.01,54.21 43.59,53.47 39.08,52.35 39.61,53.26 "/>
   <path class="fil6" d="M23.87 34.35l2.83 6.71c0.27,0.63 0.78,1.14 1.41,1.4l6.11 2.51 1.42 -3.94 -5.95 -2.11 -3.87 -5.51 -1.96 0.94z"/>
   <path class="fil6" d="M33.08 41.1c0.01,0.16 -0.66,5.04 -0.66,6.04 0,1 1.91,2.08 1.91,2.08l2.09 4.44 7.45 0 -2.55 -4.78 -1.15 -3.83c-0.44,-1.45 -1.23,-2.77 -2.31,-3.84l-1.24 -0.83 -3.54 0.72z"/>
   <path class="fil6" d="M35.24 44.96l1.25 5.25 -6.31 -1.78 -1.08 1.9 8.22 3.74c1.01,0.46 2.21,0.14 2.85,-0.78 0.39,-0.55 0.51,-1.25 0.35,-1.9l-1.84 -7.19c-0.25,-0.99 -1.29,-1.56 -2.26,-1.23 -0.83,0.28 -1.32,1.12 -1.17,1.97z"/>
   <path class="fil4" d="M34.33 49.22c-0,0 -0.03,-0.01 -0.07,-0.03 -0.05,-0.02 -0.11,-0.06 -0.2,-0.11 -0.17,-0.1 -0.41,-0.24 -0.69,-0.46 -0.27,-0.22 -0.6,-0.5 -0.81,-0.93 -0.2,-0.44 -0.19,-0.98 -0.11,-1.5 0.08,-0.53 0.19,-1.03 0.25,-1.48 0.07,-0.46 0.12,-0.87 0.14,-1.22 0.03,-0.35 0.03,-0.63 0.03,-0.83 -0,-0.2 -0.01,-0.3 0,-0.3 0,-0 0.01,0.03 0.01,0.08 0.01,0.05 0.01,0.13 0.02,0.23 0.01,0.2 0.01,0.48 -0,0.83 -0.02,0.35 -0.06,0.77 -0.13,1.22 -0.06,0.46 -0.17,0.96 -0.24,1.48 -0.07,0.52 -0.09,1.04 0.1,1.46 0.2,0.41 0.52,0.69 0.78,0.91 0.27,0.22 0.51,0.37 0.67,0.48 0.17,0.1 0.26,0.16 0.26,0.16z"/>
   <path class="fil4" d="M37.81 43.56c-0.01,0.02 -0.36,-0.18 -0.85,-0.2 -0.49,-0.04 -0.86,0.11 -0.87,0.09 -0.01,-0.02 0.37,-0.2 0.88,-0.17 0.51,0.03 0.86,0.27 0.84,0.28z"/>
   <path class="fil4" d="M36.96 40.73c0,0 -0.04,0.05 -0.11,0.13 -0.08,0.08 -0.19,0.19 -0.33,0.32 -0.29,0.27 -0.69,0.63 -1.16,1 -0.47,0.37 -0.91,0.69 -1.23,0.92 -0.16,0.11 -0.29,0.2 -0.39,0.26 -0.09,0.06 -0.15,0.09 -0.15,0.08 -0,-0 0.04,-0.04 0.13,-0.11 0.1,-0.08 0.23,-0.17 0.37,-0.28 0.31,-0.23 0.75,-0.56 1.21,-0.93 0.47,-0.37 0.88,-0.72 1.17,-0.98 0.14,-0.12 0.26,-0.22 0.35,-0.3 0.08,-0.07 0.13,-0.11 0.14,-0.1z"/>
   <path class="fil4" d="M29.7 38.94c0.01,0.02 -0.22,0.12 -0.47,0.29 -0.25,0.17 -0.44,0.34 -0.45,0.32 -0.02,-0.01 0.14,-0.22 0.41,-0.39 0.26,-0.17 0.51,-0.24 0.52,-0.22z"/>
   <path class="fil13" d="M35.85 47.34c0,0.01 -0.05,0.02 -0.14,0.04 -0.09,0.02 -0.22,0.05 -0.39,0.07 -0.17,0.02 -0.36,0.03 -0.58,0.02 -0.22,-0.01 -0.46,-0.05 -0.71,-0.11 -0.25,-0.06 -0.47,-0.15 -0.67,-0.24 -0.2,-0.09 -0.37,-0.19 -0.51,-0.29 -0.14,-0.09 -0.24,-0.18 -0.31,-0.24 -0.07,-0.06 -0.1,-0.1 -0.1,-0.1 0.01,-0.01 0.16,0.12 0.44,0.3 0.28,0.18 0.69,0.38 1.17,0.5 0.48,0.12 0.94,0.14 1.27,0.11 0.33,-0.02 0.53,-0.07 0.53,-0.06z"/>
   <path class="fil13" d="M36.28 49.65c0,0.01 -0.11,0.04 -0.28,0.05 -0.18,0.01 -0.43,0.01 -0.69,-0.05 -0.27,-0.05 -0.5,-0.15 -0.66,-0.23 -0.16,-0.08 -0.25,-0.15 -0.24,-0.16 0.01,-0.02 0.39,0.2 0.91,0.31 0.52,0.11 0.96,0.05 0.96,0.07z"/>
   <path class="fil13" d="M39.54 48.21c0,0.01 -0.04,0.03 -0.12,0.07 -0.08,0.04 -0.19,0.09 -0.34,0.15 -0.29,0.12 -0.71,0.24 -1.19,0.31 -0.48,0.07 -0.91,0.06 -1.23,0.02 -0.16,-0.02 -0.28,-0.04 -0.37,-0.05 -0.09,-0.02 -0.13,-0.03 -0.13,-0.04 0,-0.01 0.19,0.02 0.5,0.03 0.31,0.02 0.74,0.02 1.21,-0.05 0.47,-0.07 0.88,-0.18 1.18,-0.28 0.29,-0.1 0.47,-0.18 0.48,-0.17z"/>
   <path class="fil13" d="M38.96 45.64c-0,0.01 -0.2,-0.02 -0.51,-0.06 -0.31,-0.04 -0.75,-0.07 -1.23,-0.05 -0.48,0.02 -0.91,0.08 -1.22,0.14 -0.31,0.06 -0.5,0.11 -0.5,0.1 -0,-0.01 0.04,-0.02 0.13,-0.05 0.08,-0.03 0.21,-0.06 0.36,-0.1 0.31,-0.07 0.75,-0.15 1.23,-0.17 0.49,-0.02 0.93,0.02 1.24,0.08 0.16,0.03 0.28,0.05 0.37,0.07 0.09,0.02 0.13,0.04 0.13,0.04z"/>
   <path class="fil13" d="M40.26 52.83c-0,0.01 -0.07,-0.01 -0.18,-0.04 -0.11,-0.03 -0.28,-0.08 -0.48,-0.15 -0.4,-0.14 -0.93,-0.39 -1.46,-0.76 -0.53,-0.37 -0.94,-0.79 -1.21,-1.11 -0.13,-0.16 -0.24,-0.3 -0.3,-0.4 -0.06,-0.1 -0.1,-0.15 -0.09,-0.16 0.01,-0.01 0.16,0.2 0.44,0.52 0.28,0.31 0.69,0.72 1.21,1.08 0.52,0.37 1.04,0.62 1.43,0.77 0.39,0.15 0.64,0.22 0.64,0.24z"/>
   <path class="fil13" d="M34.6 52.75c-0.01,0 -0.03,-0.17 -0.02,-0.44 0.01,-0.27 0.05,-0.64 0.16,-1.05 0.11,-0.4 0.25,-0.75 0.38,-0.99 0.13,-0.24 0.22,-0.38 0.23,-0.37 0.01,0.01 -0.07,0.15 -0.18,0.4 -0.11,0.24 -0.25,0.59 -0.35,0.98 -0.1,0.39 -0.15,0.76 -0.18,1.03 -0.02,0.27 -0.02,0.43 -0.04,0.43z"/>
   <path class="fil13" d="M30.8 51.02c-0.01,-0 -0.02,-0.14 0,-0.37 0.02,-0.22 0.09,-0.54 0.27,-0.85 0.18,-0.3 0.42,-0.52 0.59,-0.66 0.18,-0.14 0.29,-0.22 0.3,-0.21 0.01,0.01 -0.1,0.1 -0.26,0.26 -0.16,0.16 -0.39,0.37 -0.56,0.66 -0.17,0.29 -0.25,0.59 -0.29,0.81 -0.04,0.22 -0.05,0.36 -0.06,0.36z"/>
   <path class="fil13" d="M43.38 52.71c0,0.01 -0.16,0.09 -0.44,0.2 -0.28,0.11 -0.67,0.24 -1.12,0.34 -0.45,0.1 -0.86,0.14 -1.17,0.13 -0.08,-0 -0.14,-0.01 -0.2,-0.01 -0.06,-0.01 -0.11,-0.01 -0.15,-0.02 -0.08,-0.02 -0.13,-0.03 -0.13,-0.03 0,-0.01 0.06,-0 0.16,0 0.08,0 0.19,0.01 0.32,0.01 0.3,-0 0.7,-0.05 1.15,-0.15 0.44,-0.1 0.84,-0.22 1.12,-0.31 0.28,-0.09 0.46,-0.15 0.46,-0.14z"/>
   <path class="fil13" d="M41.69 49.67c0.01,0 -0.04,0.1 -0.17,0.19 -0.13,0.1 -0.32,0.2 -0.54,0.28 -0.22,0.09 -0.43,0.14 -0.59,0.17 -0.08,0.01 -0.14,0.02 -0.19,0.02 -0.04,0 -0.07,-0.02 -0.07,-0.02 0,-0.01 0.09,-0.01 0.24,-0.06 0.15,-0.04 0.35,-0.11 0.57,-0.19 0.22,-0.08 0.41,-0.18 0.54,-0.26 0.13,-0.08 0.19,-0.15 0.2,-0.14z"/>
   <path class="fil13" d="M40.64 46.59c0,-0 0,0.03 -0.02,0.06 -0.02,0.03 -0.07,0.06 -0.12,0.1 -0.11,0.07 -0.28,0.15 -0.46,0.22 -0.19,0.07 -0.36,0.11 -0.49,0.13 -0.13,0.02 -0.22,0 -0.21,-0.01 0,-0.01 0.08,-0.01 0.2,-0.05 0.12,-0.03 0.29,-0.09 0.48,-0.15 0.18,-0.07 0.35,-0.13 0.46,-0.19 0.06,-0.03 0.1,-0.05 0.13,-0.07 0.03,-0.02 0.04,-0.04 0.05,-0.03z"/>
   <path class="fil13" d="M35.16 44.96c0,0.01 -0.14,0.02 -0.36,0.01 -0.22,-0.01 -0.53,-0.04 -0.86,-0.12 -0.33,-0.08 -0.62,-0.19 -0.83,-0.28 -0.2,-0.09 -0.32,-0.17 -0.32,-0.17 0.01,-0.02 0.5,0.22 1.16,0.38 0.66,0.16 1.21,0.16 1.21,0.18z"/>
   <path class="fil13" d="M39.59 43.57c0.02,0.02 -0.21,0.17 -0.5,0.29 -0.3,0.12 -0.56,0.17 -0.56,0.15 -0,-0.02 0.24,-0.1 0.53,-0.22 0.3,-0.12 0.52,-0.23 0.53,-0.22z"/>
   <path class="fil13" d="M36.14 41.57c0.01,-0.01 0.09,0.05 0.21,0.17 0.12,0.12 0.26,0.31 0.37,0.54 0.11,0.24 0.16,0.47 0.17,0.64 0.01,0.17 -0,0.27 -0.01,0.27 -0.03,0 -0.02,-0.42 -0.23,-0.88 -0.21,-0.46 -0.53,-0.73 -0.51,-0.75z"/>
   <path class="fil13" d="M31.3 43.76c-0,0 -0.03,-0.05 -0.07,-0.14 -0.04,-0.1 -0.08,-0.24 -0.12,-0.42 -0.08,-0.36 -0.09,-0.89 0.01,-1.44 0.1,-0.56 0.28,-1.04 0.42,-1.38 0.07,-0.17 0.13,-0.31 0.17,-0.4 0.04,-0.09 0.07,-0.15 0.07,-0.14 0.01,0 -0.01,0.06 -0.04,0.15 -0.04,0.11 -0.09,0.25 -0.14,0.41 -0.12,0.35 -0.29,0.83 -0.39,1.38 -0.1,0.55 -0.1,1.06 -0.03,1.42 0.06,0.36 0.15,0.57 0.14,0.58z"/>
   <path class="fil13" d="M27.69 42.28c-0.01,-0 0,-0.06 0.03,-0.15 0.02,-0.1 0.06,-0.24 0.12,-0.41 0.12,-0.34 0.33,-0.8 0.64,-1.26 0.32,-0.45 0.68,-0.81 0.96,-1.04 0.14,-0.11 0.26,-0.2 0.34,-0.26 0.08,-0.06 0.13,-0.08 0.14,-0.08 0.01,0.01 -0.17,0.14 -0.44,0.38 -0.27,0.24 -0.61,0.59 -0.93,1.04 -0.31,0.45 -0.53,0.9 -0.66,1.23 -0.13,0.33 -0.19,0.55 -0.2,0.55z"/>
   <path class="fil13" d="M28.27 36.88c0,0.01 -0.17,0.02 -0.44,0.1 -0.27,0.07 -0.63,0.22 -1,0.45 -0.37,0.22 -0.67,0.47 -0.87,0.67 -0.2,0.2 -0.3,0.34 -0.31,0.33 -0,-0 0.02,-0.04 0.06,-0.11 0.02,-0.03 0.05,-0.07 0.09,-0.12 0.03,-0.05 0.08,-0.09 0.12,-0.15 0.19,-0.21 0.49,-0.47 0.87,-0.7 0.37,-0.22 0.75,-0.37 1.03,-0.43 0.07,-0.02 0.13,-0.03 0.19,-0.04 0.06,-0.01 0.1,-0.01 0.15,-0.01 0.08,-0 0.12,-0 0.12,0z"/>
   <path class="fil13" d="M26.84 34.79c-0,0.03 -0.61,-0.08 -1.32,0.1 -0.72,0.18 -1.2,0.56 -1.21,0.54 -0.01,-0.01 0.1,-0.11 0.31,-0.24 0.21,-0.13 0.51,-0.28 0.88,-0.37 0.36,-0.09 0.71,-0.11 0.95,-0.09 0.24,0.02 0.39,0.06 0.39,0.07z"/>
   <path class="fil4" d="M35.24 44.96c0,-0 0.01,0.03 0.03,0.1 0.02,0.07 0.04,0.17 0.08,0.29 0.07,0.26 0.16,0.63 0.27,1.1 0.23,0.94 0.55,2.25 0.91,3.76l0.02 0.06 -0.06 -0.02c-0.51,-0.14 -1.05,-0.3 -1.61,-0.45 -1.83,-0.52 -3.48,-0.99 -4.7,-1.34l0.03 -0.01c-0.33,0.58 -0.61,1.05 -0.8,1.38 -0.09,0.16 -0.17,0.28 -0.22,0.37 -0.02,0.04 -0.04,0.07 -0.06,0.1 -0.01,0.02 -0.02,0.03 -0.02,0.03 -0,-0 0,-0.01 0.02,-0.04 0.01,-0.03 0.03,-0.06 0.05,-0.1 0.05,-0.09 0.12,-0.22 0.21,-0.38 0.19,-0.34 0.45,-0.81 0.78,-1.4l0.01 -0.02 0.02 0.01c1.22,0.34 2.88,0.8 4.71,1.31 0.56,0.16 1.1,0.31 1.61,0.45l-0.05 0.05c-0.35,-1.51 -0.66,-2.82 -0.88,-3.76 -0.11,-0.46 -0.19,-0.84 -0.25,-1.1 -0.03,-0.12 -0.05,-0.22 -0.06,-0.3 -0.01,-0.07 -0.02,-0.1 -0.02,-0.1z"/>
   <path class="fil4" d="M38.7 44.63c0,-0 0.01,0.03 0.03,0.09 0.02,0.07 0.04,0.15 0.07,0.26 0.06,0.24 0.15,0.57 0.25,0.97 0.21,0.83 0.49,1.96 0.81,3.2 0.15,0.63 0.31,1.22 0.43,1.77 0.13,0.55 0.18,1.06 0.12,1.48 -0.06,0.43 -0.21,0.75 -0.35,0.94 -0.14,0.19 -0.25,0.27 -0.25,0.27 -0.01,-0.01 0.1,-0.09 0.23,-0.29 0.13,-0.19 0.27,-0.51 0.32,-0.93 0.05,-0.42 -0.01,-0.92 -0.14,-1.46 -0.14,-0.54 -0.28,-1.14 -0.44,-1.76 -0.31,-1.25 -0.58,-2.38 -0.79,-3.21 -0.1,-0.4 -0.17,-0.73 -0.23,-0.97 -0.02,-0.11 -0.04,-0.2 -0.06,-0.27 -0.01,-0.06 -0.02,-0.09 -0.02,-0.09z"/>
   <path class="fil14" d="M40.03 53.67l0 0 0 0 0 0 0 0 0 0 0 0c0.06,-0 0.12,-0 0.17,-0.01l-0.37 0c0.06,0.01 0.12,0.01 0.18,0.01z"/>
   <path class="fil9" d="M40.22 53.66l-0.37 0c0.12,-0.11 0.22,-0.23 0.32,-0.37l0 0c-0,0.01 0.04,0.02 0.13,0.03 0.04,0.01 0.09,0.02 0.15,0.02 0.06,0.01 0.13,0.01 0.2,0.01 0.03,0 0.07,0 0.11,0 0.07,0 0.13,-0 0.21,-0.01 -0.19,0.16 -0.44,0.27 -0.74,0.3zm0.36 -0.35c-0.1,0 -0.19,-0 -0.25,-0.01 -0.07,-0 -0.11,-0.01 -0.14,-0.01 -0.01,0 -0.02,0 -0.02,0 0.39,-0.55 0.51,-1.25 0.35,-1.9l-0.27 -1.06c0.04,-0 0.09,-0.01 0.15,-0.02 0.12,-0.02 0.26,-0.06 0.42,-0.11 0.13,0.37 0.26,0.75 0.39,1.12 0.13,0.38 0.26,0.78 0.21,1.17 -0.04,0.31 -0.16,0.58 -0.36,0.78 -0.15,0.02 -0.28,0.02 -0.4,0.02 -0.02,0 -0.05,0 -0.07,0z"/>
   <path class="fil9" d="M39.85 53.66c-0,0 -0,0 -0,0 0.13,-0.15 0.25,-0.33 0.34,-0.52 0.1,-0.19 0.19,-0.44 0.23,-0.75 0.06,-0.42 0.01,-0.94 -0.12,-1.48 -0.04,-0.19 -0.09,-0.38 -0.14,-0.58 0.01,0 0.02,0.01 0.04,0.01 0,0 0,0 0,0 0,0 0.01,0 0.01,0 0.01,0 0.01,-0 0.02,-0l0.27 1.06c0.17,0.65 0.04,1.35 -0.35,1.9 -0,0 -0,0 -0,0l0 0c-0.09,0.13 -0.2,0.26 -0.32,0.37l0 0z"/>
   <path class="fil9" d="M40.23 50.3l-0.82 -3.2c0.03,-0 0.06,-0 0.09,-0.01 0.51,0.97 0.91,2 1.28,3.04 -0.16,0.06 -0.3,0.1 -0.41,0.13 -0.06,0.02 -0.11,0.03 -0.15,0.04z"/>
   <path class="fil9" d="M40.16 50.32c-0.09,-0.37 -0.19,-0.76 -0.29,-1.17 -0.19,-0.74 -0.36,-1.43 -0.52,-2.05 0.02,0 0.04,0 0.06,0 0,0 0,0 0,0l0.82 3.2c-0.03,0.01 -0.06,0.01 -0.07,0.01z"/>
   <path class="fil9" d="M39.41 47.06l-0.08 -0.3c0.05,0.09 0.1,0.19 0.15,0.28 -0.03,0.01 -0.05,0.01 -0.08,0.02z"/>
   <path class="fil9" d="M39.35 47.08c-0.04,-0.17 -0.09,-0.34 -0.13,-0.5 0.04,0.06 0.07,0.13 0.11,0.19l0.08 0.3c-0.02,0 -0.05,0.01 -0.06,0.01z"/>
   <path class="fil15" d="M40.76 53.37c-0.04,0 -0.07,-0 -0.11,-0 -0.08,-0 -0.14,-0.01 -0.2,-0.01 -0.06,-0.01 -0.11,-0.01 -0.15,-0.02 -0.08,-0.02 -0.13,-0.03 -0.13,-0.03l0 0c0,-0 0,-0 0,-0 0,-0 0.01,-0 0.02,-0 0.03,0 0.07,0 0.14,0.01 0.07,0 0.15,0.01 0.25,0.01 0.02,0 0.04,-0 0.07,-0 0.12,-0 0.25,-0.01 0.4,-0.02 -0.03,0.03 -0.05,0.05 -0.08,0.08 -0.07,0 -0.14,0.01 -0.21,0.01z"/>
   <path class="fil15" d="M40.23 50.34c-0.01,0 -0.01,0 -0.01,-0 -0,0 -0,0 -0,0 -0.02,0 -0.03,-0 -0.04,-0.01 -0,-0.01 -0,-0.01 -0,-0.02 0.02,-0 0.04,-0.01 0.07,-0.01 0.04,-0.01 0.09,-0.02 0.15,-0.04 0.11,-0.03 0.25,-0.08 0.41,-0.13 0.01,0.02 0.02,0.05 0.03,0.07 -0.16,0.05 -0.3,0.09 -0.42,0.11 -0.06,0.01 -0.11,0.02 -0.15,0.02 -0.01,0 -0.01,0 -0.02,0z"/>
   <path class="fil15" d="M39.41 47.1c-0.03,0 -0.05,-0 -0.06,-0 -0,-0.01 -0,-0.01 -0.01,-0.02 0.01,-0 0.03,-0.01 0.06,-0.01 0.02,-0 0.05,-0.01 0.08,-0.02 0.01,0.02 0.02,0.03 0.03,0.05 -0.04,0 -0.07,0.01 -0.09,0.01 -0,0 -0,0 -0,0z"/>
   <path class="fil14" d="M40.19 53.15c0.14,-0.29 0.22,-0.61 0.23,-0.91 0.01,-0.5 -0.03,-0.79 -0.14,-1.28 -0.34,-1.51 -0.77,-2.96 -1.11,-4.47 0.02,0.03 0.04,0.06 0.06,0.1 0.04,0.16 0.08,0.33 0.13,0.5 0,0.01 0,0.02 0.01,0.02 0.16,0.62 0.33,1.31 0.52,2.05 0.1,0.4 0.2,0.79 0.29,1.17 0,0.01 0,0.01 0,0.02 0.05,0.2 0.1,0.39 0.14,0.58 0.13,0.55 0.18,1.06 0.12,1.48 -0.04,0.31 -0.13,0.56 -0.23,0.75z"/>
   <path class="fil4" d="M36.45 40.06c0.5,0.15 1.06,0.08 1.51,-0.19 0.45,-0.27 0.78,-0.73 0.88,-1.24 0.25,0.24 0.62,0.31 0.95,0.25 0.34,-0.06 0.64,-0.25 0.89,-0.48 0.46,-0.43 0.77,-1.04 0.75,-1.67 -0.02,-0.63 -0.42,-1.25 -1.01,-1.46 -0.59,-0.21 -1.34,0.06 -1.58,0.64 -0.11,-0.33 0.17,-0.77 0.1,-1.11 -0.14,-0.68 -0.54,-1.08 -0.89,-1.1l-1.6 6.35z"/>
   <path class="fil4" d="M37.19 39.88c0.68,-1.18 0.87,-2.75 1.04,-4.11 0.08,-0.64 0.22,-1.55 -0.21,-1.95 -0.47,-0.43 -0.51,-1.09 -1.05,-1.42 -0.54,-0.33 -1.26,-0.36 -1.77,0.02l1.99 7.46z"/>
   <path class="fil11" d="M33.67 42.23l0 -1.85c0,0 -1.93,-0.34 -2.04,-1.89 -0.11,-1.54 -0.07,-5.11 -0.07,-5.11 1.69,-0.88 3.7,-0.76 5.27,0.33l-0.08 5.44 0 1.77 -1.58 1.28 -1.51 1.19 0 -1.16z"/>
   <path class="fil4" d="M33.12 36.6c0.26,-0.33 0.68,-0.46 1.02,-0.23 0.35,0.23 0.48,0.74 0.29,1.12 -0.13,0.27 -0.43,0.51 -0.73,0.58 0,0 0.69,1.27 1.14,1.6 0.53,0.4 0.77,0.6 1.42,0.67 0.64,0.08 0.56,0.08 0.93,-0.46 0.27,-0.39 0.35,-0.77 0.36,-1.26 0.02,-1.14 0.04,-2.28 0.06,-3.42 0.01,-0.41 0.01,-0.83 -0.08,-1.23 -0.09,-0.4 -0.3,-0.79 -0.63,-1.01 -0.36,-0.25 -0.83,-0.27 -1.24,-0.4 -0.52,-0.17 -0.96,-0.53 -1.45,-0.78 -0.49,-0.25 -1.08,-0.41 -1.57,-0.15 -0.35,0.18 -0.58,0.54 -0.92,0.74 -0.48,0.29 -1.14,0.22 -1.38,0.96 -0.08,0.25 -0.07,0.53 0.01,0.79 0.33,1 1.53,1.4 2.39,0.96 0.02,0.17 -0.14,0.55 0.03,1.08 0.06,0.17 0.08,0.43 0.33,0.44z"/>
   <path class="fil12" d="M33.39 37.57c-0.01,0 -0.01,0.03 0.02,0.07 0.03,0.04 0.08,0.08 0.17,0.09 0.17,0.02 0.38,-0.17 0.39,-0.43 0.01,-0.12 -0.04,-0.25 -0.11,-0.33 -0.07,-0.08 -0.16,-0.12 -0.23,-0.14 -0.15,-0.03 -0.24,0.03 -0.24,0.04 0,0.02 0.09,-0.01 0.22,0.04 0.12,0.04 0.27,0.18 0.26,0.38 -0,0.2 -0.16,0.35 -0.28,0.35 -0.13,0.01 -0.18,-0.08 -0.19,-0.07z"/>
   <path class="fil10" d="M41.22 36.75c0,0 -0.01,0.05 -0.04,0.15 -0.04,0.09 -0.1,0.22 -0.2,0.36 -0.2,0.28 -0.61,0.62 -1.15,0.7 -0.54,0.08 -1.03,-0.12 -1.3,-0.34 -0.14,-0.11 -0.24,-0.21 -0.3,-0.29 -0.06,-0.08 -0.09,-0.12 -0.08,-0.13 0.01,-0.01 0.13,0.17 0.41,0.37 0.27,0.19 0.74,0.38 1.26,0.3 0.51,-0.08 0.91,-0.39 1.11,-0.66 0.21,-0.27 0.28,-0.48 0.29,-0.47z"/>
   <path class="fil10" d="M41.01 36.5c0,0 -0.01,0.05 -0.05,0.12 -0.04,0.07 -0.11,0.17 -0.21,0.29 -0.2,0.23 -0.54,0.49 -1,0.6 -0.46,0.1 -0.88,0.01 -1.16,-0.11 -0.14,-0.06 -0.24,-0.12 -0.31,-0.17 -0.07,-0.05 -0.1,-0.08 -0.1,-0.09 0.01,-0.01 0.15,0.1 0.43,0.21 0.27,0.1 0.68,0.18 1.12,0.08 0.43,-0.1 0.77,-0.35 0.97,-0.56 0.2,-0.21 0.29,-0.38 0.3,-0.37z"/>
   <path class="fil10" d="M38.42 38.49c0,0 -0.02,0.01 -0.06,0.04 -0.04,0.02 -0.11,0.04 -0.2,0.05 -0.18,0.03 -0.46,-0.02 -0.74,-0.2 -0.28,-0.18 -0.51,-0.51 -0.69,-0.9 -0.19,-0.38 -0.34,-0.84 -0.63,-1.22 -0.14,-0.19 -0.32,-0.35 -0.53,-0.45 -0.2,-0.1 -0.42,-0.14 -0.63,-0.17 -0.42,-0.04 -0.81,-0.01 -1.13,-0.06 -0.32,-0.04 -0.58,-0.13 -0.73,-0.23 -0.08,-0.05 -0.13,-0.09 -0.17,-0.13 -0.03,-0.03 -0.05,-0.05 -0.05,-0.05 0.01,-0.01 0.08,0.07 0.23,0.15 0.16,0.09 0.4,0.17 0.72,0.2 0.32,0.04 0.7,0 1.13,0.04 0.21,0.02 0.44,0.07 0.66,0.17 0.22,0.1 0.41,0.27 0.56,0.47 0.3,0.4 0.45,0.86 0.63,1.24 0.18,0.38 0.39,0.71 0.66,0.89 0.26,0.18 0.53,0.23 0.7,0.22 0.18,-0.01 0.27,-0.07 0.27,-0.06z"/>
   <path class="fil10" d="M38.27 37.93c0,0 -0.02,0 -0.07,0.01 -0.05,0 -0.11,-0 -0.2,-0.03 -0.17,-0.04 -0.4,-0.17 -0.6,-0.41 -0.1,-0.12 -0.2,-0.26 -0.29,-0.41 -0.09,-0.16 -0.17,-0.33 -0.26,-0.51 -0.09,-0.18 -0.19,-0.37 -0.31,-0.54 -0.06,-0.09 -0.14,-0.17 -0.22,-0.24 -0.04,-0.04 -0.09,-0.07 -0.13,-0.1 -0.05,-0.03 -0.09,-0.07 -0.14,-0.09 -0.2,-0.11 -0.42,-0.16 -0.63,-0.19 -0.21,-0.03 -0.43,-0.03 -0.63,-0.03 -0.4,0 -0.77,0.01 -1.07,-0.03 -0.31,-0.04 -0.55,-0.12 -0.7,-0.21 -0.08,-0.04 -0.13,-0.09 -0.16,-0.11 -0.04,-0.03 -0.05,-0.04 -0.05,-0.04 0,-0.01 0.08,0.05 0.23,0.13 0.15,0.08 0.39,0.15 0.69,0.18 0.3,0.03 0.66,0.02 1.07,0.01 0.2,0 0.42,-0 0.64,0.03 0.22,0.03 0.45,0.08 0.66,0.19 0.06,0.02 0.1,0.06 0.15,0.09 0.05,0.03 0.1,0.06 0.14,0.11 0.09,0.08 0.16,0.16 0.23,0.25 0.13,0.18 0.23,0.37 0.32,0.55 0.09,0.18 0.17,0.36 0.25,0.51 0.08,0.16 0.18,0.29 0.27,0.41 0.19,0.23 0.41,0.36 0.57,0.41 0.16,0.05 0.26,0.04 0.26,0.05z"/>
   <path class="fil16" d="M38.65 38.72c-0,0 -0.04,-0.02 -0.08,-0.07 -0.05,-0.05 -0.12,-0.13 -0.19,-0.24 -0.14,-0.21 -0.28,-0.55 -0.3,-0.95 -0.02,-0.4 0.1,-0.74 0.22,-0.97 0.06,-0.11 0.12,-0.2 0.17,-0.25 0.05,-0.05 0.07,-0.08 0.08,-0.08 0.01,0.01 -0.09,0.13 -0.2,0.36 -0.11,0.22 -0.21,0.56 -0.19,0.94 0.01,0.38 0.14,0.71 0.27,0.92 0.12,0.22 0.23,0.33 0.22,0.34z"/>
   <path class="fil6" d="M60.02 59.98c1.06,0.37 2.44,0.04 3.35,-0.62 0.91,-0.66 1.56,-1.61 2.14,-2.57 0.25,-0.41 0.49,-0.84 0.57,-1.31 0.08,-0.47 -0.04,-1 -0.4,-1.31 -0.57,-0.48 -1.44,-0.24 -2.09,0.13 -2.02,1.15 -3.41,3.36 -3.56,5.69z"/>
   <path class="fil6" d="M61.16 62.52c0.64,0.84 1.73,1.21 2.78,1.26 1.05,0.05 2.09,-0.24 3.08,-0.62 0.36,-0.14 0.75,-0.32 0.87,-0.69 0.09,-0.27 -0,-0.59 -0.19,-0.81 -0.18,-0.22 -0.44,-0.37 -0.71,-0.48 -0.97,-0.41 -2.08,-0.43 -3.1,-0.17 -1.02,0.26 -1.91,0.85 -2.74,1.51z"/>
   <path class="fil6" d="M60.01 55.45c0.88,0.02 1.54,-0.75 1.94,-1.53 0.55,-1.08 0.74,-2.35 0.52,-3.54 -0.08,-0.45 -0.25,-0.93 -0.65,-1.15 -0.41,-0.22 -0.94,-0.07 -1.28,0.24 -0.34,0.31 -0.53,0.76 -0.67,1.2 -0.47,1.52 -0.37,3.27 0.14,4.79z"/>
   <path class="fil6" d="M57.12 60.3c1.5,-2.55 1.74,-5.66 0.86,-8.48 -0.14,-0.46 -0.41,-0.98 -0.89,-1.01 -0.53,-0.03 -0.86,0.56 -1.01,1.07 -0.51,1.79 -0.4,3.69 -0.29,5.55 0.07,1.14 0.46,2.12 1.33,2.87z"/>
   <path class="fil6" d="M55.57 61.34c-0.54,-1.74 -1.92,-3.21 -3.63,-3.85 -0.4,-0.15 -0.9,-0.23 -1.2,0.07 -0.29,0.3 -0.2,0.8 -0.01,1.17 0.3,0.6 0.79,1.08 1.28,1.55 0.44,0.42 0.9,0.84 1.46,1.09 0.56,0.24 1.59,0.31 2.1,-0.03z"/>
   <path class="fil4" d="M64.84 54.81c0,0 -0.01,0.01 -0.03,0.02 -0.02,0.02 -0.05,0.04 -0.08,0.06 -0.08,0.06 -0.18,0.14 -0.31,0.23 -0.07,0.05 -0.14,0.11 -0.23,0.17 -0.08,0.06 -0.17,0.14 -0.26,0.21 -0.19,0.15 -0.4,0.32 -0.62,0.53 -0.11,0.1 -0.23,0.21 -0.35,0.32 -0.12,0.11 -0.24,0.24 -0.37,0.36 -0.26,0.25 -0.51,0.54 -0.77,0.83 -0.52,0.61 -1.05,1.32 -1.54,2.1 -0.48,0.79 -0.88,1.58 -1.19,2.32 -0.15,0.37 -0.29,0.73 -0.4,1.07 -0.06,0.17 -0.12,0.33 -0.16,0.49 -0.04,0.16 -0.09,0.31 -0.13,0.46 -0.09,0.29 -0.14,0.56 -0.2,0.8 -0.03,0.12 -0.05,0.23 -0.07,0.33 -0.02,0.1 -0.03,0.19 -0.05,0.28 -0.03,0.16 -0.05,0.29 -0.07,0.39 -0.01,0.04 -0.01,0.07 -0.02,0.1 -0,0.02 -0.01,0.03 -0.01,0.03 -0,-0 -0,-0.01 0,-0.03 0,-0.03 0.01,-0.06 0.01,-0.1 0.01,-0.09 0.03,-0.22 0.06,-0.39 0.01,-0.08 0.03,-0.18 0.04,-0.28 0.02,-0.1 0.04,-0.21 0.07,-0.33 0.05,-0.24 0.1,-0.51 0.19,-0.8 0.04,-0.15 0.08,-0.3 0.13,-0.46 0.04,-0.16 0.1,-0.32 0.16,-0.49 0.1,-0.34 0.25,-0.7 0.4,-1.07 0.31,-0.74 0.71,-1.54 1.19,-2.33 0.49,-0.79 1.03,-1.5 1.55,-2.11 0.27,-0.3 0.52,-0.59 0.78,-0.83 0.13,-0.13 0.25,-0.25 0.37,-0.36 0.12,-0.11 0.24,-0.22 0.36,-0.32 0.22,-0.21 0.44,-0.37 0.63,-0.52 0.1,-0.07 0.18,-0.15 0.27,-0.21 0.08,-0.06 0.16,-0.11 0.23,-0.16 0.14,-0.09 0.24,-0.17 0.32,-0.22 0.03,-0.02 0.06,-0.04 0.08,-0.06 0.02,-0.01 0.03,-0.02 0.03,-0.02z"/>
   <path class="fil4" d="M66.82 61.86c-0,0 -0.04,-0 -0.1,-0.02 -0.07,-0.01 -0.16,-0.04 -0.29,-0.06 -0.25,-0.05 -0.62,-0.11 -1.08,-0.13 -0.92,-0.06 -2.22,0.05 -3.52,0.59 -1.3,0.54 -2.29,1.39 -2.9,2.08 -0.3,0.35 -0.53,0.65 -0.67,0.86 -0.07,0.11 -0.12,0.19 -0.16,0.25 -0.04,0.06 -0.06,0.09 -0.06,0.08 -0,-0 0.01,-0.03 0.05,-0.09 0.03,-0.06 0.08,-0.15 0.15,-0.26 0.14,-0.22 0.35,-0.53 0.65,-0.88 0.6,-0.7 1.59,-1.56 2.91,-2.11 1.31,-0.55 2.63,-0.65 3.55,-0.58 0.46,0.03 0.83,0.1 1.09,0.16 0.13,0.03 0.22,0.06 0.29,0.07 0.07,0.02 0.1,0.03 0.1,0.03z"/>
   <path class="fil4" d="M61.3 50.24c0,0 -0,0.01 -0.01,0.04 -0.01,0.03 -0.01,0.07 -0.02,0.11 -0.02,0.1 -0.06,0.25 -0.1,0.44 -0.09,0.38 -0.22,0.93 -0.38,1.61 -0.33,1.35 -0.81,3.22 -1.31,5.29 -0.25,1.03 -0.47,2.02 -0.67,2.92 -0.19,0.9 -0.35,1.72 -0.47,2.4 -0.06,0.34 -0.11,0.65 -0.16,0.93 -0.05,0.27 -0.08,0.51 -0.11,0.7 -0.03,0.19 -0.05,0.34 -0.07,0.44 -0.01,0.05 -0.01,0.09 -0.02,0.12 -0,0.03 -0.01,0.04 -0.01,0.04 -0,0 -0,-0.01 0,-0.04 0,-0.03 0.01,-0.07 0.01,-0.12 0.01,-0.11 0.03,-0.26 0.06,-0.45 0.02,-0.19 0.06,-0.43 0.1,-0.7 0.04,-0.27 0.09,-0.59 0.15,-0.93 0.11,-0.69 0.27,-1.5 0.46,-2.41 0.19,-0.9 0.41,-1.89 0.66,-2.93 0.5,-2.07 0.99,-3.93 1.33,-5.28 0.17,-0.67 0.31,-1.22 0.4,-1.6 0.05,-0.19 0.08,-0.33 0.11,-0.43 0.01,-0.05 0.02,-0.08 0.03,-0.11 0.01,-0.03 0.01,-0.04 0.01,-0.04z"/>
   <path class="fil4" d="M57.86 65.07c-0,0 -0,-0.01 -0.01,-0.03 -0.01,-0.02 -0.01,-0.05 -0.02,-0.09 -0.02,-0.09 -0.04,-0.2 -0.07,-0.35 -0.06,-0.31 -0.15,-0.75 -0.24,-1.31 -0.19,-1.11 -0.42,-2.65 -0.56,-4.36 -0.07,-0.86 -0.11,-1.67 -0.12,-2.42 -0.01,-0.74 -0.01,-1.41 0.02,-1.97 0.01,-0.28 0.03,-0.53 0.04,-0.76 0.01,-0.22 0.03,-0.41 0.04,-0.57 0.01,-0.15 0.03,-0.27 0.03,-0.36 0,-0.04 0.01,-0.07 0.01,-0.09 0,-0.02 0,-0.03 0.01,-0.03 0,0 0,0.01 0,0.03 -0,0.03 -0,0.06 -0,0.09 -0,0.09 -0.01,0.21 -0.02,0.36 -0.01,0.16 -0.02,0.35 -0.03,0.57 -0.01,0.22 -0.02,0.48 -0.03,0.76 -0.02,0.56 -0.02,1.23 -0,1.97 0.02,0.74 0.06,1.56 0.13,2.41 0.14,1.71 0.36,3.24 0.54,4.35 0.09,0.55 0.17,1 0.22,1.31 0.03,0.15 0.05,0.27 0.06,0.36 0.01,0.04 0.01,0.07 0.01,0.09 0,0.02 0,0.03 0,0.03z"/>
   <path class="fil4" d="M57.97 65.39c-0,0 -0.02,-0.03 -0.04,-0.09 -0.03,-0.07 -0.06,-0.15 -0.1,-0.26 -0.02,-0.06 -0.05,-0.12 -0.07,-0.19 -0.03,-0.07 -0.06,-0.14 -0.1,-0.22 -0.03,-0.08 -0.07,-0.16 -0.11,-0.25 -0.04,-0.09 -0.09,-0.18 -0.14,-0.27 -0.05,-0.09 -0.1,-0.19 -0.15,-0.3 -0.06,-0.1 -0.12,-0.2 -0.18,-0.31 -0.12,-0.22 -0.28,-0.44 -0.43,-0.68 -0.32,-0.46 -0.7,-0.95 -1.13,-1.44 -0.43,-0.48 -0.88,-0.92 -1.29,-1.29 -0.21,-0.18 -0.41,-0.36 -0.61,-0.51 -0.1,-0.08 -0.19,-0.15 -0.28,-0.23 -0.09,-0.07 -0.18,-0.14 -0.27,-0.2 -0.17,-0.13 -0.33,-0.24 -0.47,-0.33 -0.14,-0.1 -0.26,-0.18 -0.36,-0.24 -0.1,-0.06 -0.17,-0.11 -0.23,-0.15 -0.05,-0.03 -0.08,-0.05 -0.08,-0.06 0,-0 0.03,0.01 0.09,0.04 0.06,0.03 0.14,0.08 0.24,0.14 0.1,0.06 0.23,0.13 0.37,0.23 0.14,0.09 0.31,0.2 0.48,0.32 0.09,0.06 0.18,0.13 0.27,0.2 0.09,0.07 0.19,0.15 0.29,0.22 0.2,0.15 0.4,0.33 0.62,0.51 0.42,0.38 0.87,0.81 1.3,1.3 0.43,0.49 0.81,0.98 1.13,1.45 0.15,0.24 0.3,0.46 0.42,0.68 0.06,0.11 0.12,0.21 0.18,0.32 0.05,0.1 0.1,0.2 0.15,0.3 0.05,0.1 0.09,0.19 0.13,0.27 0.04,0.09 0.07,0.17 0.11,0.25 0.03,0.08 0.06,0.15 0.09,0.22 0.02,0.07 0.05,0.13 0.06,0.19 0.04,0.11 0.06,0.19 0.09,0.26 0.02,0.06 0.03,0.09 0.03,0.09z"/>
   <path class="fil4" d="M64.29 57.76c-0,0.01 -0.18,0.01 -0.47,0.03 -0.29,0.02 -0.69,0.05 -1.13,0.14 -0.44,0.08 -0.82,0.19 -1.1,0.29 -0.28,0.09 -0.44,0.16 -0.45,0.15 -0,-0 0.04,-0.03 0.11,-0.06 0.07,-0.04 0.18,-0.08 0.32,-0.13 0.27,-0.1 0.66,-0.22 1.1,-0.31 0.44,-0.08 0.85,-0.11 1.14,-0.12 0.15,-0 0.27,0 0.35,0.01 0.08,0.01 0.13,0.01 0.13,0.02z"/>
   <path class="fil4" d="M65.41 63.27c-0.02,0.01 -0.19,-0.48 -0.62,-0.93 -0.42,-0.46 -0.89,-0.66 -0.88,-0.68 0,-0.01 0.12,0.03 0.3,0.13 0.18,0.1 0.41,0.27 0.63,0.5 0.21,0.23 0.37,0.48 0.45,0.66 0.09,0.19 0.12,0.31 0.11,0.31z"/>
   <path class="fil4" d="M61.57 52.3c0.01,0.02 -0.26,0.29 -0.56,0.66 -0.3,0.37 -0.51,0.69 -0.53,0.68 -0.02,-0.01 0.17,-0.35 0.48,-0.73 0.3,-0.37 0.6,-0.63 0.62,-0.61z"/>
   <path class="fil4" d="M60.66 50.74c0.02,-0 0.08,0.26 0.14,0.59 0.06,0.33 0.09,0.6 0.07,0.6 -0.02,0 -0.08,-0.26 -0.14,-0.59 -0.06,-0.33 -0.09,-0.6 -0.07,-0.6z"/>
   <path class="fil4" d="M57.87 55.64c0.02,0.01 -0.18,0.42 -0.44,0.92 -0.26,0.5 -0.48,0.9 -0.5,0.89 -0.02,-0.01 0.18,-0.42 0.44,-0.92 0.26,-0.5 0.48,-0.9 0.5,-0.89z"/>
   <path class="fil4" d="M56.2 53.98c0.02,-0.01 0.18,0.29 0.37,0.67 0.19,0.38 0.33,0.69 0.31,0.7 -0.02,0.01 -0.18,-0.29 -0.37,-0.67 -0.19,-0.38 -0.33,-0.69 -0.31,-0.7z"/>
   <path class="fil4" d="M53.75 59.66c-0,0.02 -0.3,-0.04 -0.67,-0.06 -0.37,-0.03 -0.67,-0.01 -0.67,-0.03 -0,-0.02 0.3,-0.07 0.68,-0.04 0.38,0.03 0.67,0.12 0.67,0.13z"/>
   <path class="fil4" d="M55.42 64.69l0.83 4.38c0.06,0.29 0.31,0.5 0.6,0.5l2.46 0c0.3,0 0.56,-0.22 0.61,-0.51l0.72 -4.36 -5.22 0z"/>
   <polygon class="fil10" points="55.7,66.11 60.4,66.11 60.65,64.69 55.42,64.69 "/>
   <polygon class="fil13" points="55.7,66.11 55.79,66.63 60.33,66.63 60.4,66.11 "/>
  </g>
 </g>
</svg>
