<?xml version="1.0" encoding="UTF-8"?>
<!DOCTYPE svg PUBLIC "-//W3C//DTD SVG 1.1//EN" "http://www.w3.org/Graphics/SVG/1.1/DTD/svg11.dtd">
<!-- Creator: CorelDRAW 2019 (64 Bit) -->
<svg xmlns="http://www.w3.org/2000/svg" xml:space="preserve" width="4.7908mm" height="4.2351mm" version="1.1" style="shape-rendering:geometricPrecision; text-rendering:geometricPrecision; image-rendering:optimizeQuality; fill-rule:evenodd; clip-rule:evenodd"
viewBox="0 0 1.62 1.43"
 xmlns:xlink="http://www.w3.org/1999/xlink"
 xmlns:dc="http://purl.org/dc/elements/1.1/"
 xmlns:cc="http://creativecommons.org/ns#"
 xmlns:rdf="http://www.w3.org/1999/02/22-rdf-syntax-ns#"
 xmlns:svg="http://www.w3.org/2000/svg"
 xmlns:sodipodi="http://sodipodi.sourceforge.net/DTD/sodipodi-0.dtd"
 xmlns:inkscape="http://www.inkscape.org/namespaces/inkscape"
 inkscape:version="0.91 r13725"
 sodipodi:docname="CSS3.svg">
 <defs>
  <style type="text/css">
   <![CDATA[
    .fil0 {fill:black}
    .fil5 {fill:#264DE4}
    .fil6 {fill:#2965F1}
    .fil1 {fill:#E44D26}
    .fil3 {fill:#EBEBEB}
    .fil2 {fill:#F16529}
    .fil4 {fill:white}
   ]]>
  </style>
 </defs>
 <g id="Camada_x0020_1">
  <metadata id="CorelCorpID_0Corel-Layer"/>
  <g id="_1486818108880">
   <g>
    <path class="fil0" d="M0.07 0l0.05 0 0 0.05 0.04 0 0 -0.05 0.05 0 0 0.15 -0.05 0 0 -0.05 -0.04 0 0 0.05 -0.05 0 0 -0.15zm0.21 0.05l-0.04 0 0 -0.05 0.13 0 0 0.05 -0.04 0 0 0.1 -0.05 0 0 -0.1zm0.11 -0.05l0.05 0 0.03 0.05 0.03 -0.05 0.05 0 0 0.15 -0.05 0 0 -0.07 -0.03 0.05 -0.03 -0.05 0 0.07 -0.05 0 0 -0.15zm0.19 0l0.05 0 0 0.1 0.07 0 0 0.05 -0.12 0 0 -0.15zm0 0l0 0 0 0z"/>
   </g>
   <g>
    <path class="fil1" d="M0.07 1l-0.07 -0.78 0.77 0 -0.07 0.78 -0.31 0.09 -0.31 -0.09zm0 0l0 0 0 0z"/>
   </g>
   <g>
    <path class="fil2" d="M0.38 1.02l0 -0.74 0.31 0 -0.06 0.67 -0.25 0.07zm0 0l0 0 0 0z"/>
   </g>
   <g>
    <path class="fil3" d="M0.14 0.37l0.24 0 0 0.1 -0.14 0 0.01 0.1 0.13 0 0 0.1 -0.22 0 -0.03 -0.29zm0.03 0.34l0.1 0 0.01 0.08 0.11 0.03 0 0.1 -0.2 -0.06 -0.01 -0.15zm0 0l0 0 0 0z"/>
   </g>
   <g>
    <path class="fil4" d="M0.62 0.37l-0.24 0 0 0.1 0.23 0 0.01 -0.1zm-0.02 0.19l-0.22 0 0 0.1 0.12 0 -0.01 0.12 -0.11 0.03 0 0.1 0.2 -0.05 0.03 -0.3zm0 0l0 0 0 0z"/>
   </g>
  </g>
  <g>
   <sodipodi:namedview id="base" pagecolor="#ffffff" bordercolor="#666666" borderopacity="1.0" inkscape:pageopacity="0.0" inkscape:pageshadow="2" inkscape:zoom="0.35" inkscape:cx="181.367" inkscape:cy="256" inkscape:document-units="px" inkscape:current-layer="layer1" showgrid="false" fit-margin-top="0" fit-margin-left="0" fit-margin-right="0" fit-margin-bottom="0" inkscape:window-width="1366" inkscape:window-height="704" inkscape:window-x="0" inkscape:window-y="27" inkscape:window-maximized="1"/>
   <g id="layer1" inkscape:label="Calque 1" inkscape:groupmode="layer">
    <g id="g3013">
     <polygon id="polygon2989" class="fil5" points="1.62,0.59 1.55,1.35 1.25,1.43 0.94,1.35 0.87,0.59 "/>
     <polygon id="polygon2991" class="fil6" points="1.49,1.3 1.55,0.65 1.25,0.65 1.25,1.37 "/>
     <polygon id="polygon2993" class="fil3" points="1.03,0.93 1.04,1.02 1.25,1.02 1.25,0.93 "/>
     <polygon id="polygon2995" class="fil3" points="1.25,0.74 1.25,0.74 1.01,0.74 1.02,0.84 1.25,0.84 "/>
     <polygon id="polygon2997" class="fil3" points="1.25,1.27 1.25,1.17 1.25,1.17 1.14,1.14 1.14,1.07 1.09,1.07 1.04,1.07 1.06,1.22 1.25,1.27 "/>
     <polygon id="path2999" class="fil0" points="1.05,0.38 1.16,0.38 1.16,0.43 1.1,0.43 1.1,0.48 1.16,0.48 1.16,0.52 1.05,0.52 " inkscape:connector-curvature="0"/>
     <polygon id="path3001" class="fil0" points="1.18,0.38 1.3,0.38 1.3,0.42 1.23,0.42 1.23,0.43 1.3,0.43 1.3,0.53 1.18,0.53 1.18,0.48 1.25,0.48 1.25,0.47 1.18,0.47 " inkscape:connector-curvature="0"/>
     <polygon id="path3003" class="fil0" points="1.32,0.38 1.43,0.38 1.43,0.42 1.37,0.42 1.37,0.43 1.43,0.43 1.43,0.53 1.32,0.53 1.32,0.48 1.39,0.48 1.39,0.47 1.32,0.47 " inkscape:connector-curvature="0"/>
     <polygon id="polygon3005" class="fil4" points="1.36,1.02 1.35,1.14 1.25,1.17 1.25,1.27 1.44,1.22 1.44,1.2 1.46,0.96 1.46,0.93 1.48,0.74 1.25,0.74 1.25,0.84 1.38,0.84 1.37,0.93 1.25,0.93 1.25,1.02 "/>
    </g>
   </g>
  </g>
 </g>
</svg>
