<svg xmlns="http://www.w3.org/2000/svg" xml:space="preserve" width="15.535" height="15.546" style="shape-rendering:geometricPrecision;text-rendering:geometricPrecision;image-rendering:optimizeQuality;fill-rule:evenodd;clip-rule:evenodd" viewBox="0 0 1.24 1.24">
    <g id="Camada_x0020_1">
        <g id="_1486664122496">
            <path class="fil0" style="fill:#02589b;" d="M1.01 1.01h.22v-.5C1.23.5 1.01.29.99.27L.97.25.96.24C.95.24.95.23.94.23S.91.22.9.22H.22l.79.79z" />
            <path d="m.25.98.04.04h.73l-.01-.01L.22.22v.69c.01.05.02.06.03.07z" style="fill:#2ab6f6" />
            <path  style="fill:#40c4ff;" d="M1.02 1.24v-.22H.29c0 .01.19.19.21.22h.52z" />
            <path class="fil0" style="fill:#02589b;" d="M.23.97C.23.96.22.96.21.94.2.91.2.83.2.8V.22l-.1.2C.07.49.03.55 0 .62c-.02.04-.02.07 0 .12.01.03.04.06.07.08l.15.15h.01z" />
            <path  style="fill:#40c4ff;" d="M.21.21H.88C.9.21.92.21.94.22l.01.01C.93.2.9.18.88.16L.81.09.77.05A.138.138 0 0 0 .73.02C.71.01.7 0 .67 0 .65 0 .62 0 .61.01l-.3.15C.28.18.24.19.21.21z" />
            <path d="M.21.21v.58c0 .03 0 .11.01.14.01.02.01.02.02.03l.02.02C.26.97.24.96.23.91v-.7H.9.23z" style="fill:#52c0f3" />
            <path d="m1.01 1.01.01.01v.22-.22h.22V.53c0-.01 0-.02-.01-.02v.5h-.22z" style="fill:#085087" />
            <path d="M.22.22H.9c.01 0 .03 0 .04.01.01 0 .01 0 .02.01l.01.01L.96.24.95.23C.93.22.91.22.89.22H.22v.01z" style="fill:#3479ae" />
        </g>
    </g>
</svg>