<svg xmlns="http://www.w3.org/2000/svg" xml:space="preserve" width="18.107" height="16.007" style="shape-rendering:geometricPrecision;text-rendering:geometricPrecision;image-rendering:optimizeQuality;fill-rule:evenodd;clip-rule:evenodd" viewBox="0 0 1.62 1.43">
    <g id="Camada_x0020_1">
        <g id="_1486818108880">
            <path class="fil0" style="fill:#000;" d="M.07 0h.05v.05h.04V0h.05v.15H.16V.1H.12v.05H.07V0zm.21.05H.24V0h.13v.05H.33v.1H.28v-.1zM.39 0h.05l.03.05L.5 0h.05v.15H.5V.08L.47.13.44.08v.07H.39V0zm.19 0h.05v.1H.7v.05H.58V0zm0 0z" />
            <path d="M.07 1 0 .22h.77L.7 1l-.31.09L.08 1zm0 0z" style="fill:#e44d26" />
            <path d="M.38 1.02V.28h.31L.63.95l-.25.07zm0 0z" style="fill:#f16529" />
            <path class="fil3" style="fill:#ebebeb;" d="M.14.37h.24v.1H.24l.01.1h.13v.1H.16L.13.38zm.03.34h.1l.01.08.11.03v.1L.19.86.18.71zm0 0z" />
            <path class="fil4" style="fill:#fff;" d="M.62.37H.38v.1h.23l.01-.1zM.6.56H.38v.1H.5L.49.78.38.81v.1l.2-.05.03-.3zm0 0z" />
        </g>
        <g id="layer1">
            <g id="g3013">
                <path id="polygon2989" style="fill:#264de4" d="m1.62.59-.07.76-.3.08-.31-.08L.87.59z" />
                <path id="polygon2991" style="fill:#2965f1" d="m1.49 1.3.06-.65h-.3v.72z" />
                <path id="polygon2993" class="fil3" style="fill:#ebebeb;" d="m1.03.93.01.09h.21V.93z" />
                <path id="polygon2995" class="fil3" style="fill:#ebebeb;" d="M1.25.74h-.24l.01.1h.23z" />
                <path id="polygon2997" class="fil3" style="fill:#ebebeb;" d="M1.25 1.27v-.1l-.11-.03v-.07h-.1l.02.15.19.05z" />
                <path id="path2999" class="fil0" style="fill:#000;" d="M1.05.38h.11v.05H1.1v.05h.06v.04h-.11z" />
                <path id="path3001" class="fil0" style="fill:#000;" d="M1.18.38h.12v.04h-.07v.01h.07v.1h-.12V.48h.07V.47h-.07z" />
                <path id="path3003" class="fil0" style="fill:#000;" d="M1.32.38h.11v.04h-.06v.01h.06v.1h-.11V.48h.07V.47h-.07z" />
                <path id="polygon3005" class="fil4" style="fill:#fff;" d="m1.36 1.02-.01.12-.1.03v.1l.19-.05V1.2l.02-.24V.93l.02-.19h-.23v.1h.13l-.01.09h-.12v.09z" />
            </g>
        </g>
    </g>
</svg>