<svg xmlns="http://www.w3.org/2000/svg" xml:space="preserve" width="11.693" height="16.459" style="shape-rendering:geometricPrecision;text-rendering:geometricPrecision;image-rendering:optimizeQuality;fill-rule:evenodd;clip-rule:evenodd" viewBox="0 0 0.7 0.99">
    <g id="Camada_x0020_1">
        <g id="_1486700378816">
            <path style="fill:#e6a63a;fill-rule:nonzero" d="M.7.19H0l.07.72.28.08.28-.08z" />
            <path style="fill:#f2c035;fill-rule:nonzero" d="M.35.25v.68L.58.86.64.25z" />
            <path style="fill:#fefefe;fill-rule:nonzero" d="M.53.34H.18L.15.61.16.6h.3L.45.72l-.1.02-.1-.02V.65H.16l.01.13.18.06.18-.06.02-.26H.23L.24.43h.22v.05h.09z" />
            <path d="M.35.34H.18L.16.61h.2V.52h-.1V.43h.1V.34zm-.1.31H.16l.01.14.18.05V.75L.25.72.24.65z" style="fill:#ebecec;fill-rule:nonzero" />
            <path style="fill:#373435;fill-rule:nonzero" d="M.28.09H.22v.04h.11V0H.28zM.48 0H.37v.05l.04.04H.37v.04h.11V.09L.44.05h.04V0z" />
        </g>
    </g>
</svg>