<?xml version="1.0" encoding="UTF-8"?>
<!DOCTYPE svg PUBLIC "-//W3C//DTD SVG 1.1//EN" "http://www.w3.org/Graphics/SVG/1.1/DTD/svg11.dtd">
<!-- Creator: CorelDRAW 2019 (64 Bit) -->
<svg xmlns="http://www.w3.org/2000/svg" xml:space="preserve" width="5mm" height="5mm" version="1.1" style="shape-rendering:geometricPrecision; text-rendering:geometricPrecision; image-rendering:optimizeQuality; fill-rule:evenodd; clip-rule:evenodd"
viewBox="0 0 1.31 1.31"
 xmlns:xlink="http://www.w3.org/1999/xlink">
 <defs>
  <style type="text/css">
   <![CDATA[
    .fil0 {fill:#FEFEFE}
   ]]>
  </style>
 </defs>
 <g id="Camada_x0020_1">
  <metadata id="CorelCorpID_0Corel-Layer"/>
  <path class="fil0" d="M0.92 0.42l-0.53 0 0.26 0.23 0.26 -0.23zm0 0z"/>
  <path class="fil0" d="M0.65 0.7c-0.01,0 -0.01,-0 -0.02,-0.01l-0.29 -0.25 0 0.44 0.61 0 0 -0.44 -0.29 0.25c-0,0 -0.01,0.01 -0.02,0.01l0 0zm0 0z"/>
  <path class="fil0" d="M0.65 0c-0.36,0 -0.65,0.29 -0.65,0.65 0,0.36 0.29,0.65 0.65,0.65 0.36,0 0.65,-0.29 0.65,-0.65 -0,-0.36 -0.29,-0.65 -0.65,-0.65zm0.35 0.91c0,0.01 -0.01,0.02 -0.02,0.02l-0.65 0c-0.01,0 -0.02,-0.01 -0.02,-0.02l0 -0.51c0,-0.01 0.01,-0.02 0.02,-0.02l0.65 0c0.01,0 0.02,0.01 0.02,0.02l0 0.51zm0 0z"/>
 </g>
</svg>
