<?xml version="1.0" encoding="UTF-8"?>
<!DOCTYPE svg PUBLIC "-//W3C//DTD SVG 1.1//EN" "http://www.w3.org/Graphics/SVG/1.1/DTD/svg11.dtd">
<!-- Creator: CorelDRAW 2019 (64 Bit) -->
<svg xmlns="http://www.w3.org/2000/svg" xml:space="preserve" width="3.331mm" height="4.5165mm" version="1.1" style="shape-rendering:geometricPrecision; text-rendering:geometricPrecision; image-rendering:optimizeQuality; fill-rule:evenodd; clip-rule:evenodd"
viewBox="0 0 0.8 1.08"
 xmlns:xlink="http://www.w3.org/1999/xlink">
 <defs>
  <style type="text/css">
   <![CDATA[
    .fil0 {fill:#5382A1}
    .fil1 {fill:#E76F00}
   ]]>
  </style>
 </defs>
 <g id="Camada_x0020_1">
  <metadata id="CorelCorpID_0Corel-Layer"/>
  <g id="_1488160850576">
   <g>
    <path class="fil0" d="M0.26 0.83c0,0 -0.04,0.02 0.03,0.03 0.09,0.01 0.13,0.01 0.22,-0.01 0,0 0.02,0.02 0.06,0.03 -0.21,0.09 -0.48,-0.01 -0.31,-0.05z"/>
    <path class="fil0" d="M0.23 0.72c0,0 -0.05,0.03 0.02,0.04 0.09,0.01 0.16,0.01 0.29,-0.01 0,0 0.02,0.02 0.04,0.03 -0.26,0.07 -0.54,0.01 -0.36,-0.05z"/>
    <path class="fil1" d="M0.45 0.52c0.05,0.06 -0.01,0.11 -0.01,0.11 0,0 0.13,-0.07 0.07,-0.15 -0.06,-0.08 -0.1,-0.12 0.14,-0.26 0,0 -0.37,0.09 -0.19,0.3z"/>
    <path class="fil0" d="M0.73 0.92c0,0 0.03,0.03 -0.03,0.04 -0.12,0.04 -0.51,0.05 -0.61,0 -0.04,-0.02 0.03,-0.04 0.06,-0.04 0.02,-0.01 0.04,-0 0.04,-0 -0.04,-0.03 -0.28,0.06 -0.12,0.08 0.43,0.07 0.79,-0.03 0.67,-0.08z"/>
    <path class="fil0" d="M0.28 0.59c0,0 -0.2,0.05 -0.07,0.06 0.05,0.01 0.16,0.01 0.26,-0 0.08,-0.01 0.16,-0.02 0.16,-0.02 0,0 -0.03,0.01 -0.05,0.03 -0.2,0.05 -0.58,0.03 -0.47,-0.03 0.09,-0.05 0.17,-0.04 0.17,-0.04z"/>
    <path class="fil0" d="M0.63 0.79c0.2,-0.11 0.11,-0.21 0.04,-0.19 -0.02,0 -0.02,0.01 -0.02,0.01 0,0 0.01,-0.01 0.02,-0.01 0.13,-0.05 0.23,0.13 -0.04,0.21 0,0 0,-0 0,-0.01z"/>
    <path class="fil1" d="M0.51 0c0,0 0.11,0.11 -0.11,0.28 -0.18,0.14 -0.04,0.22 -0,0.31 -0.1,-0.09 -0.18,-0.17 -0.13,-0.25 0.07,-0.11 0.28,-0.16 0.23,-0.34z"/>
    <path class="fil0" d="M0.3 1.08c0.19,0.01 0.49,-0.01 0.5,-0.1 0,0 -0.01,0.03 -0.16,0.06 -0.17,0.03 -0.37,0.03 -0.49,0.01 0,0 0.02,0.02 0.15,0.03z"/>
   </g>
  </g>
 </g>
</svg>
