<?xml version="1.0" encoding="UTF-8"?>
<!DOCTYPE svg PUBLIC "-//W3C//DTD SVG 1.1//EN" "http://www.w3.org/Graphics/SVG/1.1/DTD/svg11.dtd">
<!-- Creator: CorelDRAW 2019 (64 Bit) -->
<svg xmlns="http://www.w3.org/2000/svg" xml:space="preserve" width="5mm" height="5mm" version="1.1" style="shape-rendering:geometricPrecision; text-rendering:geometricPrecision; image-rendering:optimizeQuality; fill-rule:evenodd; clip-rule:evenodd"
viewBox="0 0 1.34 1.34"
 xmlns:xlink="http://www.w3.org/1999/xlink">
 <defs>
  <style type="text/css">
   <![CDATA[
    .fil0 {fill:#FEFEFE}
   ]]>
  </style>
 </defs>
 <g id="Camada_x0020_1">
  <metadata id="CorelCorpID_0Corel-Layer"/>
  <path class="fil0" d="M0.67 0c-0.37,0 -0.67,0.3 -0.67,0.67 0,0.37 0.3,0.67 0.67,0.67 0.37,0 0.67,-0.3 0.67,-0.67 0,-0.37 -0.3,-0.67 -0.67,-0.67zm-0.19 1.01l-0.16 0 0 -0.49 0.16 0 0 0.49zm-0.08 -0.56l-0 0c-0.05,0 -0.09,-0.04 -0.09,-0.08 0,-0.05 0.04,-0.08 0.09,-0.08 0.06,0 0.09,0.04 0.09,0.08 0,0.05 -0.04,0.08 -0.09,0.08zm0.67 0.56l-0.16 0 0 -0.26c0,-0.07 -0.02,-0.11 -0.08,-0.11 -0.05,0 -0.07,0.03 -0.08,0.06 -0,0.01 -0.01,0.03 -0.01,0.04l0 0.27 -0.16 0c0,0 0,-0.44 0,-0.49l0.16 0 0 0.07c0.02,-0.03 0.06,-0.08 0.15,-0.08 0.11,0 0.19,0.07 0.19,0.22l0 0.28zm0 0z"/>
 </g>
</svg>
