<svg xmlns="http://www.w3.org/2000/svg" xml:space="preserve" width="12.59" height="17.07" style="shape-rendering:geometricPrecision;text-rendering:geometricPrecision;image-rendering:optimizeQuality;fill-rule:evenodd;clip-rule:evenodd" viewBox="0 0 0.8 1.08">
    <g id="Camada_x0020_1">
        <g id="_1488160850576">
            <path style="fill:#5382a1;" d="M.26.83S.22.85.29.86C.38.87.42.87.51.85c0 0 .02.02.06.03C.36.97.09.87.26.83zM.23.72S.18.75.25.76C.34.77.41.77.54.75c0 0 .02.02.04.03C.32.85.04.79.22.73z" />
            <path style="fill:#e76f00;" d="M.45.52C.5.58.44.63.44.63S.57.56.51.48C.45.4.41.36.65.22c0 0-.37.09-.19.3z" />
            <path style="fill:#5382a1;" d="M.73.92S.76.95.7.96c-.12.04-.51.05-.61 0C.05.94.12.92.15.92c.02-.01.04 0 .04 0C.15.89-.09.98.07 1 .5 1.07.86.97.74.92zM.28.59S.08.64.21.65c.05.01.16.01.26 0L.63.63S.6.64.58.66C.38.71 0 .69.11.63.2.58.28.59.28.59zM.63.79C.83.68.74.58.67.6.65.6.65.61.65.61S.66.6.67.6C.8.55.9.73.63.81V.8z" />
            <path style="fill:#e76f00;" d="M.51 0S.62.11.4.28C.22.42.36.5.4.59.3.5.22.42.27.34.34.23.55.18.5 0z" />
            <path style="fill:#5382a1;" d="M.3 1.08c.19.01.49-.01.5-.1 0 0-.01.03-.16.06-.17.03-.37.03-.49.01 0 0 .02.02.15.03z" />
        </g>
    </g>
</svg>