<svg xmlns="http://www.w3.org/2000/svg" xml:space="preserve" width="16.076" height="15.992" style="shape-rendering:geometricPrecision;text-rendering:geometricPrecision;image-rendering:optimizeQuality;fill-rule:evenodd;clip-rule:evenodd" viewBox="0 0 1.27 1.27">
    <defs>
        <linearGradient id="a" gradientUnits="userSpaceOnUse" x1=".11" y1=".11" x2=".73" y2=".72">
            <stop offset="0" style="stop-opacity:1;stop-color:#387eb8" />
            <stop offset="1" style="stop-opacity:1;stop-color:#366994" />
        </linearGradient>
        <linearGradient id="b" gradientUnits="userSpaceOnUse" x1=".53" y1=".51" x2="1.18" y2="1.16">
            <stop offset="0" style="stop-opacity:1;stop-color:#ffe052" />
            <stop offset="1" style="stop-opacity:1;stop-color:#ffc331" />
        </linearGradient>
    </defs>
    <path d="M.63 0c-.32 0-.3.14-.3.14v.15h.31v.04H.21S0 .31 0 .63c0 .33.18.31.18.31h.11V.79S.28.61.47.61h.31S.95.61.95.44V.16S.98-.01.64-.01zM.46.1C.49.1.52.12.52.16.52.19.5.22.46.22.43.22.4.2.4.16.4.13.42.1.46.1z" style="fill:url(#a);fill-rule:nonzero" />
    <path d="M.64 1.27c.32 0 .3-.14.3-.14V.98H.63V.94h.43s.21.02.21-.3c0-.33-.18-.31-.18-.31H.98v.15S.99.66.8.66H.49S.32.66.32.83v.28s-.03.17.31.17zm.17-.1c-.03 0-.06-.02-.06-.06 0-.03.02-.06.06-.06.03 0 .06.02.06.06 0 .03-.02.06-.06.06z" style="fill:url(#b);fill-rule:nonzero" />
</svg>