<?xml version="1.0" encoding="UTF-8"?>
<!DOCTYPE svg PUBLIC "-//W3C//DTD SVG 1.1//EN" "http://www.w3.org/Graphics/SVG/1.1/DTD/svg11.dtd">
<!-- Creator: CorelDRAW 2019 (64 Bit) -->
<svg xmlns="http://www.w3.org/2000/svg" xml:space="preserve" width="5mm" height="5mm" version="1.1" style="shape-rendering:geometricPrecision; text-rendering:geometricPrecision; image-rendering:optimizeQuality; fill-rule:evenodd; clip-rule:evenodd"
viewBox="0 0 1.29 1.29"
 xmlns:xlink="http://www.w3.org/1999/xlink">
 <defs>
  <style type="text/css">
   <![CDATA[
    .fil0 {fill:#FEFEFE}
   ]]>
  </style>
 </defs>
 <g id="Camada_x0020_1">
  <metadata id="CorelCorpID_0Corel-Layer"/>
  <path class="fil0" d="M0.65 0c-0.36,0 -0.65,0.29 -0.65,0.65 0,0.36 0.29,0.65 0.65,0.65 0.36,0 0.65,-0.29 0.65,-0.65 0,-0.36 -0.29,-0.65 -0.65,-0.65zm0.01 1.02c0,0 0,0 0,0l-0 0c-0.06,-0 -0.13,-0.02 -0.19,-0.05l-0.21 0.05 0.05 -0.2c-0.03,-0.06 -0.05,-0.13 -0.05,-0.19 0,-0.21 0.17,-0.39 0.39,-0.39 0.1,0 0.2,0.04 0.27,0.11 0.07,0.07 0.11,0.17 0.11,0.27 -0,0.21 -0.17,0.39 -0.39,0.39l0 0zm0 0z"/>
  <path class="fil0" d="M0.66 0.31c-0.18,0 -0.32,0.14 -0.32,0.32 -0,0.06 0.02,0.12 0.05,0.17l0.01 0.01 -0.03 0.12 0.12 -0.03 0.01 0.01c0.05,0.03 0.11,0.04 0.16,0.04l0 0c0.18,0 0.32,-0.14 0.32,-0.32 0,-0.09 -0.03,-0.17 -0.09,-0.23 -0.06,-0.06 -0.14,-0.09 -0.23,-0.09l0 0zm0.19 0.46c-0.01,0.02 -0.05,0.04 -0.07,0.05 -0.02,0 -0.04,0 -0.06,-0 -0.01,-0 -0.03,-0.01 -0.06,-0.02 -0.1,-0.04 -0.16,-0.14 -0.17,-0.15 -0,-0.01 -0.04,-0.05 -0.04,-0.1 0,-0.05 0.03,-0.07 0.03,-0.08 0.01,-0.01 0.02,-0.01 0.03,-0.01 0.01,0 0.01,0 0.02,0 0.01,0 0.01,-0 0.02,0.02 0.01,0.02 0.03,0.07 0.03,0.07 0,0 0,0.01 0,0.02 -0,0.01 -0.01,0.02 -0.02,0.03 -0,0.01 -0.01,0.01 -0,0.02 0.01,0.01 0.03,0.04 0.05,0.07 0.04,0.03 0.07,0.04 0.08,0.05 0.01,0 0.02,0 0.02,-0 0.01,-0.01 0.02,-0.03 0.03,-0.04 0.01,-0.01 0.01,-0.01 0.02,-0 0.01,0 0.06,0.03 0.07,0.03 0.01,0 0.02,0.01 0.02,0.01 0,0 0,0.02 -0.01,0.05l0 0zm0 0z"/>
 </g>
</svg>
