<?xml version="1.0" encoding="UTF-8"?>
<!DOCTYPE svg PUBLIC "-//W3C//DTD SVG 1.1//EN" "http://www.w3.org/Graphics/SVG/1.1/DTD/svg11.dtd">
<!-- Creator: CorelDRAW 2019 (64 Bit) -->
<svg xmlns="http://www.w3.org/2000/svg" xml:space="preserve" width="4.2534mm" height="4.2313mm" version="1.1" style="shape-rendering:geometricPrecision; text-rendering:geometricPrecision; image-rendering:optimizeQuality; fill-rule:evenodd; clip-rule:evenodd"
viewBox="0 0 1.27 1.27"
 xmlns:xlink="http://www.w3.org/1999/xlink"
 xmlns:dc="http://purl.org/dc/elements/1.1/"
 xmlns:cc="http://web.resource.org/cc/"
 xmlns:rdf="http://www.w3.org/1999/02/22-rdf-syntax-ns#"
 xmlns:svg="http://www.w3.org/2000/svg"
 xmlns:sodipodi="http://sodipodi.sourceforge.net/DTD/sodipodi-0.dtd"
 xmlns:inkscape="http://www.inkscape.org/namespaces/inkscape"
 sodipodi:version="0.32"
 inkscape:version="0.45.1"
 sodipodi:docbase="/home/bene/Desktop"
 sodipodi:docname="dessin-1.svg"
 inkscape:output_extension="org.inkscape.output.svg.inkscape">
 <defs>
  <style type="text/css">
   <![CDATA[
    .fil0 {fill:url(#id0);fill-rule:nonzero}
    .fil1 {fill:url(#id1);fill-rule:nonzero}
   ]]>
  </style>
  <linearGradient id="id0" gradientUnits="userSpaceOnUse" x1="0.11" y1="0.11" x2="0.73" y2="0.72">
   <stop offset="0" style="stop-opacity:1; stop-color:#387EB8"/>
   <stop offset="1" style="stop-opacity:1; stop-color:#366994"/>
  </linearGradient>
  <linearGradient id="id1" gradientUnits="userSpaceOnUse" x1="0.53" y1="0.51" x2="1.18" y2="1.16">
   <stop offset="0" style="stop-opacity:1; stop-color:#FFE052"/>
   <stop offset="1" style="stop-opacity:1; stop-color:#FFC331"/>
  </linearGradient>
 </defs>
 <g id="Camada_x0020_1">
  <metadata id="CorelCorpID_0Corel-Layer"/>
  <g id="_1486824439280">
   <sodipodi:namedview id="base" pagecolor="#ffffff" bordercolor="#666666" borderopacity="1.0" inkscape:pageopacity="0.0" inkscape:pageshadow="2" inkscape:zoom="0.24748737" inkscape:cx="-260.46312" inkscape:cy="316.02744" inkscape:document-units="px" inkscape:current-layer="layer1" width="131.10236px" height="184.25197px" inkscape:window-width="872" inkscape:window-height="624" inkscape:window-x="5" inkscape:window-y="48"/>
   <g id="layer1" inkscape:label="Calque 1" inkscape:groupmode="layer">
    <g id="g1894">
     <path id="path8615" class="fil0" d="M0.63 0c-0.32,0 -0.3,0.14 -0.3,0.14l0 0.15 0.31 0 0 0.04 -0.43 0c0,0 -0.21,-0.02 -0.21,0.3 0,0.33 0.18,0.31 0.18,0.31l0.11 0 0 -0.15c0,0 -0.01,-0.18 0.18,-0.18 0.18,0 0.31,0 0.31,0 0,0 0.17,0 0.17,-0.17 0,-0.17 0,-0.28 0,-0.28 0,0 0.03,-0.17 -0.31,-0.17zm-0.17 0.1c0.03,0 0.06,0.02 0.06,0.06 0,0.03 -0.02,0.06 -0.06,0.06 -0.03,0 -0.06,-0.02 -0.06,-0.06 0,-0.03 0.02,-0.06 0.06,-0.06z"/>
     <path id="path8620" class="fil1" d="M0.64 1.27c0.32,0 0.3,-0.14 0.3,-0.14l-0 -0.15 -0.31 0 0 -0.04 0.43 0c0,0 0.21,0.02 0.21,-0.3 0,-0.33 -0.18,-0.31 -0.18,-0.31l-0.11 0 0 0.15c0,0 0.01,0.18 -0.18,0.18 -0.18,0 -0.31,0 -0.31,0 0,0 -0.17,-0 -0.17,0.17 0,0.17 0,0.28 0,0.28 0,0 -0.03,0.17 0.31,0.17zm0.17 -0.1c-0.03,0 -0.06,-0.02 -0.06,-0.06 0,-0.03 0.02,-0.06 0.06,-0.06 0.03,0 0.06,0.02 0.06,0.06 0,0.03 -0.02,0.06 -0.06,0.06z"/>
    </g>
   </g>
  </g>
 </g>
</svg>
