<?xml version="1.0" encoding="UTF-8"?>
<!DOCTYPE svg PUBLIC "-//W3C//DTD SVG 1.1//EN" "http://www.w3.org/Graphics/SVG/1.1/DTD/svg11.dtd">
<!-- Creator: CorelDRAW 2019 (64 Bit) -->
<svg xmlns="http://www.w3.org/2000/svg" xml:space="preserve" width="4.9999mm" height="4.7917mm" version="1.1" style="shape-rendering:geometricPrecision; text-rendering:geometricPrecision; image-rendering:optimizeQuality; fill-rule:evenodd; clip-rule:evenodd"
viewBox="0 0 1.32 1.27"
 xmlns:xlink="http://www.w3.org/1999/xlink">
 <defs>
  <style type="text/css">
   <![CDATA[
    .fil0 {fill:#FEFEFE}
   ]]>
  </style>
 </defs>
 <g id="Camada_x0020_1">
  <metadata id="CorelCorpID_0Corel-Layer"/>
  <path class="fil0" d="M0.66 0c-0.37,0 -0.66,0.29 -0.66,0.65 0,0.29 0.19,0.53 0.45,0.62 0.03,0.01 0.05,-0.01 0.05,-0.03 0,-0.02 -0,-0.06 -0,-0.11 -0.18,0.04 -0.22,-0.09 -0.22,-0.09 -0.03,-0.08 -0.07,-0.1 -0.07,-0.1 -0.06,-0.04 0,-0.04 0,-0.04 0.07,0 0.1,0.07 0.1,0.07 0.06,0.1 0.15,0.07 0.19,0.05 0.01,-0.04 0.02,-0.07 0.04,-0.09 -0.15,-0.02 -0.3,-0.07 -0.3,-0.32 0,-0.07 0.03,-0.13 0.07,-0.17 -0.01,-0.02 -0.03,-0.08 0.01,-0.17 0,0 0.06,-0.02 0.18,0.07 0.05,-0.01 0.11,-0.02 0.17,-0.02 0.06,0 0.11,0.01 0.17,0.02 0.13,-0.08 0.18,-0.07 0.18,-0.07 0.04,0.09 0.01,0.16 0.01,0.17 0.04,0.05 0.07,0.1 0.07,0.17 0,0.25 -0.15,0.3 -0.3,0.32 0.02,0.02 0.04,0.06 0.04,0.12 0,0.09 -0,0.16 -0,0.18 0,0.02 0.01,0.04 0.05,0.03 0.26,-0.09 0.45,-0.33 0.45,-0.62 0,-0.36 -0.3,-0.65 -0.66,-0.65l0 0z"/>
 </g>
</svg>
