<?xml version="1.0" encoding="UTF-8"?>
<!DOCTYPE svg PUBLIC "-//W3C//DTD SVG 1.1//EN" "http://www.w3.org/Graphics/SVG/1.1/DTD/svg11.dtd">
<!-- Creator: CorelDRAW 2019 (64 Bit) -->
<svg xmlns="http://www.w3.org/2000/svg" xml:space="preserve" width="4.3705mm" height="3.8921mm" version="1.1" style="shape-rendering:geometricPrecision; text-rendering:geometricPrecision; image-rendering:optimizeQuality; fill-rule:evenodd; clip-rule:evenodd"
viewBox="0 0 1.37 1.22"
 xmlns:xlink="http://www.w3.org/1999/xlink"
 enable-background="new 0 0 841.9 595.3">
 <defs>
  <style type="text/css">
   <![CDATA[
    .fil0 {fill:#61DAFB}
   ]]>
  </style>
 </defs>
 <g id="Camada_x0020_1">
  <metadata id="CorelCorpID_0Corel-Layer"/>
  <g id="_1486815953104">
   <g>
    <path class="fil0" d="M1.37 0.61c0,-0.09 -0.11,-0.18 -0.29,-0.23 0.04,-0.18 0.02,-0.32 -0.06,-0.36 -0.02,-0.01 -0.04,-0.02 -0.06,-0.02l0 0.06c0.01,0 0.02,0 0.03,0.01 0.04,0.02 0.05,0.1 0.04,0.21 -0,0.03 -0.01,0.05 -0.01,0.08 -0.05,-0.01 -0.11,-0.02 -0.18,-0.03 -0.04,-0.05 -0.08,-0.1 -0.12,-0.14 0.09,-0.08 0.18,-0.13 0.23,-0.13l0 -0.06c0,0 0,0 0,0 -0.08,0 -0.18,0.05 -0.28,0.15 -0.1,-0.09 -0.2,-0.15 -0.28,-0.15l0 0.06c0.06,0 0.14,0.05 0.23,0.13 -0.04,0.04 -0.08,0.09 -0.12,0.14 -0.06,0.01 -0.12,0.02 -0.18,0.03 -0.01,-0.03 -0.01,-0.06 -0.01,-0.08 -0.01,-0.11 0,-0.19 0.04,-0.21 0.01,-0.01 0.02,-0.01 0.03,-0.01l0 -0.06c0,0 0,0 0,0 -0.02,0 -0.04,0.01 -0.06,0.02 -0.08,0.05 -0.1,0.19 -0.06,0.36 -0.17,0.05 -0.29,0.14 -0.29,0.23 0,0.09 0.11,0.18 0.29,0.23 -0.04,0.18 -0.02,0.32 0.06,0.36 0.02,0.01 0.04,0.02 0.06,0.02 0.08,0 0.18,-0.05 0.28,-0.15 0.1,0.09 0.2,0.15 0.28,0.15 0.02,0 0.04,-0.01 0.06,-0.02 0.08,-0.05 0.1,-0.19 0.06,-0.36 0.17,-0.05 0.29,-0.14 0.29,-0.23zm-0.36 -0.19c-0.01,0.04 -0.02,0.07 -0.04,0.11 -0.01,-0.02 -0.02,-0.04 -0.04,-0.07 -0.01,-0.02 -0.03,-0.04 -0.04,-0.07 0.04,0.01 0.08,0.01 0.11,0.02zm-0.13 0.3c-0.02,0.04 -0.04,0.07 -0.07,0.11 -0.04,0 -0.08,0.01 -0.13,0.01 -0.04,0 -0.08,-0 -0.13,-0.01 -0.02,-0.03 -0.05,-0.07 -0.07,-0.11 -0.02,-0.04 -0.04,-0.07 -0.06,-0.11 0.02,-0.04 0.04,-0.07 0.06,-0.11 0.02,-0.04 0.04,-0.07 0.07,-0.11 0.04,-0 0.08,-0.01 0.13,-0.01 0.04,0 0.08,0 0.13,0.01 0.02,0.03 0.05,0.07 0.07,0.11 0.02,0.04 0.04,0.07 0.06,0.11 -0.02,0.04 -0.04,0.07 -0.06,0.11zm0.09 -0.04c0.02,0.04 0.03,0.07 0.04,0.11 -0.04,0.01 -0.08,0.02 -0.12,0.02 0.01,-0.02 0.03,-0.04 0.04,-0.07 0.01,-0.02 0.02,-0.04 0.04,-0.07zm-0.28 0.3c-0.03,-0.03 -0.05,-0.06 -0.08,-0.09 0.03,0 0.05,0 0.08,0 0.03,0 0.05,-0 0.08,-0 -0.03,0.03 -0.05,0.06 -0.08,0.09zm-0.21 -0.16c-0.04,-0.01 -0.08,-0.01 -0.11,-0.02 0.01,-0.04 0.02,-0.07 0.04,-0.11 0.01,0.02 0.02,0.04 0.04,0.07 0.01,0.02 0.03,0.04 0.04,0.07zm0.21 -0.58c0.03,0.03 0.05,0.06 0.08,0.09 -0.03,-0 -0.05,-0 -0.08,-0 -0.03,0 -0.05,0 -0.08,0 0.03,-0.03 0.05,-0.06 0.08,-0.09zm-0.21 0.16c-0.01,0.02 -0.03,0.04 -0.04,0.07 -0.01,0.02 -0.02,0.04 -0.04,0.07 -0.02,-0.04 -0.03,-0.07 -0.04,-0.11 0.04,-0.01 0.08,-0.02 0.12,-0.02zm-0.25 0.35c-0.1,-0.04 -0.16,-0.1 -0.16,-0.14 0,-0.04 0.06,-0.1 0.16,-0.14 0.02,-0.01 0.05,-0.02 0.08,-0.03 0.02,0.05 0.04,0.11 0.06,0.17 -0.03,0.06 -0.05,0.11 -0.06,0.17 -0.03,-0.01 -0.05,-0.02 -0.08,-0.03zm0.15 0.4c-0.04,-0.02 -0.05,-0.1 -0.04,-0.21 0,-0.03 0.01,-0.05 0.01,-0.08 0.05,0.01 0.11,0.02 0.18,0.03 0.04,0.05 0.08,0.1 0.12,0.14 -0.09,0.08 -0.18,0.13 -0.23,0.13 -0.01,-0 -0.02,-0 -0.03,-0.01zm0.66 -0.21c0.01,0.11 -0,0.19 -0.04,0.21 -0.01,0.01 -0.02,0.01 -0.03,0.01 -0.06,0 -0.14,-0.05 -0.23,-0.13 0.04,-0.04 0.08,-0.09 0.12,-0.14 0.06,-0.01 0.12,-0.02 0.18,-0.03 0.01,0.03 0.01,0.06 0.01,0.08zm0.11 -0.19c-0.02,0.01 -0.05,0.02 -0.08,0.03 -0.02,-0.05 -0.04,-0.11 -0.06,-0.17 0.03,-0.06 0.05,-0.11 0.06,-0.17 0.03,0.01 0.05,0.02 0.08,0.03 0.1,0.04 0.16,0.1 0.16,0.14 -0,0.04 -0.06,0.1 -0.16,0.14z"/>
    <polygon class="fil0" points="0.41,0 0.41,0 "/>
    <circle class="fil0" cx="0.68" cy="0.61" r="0.13"/>
    <polygon class="fil0" points="0.96,0 0.96,0 "/>
   </g>
  </g>
 </g>
</svg>
