<?xml version="1.0" encoding="UTF-8"?>
<!DOCTYPE svg PUBLIC "-//W3C//DTD SVG 1.1//EN" "http://www.w3.org/Graphics/SVG/1.1/DTD/svg11.dtd">
<!-- Creator: CorelDRAW 2019 (64 Bit) -->
<svg xmlns="http://www.w3.org/2000/svg" xml:space="preserve" width="4.9999mm" height="5mm" version="1.1" style="shape-rendering:geometricPrecision; text-rendering:geometricPrecision; image-rendering:optimizeQuality; fill-rule:evenodd; clip-rule:evenodd"
viewBox="0 0 1.28 1.28"
 xmlns:xlink="http://www.w3.org/1999/xlink">
 <defs>
  <style type="text/css">
   <![CDATA[
    .fil0 {fill:#FEFEFE}
   ]]>
  </style>
 </defs>
 <g id="Camada_x0020_1">
  <metadata id="CorelCorpID_0Corel-Layer"/>
  <path class="fil0" d="M0.76 0.64c0,0.07 -0.05,0.12 -0.12,0.12 -0.07,0 -0.12,-0.05 -0.12,-0.12 0,-0.07 0.05,-0.12 0.12,-0.12 0.07,0 0.12,0.05 0.12,0.12zm0 0z"/>
  <path class="fil0" d="M0.93 0.42c-0.01,-0.02 -0.02,-0.03 -0.03,-0.04 -0.01,-0.01 -0.03,-0.02 -0.04,-0.03 -0.01,-0.01 -0.03,-0.01 -0.07,-0.01 -0.04,-0 -0.05,-0 -0.15,-0 -0.1,0 -0.11,0 -0.15,0 -0.04,0 -0.06,0.01 -0.07,0.01 -0.02,0.01 -0.03,0.02 -0.04,0.03 -0.01,0.01 -0.02,0.03 -0.03,0.04 -0.01,0.01 -0.01,0.03 -0.01,0.07 -0,0.04 -0,0.05 -0,0.15 0,0.1 0,0.11 0,0.15 0,0.04 0.01,0.06 0.01,0.07 0.01,0.02 0.02,0.03 0.03,0.04 0.01,0.01 0.03,0.02 0.04,0.03 0.01,0.01 0.03,0.01 0.07,0.01 0.04,0 0.05,0 0.15,0 0.1,0 0.11,-0 0.15,-0 0.04,-0 0.06,-0.01 0.07,-0.01 0.03,-0.01 0.06,-0.04 0.07,-0.07 0.01,-0.01 0.01,-0.03 0.01,-0.07 0,-0.04 0,-0.05 0,-0.15 0,-0.1 -0,-0.11 -0,-0.15 -0,-0.04 -0.01,-0.06 -0.01,-0.07l0 0zm-0.29 0.41c-0.1,0 -0.19,-0.08 -0.19,-0.19 0,-0.1 0.08,-0.19 0.19,-0.19 0.1,0 0.19,0.08 0.19,0.19 0,0.1 -0.08,0.19 -0.19,0.19zm0.2 -0.34c-0.02,0 -0.04,-0.02 -0.04,-0.04 0,-0.02 0.02,-0.04 0.04,-0.04 0.02,0 0.04,0.02 0.04,0.04 0,0.02 -0.02,0.04 -0.04,0.04zm0 0z"/>
  <path class="fil0" d="M0.64 0c-0.35,0 -0.64,0.29 -0.64,0.64 0,0.35 0.29,0.64 0.64,0.64 0.35,0 0.64,-0.29 0.64,-0.64 0,-0.35 -0.29,-0.64 -0.64,-0.64zm0.37 0.79c-0,0.04 -0.01,0.07 -0.02,0.09 -0.02,0.05 -0.06,0.09 -0.11,0.11 -0.02,0.01 -0.05,0.02 -0.09,0.02 -0.04,0 -0.05,0 -0.15,0 -0.1,0 -0.11,-0 -0.15,-0 -0.04,-0 -0.07,-0.01 -0.09,-0.02 -0.02,-0.01 -0.05,-0.02 -0.07,-0.04 -0.02,-0.02 -0.03,-0.04 -0.04,-0.07 -0.01,-0.02 -0.02,-0.05 -0.02,-0.09 -0,-0.04 -0,-0.05 -0,-0.15 0,-0.1 0,-0.11 0,-0.15 0,-0.04 0.01,-0.07 0.02,-0.09 0.01,-0.02 0.02,-0.05 0.04,-0.07 0.02,-0.02 0.04,-0.03 0.07,-0.04 0.02,-0.01 0.05,-0.02 0.09,-0.02 0.04,-0 0.05,-0 0.15,-0 0.1,0 0.11,0 0.15,0 0.04,0 0.07,0.01 0.09,0.02 0.02,0.01 0.05,0.02 0.07,0.04 0.02,0.02 0.03,0.04 0.04,0.07 0.01,0.02 0.02,0.05 0.02,0.09 0,0.04 0,0.05 0,0.15 0,0.1 -0,0.11 -0,0.15zm0 0z"/>
 </g>
</svg>
