<?xml version="1.0" encoding="UTF-8"?>
<!DOCTYPE svg PUBLIC "-//W3C//DTD SVG 1.1//EN" "http://www.w3.org/Graphics/SVG/1.1/DTD/svg11.dtd">
<!-- Creator: CorelDRAW 2019 (64 Bit) -->
<svg xmlns="http://www.w3.org/2000/svg" xml:space="preserve" width="4.1104mm" height="4.1131mm" version="1.1" style="shape-rendering:geometricPrecision; text-rendering:geometricPrecision; image-rendering:optimizeQuality; fill-rule:evenodd; clip-rule:evenodd"
viewBox="0 0 1.24 1.24"
 xmlns:xlink="http://www.w3.org/1999/xlink">
 <defs>
  <style type="text/css">
   <![CDATA[
    .fil0 {fill:#02589B}
    .fil4 {fill:#085087}
    .fil1 {fill:#2AB6F6}
    .fil5 {fill:#3479AE}
    .fil2 {fill:#40C4FF}
    .fil3 {fill:#52C0F3}
   ]]>
  </style>
 </defs>
 <g id="Camada_x0020_1">
  <metadata id="CorelCorpID_0Corel-Layer"/>
  <g id="_1486664122496">
   <path class="fil0" d="M1.01 1.01c0,-0 0.19,0 0.22,-0l-0 -0.5c-0,-0.01 -0.22,-0.22 -0.24,-0.24 -0,-0 -0.01,-0.01 -0.02,-0.02 -0,0 -0.01,-0.01 -0.01,-0.01 -0.01,-0 -0.01,-0.01 -0.02,-0.01 -0.01,-0 -0.03,-0.01 -0.04,-0.01 -0.03,-0 -0.07,-0 -0.1,-0l-0.39 0c-0.03,0 -0.06,-0 -0.1,-0 -0,0 -0.09,-0 -0.09,0l0.79 0.79z"/>
   <path class="fil1" d="M0.25 0.98c0,0 0.03,0.03 0.04,0.04l0.73 -0 -0.01 -0.01 -0.79 -0.79 -0 0c-0,0.2 0,0.4 0,0.59 0,0.03 -0,0.07 0,0.1 0.01,0.05 0.02,0.06 0.03,0.07z"/>
   <path class="fil2" d="M1.02 1.24c0,-0.01 0,-0.21 0,-0.22l-0.73 0c0,0.01 0.19,0.19 0.21,0.22 0,0 0,0 0.01,0l0.45 -0c0.02,0 0.04,0 0.06,-0z"/>
   <path class="fil0" d="M0.23 0.97c-0,-0.01 -0.01,-0.01 -0.02,-0.03 -0.01,-0.03 -0.01,-0.11 -0.01,-0.14 0,-0.03 -0,-0.57 0,-0.58 -0,0 -0.1,0.2 -0.1,0.2 -0.03,0.07 -0.07,0.13 -0.1,0.2 -0.02,0.04 -0.02,0.07 -0,0.12 0.01,0.03 0.04,0.06 0.07,0.08l0.15 0.15c0,0 0,0 0.01,0z"/>
   <path class="fil2" d="M0.21 0.21l0.01 0c0,0 0.01,-0 0.01,-0l0.57 -0c0.01,0 0.07,-0 0.08,0 0.02,0 0.04,0 0.06,0.01 0,0 0.01,0.01 0.01,0.01 -0.02,-0.03 -0.05,-0.05 -0.07,-0.07 -0.03,-0.03 -0.05,-0.05 -0.07,-0.07 -0.01,-0.01 -0.02,-0.02 -0.04,-0.04 -0.01,-0.01 -0.02,-0.02 -0.04,-0.03 -0.02,-0.01 -0.03,-0.02 -0.06,-0.02 -0.02,0 -0.05,0 -0.06,0.01 -0.1,0.05 -0.2,0.1 -0.3,0.15 -0.03,0.02 -0.07,0.03 -0.1,0.05z"/>
   <path class="fil3" d="M0.21 0.21c-0,0.01 -0,0.55 -0,0.58 0,0.03 -0,0.11 0.01,0.14 0.01,0.02 0.01,0.02 0.02,0.03l0.02 0.02c-0,-0.01 -0.02,-0.02 -0.03,-0.07 -0,-0.03 -0,-0.07 -0,-0.1 0,-0.2 -0,-0.4 -0,-0.59 -0,-0 -0,-0 -0,-0 -0,-0 -0,-0 -0,-0.01l0.67 0c-0.01,-0 -0.07,-0 -0.08,-0l-0.57 0c-0,0 -0.01,0 -0.01,0l-0.01 -0 -0 0z"/>
   <path class="fil4" d="M1.01 1.01l0.01 0.01c0,0.01 0,0.21 -0,0.22 0,-0 0,-0 0,-0.01l0 -0.21 0.22 0 0 -0.49c0,-0.01 0,-0.02 -0.01,-0.02l0 0.5c-0.03,0 -0.21,-0 -0.22,0z"/>
   <path class="fil5" d="M0.22 0.22l0 0c0,-0 0.09,-0 0.09,-0 0.03,0 0.06,0 0.1,0l0.39 0c0.03,0 0.07,-0 0.1,0 0.01,0 0.03,0 0.04,0.01 0.01,0 0.01,0 0.02,0.01 0,0 0.01,0.01 0.01,0.01l-0.01 -0.01c-0,0 -0.01,-0.01 -0.01,-0.01 -0.02,-0.01 -0.04,-0.01 -0.06,-0.01l-0.67 -0c0,0 0,0 0,0.01 0,0 0,0 0,0z"/>
  </g>
 </g>
</svg>
