<svg xmlns="http://www.w3.org/2000/svg" xml:space="preserve" width="122.422" height="114.145" style="shape-rendering:geometricPrecision;text-rendering:geometricPrecision;image-rendering:optimizeQuality;fill-rule:evenodd;clip-rule:evenodd" viewBox="0 0 66.87 62.34">
    <defs>
        <linearGradient id="id0" gradientUnits="userSpaceOnUse" x1="13.95" y1="52.7" x2="58.08" y2="4.16">
            <stop offset="0" style="stop-opacity:0;stop-color:#d2deff" />
            <stop offset=".69" style="stop-opacity:1;stop-color:#3f79bc" />
            <stop offset="1" style="stop-opacity:1;stop-color:#3f79bc" />
        </linearGradient>
    </defs>
    <g id="Camada_x0020_1">
        <g id="_1486710657824">
            <path d="M.64 37.83c2.28 22.58 38.19 21.83 54.96 17.8 10.77-2.59 11.44-7.77 11.25-18.81-.08-4.65.14-14.31-1-22.1-.6-4.13-1.58-7.73-3.18-9.78-7.11-9.11-13.48-3.4-22.29-.42-11.29 3.81-15.7-2.99-26.44-2.79C-1.82 2.03-.53 26.18.65 37.84z" style="fill:url(#id0)" />
            <path d="M45.74 62.34H21.13a3.92 3.92 0 0 1-3.92-3.92V8.7a3.92 3.92 0 0 1 3.92-3.92h24.61a3.92 3.92 0 0 1 3.92 3.92v49.72a3.92 3.92 0 0 1-3.92 3.92z" style="fill:#2626bc;fill-opacity:.101961" />
            <path style="fill:#3f79bc;" d="M45.74 59.21H21.13a3.92 3.92 0 0 1-3.92-3.92V5.58a3.92 3.92 0 0 1 3.92-3.92h24.61a3.92 3.92 0 0 1 3.92 3.92v49.71a3.92 3.92 0 0 1-3.92 3.92z" />
            <path style="fill:#fff;" d="M17.21 7.26h32.45v46.35H17.21z" />
            <path style="fill:#97ffd2" d="M17.21 38.2h32.45v15.41H17.21z" />
            <path d="M45.74 59.86H21.13c-2.52 0-4.57-2.05-4.57-4.57V5.58c0-2.52 2.05-4.57 4.57-4.57h24.61c2.52 0 4.57 2.05 4.57 4.57v49.71c0 2.52-2.05 4.57-4.57 4.57zM21.13 2.31a3.26 3.26 0 0 0-3.26 3.26v49.72c0 1.8 1.46 3.26 3.26 3.26h24.61c1.8 0 3.26-1.46 3.26-3.26V5.58c0-1.8-1.46-3.26-3.26-3.26H21.13z" style="fill:#2e395f" />
            <path style="fill:#ecf2fa;" d="M35.72 5.23h-4.57c-.36 0-.65-.29-.65-.65 0-.36.29-.65.65-.65h4.57c.36 0 .65.29.65.65 0 .36-.29.65-.65.65z" />
            <circle style="fill:#ecf2fa;" cx="38.76" cy="4.58" r=".65" />
            <path style="fill:#ecf2fa;" d="M44.29 19.04H22.58c-.36 0-.65-.29-.65-.65v-2c0-.36.29-.65.65-.65h21.71c.36 0 .65.29.65.65v2c0 .36-.29.65-.65.65z" />
            <circle style="fill:#01eca5;" cx="42.41" cy="12.02" r="2.17" />
            <path style="fill:#3f79bc;" d="M28.8 11.37h-6.23c-.36 0-.65.29-.65.65 0 .36.29.65.65.65h6.23c.36 0 .65-.29.65-.65 0-.36-.29-.65-.65-.65z" />
            <circle style="fill:#3f79bc;" cx="23.39" cy="23.2" r="2.17" />
            <circle style="fill:#ecf2fa;" cx="30.09" cy="23.2" r="2.17" />
            <circle style="fill:#ecf2fa;" cx="36.78" cy="23.2" r="2.17" />
            <circle style="fill:#ecf2fa;" cx="43.47" cy="23.2" r="2.17" />
            <path style="fill:#01eca5;" d="M45.64 28.77v18.86c0 .72-.59 1.31-1.31 1.31H22.52c-.72 0-1.31-.58-1.31-1.31V28.77c0-.72.59-1.31 1.31-1.31h21.81c.72 0 1.31.59 1.31 1.31z" />
            <path d="M40.25 50.92H26.61c-.72 0-1.31-.58-1.31-1.31v-1.36c0-.72.58-1.31 1.31-1.31h13.64c.72 0 1.31.58 1.31 1.31v1.36c0 .72-.58 1.31-1.31 1.31z" style="fill:#dcfdee" />
            <path d="M33.81 27.47c-.36 6.64-5.86 11.91-12.59 11.91v-10.6c0-.72.59-1.31 1.31-1.31h11.28z" style="fill:#02ffb3" />
            <path style="fill:#fff;" d="M40.27 35.72H26.6c-.36 0-.65.29-.65.65 0 .36.29.65.65.65h13.67c.36 0 .65-.29.65-.65 0-.36-.29-.65-.65-.65zM37.13 33.18H26.59c-.36 0-.65.29-.65.65 0 .36.29.65.65.65h10.54c.36 0 .65-.29.65-.65 0-.36-.29-.65-.65-.65z" />
            <path style="fill:#3f79bc;" d="M28.12 30.13h-1.53c-.36 0-.65.29-.65.65 0 .36.29.65.65.65h1.53c.36 0 .65-.29.65-.65 0-.36-.29-.65-.65-.65z" />
            <path style="fill:#fff;" d="M40.27 42.8H26.6c-.36 0-.65.29-.65.65 0 .36.29.65.65.65h13.67c.36 0 .65-.29.65-.65 0-.36-.29-.65-.65-.65zM37.13 40.26H26.59c-.36 0-.65.29-.65.65 0 .36.29.65.65.65h10.54c.36 0 .65-.29.65-.65 0-.36-.29-.65-.65-.65z" />
            <path style="fill:#01eca5;" d="M11.17 42.25c-1.03 0-1.87-.84-1.87-1.87 0-1.03.84-1.87 1.87-1.87 1.03 0 1.87.84 1.87 1.87 0 1.03-.84 1.87-1.87 1.87zm0-2.43a.56.56 0 1 0 0 1.12.56.56 0 1 0 0-1.12z" />
            <path style="fill:#ff5ba8;" d="M9.96 15.3c-1.03 0-1.87-.84-1.87-1.87 0-1.03.84-1.87 1.87-1.87 1.03 0 1.87.84 1.87 1.87 0 1.03-.84 1.87-1.87 1.87zm0-2.43a.56.56 0 1 0 0 1.12.56.56 0 1 0 0-1.12z" />
            <path style="fill:#01eca5;" d="M55.89 17.58c-.36 0-.65-.29-.65-.65 0-.43-.35-.78-.78-.78-.36 0-.65-.29-.65-.65 0-.36.29-.65.65-.65.43 0 .78-.35.78-.78 0-.36.29-.65.65-.65.36 0 .65.29.65.65 0 .43.35.78.78.78.36 0 .65.29.65.65 0 .36-.29.65-.65.65-.43 0-.78.35-.78.78 0 .36-.29.65-.65.65z" />
            <path style="fill:#ff5ba8;" d="M55.67 50.68c-.36 0-.65-.29-.65-.65 0-.43-.35-.78-.78-.78-.36 0-.65-.29-.65-.65 0-.36.29-.65.65-.65.43 0 .78-.35.78-.78 0-.36.29-.65.65-.65.36 0 .65.29.65.65 0 .43.35.78.78.78.36 0 .65.29.65.65 0 .36-.29.65-.65.65-.43 0-.78.35-.78.78 0 .36-.29.65-.65.65z" />
            <path style="fill:#3f79bc;" d="M12.61 48.26c-.36 0-.65-.29-.65-.65 0-.43-.35-.78-.78-.78-.36 0-.65-.29-.65-.65 0-.36.29-.65.65-.65.43 0 .78-.35.78-.78 0-.36.29-.65.65-.65.36 0 .65.29.65.65 0 .43.35.78.78.78.36 0 .65.29.65.65 0 .36-.29.65-.65.65-.43 0-.78.35-.78.78 0 .36-.29.65-.65.65z" />
        </g>
    </g>
</svg>