<?xml version="1.0" encoding="UTF-8"?>
<!DOCTYPE svg PUBLIC "-//W3C//DTD SVG 1.1//EN" "http://www.w3.org/Graphics/SVG/1.1/DTD/svg11.dtd">
<!-- Creator: CorelDRAW 2019 (64 Bit) -->
<svg xmlns="http://www.w3.org/2000/svg" xml:space="preserve" width="32.3909mm" height="30.2008mm" version="1.1" style="shape-rendering:geometricPrecision; text-rendering:geometricPrecision; image-rendering:optimizeQuality; fill-rule:evenodd; clip-rule:evenodd"
viewBox="0 0 66.87 62.34"
 xmlns:xlink="http://www.w3.org/1999/xlink">
 <defs>
  <style type="text/css">
   <![CDATA[
    .fil6 {fill:#ECF2FA}
    .fil2 {fill:#3F79BC}
    .fil5 {fill:#2E395F}
    .fil7 {fill:#01ECA5}
    .fil9 {fill:#02FFB3}
    .fil4 {fill:#97FFD2}
    .fil8 {fill:#DCFDEE}
    .fil10 {fill:#FF5BA8}
    .fil3 {fill:white}
    .fil1 {fill:#2626BC;fill-opacity:0.101961}
    .fil0 {fill:url(#id0)}
   ]]>
  </style>
  <linearGradient id="id0" gradientUnits="userSpaceOnUse" x1="13.95" y1="52.7" x2="58.08" y2="4.16">
   <stop offset="0" style="stop-opacity:0; stop-color:#D2DEFF"/>
   <stop offset="0.690196" style="stop-opacity:1; stop-color:#3F79BC"/>
   <stop offset="1" style="stop-opacity:1; stop-color:#3F79BC"/>
  </linearGradient>
 </defs>
 <g id="Camada_x0020_1">
  <metadata id="CorelCorpID_0Corel-Layer"/>
  <g id="_1486710657824">
   <path class="fil0" d="M0.64 37.83c2.28,22.58 38.19,21.83 54.96,17.8 10.77,-2.59 11.44,-7.77 11.25,-18.81 -0.08,-4.65 0.14,-14.31 -1,-22.1 -0.6,-4.13 -1.58,-7.73 -3.18,-9.78 -7.11,-9.11 -13.48,-3.4 -22.29,-0.42 -11.29,3.81 -15.7,-2.99 -26.44,-2.79 -15.76,0.3 -14.47,24.45 -13.29,36.11l0 0z"/>
   <path class="fil1" d="M45.74 62.34l-24.61 0c-2.16,0 -3.92,-1.75 -3.92,-3.92l0 -49.72c0,-2.16 1.75,-3.92 3.92,-3.92l24.61 0c2.16,0 3.92,1.75 3.92,3.92l0 49.72c0,2.16 -1.75,3.92 -3.92,3.92z"/>
   <path class="fil2" d="M45.74 59.21l-24.61 0c-2.16,0 -3.92,-1.75 -3.92,-3.92l0 -49.71c0,-2.16 1.75,-3.92 3.92,-3.92l24.61 0c2.16,0 3.92,1.75 3.92,3.92l0 49.71c0,2.16 -1.75,3.92 -3.92,3.92z"/>
   <polygon class="fil3" points="17.21,7.26 49.66,7.26 49.66,53.61 17.21,53.61 "/>
   <polygon class="fil4" points="17.21,38.2 49.66,38.2 49.66,53.61 17.21,53.61 "/>
   <path class="fil5" d="M45.74 59.86l-24.61 0c-2.52,0 -4.57,-2.05 -4.57,-4.57l0 -49.71c0,-2.52 2.05,-4.57 4.57,-4.57l24.61 0c2.52,0 4.57,2.05 4.57,4.57l0 49.71c0,2.52 -2.05,4.57 -4.57,4.57zm-24.61 -57.55c-1.8,0 -3.26,1.46 -3.26,3.26l0 49.72c0,1.8 1.46,3.26 3.26,3.26l24.61 -0c1.8,0 3.26,-1.46 3.26,-3.26l0 -49.71c0,-1.8 -1.46,-3.26 -3.26,-3.26l-24.61 0z"/>
   <path class="fil6" d="M35.72 5.23l-4.57 0c-0.36,0 -0.65,-0.29 -0.65,-0.65 0,-0.36 0.29,-0.65 0.65,-0.65l4.57 0c0.36,0 0.65,0.29 0.65,0.65 0,0.36 -0.29,0.65 -0.65,0.65z"/>
   <circle class="fil6" cx="38.76" cy="4.58" r="0.65"/>
   <path class="fil6" d="M44.29 19.04l-21.71 0c-0.36,0 -0.65,-0.29 -0.65,-0.65l0 -2c0,-0.36 0.29,-0.65 0.65,-0.65l21.71 0c0.36,0 0.65,0.29 0.65,0.65l0 2c0,0.36 -0.29,0.65 -0.65,0.65z"/>
   <circle class="fil7" cx="42.41" cy="12.02" r="2.17"/>
   <path class="fil2" d="M28.8 11.37l-6.23 0c-0.36,0 -0.65,0.29 -0.65,0.65 0,0.36 0.29,0.65 0.65,0.65l6.23 0c0.36,0 0.65,-0.29 0.65,-0.65 0,-0.36 -0.29,-0.65 -0.65,-0.65l0 -0z"/>
   <circle class="fil2" cx="23.39" cy="23.2" r="2.17"/>
   <circle class="fil6" cx="30.09" cy="23.2" r="2.17"/>
   <circle class="fil6" cx="36.78" cy="23.2" r="2.17"/>
   <circle class="fil6" cx="43.47" cy="23.2" r="2.17"/>
   <path class="fil7" d="M45.64 28.77l0 18.86c0,0.72 -0.59,1.31 -1.31,1.31l-21.81 0c-0.72,0 -1.31,-0.58 -1.31,-1.31l0 -18.86c0,-0.72 0.59,-1.31 1.31,-1.31l21.81 0c0.72,0 1.31,0.59 1.31,1.31z"/>
   <path class="fil8" d="M40.25 50.92l-13.64 0c-0.72,0 -1.31,-0.58 -1.31,-1.31l0 -1.36c0,-0.72 0.58,-1.31 1.31,-1.31l13.64 0c0.72,0 1.31,0.58 1.31,1.31l0 1.36c0,0.72 -0.58,1.31 -1.31,1.31l0 0z"/>
   <path class="fil9" d="M33.81 27.47c-0.36,6.64 -5.86,11.91 -12.59,11.91l0 -10.6c0,-0.72 0.59,-1.31 1.31,-1.31l11.28 0z"/>
   <path class="fil3" d="M40.27 35.72l-13.67 0c-0.36,0 -0.65,0.29 -0.65,0.65 0,0.36 0.29,0.65 0.65,0.65l13.67 0c0.36,0 0.65,-0.29 0.65,-0.65 0,-0.36 -0.29,-0.65 -0.65,-0.65z"/>
   <path class="fil3" d="M37.13 33.18l-10.54 0c-0.36,0 -0.65,0.29 -0.65,0.65 0,0.36 0.29,0.65 0.65,0.65l10.54 0c0.36,0 0.65,-0.29 0.65,-0.65 0,-0.36 -0.29,-0.65 -0.65,-0.65z"/>
   <path class="fil2" d="M28.12 30.13l-1.53 0c-0.36,0 -0.65,0.29 -0.65,0.65 0,0.36 0.29,0.65 0.65,0.65l1.53 0c0.36,0 0.65,-0.29 0.65,-0.65 0,-0.36 -0.29,-0.65 -0.65,-0.65l0 0z"/>
   <path class="fil3" d="M40.27 42.8l-13.67 0c-0.36,0 -0.65,0.29 -0.65,0.65 0,0.36 0.29,0.65 0.65,0.65l13.67 0c0.36,0 0.65,-0.29 0.65,-0.65 0,-0.36 -0.29,-0.65 -0.65,-0.65z"/>
   <path class="fil3" d="M37.13 40.26l-10.54 0c-0.36,0 -0.65,0.29 -0.65,0.65 0,0.36 0.29,0.65 0.65,0.65l10.54 0c0.36,0 0.65,-0.29 0.65,-0.65 0,-0.36 -0.29,-0.65 -0.65,-0.65z"/>
   <path class="fil7" d="M11.17 42.25c-1.03,0 -1.87,-0.84 -1.87,-1.87 0,-1.03 0.84,-1.87 1.87,-1.87 1.03,0 1.87,0.84 1.87,1.87 0,1.03 -0.84,1.87 -1.87,1.87zm0 -2.43c-0.31,0 -0.56,0.25 -0.56,0.56 0,0.31 0.25,0.56 0.56,0.56 0.31,0 0.56,-0.25 0.56,-0.56 0,-0.31 -0.25,-0.56 -0.56,-0.56z"/>
   <path class="fil10" d="M9.96 15.3c-1.03,0 -1.87,-0.84 -1.87,-1.87 0,-1.03 0.84,-1.87 1.87,-1.87 1.03,0 1.87,0.84 1.87,1.87 0,1.03 -0.84,1.87 -1.87,1.87zm0 -2.43c-0.31,0 -0.56,0.25 -0.56,0.56 0,0.31 0.25,0.56 0.56,0.56 0.31,0 0.56,-0.25 0.56,-0.56 0,-0.31 -0.25,-0.56 -0.56,-0.56z"/>
   <path class="fil7" d="M55.89 17.58c-0.36,0 -0.65,-0.29 -0.65,-0.65 0,-0.43 -0.35,-0.78 -0.78,-0.78 -0.36,0 -0.65,-0.29 -0.65,-0.65 0,-0.36 0.29,-0.65 0.65,-0.65 0.43,0 0.78,-0.35 0.78,-0.78 0,-0.36 0.29,-0.65 0.65,-0.65 0.36,0 0.65,0.29 0.65,0.65 0,0.43 0.35,0.78 0.78,0.78 0.36,0 0.65,0.29 0.65,0.65 0,0.36 -0.29,0.65 -0.65,0.65 -0.43,0 -0.78,0.35 -0.78,0.78 0,0.36 -0.29,0.65 -0.65,0.65z"/>
   <path class="fil10" d="M55.67 50.68c-0.36,0 -0.65,-0.29 -0.65,-0.65 0,-0.43 -0.35,-0.78 -0.78,-0.78 -0.36,0 -0.65,-0.29 -0.65,-0.65 0,-0.36 0.29,-0.65 0.65,-0.65 0.43,0 0.78,-0.35 0.78,-0.78 0,-0.36 0.29,-0.65 0.65,-0.65 0.36,0 0.65,0.29 0.65,0.65 0,0.43 0.35,0.78 0.78,0.78 0.36,0 0.65,0.29 0.65,0.65 0,0.36 -0.29,0.65 -0.65,0.65 -0.43,0 -0.78,0.35 -0.78,0.78 0,0.36 -0.29,0.65 -0.65,0.65z"/>
   <path class="fil2" d="M12.61 48.26c-0.36,0 -0.65,-0.29 -0.65,-0.65 0,-0.43 -0.35,-0.78 -0.78,-0.78 -0.36,0 -0.65,-0.29 -0.65,-0.65 0,-0.36 0.29,-0.65 0.65,-0.65 0.43,0 0.78,-0.35 0.78,-0.78 0,-0.36 0.29,-0.65 0.65,-0.65 0.36,0 0.65,0.29 0.65,0.65 0,0.43 0.35,0.78 0.78,0.78 0.36,0 0.65,0.29 0.65,0.65 0,0.36 -0.29,0.65 -0.65,0.65 -0.43,0 -0.78,0.35 -0.78,0.78 0,0.36 -0.29,0.65 -0.65,0.65z"/>
  </g>
 </g>
</svg>
